<svg id="Fairstone" xmlns="http://www.w3.org/2000/svg" viewBox="0 0 299.82 72.9"><defs><style>.cls-1{fill:#52356e;}.cls-2{fill:#ff6754;}</style></defs><title>Fairstone_TM_Eng_Logo_RGB</title><g id="Fairstone-2" data-name="Fairstone"><g id="Logotype"><path class="cls-1" d="M101.6,57.61h16.91V50.4H94.68a1.08,1.08,0,0,0-1.08,1.08V93.6h8V74.4h13.7V67.13H101.6V57.61Z" transform="translate(-21.6 -21.6)"/><path class="cls-1" d="M130.35,64a24.51,24.51,0,0,0-10.76,2.42l2.14,5.19a20.74,20.74,0,0,1,8-1.69c3.95,0,5.69,1.63,5.69,4V76.8c-1.63-1.24-5.24-1.92-7.21-1.92-5.41,0-11.72,2.48-11.72,9.07,0,5.58,4.06,10.48,12.91,10.48,6.65,0,10.88-1.8,13.08-3.55V75.62C142.47,68.52,139.93,64,130.35,64Zm5.07,23.84A11.4,11.4,0,0,1,130,89c-3.61,0-5.86-1.92-5.86-4.9,0-2.54,2.54-3.94,5.35-3.94a10.07,10.07,0,0,1,6,2.08v5.58Z" transform="translate(-21.6 -21.6)"/><path class="cls-1" d="M151.21,50.4A4.62,4.62,0,1,0,155.83,55,4.38,4.38,0,0,0,151.21,50.4Z" transform="translate(-21.6 -21.6)"/><rect class="cls-1" x="125.94" y="43.2" width="7.38" height="28.8"/><path class="cls-1" d="M173.92,64c-3.38,0-5.64,3.89-6.31,5.35V64.8h-7.33V93.6h7.33V77.71c0-2.87,1.75-6.82,5-6.82a6.68,6.68,0,0,1,3.94,1.47l2.54-6.93A9.37,9.37,0,0,0,173.92,64Z" transform="translate(-21.6 -21.6)"/><path class="cls-1" d="M187.57,72c0-1.63,1.63-2.59,3.55-2.59,2.76,0,5.41,2.2,5.92,2.76l2.65-5.07a15.45,15.45,0,0,0-9.86-3.27c-6.09,0-10,4.11-10,8.57,0,7.55,12.4,9.47,12.4,13.3,0,2.54-2,3.27-3.78,3.27a13.29,13.29,0,0,1-7.95-3.44l-2.71,5.3a18.64,18.64,0,0,0,11.16,3.66c6.59,0,10.82-3.49,10.82-9.07C199.75,77.31,187.57,76.41,187.57,72Z" transform="translate(-21.6 -21.6)"/><polygon class="cls-1" points="192.46 33.6 185.08 33.6 185.08 43.2 179.61 43.2 179.61 49.06 185.08 49.06 185.08 72 192.46 72 192.46 49.06 199.56 49.06 199.56 43.2 192.46 43.2 192.46 33.6"/><path class="cls-1" d="M237.14,64c-9,0-15.78,6.82-15.78,15.33A15.61,15.61,0,1,0,237.14,64ZM236.91,88.7c-4.06,0-7.83-3.89-7.83-9.24,0-5.64,3.44-9.52,8.06-9.52,4.17,0,7.67,3.89,7.67,9.36C244.8,84.92,241.65,88.7,236.91,88.7Z" transform="translate(-21.6 -21.6)"/><path class="cls-1" d="M271.93,64a13.68,13.68,0,0,0-9.13,3.78V64.8h-7.38V93.6h7.38v-20a8.87,8.87,0,0,1,6.14-3.21c4.45,0,5.07,3,5.07,7.78V93.6h7.38V74.32C281.4,67.11,278.08,64,271.93,64Z" transform="translate(-21.6 -21.6)"/><path class="cls-1" d="M299.55,64c-9,0-15.39,6.54-15.39,15.33,0,9.24,6.43,15.16,15.95,15.16,6.43,0,10.82-2.25,12.34-3.55l-2.14-5.13a13.2,13.2,0,0,1-8.57,2.82c-4.51,0-9.36-1.24-10.14-6.59h21.92V79.17C313.53,71.06,308.91,64,299.55,64ZM291.6,76.47c0.84-4.23,3.78-6.76,8-6.76,4,0,6.48,3.1,6.54,6.76H291.6Z" transform="translate(-21.6 -21.6)"/><polygon class="cls-1" points="290.41 43.93 291.93 43.93 291.93 48 292.77 48 292.77 43.93 294.29 43.93 294.29 43.2 290.41 43.2 290.41 43.93"/><polygon class="cls-1" points="298.65 43.2 297.36 46.96 297.35 46.96 296.02 43.2 294.84 43.2 294.84 48 295.64 48 295.64 44.3 295.65 44.3 296.98 48 297.67 48 299.01 44.3 299.02 44.3 299.02 48 299.82 48 299.82 43.2 298.65 43.2"/></g><g id="Logosymbol"><path class="cls-2" d="M55.29,42l7.65,7.65a1.07,1.07,0,0,1,0,1.52l-7.65,7.65a1.07,1.07,0,0,0,0,1.52l6.46,6.46a1.07,1.07,0,0,0,1.52,0L78.88,51.16a1.07,1.07,0,0,0,0-1.52L63.26,34a1.07,1.07,0,0,0-1.52,0l-6.46,6.46A1.07,1.07,0,0,0,55.29,42Z" transform="translate(-21.6 -21.6)"/><path class="cls-1" d="M21.91,51.16L49.64,78.88a1.07,1.07,0,0,0,1.52,0l8.18-8.18a1.07,1.07,0,0,0,0-1.52l-8.86-8.86a1.07,1.07,0,0,1,0-1.52l7.65-7.65a1.07,1.07,0,0,0,0-1.52L50.48,42a1.07,1.07,0,0,1,0-1.52l8.86-8.86a1.07,1.07,0,0,0,0-1.52l-8.18-8.18a1.07,1.07,0,0,0-1.52,0L21.91,49.64A1.07,1.07,0,0,0,21.91,51.16Z" transform="translate(-21.6 -21.6)"/></g></g></svg>