<?xml version="1.0" encoding="utf-8"?>
<!-- Generator: Adobe Illustrator 17.0.0, SVG Export Plug-In . SVG Version: 6.00 Build 0)  -->
<!DOCTYPE svg PUBLIC "-//W3C//DTD SVG 1.1//EN" "http://www.w3.org/Graphics/SVG/1.1/DTD/svg11.dtd">
<svg version="1.1" id="Calque_1" xmlns="http://www.w3.org/2000/svg" xmlns:xlink="http://www.w3.org/1999/xlink" x="0px" y="0px"
	 width="300px" height="60.651px" viewBox="0 0 300 60.651" enable-background="new 0 0 300 60.651" xml:space="preserve">
<g>
	<g>
		<path d="M298.619,33.237c-0.145-0.044-0.334-0.055-0.525,0.033c-0.194,0.087-0.322,0.283-0.366,0.442
			c-0.041,0.134-0.041,0.257-0.038,0.38c0.009,0.377,0.067,1.01-0.104,1.613c-0.136,0.454-0.371,0.845-0.9,1.119
			c-0.621,0.3-1.39,0.312-2.238,0.065c-2.931-0.789-6.387-4.817-6.35-7.284c0.014-0.644,0.104-1.268,0.22-1.899
			c1.878-0.959,6.916-3.892,8.018-6.528c0.075-0.177,0.139-0.363,0.192-0.543c0.203-0.699,0.197-1.373-0.073-1.95
			c-0.258-0.575-0.795-1-1.474-1.194c-0.583-0.164-1.28-0.178-2.09-0.033c-3.131,0.592-4.977,4.135-6.036,6.768
			c-1.039-2.505-3.279-4.222-5.404-4.842c-0.11-0.028-0.209-0.057-0.319-0.08c-2.667-0.633-4.945,0.801-6.248,1.956
			c-1.738,1.521-2.243,2.914-3.546,5.135c-0.018,0.039-1.168,2.494-1.431,3.06c-1.402,2.944-3.227,6.858-5.926,7.568l-0.303,0.057
			c-0.18,0.029-0.388,0.045-0.596,0.062c-0.16,0.001-0.319-0.009-0.486-0.035c-0.078-0.015-0.161-0.029-0.245-0.055
			c-0.104-0.032-0.218-0.075-0.335-0.116c-0.37-0.136-0.711-0.325-1.014-0.575c-0.29-0.202-0.508-0.49-0.717-0.798
			c-0.183-0.29-0.238-0.424-0.311-0.783l-0.058-13.881c0.041-0.528-0.276-1.103-0.798-1.229c-0.113-0.032-0.229-0.054-0.354-0.052
			c-0.535-0.022-1.107,0.308-1.231,0.853c-0.042,0.138-0.065,0.283-0.059,0.44l0.042,7.537c0.003,0.02-0.009,0.093-0.038,0.192
			c-0.199,0.755-1.307,2.307-1.924,3.041c-0.464,0.54-0.948,1.106-1.505,1.634c-1.042,1.068-2.146,2.011-3.308,2.763
			c-1.18,0.801-2.062,1.146-2.834,1.146c-0.221,0.006-0.47-0.02-0.727-0.099c-0.158-0.048-0.324-0.11-0.48-0.183
			c-0.411-0.17-0.772-0.415-1.143-0.76c-0.351-0.312-0.607-0.688-0.836-1.155c-0.196-0.412-0.334-1.146-0.34-1.708l-0.047-12.466
			h0.003c0.041-0.528-0.276-1.103-0.798-1.229c-0.113-0.032-0.229-0.054-0.354-0.052c-0.535-0.022-1.107,0.308-1.23,0.853
			c-0.009,0.028-0.006,0.058-0.012,0.086h-0.006c-0.029,0.096-0.054,0.204-0.055,0.329l0.041,9.335
			c-0.43,0.789-0.884,1.576-1.373,2.353c-0.569,0.904-1.199,1.704-1.947,2.406c-0.726,0.708-1.574,1.294-2.548,1.724
			c-0.955,0.456-2.052,0.676-3.3,0.685c-0.894-0.009-1.669-0.1-2.307-0.284c-0.197-0.055-0.382-0.118-0.557-0.197
			c-0.778-0.314-1.348-0.729-1.804-1.263c-0.441-0.53-0.776-1.152-0.991-1.808c-0.197-0.678-0.325-1.344-0.371-2.029l0.308,0.003
			c1.93-0.012,3.839-0.325,5.755-1.075c1.242-0.483,2.322-1.18,3.163-2.033c0.534-0.536,0.926-1.187,1.145-1.953
			c0.148-0.502,0.222-1.052,0.225-1.654c-0.012-1.303-0.534-2.455-1.393-3.349c-0.482-0.499-1.127-1.078-2.123-1.367
			c-0.653-0.183-1.447-0.242-2.43-0.116c-0.058,0.009-1.614,0.286-3.127,1.486c-0.889,0.709-1.571,1.638-2.187,2.615
			c-0.582,0.949-1.026,1.983-1.338,3.067l-0.058,0.192c-0.248,0.923-0.361,1.773-0.411,2.589c-0.022,0.039-0.051,0.087-0.074,0.113
			c-0.122,0.148-0.238,0.302-0.34,0.473c-0.525,0.846-1.03,1.619-1.557,2.477c-0.527,0.805-1.062,1.548-1.609,2.175
			c-0.554,0.63-1.123,1.119-1.77,1.474c-0.633,0.345-1.277,0.525-2.02,0.528c-0.299-0.006-0.569-0.042-0.81-0.107
			c-0.361-0.104-0.652-0.279-0.856-0.473c-0.38-0.377-0.647-0.83-0.908-1.487c-0.215-0.59-0.322-1.277-0.43-2.071
			c-0.081-0.979-0.081-2.741-0.081-2.769l-0.035-29.224c0.001-0.325-0.128-0.605-0.263-0.81c-0.17-0.237-0.387-0.351-0.588-0.409
			c-0.139-0.038-0.28-0.059-0.425-0.058c-0.354,0.009-0.686,0.177-0.881,0.432c-0.107,0.154-0.18,0.299-0.223,0.45
			c-0.036,0.136-0.052,0.271-0.052,0.406l-0.039,19.537c-1.235,0.07-2.694,0.247-4.36,0.516c-1.892,0.334-3.732,0.859-5.533,1.608
			c-1.798,0.74-3.262,1.715-4.488,3.017c-1.094,1.164-1.686,2.473-2.014,3.604c-0.464,1.625-0.388,2.896-0.388,2.928
			c0.004,0.859,0.193,1.795,0.564,2.671c0.35,0.85,0.847,1.66,1.511,2.362c0.663,0.726,1.467,1.309,2.428,1.741
			c0.283,0.128,0.58,0.235,0.897,0.326c0.746,0.219,1.329,0.335,2.206,0.332h0.627c2.037-0.16,3.613-0.86,5.264-2.153
			c1.293-1.024,2.458-2.148,3.485-3.359c0.116,0.652,0.258,1.254,0.428,1.799c0.354,1.024,0.979,1.928,1.763,2.576
			c0.47,0.369,0.978,0.669,1.587,0.842c0.469,0.136,0.995,0.206,1.608,0.2c1.175,0.022,2.235-0.255,3.172-0.752
			c0.9-0.517,1.724-1.117,2.438-1.886c0.731-0.749,1.361-1.544,1.933-2.401c0.122-0.199,0.234-0.387,0.358-0.583
			c0.028,0.094,0.042,0.186,0.074,0.277c0.311,0.969,0.781,1.843,1.4,2.632c0.666,0.786,1.519,1.425,2.552,1.923l0.209-0.435
			l-0.197,0.44c0.303,0.141,0.627,0.261,0.981,0.367c0.869,0.245,1.857,0.367,2.986,0.361c1.602-0.013,3.03-0.286,4.307-0.839
			c1.228-0.564,2.296-1.306,3.207-2.168c0.657-0.63,1.245-1.304,1.77-2.014c0.096,0.467,0.235,0.911,0.435,1.338
			c0.338,0.74,0.81,1.384,1.402,1.915c0.569,0.525,1.19,0.931,1.849,1.219c0.215,0.091,0.438,0.174,0.659,0.238
			c0.459,0.133,0.916,0.192,1.368,0.196c1.405-0.007,2.805-0.504,4.201-1.434c1.376-0.89,2.661-1.96,3.88-3.159
			c0.441-0.473,0.897-0.981,1.367-1.553c0.101-0.131,0.2-0.261,0.308-0.382l0.001,1.705c-0.009,0.66,0.19,1.297,0.561,1.907
			c0.371,0.572,0.834,1.077,1.373,1.5c0.566,0.409,1.133,0.757,1.788,0.985c0.152,0.06,0.31,0.112,0.47,0.157
			c0.431,0.126,0.847,0.18,1.268,0.174c0.226-0.001,0.557-0.01,0.946-0.055l0.012,0.01l0.231-0.038
			c0.032-0.009,0.061-0.02,0.093-0.027c0.242-0.042,0.504-0.097,0.772-0.186l0.836-0.353c3.565-1.704,5.274-6.151,6.123-7.789
			c1.589-3.233,2.654-5.694,4.392-7.598c1.109-1.233,2.896-2.02,4.481-1.558c0.073,0.023,0.136,0.044,0.186,0.064
			c1.718,0.586,3.32,2.579,4.002,4.469c-1.704,0.64-2.246,0.958-3.131,1.586c-1.532,1.052-2.829,2.267-3.929,4.046
			c-0.395,0.649-0.688,1.325-0.879,2.007c-0.737,2.594-0.189,5.351,1.901,6.023c0.218,0.064,0.438,0.094,0.667,0.104
			c3.976,0.032,5.894-4.115,6.982-6.656c1.3,2.245,4.127,4.954,6.956,5.803c0.54,0.152,1.088,0.237,1.631,0.221
			c3.082-0.048,4.307-1.817,4.609-2.956c0.093-0.318,0.119-0.581,0.122-0.772C300,34.485,299.379,33.519,298.619,33.237z
			 M293.154,20.024h0.015c0.171-0.067,0.522-0.183,0.731-0.113c0.038,0.012,0.044,0.014,0.049,0.012c0,0,0.102,0.065,0.02,0.395
			c-0.035,0.104-0.093,0.241-0.192,0.4c-0.363,0.614-2.472,2.178-4.222,3.379C290.679,21.841,292.249,20.245,293.154,20.024z
			 M226.804,29.214c0.052-0.35,0.131-0.689,0.226-1.026c0.12-0.421,0.273-0.837,0.453-1.296c0.331-0.786,0.731-1.499,1.215-2.111
			c0.466-0.618,1.027-1.074,1.676-1.5c0.537-0.363,1.065-0.516,1.452-0.579c0.393-0.062,0.615-0.028,0.615-0.041
			c0.215,0.007,0.377,0.033,0.544,0.077c0.37,0.107,0.749,0.331,1.123,0.667c0.46,0.441,0.67,0.929,0.697,1.599
			c-0.003,0.337-0.052,0.652-0.128,0.933c-0.125,0.431-0.329,0.784-0.63,1.084c-0.531,0.538-1.222,0.978-2.133,1.336l-0.012,0.006
			c-1.486,0.634-3.051,0.988-4.603,1.003l-0.511-0.02L226.804,29.214z M209.61,32.854c-0.63,0.795-1.318,1.5-2.028,2.137
			c-0.708,0.644-1.464,1.299-2.238,1.737c-0.762,0.428-1.699,0.737-2.229,0.794c-0.673,0.065-0.743,0.065-1.522-0.026
			c-0.335-0.039-0.681-0.096-1.011-0.193c-0.361-0.1-0.697-0.244-0.984-0.406c-0.595-0.319-1.078-0.699-1.477-1.17
			c-0.383-0.464-0.685-0.99-0.849-1.567c-0.205-0.627-0.287-1.194-0.292-1.763c-0.007-0.252-0.07-1.064,0.231-2.133
			c0.219-0.743,0.614-1.603,1.348-2.435c0.955-1.072,2.293-1.85,3.797-2.523c1.563-0.667,3.173-1.174,4.883-1.492
			c1.512-0.29,2.864-0.477,4.063-0.557l0.026,7.334C210.778,31.36,210.219,32.111,209.61,32.854z M285.147,29.952
			c-0.461,1.603-1.373,3.747-2.397,5.372c-1.013,1.672-2.217,2.612-2.725,2.364c-0.081-0.025-0.171-0.068-0.261-0.133V37.55
			c-0.374-0.18-0.456-1.445-0.099-2.567c0.087-0.286,0.183-0.559,0.281-0.785c1.082-2.534,3.822-4.426,5.424-5.169
			C285.319,29.305,285.243,29.617,285.147,29.952z M104.112,33.407c-0.145-0.045-0.334-0.057-0.525,0.033
			c-0.194,0.087-0.322,0.282-0.366,0.444c-0.041,0.132-0.041,0.255-0.038,0.379c0.009,0.377,0.067,1.008-0.104,1.612
			c-0.136,0.456-0.371,0.846-0.9,1.12c-0.621,0.299-1.39,0.313-2.238,0.067c-2.931-0.791-6.387-4.82-6.35-7.287
			c0.015-0.641,0.104-1.265,0.221-1.898c1.878-0.958,6.916-3.892,8.018-6.527c0.075-0.177,0.139-0.363,0.192-0.543
			c0.203-0.699,0.197-1.376-0.073-1.953c-0.258-0.572-0.795-0.998-1.474-1.193c-0.583-0.165-1.28-0.178-2.089-0.035
			c-3.131,0.595-4.977,4.137-6.036,6.768c-1.039-2.503-3.279-4.221-5.404-4.841c-0.11-0.029-0.209-0.058-0.319-0.081
			c-2.667-0.633-4.945,0.801-6.248,1.956c-1.738,1.521-2.243,2.914-3.546,5.137c-0.017,0.041-1.168,2.496-1.431,3.062
			c-1.402,2.943-3.227,6.858-5.926,7.567l-0.303,0.057c-0.18,0.029-0.387,0.046-0.596,0.064c-0.16,0-0.319-0.01-0.486-0.035
			c-0.078-0.017-0.161-0.032-0.245-0.058c-0.104-0.03-0.218-0.074-0.335-0.116c-0.37-0.135-0.711-0.325-1.014-0.572
			c-0.29-0.203-0.508-0.49-0.717-0.798c-0.183-0.292-0.238-0.424-0.311-0.783L65.41,21.072c0.041-0.528-0.276-1.103-0.798-1.23
			c-0.113-0.032-0.229-0.052-0.354-0.052c-0.535-0.02-1.107,0.308-1.23,0.853c-0.042,0.138-0.065,0.284-0.059,0.441l0.042,7.537
			c0.003,0.02-0.009,0.093-0.038,0.19c-0.199,0.756-1.307,2.307-1.924,3.043c-0.464,0.54-0.948,1.106-1.505,1.631
			c-1.042,1.071-2.146,2.013-3.308,2.766c-1.18,0.798-2.062,1.146-2.834,1.145c-0.221,0.007-0.47-0.019-0.727-0.1
			c-0.158-0.047-0.323-0.11-0.48-0.18c-0.411-0.171-0.772-0.418-1.143-0.76c-0.351-0.314-0.607-0.689-0.836-1.155
			c-0.196-0.412-0.334-1.148-0.34-1.709l-0.046-12.464h0.003c0.041-0.528-0.276-1.103-0.798-1.231
			c-0.113-0.032-0.229-0.052-0.354-0.052c-0.535-0.02-1.107,0.308-1.23,0.853c-0.009,0.026-0.006,0.058-0.012,0.086l-0.006-0.001
			c-0.029,0.097-0.054,0.206-0.055,0.331l0.041,9.334c-0.429,0.789-0.884,1.574-1.373,2.352c-0.569,0.905-1.198,1.707-1.947,2.409
			c-0.726,0.705-1.574,1.294-2.548,1.724c-0.955,0.456-2.052,0.676-3.3,0.683c-0.894-0.01-1.669-0.1-2.307-0.283
			c-0.197-0.055-0.382-0.119-0.557-0.197c-0.778-0.315-1.348-0.731-1.804-1.262c-0.441-0.531-0.776-1.155-0.991-1.811
			c-0.197-0.676-0.325-1.341-0.371-2.028l0.308,0.004c1.93-0.012,3.839-0.326,5.755-1.075c1.242-0.483,2.322-1.181,3.163-2.034
			c0.534-0.534,0.926-1.186,1.145-1.95c0.148-0.502,0.222-1.053,0.225-1.656c-0.012-1.304-0.534-2.457-1.393-3.349
			c-0.482-0.499-1.127-1.078-2.123-1.365c-0.653-0.186-1.447-0.244-2.431-0.116c-0.058,0.007-1.613,0.284-3.127,1.483
			c-0.889,0.711-1.571,1.64-2.187,2.618c-0.582,0.949-1.026,1.982-1.338,3.066l-0.058,0.193c-0.248,0.92-0.361,1.772-0.411,2.587
			c-0.022,0.039-0.051,0.086-0.074,0.115c-0.122,0.147-0.238,0.302-0.34,0.473c-0.525,0.844-1.03,1.618-1.557,2.475
			c-0.527,0.807-1.062,1.548-1.609,2.174c-0.554,0.633-1.123,1.12-1.77,1.474c-0.633,0.347-1.277,0.525-2.02,0.531
			c-0.299-0.007-0.569-0.044-0.81-0.109c-0.361-0.106-0.652-0.28-0.856-0.473c-0.38-0.376-0.647-0.829-0.908-1.487
			c-0.215-0.591-0.322-1.277-0.43-2.069c-0.081-0.981-0.081-2.742-0.081-2.77L19.258,1.447c0.001-0.326-0.128-0.605-0.263-0.808
			c-0.17-0.238-0.387-0.353-0.588-0.409c-0.139-0.039-0.28-0.061-0.425-0.058c-0.354,0.009-0.686,0.176-0.881,0.431
			c-0.107,0.154-0.18,0.3-0.223,0.448c-0.036,0.138-0.052,0.273-0.052,0.408l-0.039,19.538c-1.235,0.07-2.695,0.244-4.36,0.515
			c-1.892,0.335-3.732,0.86-5.533,1.606c-1.798,0.741-3.262,1.715-4.488,3.018C1.312,27.3,0.72,28.608,0.392,29.74
			c-0.464,1.625-0.387,2.896-0.387,2.928c0.004,0.859,0.193,1.795,0.564,2.673c0.35,0.847,0.848,1.657,1.511,2.361
			c0.663,0.724,1.467,1.307,2.428,1.74c0.283,0.128,0.581,0.238,0.897,0.328c0.746,0.218,1.329,0.335,2.206,0.334h0.627
			c2.037-0.163,3.613-0.862,5.264-2.156c1.293-1.024,2.458-2.146,3.485-3.358c0.116,0.65,0.258,1.254,0.428,1.799
			c0.354,1.024,0.979,1.93,1.763,2.577c0.47,0.367,0.978,0.667,1.587,0.839c0.469,0.138,0.996,0.208,1.608,0.2
			c1.175,0.023,2.235-0.255,3.172-0.75c0.9-0.518,1.724-1.117,2.438-1.885c0.731-0.749,1.361-1.545,1.933-2.403
			c0.122-0.197,0.234-0.386,0.359-0.583c0.027,0.096,0.042,0.186,0.074,0.277c0.31,0.968,0.781,1.843,1.4,2.631
			c0.666,0.788,1.519,1.426,2.552,1.924l0.209-0.435l-0.197,0.441c0.303,0.139,0.627,0.261,0.981,0.366
			c0.869,0.245,1.857,0.367,2.986,0.363c1.602-0.015,3.03-0.287,4.307-0.84c1.228-0.564,2.295-1.305,3.207-2.168
			c0.657-0.631,1.245-1.305,1.77-2.014c0.096,0.466,0.235,0.911,0.435,1.336c0.338,0.741,0.81,1.384,1.402,1.915
			c0.569,0.527,1.19,0.931,1.849,1.22c0.215,0.091,0.438,0.173,0.659,0.239c0.459,0.133,0.916,0.19,1.368,0.194
			c1.405-0.007,2.805-0.505,4.201-1.434c1.376-0.888,2.661-1.959,3.88-3.159c0.441-0.471,0.897-0.981,1.367-1.551
			c0.102-0.131,0.2-0.263,0.308-0.383l0.001,1.705c-0.009,0.66,0.19,1.297,0.562,1.907c0.371,0.57,0.834,1.077,1.373,1.499
			c0.566,0.412,1.133,0.76,1.788,0.987c0.152,0.059,0.311,0.112,0.47,0.157c0.431,0.126,0.847,0.18,1.268,0.174
			c0.226,0,0.557-0.009,0.946-0.055l0.012,0.009l0.231-0.035c0.032-0.012,0.061-0.02,0.093-0.029
			c0.242-0.042,0.504-0.097,0.772-0.186l0.836-0.353c3.565-1.705,5.274-6.151,6.123-7.79c1.589-3.231,2.654-5.694,4.392-7.596
			c1.109-1.235,2.896-2.021,4.481-1.559c0.073,0.023,0.136,0.045,0.186,0.064c1.718,0.586,3.32,2.579,4.002,4.468
			c-1.704,0.641-2.246,0.961-3.131,1.587c-1.532,1.053-2.83,2.267-3.929,4.046c-0.395,0.649-0.688,1.325-0.879,2.005
			c-0.737,2.597-0.189,5.354,1.901,6.025c0.218,0.064,0.438,0.094,0.668,0.105c3.976,0.032,5.894-4.115,6.982-6.655
			c1.3,2.243,4.127,4.952,6.956,5.801c0.54,0.152,1.088,0.235,1.631,0.221c3.082-0.049,4.307-1.817,4.608-2.957
			c0.093-0.316,0.119-0.579,0.122-0.77C105.493,34.655,104.872,33.688,104.112,33.407z M98.647,20.192l0.014,0.003
			c0.171-0.07,0.522-0.183,0.731-0.115c0.038,0.013,0.044,0.016,0.049,0.013c0,0,0.102,0.064,0.02,0.392
			c-0.035,0.107-0.093,0.241-0.192,0.4c-0.363,0.615-2.473,2.179-4.222,3.381C96.171,22.009,97.742,20.413,98.647,20.192z
			 M32.297,29.383c0.052-0.35,0.13-0.688,0.226-1.027c0.12-0.419,0.273-0.836,0.453-1.294c0.331-0.786,0.731-1.5,1.215-2.11
			c0.466-0.621,1.027-1.074,1.676-1.503c0.537-0.361,1.065-0.516,1.452-0.578c0.393-0.061,0.615-0.027,0.615-0.041
			c0.215,0.009,0.377,0.035,0.544,0.078c0.37,0.106,0.749,0.329,1.123,0.665c0.46,0.444,0.67,0.932,0.696,1.602
			c-0.003,0.337-0.052,0.65-0.128,0.932c-0.125,0.432-0.329,0.783-0.63,1.085c-0.531,0.537-1.222,0.978-2.133,1.335l-0.012,0.006
			c-1.486,0.634-3.051,0.988-4.603,1.004l-0.511-0.02L32.297,29.383z M15.103,33.024c-0.63,0.794-1.318,1.502-2.028,2.137
			c-0.708,0.644-1.464,1.297-2.238,1.738c-0.762,0.427-1.699,0.734-2.229,0.792c-0.673,0.067-0.743,0.067-1.522-0.026
			c-0.334-0.041-0.681-0.096-1.011-0.192c-0.361-0.102-0.696-0.245-0.984-0.409c-0.595-0.316-1.078-0.697-1.477-1.168
			c-0.383-0.466-0.685-0.988-0.849-1.568c-0.205-0.625-0.287-1.193-0.292-1.762c-0.007-0.252-0.07-1.065,0.231-2.133
			c0.219-0.743,0.614-1.602,1.348-2.435c0.955-1.072,2.293-1.852,3.797-2.525c1.563-0.666,3.173-1.172,4.883-1.492
			c1.512-0.289,2.864-0.476,4.063-0.556l0.026,7.332C16.271,31.528,15.712,32.282,15.103,33.024z M90.64,30.12
			c-0.462,1.605-1.373,3.748-2.397,5.372c-1.013,1.672-2.217,2.613-2.725,2.365c-0.081-0.025-0.171-0.067-0.261-0.134v-0.004
			c-0.374-0.178-0.456-1.444-0.099-2.567c0.087-0.287,0.183-0.557,0.282-0.784c1.082-2.536,3.822-4.426,5.424-5.171
			C90.811,29.476,90.736,29.787,90.64,30.12z M187.543,37.316c0.769-0.788,1.486-1.653,2.127-2.573
			c0.601-0.863,1.268-1.663,1.776-2.505c0.073-0.12,0.116-0.232,0.145-0.337c0.035-0.11,0.044-0.203,0.044-0.203l0.015-0.056
			l0.003-0.057c0.009-0.444-0.276-0.847-0.67-1.075c-0.087-0.071-0.186-0.11-0.249-0.126c-0.136-0.035-0.218-0.038-0.27-0.038
			c-0.711,0.022-1.059,0.461-1.103,0.489l-0.032,0.036l-0.018,0.026c-0.531,0.791-1.106,1.6-1.686,2.423
			c-0.581,0.795-1.193,1.527-1.84,2.211c-0.65,0.638-1.303,1.178-1.994,1.587c-0.679,0.371-1.361,0.56-2.127,0.548
			c-0.162,0-0.322-0.022-0.502-0.073c-0.16-0.047-0.331-0.112-0.514-0.2c-0.366-0.189-0.705-0.4-1.019-0.679
			c-0.284-0.258-0.496-0.569-0.714-0.933c-0.177-0.306-0.31-0.808-0.316-0.942c-0.023-0.966,0.177-1.95,0.438-2.92
			c0.284-0.963,0.546-1.834,0.792-2.644c0.192-0.67,0.348-1.223,0.49-1.773c0.174-0.612,0.29-1.156,0.325-1.793
			c0-0.033,0.09-0.839-0.662-1.399c-0.287-0.258-2.464-1.609-3.297-2.131c0.047-0.148,0.102-0.341,0.166-0.553
			c0.177-0.633,0.386-1.402,0.36-1.991c-0.058-0.72-0.299-1.471-0.969-1.947c-0.348-0.223-0.647-0.395-1.004-0.495
			c-0.235-0.068-0.493-0.103-0.755-0.091c-0.046,0.017-1.271,0.023-2.026,1.071c-0.229,0.308-0.383,0.633-0.479,0.961
			c-0.081,0.29-0.119,0.572-0.122,0.853c0,1.437,1.361,2.626,1.956,3.102l-0.035,0.101c-0.479,1.239-1.117,2.558-1.991,3.81
			c-0.438,0.635-1.03,1.408-1.585,2.12c-0.94,1.151-2.333,2.969-3.204,3.893c-0.757,0.842-1.405,1.616-2.049,2.217
			c-0.746,0.662-1.451,1.232-2.059,1.616c-0.625,0.427-1.119,0.583-1.383,0.578c-0.09-0.003-0.202-0.026-0.309-0.052
			c-0.158-0.045-0.306-0.119-0.48-0.232c-0.322-0.206-0.619-0.467-0.852-0.781c-0.268-0.331-0.469-0.66-0.607-1.027
			c-0.135-0.313-0.277-1.294-0.277-1.831l0.02-11.266c-0.006,0.003,0.003-0.139-0.003-0.302c-0.003-0.078-0.004-0.168-0.02-0.251
			c-0.058-0.097,0.09-0.152-0.27-0.464c-0.078-0.057-0.148-0.065-0.195-0.08c-0.299-0.084-0.656-0.094-0.679-0.094l-0.531-0.004
			c-1.397-0.025-3.024,0.149-4.876,0.569c-1.863,0.414-3.691,1.055-5.421,1.965c-1.727,0.905-3.21,2.098-4.423,3.588
			c-0.059,0.068-0.448,0.604-0.531,0.692c-0.451,0.604-1.778,2.589-1.95,2.856c-0.305,0.49-1.126,1.66-1.541,2.219
			c-0.389,0.533-0.949,1.278-1.408,1.722c-0.647,0.653-1.326,1.204-2.002,1.648c-0.665,0.409-1.178,0.749-1.971,0.631
			c-0.015-0.006-0.09-0.019-0.174-0.045c-0.199-0.058-0.453-0.165-0.647-0.279c-0.282-0.178-0.438-0.321-0.644-0.585
			c-0.218-0.248-0.342-0.499-0.488-0.843c-0.116-0.247-0.162-0.569-0.212-0.911l0.113-9.046c0.007-0.592-0.11-1.188-0.354-1.805
			c-0.24-0.618-0.56-1.193-0.981-1.704c-0.403-0.517-0.895-0.932-1.412-1.277c-0.303-0.189-0.61-0.331-0.933-0.424
			c-0.312-0.09-0.641-0.136-0.981-0.128c-0.624-0.012-1.277,0.154-1.933,0.459c-0.653,0.358-1.268,0.763-1.847,1.274
			c-0.572,0.538-1.125,1.129-1.647,1.773c-0.535,0.641-1.067,1.306-1.529,1.965c-0.611,0.904-1.13,1.751-1.634,2.571
			c-0.166,0.27-0.328,0.557-0.488,0.842l0.132-8.092c0.036-0.385-0.184-0.936-0.673-1.052c-0.123-0.039-0.251-0.052-0.388-0.049
			c-0.194-0.017-0.435,0.032-0.63,0.131c-0.235,0.067-0.502,0.348-0.576,0.653c-0.186,0.871-0.383,1.663-0.602,2.422
			c-0.29,1.017-0.628,1.975-0.998,2.88c-0.627,1.566-1.467,2.85-2.534,3.837c-0.025,0.029-0.268,0.238-0.392,0.64
			c-0.046,0.163-0.07,0.383-0.013,0.604c0.083,0.263,0.241,0.505,0.53,0.681c0.125,0.058,0.192,0.077,0.247,0.096
			c0.43,0.136,0.85-0.006,1.109-0.2l0.038-0.023l0.032-0.035c0.664-0.702,1.318-1.429,1.914-2.278
			c0.106-0.16,0.209-0.318,0.306-0.476l-0.228,5.243c0.033,0.631-0.118,3.13-0.119,4.236c-0.065,1.315-0.231,13.66-0.218,15.065
			l0.001,0.081l0.025,0.078c0.203,0.522,0.602,0.802,0.971,0.921c0.096,0.025,0.183,0.035,0.238,0.039h0.038l0.041,0.001
			c0.276,0.022,1.068-0.19,1.233-0.968c0.006-0.049,0.017-0.09,0.026-0.113l0.016-0.064l-0.001-0.058
			c0.006-0.02,0.067-4.565,0.157-9.237c0.078-4.507,0.194-9.239,0.264-9.791c0.264-0.624,0.593-1.262,0.868-1.783
			c0.308-0.541,0.519-0.911,0.879-1.577c0.37-0.62,0.756-1.291,1.149-1.94c0.386-0.669,0.786-1.287,1.212-1.894
			c0.933-1.315,1.85-2.412,2.726-3.274c0.85-0.831,1.646-1.187,2.31-1.19c0.096,0,0.206,0.017,0.316,0.054
			c0.363,0.103,0.755,0.374,1.158,0.866c0.488,0.633,0.712,1.3,0.73,1.992l-0.152,9.105c0,0.583,0.113,1.158,0.37,1.73
			c0.239,0.579,0.588,1.1,0.997,1.558c0.387,0.464,0.877,0.865,1.448,1.155c0.238,0.148,0.527,0.273,0.821,0.354
			c0.305,0.091,0.621,0.132,0.931,0.142c1.039,0.012,2.03-0.209,2.934-0.697c0.871-0.44,1.657-1.016,2.38-1.706
			c0.702-0.694,1.351-1.432,1.93-2.235c0.161-0.223,0.313-0.438,0.476-0.659c0.107,0.469,0.283,0.932,0.522,1.378
			c0.424,0.81,0.99,1.541,1.672,2.178c0.688,0.638,1.474,1.122,2.298,1.499c0.313,0.138,0.628,0.255,0.949,0.345
			c0.549,0.157,1.104,0.242,1.65,0.247c1.943,0.023,3.765-0.444,5.467-1.402c1.323-0.752,2.48-1.611,3.426-2.564
			c0.068,0.241,0.151,0.486,0.253,0.727c0.29,0.612,0.627,1.159,1.048,1.651c0.427,0.504,0.94,0.937,1.505,1.254v0.006
			c0.27,0.151,0.559,0.276,0.852,0.358c0.332,0.097,0.679,0.147,1.027,0.144c0.876,0.029,1.77-0.299,2.66-0.894
			c0.834-0.592,1.641-1.242,2.415-1.898c0.823-0.797,1.586-1.624,2.317-2.519c0.101-0.119,0.186-0.232,0.281-0.353
			c0.371-0.44,0.821-0.979,1.312-1.579c1.239-1.528,2.67-3.324,3.279-4.25c0.871-1.303,1.564-2.583,2.113-3.848
			c0.667,0.408,1.805,1.111,1.956,1.204c0.171,0.104,0.308,0.199,0.409,0.273c-0.099,0.437-0.285,1.219-0.369,1.524
			c-0.046,0.168-0.099,0.342-0.148,0.519c-0.084,0.293-0.177,0.601-0.279,0.903c-0.218,0.662-0.43,1.309-0.63,2
			c-0.067,0.229-0.134,0.47-0.195,0.712c-0.258,1.026-0.395,2.108-0.415,3.298c-0.009,0.675,0.195,1.325,0.534,1.946
			c0.345,0.599,0.772,1.145,1.254,1.624c0.528,0.516,1.129,0.882,1.764,1.164l0.194-0.441l-0.192,0.441
			c0.229,0.099,0.45,0.177,0.682,0.241l0.026,0.01c0.397,0.115,0.798,0.167,1.178,0.179c1.181,0.029,2.29-0.237,3.271-0.752
			C185.868,38.754,186.75,38.095,187.543,37.316z M156.594,31.645c-0.237,0.569-0.576,1.151-1.113,1.812
			c-0.554,0.665-1.212,1.28-2.023,1.872c-0.781,0.583-1.64,1.055-2.58,1.4c-0.92,0.326-1.892,0.515-2.934,0.514
			c-0.361-0.022-0.737-0.08-1.107-0.19c-0.222-0.058-0.437-0.132-0.652-0.226c-0.593-0.284-1.143-0.644-1.611-1.065
			c-0.473-0.447-0.842-0.931-1.141-1.48c-0.281-0.531-0.4-1.042-0.419-1.611l0.01-0.073l0.009-0.046l-0.001-0.041
			c0.013-0.64,0.097-1.238,0.254-1.786c0.241-0.826,0.644-1.559,1.233-2.23c1.016-1.155,2.249-2.11,3.681-2.857
			c1.458-0.77,2.989-1.342,4.623-1.699c1.42-0.311,2.706-0.482,3.838-0.534L156.594,31.645z M174.457,21.195l-0.038,0.039
			l0.041-0.052L174.457,21.195z M174.765,20.262c-0.012,0.032-0.009,0.035-0.009,0.035c-0.015,0.02-0.032,0.081-0.041,0.125
			c-0.026,0.081-0.038,0.152-0.055,0.206c-0.02,0.049-0.032,0.096-0.046,0.147c-0.345-0.267-0.459-0.495-0.447-0.721
			c-0.009-0.107,0-0.226,0.029-0.311c0.014-0.052,0.035-0.087,0.055-0.106c0.061-0.089,0.145-0.126,0.255-0.151
			c0.064-0.001,0.174,0.006,0.232,0.025h0.006c0.026,0.01,0.023,0.013,0.026,0.01c0.081,0.11,0.041,0.027,0.07,0.21
			C174.832,19.894,174.817,20.088,174.765,20.262z"/>
	</g>
	<g>
		<path d="M134.304,57.201v-6.898h1.419v6.898c0,1.624,1.178,2.252,2.943,2.252c1.766,0,2.943-0.628,2.943-2.252v-6.898h1.421v6.898
			c0,2.15-1.339,3.451-4.363,3.451C135.642,60.651,134.304,59.351,134.304,57.201z"/>
		<path d="M154.215,60.448l-6.311-7.711l0.02,7.711h-1.339V50.303h0.894l6.309,7.711l-0.02-7.711h1.341v10.146H154.215z"/>
		<path d="M164.167,56.835v3.613h-1.341V50.303h4.101c2.516,0,3.388,1.521,3.388,3.266c0,1.746-0.892,3.266-3.388,3.266H164.167z"/>
		<path d="M180.08,55.862h-5.357v3.347h6.067v1.239h-7.406V50.303h7.406v1.236h-6.067v3.085h5.357V55.862z"/>
		<path d="M188.364,51.539v8.909h-1.441v-8.909h-3.388v-1.236h8.217v1.236H188.364z"/>
		<path d="M195.248,60.448V50.303h1.339v10.146H195.248z"/>
		<path d="M204.91,51.539v8.909h-1.441v-8.909h-3.39v-1.236h8.219v1.236H204.91z"/>
		<path d="M220.095,59.128l-3.451-6.979l0.081,8.3h-1.319V50.303h1.725l3.551,7.365l3.551-7.365h1.725v10.146h-1.319l0.081-8.3
			l-3.451,6.979H220.095z"/>
		<path d="M233.981,60.651c-3.471,0-4.666-2.172-4.666-5.276c0-3.105,1.196-5.276,4.666-5.276c3.49,0,4.666,2.171,4.666,5.276
			C238.648,58.479,237.471,60.651,233.981,60.651z"/>
		<path d="M249.632,60.448l-6.312-7.711l0.02,7.711h-1.338V50.303h0.892l6.311,7.711l-0.02-7.711h1.339v10.146H249.632z"/>
		<path d="M254.182,60.448V50.303h3.41c3.49,0,4.91,1.968,4.91,5.073c0,3.104-1.421,5.073-4.91,5.073H254.182z"/>
		<path d="M272.552,55.862h-5.357v3.347h6.067v1.239h-7.407V50.303h7.407v1.236h-6.067v3.085h5.357V55.862z"/>
	</g>
</g>
</svg>
