<svg version="1.1" id="Calque_1" xmlns="http://www.w3.org/2000/svg" xmlns:xlink="http://www.w3.org/1999/xlink" x="0px" y="0px"
	 viewBox="0 0 1931.4 1916.5" style="enable-background:new 0 0 1931.4 1916.5;" xml:space="preserve">
<path class="st0" d="M629.3,1798.2c0,0-320.1,104.3-328,109c-7.8,4.7-117.7,11-151.4,7.1c-33.7-3.9-15.7-6.3-25.1-9.4
	c-9.4-3.1-43.2-47.8-48.6-51.8c-5.5-3.9-8.6-24.3-9.4-31.4s-11.8-52.5-11-61.9s-25.9-163.9-25.1-168.6c0.8-4.7-9.4-15.7-11-21.2
	c-1.6-5.5-14.1-37.6-17.3-40.8s0.1-35.3,0.1-35.3l11.9-14.1c0,0,0-7.1,0-9.4s10.9-20.4,15.6-28.2s65.8-39.2,65.8-39.2
	S7.9,1131.7,6.3,1120.7s21.9-66.6,21.9-66.6l84.7-120c-0.3-0.7-0.7-1.4-1-2.4l3.5-3.3"/>
<path class="st0" d="M119.3,597.3c-2.8-2.8-18.6-18.4-18.6-18.4l33.6-103.5v-54.1c0,0,17.5-28.2,31.6-40
	c14.1-11.8,1.1-14.1,1.1-14.1s21.1-37.6,25.8-47c4.7-9.4,70.6-40,70.6-40s72.9-77.6,75.3-87s30.6-23.5,30.6-23.5s37.6-25.9,40-40
	c2.4-14.1,11.7,0,11.7,0l44.7-28.2c0,0,30.5,4.7,58.7,0c28.2-4.7,54-23.5,206.9-56.4s345.5,18.8,345.5,18.8h17.1
	c0,0,277.4,67.9,421.7,254.5"/>
<path class="st0" d="M1098.7,64.9c0,0,213.2-54.5,228.1-63.9l100.4,24.3l64.3,111.3l52.5,167.8"/>
<path class="st0" d="M1565.3,298.1c-4.5,24.2,11.6,60.5,11.6,60.5l13.3,11c0,0,10.2,2.4,18.8,0s23.5-18.8,23.5-18.8
	s10.2-28.2-7.8-52.7s-34.5-33.6-47.4-37.5c-12.9-3.9-8.3,20.4-8.3,20.4s6.3,15.7-9.4,19.6c-15.7,3.9-141.9,36.1-163.9,174.1
	l11.8,269.7c0,0-2.4,26.7-7.1,29c0,0-0.8,9.4,0.8,12.5c1.6,3.1,1.6,3.1,1.6,3.1s-1.2,4.4,6.9,8.8"/>
<path class="st0" d="M1600.4,285.6c0,0-20.4-2.4-16.5,25.1c3.9,27.4,22,40,22,40s16.5,3.1,14.9-18S1616.1,292.7,1600.4,285.6z"/>
<path class="st0" d="M1466.2,789c0,0,46.4,22,48.7,40c2.4,18-11.1,24.3-24.4,22.7s-61.9-13.3-64.2-14.9"/>
<path class="st0" d="M1738.4,280.9c0,0-11,1.6-11,29c0,27.4,6.3,69,21.2,76.8s26.7,5.5,38.4-11c11.8-16.5,0-58-11.8-67.4
	S1749.4,284.8,1738.4,280.9z"/>
<ellipse transform="matrix(0.9588 -0.2841 0.2841 0.9588 -23.315 514.0212)" class="st0" cx="1760.4" cy="337.4" rx="17.3" ry="32.9"/>
<path class="st0" d="M1727.4,314.6c0,0-82.3,35.3-95.7,53.3s-72.1,58.8-75.3,128.6s12.5,275.2,7.1,282.3c-5.5,7.1-7.5,10.2-7.5,10.2
	s-7.4,2.4-6.6,5.5c0.8,3.1,20.6,48.6,71.5,36.1c0,0,7.7-0.6,7.7-10.1l-3.9-4.8"/>
<path class="st0" d="M1557.9,786.3c0,0-3,27,57,29.8c0,0,9.8,2.7,11.4-4.7c0,0-10.6-265.8-8.2-316.8s66.6-111.3,120.8-116"/>
<path class="st0" d="M1537.7,341.3c0,0-105.9,50.2-111.3,110.6c-5.5,60.4,12.5,258.8,11,261.9"/>
<path class="st0" d="M1759.7,390.8c0,0-54.2,58.8-62.8,106.6c-8.6,47.8,11.8,249.3,8.6,260.3c-3.1,11,2,47-10.8,44.7
	c0,0-6.5,3.9-4.9,10.2c1.6,6.3,54.3,33.7,69.9,23.5c0,0,6.2-3.9,3.8-8.6l-3.8-3.9c0,0,8-63.5,4.4-117.6s-38.2-201.5,9.7-247
	c0,0,43.1-60.4,101.9-64.3"/>
<path class="st0" d="M1859.9,332.7c0,0,3.9,61.9,24.3,69c20.4,7.1,33.7-7.8,38.4-10.6s9.4-19.2,7.1-32.6
	c-2.4-13.3-19.6-39.1-24.3-40.3c-4.7-1.2-25-25.5-29.8-22.4c0,0-9.4,3.9-10.2,12.5C1864.6,317,1864.6,329.5,1859.9,332.7
	s-66.1,25.7-68.1,31.4"/>
<path class="st0" d="M1888.2,318.2c0,0-14.1,12.9-8.6,31.3c5.5,18.4,12.5,35.7,24.3,37.2c11.8,1.6,14.1-14.1,13.3-22
	C1916.4,357,1911.2,324.2,1888.2,318.2z"/>
<path class="st0" d="M1552.1,368.7c0,0,26.9,45.5,31.3,53.4"/>
<polyline class="st0" points="1620.9,488.7 1675.7,724.7 1665.5,793.7 "/>
<line class="st0" x1="1567.8" y1="361.8" x2="1591.2" y2="411.7"/>
<path class="st0" d="M406,136.8l48,57.1c0,0,22.7,23.5,12.5,40s-32.9,26.2-32.9,26.2s-19.6,8.3-37.6-11.3s-48.6-65.7-48.6-65.7
	s-9.4,1.4-8.6,10c0.8,8.6,58,81.5,58,81.5s7.1,10.2,35.3,6.3s48.6-36.9,48.6-36.9s8.6-11,4.7-32.1c-3.9-21.2-64.3-82.3-64.3-82.3"/>
<path class="st0" d="M429.8,190.8l-17.3,14c-1.3,1-3.2,0.8-4.2-0.4l-17.4-21.6c-1-1.3-0.8-3.2,0.4-4.2l17.3-14
	c1.3-1,3.2-0.8,4.2,0.4l17.4,21.6C431.3,187.9,431.1,189.8,429.8,190.8z"/>
<line class="st0" x1="396.6" y1="186.8" x2="415.4" y2="171.5"/>
<path class="st0" d="M465.7,101.4c0,0,75.3,59.1,168.7,249.5"/>
<path class="st0" d="M119.7,597.7"/>
<path class="st0" d="M808.1,1002.4c0,0-118.8-21.3-136.9-24.4S654,959.2,654,959.2l-19.6-150.3c-5.5-28.7-29.8-49.7-34.5-51.3
	s-68.2-22-68.2-22c-69.8-10.2-407.7-129.8-407.7-129.8S83.1,750.8,115.3,928c0,0,16.5,85.4,70.6,101.8l203.9-29.8l54.1,50.9
	c0,0,29.8-14.9,37.6-15.7c7.8-0.8,75.3-70.6,75.3-70.6s69.8-26.7,77.7-27.4l14.9,30.6v29.8l-86.3,116c0,0-15.6,15.7-9.8,44.3
	l12.6,77.8"/>
<line class="st0" x1="395" y1="1004.9" x2="553.3" y2="968.3"/>
<line class="st0" x1="409.1" y1="1018.3" x2="535.2" y2="986.6"/>
<line class="st0" x1="654.8" y1="964.7" x2="803.7" y2="991.3"/>
<line class="st0" x1="639" y1="946.7" x2="651.9" y2="943.4"/>
<line class="st0" x1="645.4" y1="960" x2="654" y2="959.2"/>
<line class="st0" x1="119.7" y1="597.7" x2="123.9" y2="605.9"/>
<path class="st0" d="M263.5,279.4L200,357.8h21.2c0,0,3.9,3.1,2.4,6.3c-1.6,3.1-89.4,111.3-89.4,111.3"/>
<polyline class="st0" points="140.8,454.9 154.5,438.5 206.2,373.5 177.2,377.4 147.4,415.8 138.1,470.5 "/>
<path class="st0" d="M814.7,1002.4c0,0-156.8-2.5-169.3,0c-12.4,2.5-104.4,39.9-104.4,39.9s-130.2,46.3-327,78.4s-207.8,0-207.8,0"
	/>
<path class="st0" d="M665.1,1209.6c0,0-3.2-84.2-4-106.9s18.8-29,18.8-29l159.2-5.5"/>
<path class="st0" d="M715.8,1232.4l-41.4-20.7c0,0-5.5-4.7-20.4,0c0,0-171.5,49.4-179.9,51c0,0-22.4,34.5-25.6,41.6
	c-3.1,7.1-45.2,86.3-53.6,92.5c-8.4,6.3-85.2,52.5-86.8,53.3"/>
<path class="st0" d="M366.8,1455.4l48.8-31.8c0,0,69.8-130.4,72.1-132c2.4-1.6,57.8-16.2,57.8-16.2"/>
<path class="st0" d="M566.3,1268.9c2.4-0.8,67.9-16.4,67.9-16.4"/>
<path class="st0" d="M291.7,1123.9l-163.9,53.3c0,0-29,99.6-29,101.9c0,2.4,7.8,26.8,7.8,31.1s40.8-94.6,46.3-98.5
	c5.5-3.9,112.9-58,116.8-60.4C273.7,1148.9,294.8,1135.6,291.7,1123.9z"/>
<path class="st0" d="M39.3,1227.6l28.9-26.9c0,0,7.8,8.8,4.7,13.4c-3.1,4.6-21.2,23.4-21.2,23.4l10,60.2"/>
<path class="st0" d="M456,1254l-11.4,34.5c0,0-111.3,4.7-149,15.7C295.6,1304.2,287.8,1292.4,456,1254z"/>
<path class="st0" d="M264.3,1316c-3.1,0-88.6,52.5-86.3,123.1"/>
<path class="st0" d="M185.1,1237.6c0,0-57.4,137-51.4,182.1"/>
<path class="st0" d="M579.2,1464c-29,4.7-75.8,7.2-75.8,7.2c-123.1-18.8-352.1-32.1-352.1-32.1c-23.5-34.5-55.7-36.1-55.7-36.1"/>
<path class="st0" d="M14.1,1470.4c0,0,161.5,5.5,202.3,9.4c40.8,3.9,231.3,29,269,35.3s112.9-9.4,117.6-11
	c4.7-1.6,190.5-80.5,190.5-80.5l39.1-17.1"/>
<path class="st0" d="M535.2,1301.1c0,0,2.3-29.2,20.6-22c18.2,7.3,48.2,69,52.3,86.6c4.1,17.6,10.6,71.2,7.6,87"/>
<path class="st0" d="M518.3,1310.2l21.4-9.9c0,0,10.7,1.2,13.8,20c3.1,18.8-4.7,20.4-4.7,20.4l-19.8,4.4"/>
<path class="st0" d="M527.4,1327.1c2.7,10,2.9,17.7,0.5,18.3s-6.5-6-9.2-16s-2.9-18.6-0.5-19.3S524.7,1317.1,527.4,1327.1z"/>
<path class="st0" d="M599.7,1298.7l40.2-12.9c0,0,14.1,1.6,15.1,14.5"/>
<path class="st0" d="M608.7,1313.7l65.3-17.6c0,0,11.8,7.1,11.2,25.3l-64.7,20.3"/>
<path class="st0" d="M630.4,1375.5l53.8-14.7c0,0,4.1,4.8,3.3,9.7"/>
<polyline class="st0" points="665.1,1425.4 634.6,1438.4 632.5,1439.9 "/>
<path class="st0" d="M861.6,1317.8l-62.6-122.9c-4.1-8.1-5.3-5.6-5.3-5.6l-42,14.1c-8.2,2.4-3.8,6.1-3.8,6.1l57.6,123.8
	c0,0,3.3,6.8,9.3,6.6s45.1-14.3,45.1-14.3S864.8,1324.3,861.6,1317.8z"/>
<path class="st0" d="M621,1289.6c-2.6-28.5,15-38.2,15-38.2s17.4-2.4,36.2,23.8c17.9,25.1,23.5,41.2,30.6,61.7
	c7.1,20.6,14.1,75.6,8.8,91.7s-8.8,16.8-17.1,17.6c-5.4,0.6-18.6-6-29.1-19.2"/>
<path class="st0" d="M639.9,1251.3c0,0,66-12.3,73.7-13.8c7.7-1.5,37.1,16.8,54.5,59.7c17.3,42.9,16.5,81.5,9.7,120.6"/>
<path class="st0" d="M668.3,1246c0,0,36.3,26.8,50.4,76.6c14.1,49.9,9.3,102.3,8.8,103.4"/>
<path class="st0" d="M883.3,1380.7l-47.8,24.7c-7.4,3.9-75.3,17.3-97.2,18.3c-22,1-22.7,19.8-24.8,22.7s-21.1,6.4-21.1,6.4
	s-1.9,6.5-7.2,8.7c-5.3,2.2-81.4,34.4-81.4,34.4s-58,11.4-83.5,11.8s-37.2-1.2-52.5-3.9s-239.9-38.5-384.6-39.2l-65.6-1.4"/>
<path class="st0" d="M884.9,1368.1c0,0-5.9-2.7-10.2,0c-4.3,2.7-29.4,32.2-29.4,32.2"/>
<line class="st0" x1="846.9" y1="1491.6" x2="810.8" y2="1507.7"/>
<path class="st0" d="M633.5,1417.3l20.8-6.5v17.3l19-4.5c0,0,6.2,6.6,8.5,8.3s4.7-3.1,5.1-10.5l12.3-4.7c0,0,2.1-15.3-2.6-21.2
	l-30.1,10.9"/>
<line class="st0" x1="649.9" y1="1412.1" x2="673.3" y2="1404"/>
<path class="st0" d="M663.9,1376.3l23.6-5.9l11.5,12.5c0,0-1.2,3.1-2,4.7s-15.6,5.3-15.6,5.3L663.9,1376.3z"/>
<polyline class="st0" points="632.9,1386.1 654.9,1380.7 670.7,1395.2 632.9,1405.4 "/>
<circle class="st0" cx="691.2" cy="1349.2" r="3.7"/>
<path class="st0" d="M683.9,1322.6c0,0,7.5,14.9,0.6,16.9l-59.2,17.8"/>
<path class="st0" d="M698.1,1357.4c0,0-6.7,2.1-6.9,4.2c-0.2,2.2,4.3,4.7,6.9,4.1C700.6,1365.2,703.6,1357.5,698.1,1357.4z"/>
<path class="st0" d="M533.2,1345.5c0,0-0.6,15.4,0,19.4"/>
<path class="st0" d="M502.2,1373.6c0,0-9,12.2-8.4,14.9c0.6,2.7,3.7,22.3,13.7,29.3s4.3,3,7.1,3.6c1.9,0.4,4.9-3.6,4.9-3.6
	s4.7-8.1,0.6-23.8C516,1378.3,502.2,1373.6,502.2,1373.6l53.1-14.9"/>
<path class="st0" d="M568.3,1370.5c-1.4,0.2-35.1,9.2-35.1,9.2l-5.3,5.3l43.7-9.5C571.6,1375.5,580.1,1369.1,568.3,1370.5z"/>
<path class="st0" d="M541.4,1400.3c1.2,0.1,37.8-10,37.8-10s3.2,3.2,1.8,5c-1.4,1.8-24.1,6.3-24.1,6.3l-20.6,3.8L541.4,1400.3z"/>
<path class="st0" d="M552,1340c0,0,0,0.3,0,0.8c0,3.9,0.3,20.2,8.4,23.1c9.2,3.3,30.2-6.3,30.8-11.1c0.6-4.8-2.8-27.7-4.9-28.1
	c-2.1-0.4-30.7-0.8-30.9,3.7s-3.3,11.8-3.3,11.8"/>
<ellipse transform="matrix(0.9657 -0.2596 0.2596 0.9657 -352.4344 188.9013)" class="st0" cx="538.8" cy="1428.5" rx="5.8" ry="14.6"/>
<ellipse transform="matrix(0.9404 -0.3399 0.3399 0.9404 -444.7244 255.5008)" class="st0" cx="506.9" cy="1397" rx="5.8" ry="14.6"/>
<ellipse transform="matrix(0.9657 -0.2596 0.2596 0.9657 -355.0354 199.7)" class="st0" cx="578.4" cy="1443.8" rx="5.8" ry="14.6"/>
<path class="st0" d="M535,1414.4c0,0,24.8-6.4,28.4-6.3c3.5,0,9.1,21.1,8.3,27.3l-29.1,7.2"/>
<path class="st0" d="M574.6,1429.7l23.7-7.7c0,0,7.8,6.9,8.6,15.1c0.8,8.2,0,15.7,0,15.7l-24.7,5.1"/>
<line class="st0" x1="514.6" y1="1421.4" x2="532" y2="1416.7"/>
<line class="st0" x1="565.6" y1="1408.1" x2="582.8" y2="1404"/>
<path class="st0" d="M558.9,1438.6l4,5.9c20.6,31.8,41.8,31.8,41.8,31.8s23.5,1.8,27.1-26.3c3.5-28-0.6-81.9-11.2-108.4
	c-10.6-26.5-35.3-67-54.1-72.7c-18.8-5.7-26.6,16.2-26.6,16.2"/>
<path class="st0" d="M588.4,1456.6c0,0,15.1,9.9,18.9,7.5c3.8-2.4,8.2-8,8.6-12.1"/>
<path class="st0" d="M146.5,1434.6c0,0-43.5,18.5-43.5,20.3c0,1.8-2.1,7.6,0,10"/>
<path class="st0" d="M151.4,1439.1c0,0-4.9,23.8-2,27.7"/>
<path class="st0" d="M20.6,1460.1c2.1-0.3,40.6-22.7,44.1-21.1c3.5,1.7,5.6,10.5,4.4,13.7l-6.5,11.3"/>
<path class="st0" d="M1148.2,80.2c2.8,1,207.5-49.4,216.2-50.9s20.4-6.3,26.7,0s39.2,42.3,39.2,47c0,4.7-51.9,112.3-50.3,117.3"/>
<path class="st0" d="M1430.2,76.3c0,0,26.7,23.2,30.6,33.6"/>
<path class="st0" d="M1390,200.6c0,0,58.5-97.8,83.5-95"/>
<path class="st0" d="M712.6,1237.7c0,0,10.2-17.8,22.2-17.5c0,0,11.8-5,11.8-12.6"/>
<ellipse class="st0" cx="787.5" cy="1211.2" rx="13.6" ry="12.1"/>
<circle class="st0" cx="834.6" cy="1305.9" r="13.8"/>
<path class="st0" d="M734.8,1220.2c0,0,18.9,7.8,27.8,21.4"/>
<path class="st0" d="M805.4,1333.4c0,0,1.4,52-4.7,80.5"/>
<path class="st0" d="M811.8,1220.2l27.2,1.5c0,0,27.4,29.2,38.4,64.1s1.9,79.2-0.8,81.5"/>
<path class="st0" d="M840.6,1220.2c0,0,16.5-15.2,19.2-14.4c2.7,0.8,36.9,27.4,41.2,41.2c4.3,13.7,14.5,68.6,12.5,77.6"/>
<path class="st0" d="M839,1221.7c0,0,6.7-38.2,11.4-41s29.4,5.7,42.7,18.3c13.3,12.6,39.6,72.8,42,97"/>
<path class="st0" d="M850.4,1180.7c0,0,1.8-25.5,12.3-25.9c10.5-0.4,44.2,14.8,69.3,50.9c25.1,36.1,28.6,70.6,28.6,70.6"/>
<path class="st0" d="M865.6,1155c0,0,36.6-1.4,41.7-3.7c0,0,38,29.9,61.9,109.4"/>
<line class="st0" x1="909.2" y1="1151.3" x2="921.4" y2="1148.9"/>
<path class="st0" d="M979,1249.7c-20-63.1-67-109.8-67-109.8s16.9-2,44.7,11.4c27.8,13.3,35.7,18.3,35.7,18.3"/>
<path class="st0" d="M1020.5,1159.7l-61.9,24.6c0,0,16.5,23.3,18.8,36l66.9-21.2"/>
<polyline class="st0" points="911.9,1139.9 898.6,1093.5 896.3,1083.8 879.7,1087.9 877.2,1076.4 "/>
<line class="st0" x1="884.3" y1="1031.6" x2="920.8" y2="1020.4"/>
<polyline class="st0" points="987.6,1013.9 961.3,1027 925.5,1033.3 919.4,1020.8 975.8,987.6 1039.5,951.3 1049.4,970.6
	925.5,1033.3 "/>
<line class="st0" x1="984.4" y1="1004.9" x2="991.9" y2="1022.3"/>
<line class="st0" x1="995.1" y1="999" x2="1002.6" y2="1016.8"/>
<line class="st0" x1="1004.1" y1="995.1" x2="1010.7" y2="1011.4"/>
<line class="st0" x1="1010.7" y1="991.3" x2="1017.8" y2="1007.2"/>
<polyline class="st0" points="1037.3,952.1 1118.6,920 1133.5,913.5 1137,923.9 1127.6,933.3 1049.4,970.6 "/>
<path class="st0" d="M1183.2,1121.8C1183.3,1121.9,1183.2,1121.8,1183.2,1121.8l-83.7,35.5l-5.4-12.8c0,0,83-36.8,88.4-39.1"/>
<polyline class="st0" points="1179.1,1169.3 1113.6,1194.8 1106.8,1181.5 1181.2,1148.9 "/>
<path class="st0" d="M1082.9,824l-77,34.6c-0.5,0.2-1.1,0-1.3-0.5l-6-13.4c-0.2-0.5,0-1.1,0.5-1.3l77-34.6c0.5-0.2,1.1,0,1.3,0.5
	l6,13.4C1083.7,823.1,1083.4,823.7,1082.9,824z"/>
<path class="st0" d="M1098.8,859.2l-77,34.6c-0.5,0.2-1.1,0-1.3-0.5l-6-13.4c-0.2-0.5,0-1.1,0.5-1.3l77-34.6c0.5-0.2,1.1,0,1.3,0.5
	l6,13.4C1099.5,858.4,1099.3,859,1098.8,859.2z"/>
<path class="st0" d="M1112.8,896.7l-77,34.6c-0.5,0.2-1.1,0-1.3-0.5l-6-13.4c-0.2-0.5,0-1.1,0.5-1.3l77-34.6c0.5-0.2,1.1,0,1.3,0.5
	l6,13.4C1113.5,895.9,1113.3,896.5,1112.8,896.7z"/>
<path class="st0" d="M1130.9,976.4l-83.8,40.9c-1.2,0.5-4.6-2.4-5.1-3.6l-5.4-12c-0.5-1.2,0-2.6,1.2-3.1l85.9-38.6
	c1.2-0.5,2.6,0,3.1,1.2l5.4,12C1132.6,974.4,1132.1,975.8,1130.9,976.4z"/>
<path class="st0" d="M1147.4,1013l-88.3,39.7c-0.5,0.2-1.1,0-1.3-0.5l-6.5-14.5c-0.2-0.5,0-1.1,0.5-1.3l88.3-39.7
	c0.5-0.2,1.1,0,1.3,0.5l6.5,14.5C1148.1,1012.2,1147.9,1012.8,1147.4,1013z"/>
<path class="st0" d="M1160.2,1049.2l-85.9,38.6c-1.2,0.5-2.6,0-3.1-1.2l-5.4-12c-0.5-1.2,0-2.6,1.2-3.1l12-5.4l73.9-33.2
	c1.2-0.5,2.6,0,3.1,1.2l5.4,12C1161.9,1047.2,1161.4,1048.6,1160.2,1049.2z"/>
<path class="st0" d="M1176.8,1085.7l-88.3,39.7c-0.5,0.2-1.1,0-1.3-0.5l-6.5-14.5c-0.2-0.5,0-1.1,0.5-1.3l88.3-39.7
	c0.5-0.2,1.1,0,1.3,0.5l6.5,14.5C1177.5,1084.9,1177.3,1085.5,1176.8,1085.7z"/>
<path class="st0" d="M967.8,1058.7c-5.1-0.2-11.2,0.9-11.2,0.9s-2.2-4.1-4.1-7.8c-2-3.7,1.4-9.8,1.4-9.8l83.9-43.3"/>
<polygon class="st0" points="1023.1,1047.1 973,1070.6 967.1,1058.4 1016.7,1034.1 "/>
<polygon class="st0" points="1037.6,1083.6 987.7,1107.2 980.7,1092.9 1030.3,1068.5 "/>
<polygon class="st0" points="1053.3,1118.1 1000.9,1142.9 997.8,1127.8 1047.4,1103.5 "/>
<path class="st0" d="M976.6,1068.9c0,0-8.7,8.5-9.5,9.3c-0.8,0.8-3.2,4.3-1.2,9.7c2,5.4,6.7,9.9,14.8,5"/>
<path class="st0" d="M985.1,1102c0,0-0.8,9.3-4.4,11.9c-3.7,2.5-3.9,6.1-2.3,8.8c1.6,2.7,4.1,7,4.1,7s3.7,3.7,9,1.6l11.4-6"/>
<path class="st0" d="M1004.1,1141.4c0,0-11.6,5.6-11.8,7.6s1,11,2.7,11.8c1.8,0.8,10.4,5.3,20.2,1s13.3-3.5,14.9-2.4
	s4.3,8.7,2.7,11.7l-26.3,12.4c0,0,0.6,12.9,3.9,14.4c3.3,1.5,29.4-8.9,29.4-8.9s5.5,12.5,5.5,13.1l1.7,3.9l-29.3,12.1l6,15.3
	l154.4-62.4"/>
<line class="st0" x1="1016.7" y1="1034.1" x2="1130.9" y2="976.4"/>
<line class="st0" x1="1053" y1="1035.8" x2="982.7" y2="1066.1"/>
<line class="st0" x1="1068.3" y1="1048.5" x2="1012.3" y2="1077.4"/>
<line class="st0" x1="1095.8" y1="948.5" x2="1105.6" y2="968.2"/>
<line class="st0" x1="1106.8" y1="943.2" x2="1116" y2="963.5"/>
<line class="st0" x1="1125.3" y1="934.4" x2="1135.9" y2="958.6"/>
<path class="st0" d="M1127.5,963.1c1-0.4,53.7-24.3,53.7-24.3"/>
<line class="st0" x1="1132.1" y1="973.3" x2="1183.3" y2="951.3"/>
<line class="st0" x1="1143.4" y1="998.6" x2="1181.2" y2="981.7"/>
<line class="st0" x1="1147.4" y1="1010.4" x2="1181.2" y2="995.1"/>
<line class="st0" x1="1181.2" y1="1023.3" x2="1156" y2="1034.1"/>
<line class="st0" x1="1183.3" y1="1037.6" x2="1161.4" y2="1046.1"/>
<line class="st0" x1="1113.6" y1="984.8" x2="1122.9" y2="1004.4"/>
<line class="st0" x1="1125.3" y1="979.2" x2="1135" y2="999"/>
<line class="st0" x1="1126.5" y1="1023.3" x2="1135" y2="1040.9"/>
<line class="st0" x1="1139.7" y1="1016.4" x2="1147.4" y2="1034.1"/>
<line class="st0" x1="1141.7" y1="1057.5" x2="1150.8" y2="1077.9"/>
<line class="st0" x1="1156" y1="1052.3" x2="1164.3" y2="1071.8"/>
<line class="st0" x1="1156.2" y1="1095" x2="1164.3" y2="1113.2"/>
<line class="st0" x1="1168.6" y1="1089.4" x2="1175.9" y2="1108.3"/>
<line class="st0" x1="1025.6" y1="1089.3" x2="1084.3" y2="1063.7"/>
<line class="st0" x1="1025.6" y1="1114.2" x2="1109.8" y2="1071.8"/>
<line class="st0" x1="1031.5" y1="1128.4" x2="1105.6" y2="1098.1"/>
<path class="st0" d="M1012.3,1162.7c1.6-0.5,99.1-47.6,99.1-47.6"/>
<polyline class="st0" points="1060.2,1139.8 1067.7,1157.3 1126.5,1130.2 "/>
<line class="st0" x1="1138.7" y1="1140.7" x2="1036.4" y2="1190.4"/>
<polyline class="st0" points="1073.8,1171.7 1082.7,1191.6 1149.7,1162.7 "/>
<line class="st0" x1="1170.2" y1="1127.4" x2="1178.2" y2="1151.3"/>
<line class="st0" x1="1139.7" y1="970.6" x2="1150.8" y2="995"/>
<line class="st0" x1="1156" y1="1008.2" x2="1166" y2="1029.8"/>
<line class="st0" x1="1170.2" y1="1042.6" x2="1181.2" y2="1067.7"/>
<polyline class="st0" points="1020.5,852 883,931 877.8,918.8 990.6,849.8 1000.4,842.7 "/>
<polyline class="st0" points="1037,930.8 910.6,998.6 905.5,988.6 1030.2,915.5 "/>
<polyline class="st0" points="910.6,998.6 943.3,995.1 946.5,1004.9 "/>
<line class="st0" x1="941.8" y1="993.8" x2="971.6" y2="978.7"/>
<line class="st0" x1="967.3" y1="968.2" x2="975.8" y2="987.6"/>
<line class="st0" x1="981.1" y1="960.8" x2="990.2" y2="979.4"/>
<line class="st0" x1="988.8" y1="956.7" x2="997.8" y2="975.1"/>
<line class="st0" x1="995.6" y1="953.4" x2="1004.1" y2="971.5"/>
<polyline class="st0" points="1023,893.2 903.3,963.5 895.1,962.3 891.6,955.8 896.3,951.1 1016.2,878 "/>
<path class="st0" d="M906.2,961.8c1.7-1,35.7-6,35.7-6l4.3,9"/>
<line class="st0" x1="951.9" y1="936.2" x2="960.6" y2="956.3"/>
<line class="st0" x1="958.8" y1="931" x2="967.7" y2="952.1"/>
<line class="st0" x1="967.1" y1="926.1" x2="975.8" y2="946.5"/>
<line class="st0" x1="974.5" y1="921.7" x2="984.4" y2="942.4"/>
<line class="st0" x1="980.7" y1="918.1" x2="990.6" y2="938.8"/>
<line class="st0" x1="1082.4" y1="911.8" x2="1090.8" y2="931"/>
<line class="st0" x1="1094.2" y1="906.4" x2="1101.9" y2="926.6"/>
<line class="st0" x1="1067.7" y1="873.2" x2="1076.3" y2="894.8"/>
<line class="st0" x1="1082.4" y1="866.6" x2="1090.8" y2="888.3"/>
<line class="st0" x1="1053" y1="837.4" x2="1061.9" y2="857.5"/>
<line class="st0" x1="1067.7" y1="830.8" x2="1076.3" y2="850.3"/>
<path class="st0" d="M1068.8,791l-77,34.6c-0.5,0.2-1.1,0-1.3-0.5l-6-13.4c-0.2-0.5,0-1.1,0.5-1.3l77-34.6c0.5-0.2,1.1,0,1.3,0.5
	l6,13.4C1069.5,790.2,1069.3,790.8,1068.8,791z"/>
<polyline class="st0" points="1006.4,819.1 868.9,898 863.7,885.9 976.4,816.9 986.3,809.8 "/>
<path class="st0" d="M1052.3,748.7l-77,34.6c-0.5,0.2-1.1,0-1.3-0.5l-6-13.4c-0.2-0.5,0-1.1,0.5-1.3l77-34.6c0.5-0.2,1.1,0,1.3,0.5
	l6,13.4C1053.1,747.9,1052.9,748.5,1052.3,748.7z"/>
<polyline class="st0" points="989.9,776.7 853.8,858.9 847.9,847.4 960,774.5 969.8,767.5 "/>
<line class="st0" x1="1038.9" y1="804.5" x2="1046.6" y2="822"/>
<line class="st0" x1="1053.6" y1="797.9" x2="1061.3" y2="815.4"/>
<polyline class="st0" points="854.3,858.8 884.5,858.8 918,843.4 "/>
<line class="st0" x1="910.6" y1="826.5" x2="921.8" y2="850.3"/>
<line class="st0" x1="924.2" y1="817.4" x2="935" y2="840.5"/>
<line class="st0" x1="1021.5" y1="762.5" x2="1032.5" y2="789"/>
<line class="st0" x1="1036.4" y1="755.9" x2="1047.7" y2="782.2"/>
<line class="st0" x1="1049.4" y1="750" x2="1060.7" y2="776.3"/>
<line class="st0" x1="1011.8" y1="719" x2="1022.5" y2="743.8"/>
<line class="st0" x1="1031.3" y1="710.7" x2="1041" y2="734.9"/>
<line class="st0" x1="1067.7" y1="793" x2="1074.3" y2="808.9"/>
<line class="st0" x1="1080.2" y1="825.2" x2="1089" y2="845.3"/>
<line class="st0" x1="1094.2" y1="861.3" x2="1103.2" y2="882.8"/>
<line class="st0" x1="1108.5" y1="898.7" x2="1116.8" y2="920.2"/>
<line class="st0" x1="926.3" y1="865" x2="935" y2="883.8"/>
<line class="st0" x1="941.8" y1="856.1" x2="950.4" y2="874.4"/>
<line class="st0" x1="951.9" y1="852.6" x2="959.4" y2="868.9"/>
<line class="st0" x1="963.9" y1="886.8" x2="972.9" y2="904.4"/>
<line class="st0" x1="939.2" y1="898.7" x2="947.7" y2="918.1"/>
<line class="st0" x1="953.5" y1="890.5" x2="962.1" y2="911"/>
<path class="st0" d="M978.8,1219.8c0,0,7.9,14.3,11.3,27.5"/>
<path class="st0" d="M1189.1,706.5l-123.8,40.9c-6.8,2.9-9.2,0-9.2,0l-4.6-12.5c-2.6-5.4,0-6.9,0-6.9l10.3-3.7l127.3-47.5"/>
<path class="st0" d="M1062.2,775.8c0,0,0.8-6.8,5.5-8.3c4.7-1.6,121.4-41.5,121.4-41.5"/>
<line class="st0" x1="1068.8" y1="788.5" x2="1189.1" y2="745"/>
<line class="st0" x1="1076.1" y1="808.7" x2="1187.7" y2="769"/>
<path class="st0" d="M1082.9,821.4c2.2,0.7,104.8-33.1,104.8-33.1"/>
<path class="st0" d="M1090.7,844.6c1.8-0.1,97-32.8,97-32.8"/>
<line class="st0" x1="1098.7" y1="856.7" x2="1177.4" y2="832.1"/>
<path class="st0" d="M1104.7,882.1c1.8,0,74.1-25.9,74.1-25.9"/>
<line class="st0" x1="1095.8" y1="861.3" x2="1177.4" y2="833.6"/>
<line class="st0" x1="1113.3" y1="895.4" x2="1177.4" y2="874.4"/>
<line class="st0" x1="1133.5" y1="913.5" x2="1178.8" y2="894.8"/>
<line class="st0" x1="1181.2" y1="911.8" x2="1132.3" y2="928.6"/>
<path class="st0" d="M1187.7,657.1L1041,706.5l-83.2,35.6l-119.2,81.5l-37.9-83.2c0,0-4.1-8.8,7.4-14.4"/>
<path class="st0" d="M820.7,708.3c-19.4,7.6-10.6,21.8-10.6,21.8l25.9,65.3c-0.6,4.1-6.5,5-6.5,5"/>
<path class="st0" d="M836,692.1"/>
<path class="st0" d="M822,720.9c0,0-5.2,2.1-4.3,6.5c0.9,4.4,27.1,61.7,27.1,61.7s0.3,1.5,3.1-0.7c4.6-3.6,1.9-10.4,1.9-10.4
	s-20.9-42.6-27.8-58.5c-6.9-15.9,13.1-27.3,13.1-27.3"/>
<path class="st0" d="M832.1,694.2c0,0-6.4,8-0.1,20.6c6.4,12.5,24.8,60.2,24.8,60.2s3.1,4.7,6.9,2.9c3.7-1.8,2.5-6.5,2.2-7.4
	c-0.4-1-27.1-62.1-27.1-62.1s-9-20.2,1.2-23.9l9.4-5.6"/>
<path class="st0" d="M847.8,693.8c0,0-4.8,2-2.3,7.3c2.5,5.3,26.1,60.6,26.1,60.6s2.9,7.8,8.2,5.9c0,0,4.7-0.6,1.8-8.2
	c-2.9-7.6-26.7-63.1-26.7-63.1S854,692,847.8,693.8z"/>
<path class="st0" d="M957.8,740.8c0,0-35.5-83.9-36.9-87.4c-1.4-3.5,2.2-10.2,2.2-10.2l42-28l58-20.8"/>
<path class="st0" d="M961,631l-18.1,14.9l26.1,61.4l22.2-10.2L960,625.7c0,0,40-18.6,41.4-19.8c0,0,117.6-65.1,173.3-75.3"/>
<path class="st0" d="M900.2,656.6c-12.2,5.2-6.1,15.2-6.1,15.2l26.5,61.9c0,0,1.9,2.2,6.2,1.1s3.9-7.2,3.9-7.2s-19.6-46.1-26.9-61.9
	c-7.3-15.9,1-22.2,1-22.2l93.7-57.2l77.7-28.6l43.5-9.2"/>
<path class="st0" d="M945.6,618.7l-57.8,30.9c0,0-11.6,5.7-5.3,19.6c6.3,13.9,29.4,65.6,29.4,65.6s4.3,8.1,1.6,10.1
	c-2.7,2.1-7.3,2.1-9-1.1s-29.6-70.2-29.6-70.2s-4.3-8.2,4.7-11.2"/>
<path class="st0" d="M867.6,678.9c-8.5,2.2-5.3,10-5.3,10s25.3,61,25.7,61.1c0.4,0.2,4.1,9.3,8.4,7.3c4.3-2,0-10.8,0-10.8
	s-31-73.7-31.8-79.5c-0.8-5.9,72.5-43.7,72.5-43.7s-6.1-18.4,0-22.5c6.1-4.1,70.8-39.4,101.7-51.2c30.8-11.8,68.7-22.7,77.1-22
	s12.8,3.7,14.1,6.7c1.3,2.9,0.8,9.8,0.8,9.8"/>
<path class="st0" d="M865.9,663.9c0,0-15.9,11-16.5,14.1c-0.6,3,5.6,18.5,8.8,25.8"/>
<line class="st0" x1="1039.2" y1="707.3" x2="997.8" y2="607.8"/>
<path class="st0" d="M988.3,571.8v-19h-7.4l-2.3-8.1l4.7-3.7v-9.1l-11.5-1.2l-1.5-4.4l4.4-5.9l-0.9-7.6l-8.8-5
	c0,0,1.2-14.7,4.1-17.6c2.9-2.9,30.2-19.7,49.3-21.5c19.2-1.8,22.5,5.3,22.5,5.3l3.7,5l-5.6,7.6l1.8,7.1l9.3,0.3l2.6,5.9l-3.6,5
	l0.9,5.6l8.4,2.1l3.4,7.7l-3.4,7.4l11.8,10.9"/>
<path class="st0" d="M973.9,512.7c0,0,21.8-18.5,65.3-26.2"/>
<path class="st0" d="M974.8,520.4c0,0,31.1-21.5,66.3-26.8"/>
<path class="st0" d="M980.4,530.7c0,0,19.5-24.2,70.8-28.3"/>
<path class="st0" d="M983.3,541c0,0,28-25.6,75.4-28.5"/>
<path class="st0" d="M988,553c0,0,29.5-27.5,72.1-28.4"/>
<path class="st0" d="M1293.3,512.8h19.3c0,0,4.1,0.1,8.2,7.5c4.1,7.4,32.3,87.5,32.3,87.5l-29.7,19.4l37.3,3.5
	c0,0,3.5,18.2,5.3,17.7s-72.6,44.9-72.6,44.9"/>
<path class="st0" d="M1293.8,670.6c2.4-0.6,55.9-20,55.9-20l-9.3-21.9l-46.6,12.5"/>
<polyline class="st0" points="1298.5,623 1330,611.8 1287.3,513 "/>
<polyline class="st0" points="1303,516.6 1330,583.8 1345.3,583.8 "/>
<polyline class="st0" points="1324.3,674.5 1353.8,670.6 1359.1,683.9 1291.5,710.7 "/>
<polyline class="st0" points="1352.3,670.8 1373.8,670.8 1382,684.8 1359.3,684.8 "/>
<polyline class="st0" points="1381.4,685.3 1323.3,723.1 1312.3,712.7 1312.3,727.1 1291.3,734.9 "/>
<polyline class="st0" points="1371.6,703.7 1387.4,704.2 1395.7,719.8 1374.4,719.8 1371.4,703.8 1355.3,703.8 "/>
<polyline class="st0" points="1395.7,720 1336.4,758.3 1325.3,748.7 1327.9,762.5 1287.3,776.3 "/>
<line class="st0" x1="1287.3" y1="750" x2="1374.4" y2="720"/>
<path class="st0" d="M1382,736.4l8.9,22l15.6-5.1l-5.6-15.6c0,0-24.1-1.2-25.5-2.5"/>
<polyline class="st0" points="1343.7,753.7 1390.9,758.3 1341.5,778.3 1287.3,797.9 "/>
<polyline class="st0" points="1287.3,813.2 1339.1,797.9 1336.4,780.1 1374.4,804.9 1299.7,832.8 "/>
<line class="st0" x1="1349" y1="788.3" x2="1390.9" y2="758.3"/>
<line class="st0" x1="1370" y1="773.3" x2="1400.4" y2="773.4"/>
<polyline class="st0" points="1374.6,804.7 1400.4,792.8 1404.3,793.6 "/>
<polyline class="st0" points="1297.9,850.3 1352.6,832.1 1348.5,814.5 "/>
<path class="st0" d="M1359.7,811.2l5,10.8l20.5-10.2c1.5-1.8,24.5-13.9,24.5-13.9l25.3,13.9l2.9,8.7l-26.3,11.5l-120.1,45.4"/>
<line class="st0" x1="1385.2" y1="811.8" x2="1411.5" y2="832.1"/>
<path class="st0" d="M1422.4,804.9c0,0,3.7,4.4,22,3c3.9-0.3,17.3,0.8,22.7-3.9c5.5-4.7-0.8-8.6-0.8-8.6c-1.6-3.9,3.1-25.1,3.1-25.1
	c10.2-54.1-7.1-293.3-7.1-293.3c11-87,114.5-118.4,114.5-118.4"/>
<path class="st0" d="M1467.1,803.9"/>
<line class="st0" x1="1515.1" y1="835.3" x2="1459.6" y2="960.6"/>
<path class="st0" d="M1287.3,895.6c2.9-0.4,71.7-23.6,71.7-23.6l5.6,16.3l-77.3,29.8"/>
<polyline class="st0" points="1359.1,872 1400.4,861.3 1406.5,874.4 1364.7,888.3 "/>
<polyline class="st0" points="1400.4,861.3 1419.1,858.9 1425.3,868.9 1406.5,874.4 "/>
<path class="st0" d="M1283.2,941.5c1.8-1,84.1-30.5,84.1-30.5l7.1,15.6l-87,35.2"/>
<polyline class="st0" points="1367.3,911 1412.9,895.6 1419.1,911 1374.4,926.6 "/>
<polyline class="st0" points="1412.9,895.6 1432.6,894.8 1437.9,904.2 1419.1,911 "/>
<polyline class="st0" points="1283.2,981.7 1382,946.3 1389.5,962.3 1280.9,1007.2 "/>
<polyline class="st0" points="1382,946.3 1429.7,932.1 1433.2,946.3 1389.5,962.3 "/>
<path class="st0" d="M1429.7,932.1c3.5-0.9,16.5-3.6,16.5-3.6l3.5,10.4l-16.5,7.4"/>
<line class="st0" x1="1370" y1="847.8" x2="1375.4" y2="866.7"/>
<line class="st0" x1="1382.8" y1="882.1" x2="1389.5" y2="903.5"/>
<polyline class="st0" points="838.9,1111.1 835.7,1098.8 852.3,1095 852.3,1087.8 "/>
<line class="st0" x1="696.2" y1="1446.4" x2="714.8" y2="1442.7"/>
<line class="st0" x1="896.3" y1="1070.6" x2="952.5" y2="1051.7"/>
<polyline class="st0" points="896.3,1083.8 957.8,1063.7 963.9,1076.4 898.6,1093.5 839,1111.1 850.4,1163.1 851.8,1171 "/>
<path class="st0" d="M957.8,1063.7"/>
<line class="st0" x1="957.8" y1="1063.7" x2="968.4" y2="1061.1"/>
<polyline class="st0" points="831.3,1074.3 849.3,1068.9 849.3,1057.8 "/>
<path class="st0" d="M871.3,1052.8v10l20.2-6l2.1,15l-62.5,15.2l0-12.8c0,0,0,0,0.1,0"/>
<path class="st0" d="M1177.4,486.6l3.8,38c0,0,34.6-10.7,87.1-4.5l14.9,4.5c0,0-1.4-23.3-3.4-33.3s-19.5-11-19.5-11
	S1218.4,471.9,1177.4,486.6z"/>
<path class="st0" d="M1189.3,548.8v23c0,0,49-10,109,6.5v-22.5C1298.3,555.8,1251.8,537.3,1189.3,548.8z"/>
<path class="st0" d="M1193.3,600.8v32c0,0,44-4,66.5,3.5s25.5,9.5,25.5,9.5l2-34c0,0-16.5-11-39.5-11S1193.3,600.8,1193.3,600.8z"/>
<line class="st0" x1="1196.3" y1="570.8" x2="1196.3" y2="600.8"/>
<polyline class="st0" points="1291.3,578.8 1291.3,602.8 1286.5,611.2 "/>
<path class="st0" d="M1196.3,633.1c0,0-0.7,6,0,6.3c0.7,0.3,4.5,2.3,5.3,4c0.8,1.7-5.6,10.3-5.6,10.3l4.8,6c0,0,0.4,6.7-1.9,8
	c-2.4,1.3,1.3,7.2,1.3,7.2s4.8,4.2,1.6,6.2s-5.7,4.2-5.7,4.2s4,4,4.6,5.3s-0.3,7.4-3,8.8c-2.7,1.3,1.3,7.5,3,7.8s-4.1,7.3-4.6,8
	c-0.5,0.7-1.7,4.3,2.5,5.8c4.2,1.5,2.5,5.2,0.7,6.2c-1.8,1-6.3,3.4-3.1,7.9s3.5,6.6,1.3,8.1c-2.2,1.5-3.9,7-1.3,9.5s-0.6,7-1.3,9.2
	c-0.7,2.2,0.1,6.3,2.6,7.8s2.5,4.8,0.2,6.6c-2.3,1.8-4.6,7.6-1.5,10.8s2,2.8-0.9,5.7c-2.8,2.8-4.4,7.7,0.9,10c5.3,2.3,2.2,6.3,0,7.2
	c-2.2,0.8-7.7,5.5-2.7,8.5"/>
<path class="st0" d="M1196.3,639.4c0,0,39.8-1.2,57.7,4.7c17.8,5.8,29.8,15.2,29.8,15.2s2.9,2.7,2.6,6.5c-0.3,3.8-3.8,1.8-4.1,3.7
	c-0.3,1.8,1.5,7.1,1.5,7.1"/>
<line class="st0" x1="1282.3" y1="645.8" x2="1282.3" y2="656.8"/>
<path class="st0" d="M1196,653.8c0,0,64.6,6.8,86.3,21.7l4.1,4.5l-4.1,3.8c0,0-2.7,2.8-2.3,3.5c0.3,0.7,5.9,5.2,6.5,5.9
	c0.5,0.7-6.3,9.7-6.5,10.5c-0.2,0.8,7,5.3,7.4,6.4c0.3,1.2-6,8.3-6.5,9.9s5.4,4.1,5.6,5.2c0.2,1.2,0,6.8-2.6,8
	c-2.7,1.2-3.7,3-3.7,3.7c0,0.7,5,3.7,5.2,4.3c0.2,0.7-4.3,7-5.5,9.6c-1.2,2.6,1.2,4.4,1.8,5.1c0.7,0.7,3.5,6.2,2.2,6.7
	c-1.3,0.5-5.2,0.8-5.5,2.5c-0.3,1.7,0.7,6,1.5,6.8c0.8,0.8,5,4.8,2.5,6.2s-5,5.7-3.3,7.8c1.7,2.2,5.5,3.7,4.8,4.7
	c-0.7,1-8.8,5.2-7.7,8.1s4.7,4.7,4.7,5.2s0.8,4.2-0.8,5.7c0,0-4.5,4.8-1.5,7.8s3.8,6.1,3.8,6.1"/>
<path class="st0" d="M1197.1,803.3c0,0,65.1,3.3,79.6,11.2"/>
<path class="st0" d="M1276.1,797.9c-16.3-10.4-78.4-8.8-78.4-8.8"/>
<path class="st0" d="M1197.1,791c0,0,49.3,1.4,83.8,13.7"/>
<path class="st0" d="M1199.1,774c0,0,63.3,4.4,83.4,14.8"/>
<path class="st0" d="M1197.3,769.8c0,0,72.7,1.5,85.2,6.6"/>
<path class="st0" d="M1197.3,754.6c0.5,0,66.6,3.9,80.3,12.1"/>
<path class="st0" d="M1196,735.2c0,0,68,9.1,83.5,17.5"/>
<path class="st0" d="M1198.7,741.2c0,0,46.8,2,72.4,8.1"/>
<path class="st0" d="M1234.9,743.9c0,0,40.5,9.9,49,17.7"/>
<path class="st0" d="M1223.4,776.3c0,0,47.4-1.4,58.9,0.8"/>
<path class="st0" d="M1236.9,778"/>
<path class="st0" d="M1237.8,778.2c0,0,34.6,7.4,38.9,18.4"/>
<path class="st0" d="M1230.1,757.3c0,0,40.1-2.7,41.9-2"/>
<path class="st0" d="M1283.8,741.2c-10.7-5.5-83-18.3-83-18.3s76.3,0.7,85.6,2.3"/>
<path class="st0" d="M1231.7,740.7c0.6,0.1,48.3-1.7,52.7-0.4"/>
<path class="st0" d="M1200.7,707.3c0,0,70.3,10,83.7,16.1"/>
<path class="st0" d="M1199.1,706.1c1.6,1.2,77.5,0.2,87.4,4.6"/>
<path class="st0" d="M1200.7,690.7c0,0,69.2,9.3,84.8,18.6"/>
<path class="st0" d="M1202.8,690.7c0,0,72.5,0.3,82.6,2.5"/>
<path class="st0" d="M1201.8,676.8c0,0,68.2,7,82.5,14.4"/>
<path class="st0" d="M1199.8,674.3c0.4,0.7,76.6-1.6,85.7,4.6"/>
<path class="st0" d="M1200.8,659.8c0,0,71,11.8,81.7,16.8"/>
<path class="st0" d="M1228.8,658.4c0.6,0.7,46.9-2.3,50.7-1.6"/>
<path class="st0" d="M875,658.3c0,0-28.2-1.7-30.3,1.7c-2.1,3.3-66.7,33.5-66.7,33.5s-46.8,33.7-48.7,38.7c-1.9,5-10.6,8.3-9.3,11.7
	c1.3,3.3,11,61,14.8,62.8c3.8,1.8,26.5-3.2,27.2-2.2c0.7,1,1.7,4.4,1.7,4.4s-23.3,9.2-23.3,10.9s3.3,14,4.3,13.8c1-0.2,24,0,24,0
	l7-2.8l2,2.8L750,847.5c0,0,2,8.1,3.6,9.2s19.3,1.6,21.3,0.8c2-0.7,13.3-6.4,13.3-6.4s2.7,0.6,1.7,2.8s-32.7,15.2-32.7,15.2
	s-1.3,4.7,1.7,8.3c3,3.7,3,4.3,5.7,4.6c2.7,0.4,29-7,31-7.7c2-0.6,1.8,3.6,1.8,3.6l-34.2,16.8c0,0-0.7,1.7,0.7,3.8
	c1.3,2.1,3.3,5.8,3.3,5.8s9.3,0,12.7,0c3.3,0,9-0.2,9-0.2l21.7-8.5l0.3,3l-41.3,17.8c0,0,1.7,8.5,4,10.1c2.3,1.5,22-0.5,22-0.5l22-7
	l1.3,2.6l-41,17c0,0-1,1.2-0.7,3.6c0.3,2.4,4,8.6,4,8.6s3.7,0.8,6.7,0.3s32.3-9.7,32.3-9.7v5.2l-22.8,9c0,0-2.2,2.9,0,7.3
	c2.2,4.4,7.5,7.1,8.2,8.4c0.7,1.3,1.9,2.5,2.5,4.9c0.5,2.4-5.5,5.4-5.5,5.4s0.7,9,3.7,10.5s6.7,1.5,6.7,1.5l4.7,9.5l-8.5,4.2
	l1.3,8.3h8.8l0.8,11h-3.8l0.8,13.2l25.2-3.2v9.1l-18,5.5"/>
<path class="st0" d="M943,1006.7l-1.1-5.5l-63.6,19.1v-11.7c0,0-18,5.8-19,6.2v-12l58.1-4.1"/>
<line class="st0" x1="864.7" y1="1026" x2="884.3" y2="1018.6"/>
<path class="st0" d="M817.8,1038.4c0.8-0.3,60.5-18.1,60.5-18.1"/>
<path class="st0" d="M842.3,1036.8c1-0.8,22-10,22-10v10.6l19.9-5.8l2.4,17.2l-62.5,15.2l0-12.8c0,0,0,0,0.1,0"/>
<polyline class="st0" points="906.2,988.4 873.3,995.1 873.3,981.8 854.7,990.6 853,977.1 908.2,961.3 "/>
<polyline class="st0" points="865.7,972.9 864.7,957.1 848.1,962.4 847.2,951.3 858.7,948.1 857.8,932.1 840.3,939.9 840.3,926.8
	868.3,915.5 867.5,894.8 "/>
<line class="st0" x1="868.3" y1="915.5" x2="884.8" y2="914.5"/>
<polyline class="st0" points="869.7,897.6 902.5,894.8 933,879.4 "/>
<line class="st0" x1="883" y1="931" x2="928.5" y2="931.5"/>
<polyline class="st1" points="830.1,804.9 801.5,818.9 797.4,806.6 824.2,794.1 "/>
<path class="st1" d="M730.7,742.1l10.3,40.1c0,0,1,1.1-1,3.4s-3.7-1.2-3.7-1.2s-10.8-38.3-10.3-41.3s3-2.8,3-2.8
	S730.3,740.9,730.7,742.1z"/>
<path class="st1" d="M750,780.9L750,780.9c-2.1,0.6-3.3,0-3.9-2.1l-12.5-43.6c-0.4-2.1,0.5-3,1.1-3.9l1.1-0.4c2.1-0.6,3.4,0.4,4,2.5
	l11.6,43C751.9,778.3,752.1,780.2,750,780.9z"/>
<path class="st1" d="M747.5,723.3c0,0-3.6-0.4-3.9-0.3s-1,1.9,0,4.6s12.8,44.8,12.9,45s1,2.8,3.8,2.4s2.9-2.1,2.6-3.6
	S746.4,724.1,747.5,723.3z"/>
<path class="st1" d="M761,722.9c0,0-2.7-2.5-5-1.7c-2.3,0.8-2.2,3.5-1.7,5.5s12.5,40,12.5,40s2.2,3.5,4.7,3.4s3.2-1.8,3.2-2.6
	C774.7,766.6,761.8,725.1,761,722.9z"/>
<path class="st1" d="M761.7,710.7c0.8-0.9,6.7-0.9,7.7,0.8c1,1.7,14.7,46.1,14.7,46.1s2.5,4.9,0,5.8s-5.2,0.4-6.3-2.3
	c-1.2-2.7-12.3-47.2-12.3-47.2S760.8,711.6,761.7,710.7z"/>
<path class="st1" d="M779.3,705.6c0,0-4-0.8-3.8,1.7c0.2,2.5,13.5,45,13.8,46s1.3,4,4.7,2.6c3.3-1.4,0.8-5,0.8-5l-12.5-42.6
	C782.3,708.3,780.3,705.7,779.3,705.6z"/>
<path class="st1" d="M806.3,752.6c0,0-0.7,2-3,1.6s-3.3-3.4-3.3-3.4s-8.8-36.2-10.5-41.9c-1.7-5.7,0-5.2,0-5.2s2.5-1.8,3.5,0
	c1,1.8,7.8,27.6,7.8,27.6"/>
<path class="st1" d="M808.1,724.1c0,0-6.4-19-6.6-22.2c-0.2-3.2,4-4,4-4s6.5,15.5,5.7,16.5"/>
<polyline class="st1" points="813.2,767.8 785.1,783.1 788.7,794.1 817.7,780.1 "/>
<line class="st1" x1="744" y1="832.8" x2="797.4" y2="806.6"/>
<line class="st1" x1="764.3" y1="807.6" x2="788.7" y2="794.1"/>
<path class="st1" d="M737.5,789.5c0,0,0.5,9.1,3.8,10.1s42.7-15.9,45.6-17.4"/>
<path class="st1" d="M743.1,799.7c0,0,23-0.5,24.2,0"/>
<circle class="st1" cx="811.6" cy="691.9" r="1.4"/>
<circle class="st1" cx="820.3" cy="686.5" r="2.7"/>
<circle class="st1" cx="830.2" cy="682.1" r="1.7"/>
<circle class="st1" cx="821.2" cy="695.3" r="0.9"/>
</svg>
