<svg version="1.1" id="Calque_1" xmlns="http://www.w3.org/2000/svg" xmlns:xlink="http://www.w3.org/1999/xlink" x="0px" y="0px"
	 viewBox="0 0 1105.9 1524.5" style="enable-background:new 0 0 1105.9 1524.5;" xml:space="preserve">
<g id="_x36_UJ5z1_1_">
	<path d="M169.1,721.2c0.5,0.1,1.1,0.2,1.6,0.3c-0.3,2.1-0.2,4.4-1,6.2c-1.6,3.8-2.6,7.5-0.3,11.3c1.1-1.4,2.2-2.8,4.3-5.6
		c-0.4,3-0.7,4.9-1,7c1.4,9,3,18.4,4.5,27.9c0.3,0,0.6-0.1,0.9-0.2v-28.8c-0.6,0.2-1.5,0.5-2.2,0.7c1.1-2.3,2.6-4.3,3.1-6.6
		c0.4-2.1-0.2-4.5-0.5-8.1c2.8,1.9,4.2,2.9,5.8,4c0.9-1.5,1.9-3.1,2.8-4.8c0.5,0.2,0.9,0.5,1.4,0.7c-1.3,2.1-2.2,4.6-3.9,6.1
		c-4.6,4.1-4.2,9.7-4.8,14.9c-0.1,1.2,1.5,2.7,1.9,3.4c-2.9,0.5-3.2,4.2-3.2,7.5c0,0.9,3,1.8,4.9,2.8c-0.7,1.1-1.6,2.8-2,3.4
		c1,7,1.9,12.9,2.7,18.9l1.2,0c0.8-8.6,1.5-17.2,2.3-25.8c0.6-0.1,1.1-0.2,1.7-0.4c2.2,5.1,5.5,10,6.3,15.3
		c0.8,5.9,3.4,9.5,8.4,12.2v-5.2c1.9-0.7,3.6-1.2,4.6-1.5c4.1,3.2,8,6.3,12,9.5c1.5-2.7,2.9-5.2,3.9-7c3.9,3.3,7.8,6.6,11.7,9.8
		c0.6,0.5,1.7,1.3,1.8,1.2c4.1-4.2,7,1.1,10.5,1.3c3.9,0.2,7.8,0.8,12,1.3c-2.1-2.3-4.1-4.5-6.7-7.5c1.9-0.2,3.1-0.5,4.3-0.5
		c1.4,0,2.8,0.1,4.2,0.4c6.3,1,12.5,2,18.8,3c0.9,0.1,2.5,0.4,2.7,0c2.8-4.3,4.7-0.4,7.4,0.8c0.1-0.8,0.4-2,0.4-2
		c4.8,0.7,9.5,1.5,14.3,2.4c0.4,0.1,0.8,0.6,1.2,0.7c5.8,0.7,11.5,1.4,17.3,1.9c1.5,0.1,3-0.9,5.7-1.7c0.5,0.3,2.2,1.1,3.9,2
		c-0.1-0.4-0.2-0.8-0.3-1.2c1.4-0.5,2.9-1.5,4.3-1.4c4.7,0.2,6.9,2.5,6.8,7c1.6-0.1,3.1-0.2,4.7-0.3c0.1-0.2,0.1-0.5,0.2-0.7
		c-0.9-0.4-1.9-0.8-4-1.7c2.6-0.4,4-0.7,6.1-1c-1.5-1.2-2.5-2.1-3.6-2.9c0.3-0.2,0.5-0.5,0.7-0.5c1.8,0.3,3.6,0.7,5.4,1
		c0,0.4-0.1,0.8-0.1,1.2c1-0.7,2-1.5,3-2.1c1.2-0.7,2.5-1.3,4.1-2.1c-3.1-0.7-5.9-1.3-8.7-1.9c0-0.2,0-0.4,0.1-0.6h14.3
		c0.1-0.3,0.1-0.6,0.2-0.9c-1.8-1.2-3.6-2.3-5.4-3.5c0.1-0.2,0.2-0.5,0.3-0.7c2.4,0.3,4.9,0.6,7.3,0.9c0-0.4,0.1-0.8,0.1-1.1
		c-1.1-0.2-2.1-0.4-2.5-0.5c2.8-7.9,9.2-10.4,17.9-9.1c0.2,0.7,0.7,2.3,1.2,4c0.7-0.1,1.6-0.2,3-0.4c-1-1.5-1.8-2.8-3-4.6
		c2.8-0.3,5.2-0.5,7.6-0.7c0.1,0.5,0.2,1,0.3,1.4c0.4-1,0.8-2,1.1-3c0.2,0,0.4,0.1,0.7,0.1v5.4c1-0.6,2-1.3,3.8-2.4
		c0.9,5.4,1.6,10,2.4,15.2c1.5-1.4,2.4-2.3,3.5-3.3c1.2,3.5-5.5,6.8,0.4,10.1c-4.7,3.1-1,5.3,1,7.8c-0.2-1.9-0.5-3.8-0.8-5.7
		c0.6-0.2,1.1-0.5,1.7-0.8c1.1,1.9,2.2,3.8,3.5,6.1h4.6c0.1-1.9,0.2-3.7,0.3-4.9c3.7-1.9,7.1-3.7,11.3-5.9c-2.2-0.5-3.5-0.8-4.8-1.2
		c0.8-5.2,9.5-5.5,7-12.3l0.1,0.1c-0.8-1.4-1.5-2.9-2.6-4.9c2.7-0.4,4.6-0.6,6.7-0.9c-0.8-1.9-1.5-3.6-2.5-5.9
		c-0.8,1.7-1.5,3-2.8,5.7c-1.3-3.6-2.2-6-3.1-8.5c-4.9-0.2-4-5.2-5.4-8.3c-1.2-2.6,2.7-8,6.2-9.1c-1.4-0.4-2.4-0.7-3-0.8
		c1.3-1.9,2.5-3.8,3.8-5.6c2.1-1.2,4.1-2.5,6.5-3.8c0,0,0.4,1,0.8,2c0.2,0,0.5-0.1,0.7-0.1c0-1.7,0-3.4,0-5.1c0.1-1.6,0.3-3.1,0.4-5
		c1.8,1,3.2,1.7,4.8,2.5c-0.1,1.1-0.4,2.7-0.7,5.4c2.6-2.8,4.5-4.8,6.6-7.1c0.4,0.8,0.6,1.7,1.1,2.3c4.4,4.8,4.4,8,0,12.7
		c-2.5,2.7-4.1,5.8-3.4,9.9c1.1-0.3,2.2-0.7,3.2-1c-0.9,3.5-1.8,6.8-2.7,10.2c0.5,0.1,1,0.3,1.6,0.4c0.4-1.5,0.7-3,1.3-4.4
		c0.6-1.3,1.6-2.5,2.8-4.3c-0.2-0.7-0.7-2.2-1.3-4.1c1.6-0.6,3-1.2,4.8-1.8c-0.1-1.6-0.3-3.2-0.5-6.3c1.4,1.9,2.1,2.8,3.6,4.8
		c-1.5-6.8-2.7-12.2-4-18.1c0,0,0.9-0.5,2.4-1.4c-1.4-0.7-2.3-1.1-4.1-1.9c1.8-2.5,3.5-4.8,5.4-7.3c1.2,1.6,2.4,3.2,3.8,4.9
		c-1.5,0.9-2.8,1.7-4.6,2.8c0.5,2.2,1.1,4.4,1.8,7.1c2.6-1.9-1.4-8.7,4.6-6.3c5-4.2,4.5-10.5,6.7-16v9.4c0.3,0,0.6,0.1,0.9,0.1
		l1.5-4.6c0.4,0,0.7,0,1.1,0c-0.1,2.8-0.3,5.6-0.4,8.7c0.9-0.3,1.9-0.6,3.2-1c-0.4,2.3-0.7,4.6-1.1,7.3c-1.3-0.2-2.5-0.4-4.4-0.7
		c1.1,2.5,2.1,4.5,3,6.4c1.1-1.3,2.1-2.5,3.1-3.7c0.9,1.4,1.9,2.7,2.5,4.2c0.9,2.1,1.4,4.3,3.1,6.1c-1.6-4.6-3.2-9.2-5.3-15.3
		c1.3-0.8,3.8-2.3,5.6-3.4c-2.4-2-4.8-3-4.8-4.2c-0.1-3.4,2.6-2.3,4.6-2.1c0.9,0.1,1.9,0.1,2.8,0.2c-0.3-4.6,0.7-8.3,5.8-9.9
		c0.7-0.2,0.8-1.9,1.4-2.7c1.1-1.4,2.3-2.6,3.5-3.9c0.4,0.3,0.7,0.6,1.1,0.9v4.8c1.7-0.5,3.2-0.8,3.7-1c-1.8-5.5-3.5-10.3-5.1-15.2
		c0.4-0.1,0.8-0.2,1.2-0.4c1.3,2,2.6,4.1,3.8,6.1c0.6-0.6,1.3-1.3,2-1.9c-0.9-2.3-2.6-4.7-2.3-6.9c0.2-2.1,2.5-4,4-6.1
		c2.3,3.2,4.1,5.8,5.9,8.4c0.4-0.3,0.8-0.5,1.3-0.8c-0.6-1.4-1.2-2.8-1.7-4.2c2.3-1.5,4.6-2.8,6.1-3.8c-1.2-2.2-2.9-3.9-2.6-5.2
		c0.9-3.7,3.9-4.6,7.4-4.4c-0.3-1.3-0.7-2.6-1.1-4.2c3-0.8,5.9-2.2,5.7-6.4c-0.2-3.2,0-6.5,0-8.9c2.5,0.1,4.8,0.2,7.6,0.3
		c-0.6-2.6-0.9-4.1-1.3-6c0.8,0,1.9-0.1,2,0c1.6,5.4,4.4,3.2,7.7,1.7c2.2-1,4.9-0.9,7.3-1.3c0.2,0.5,0.5,0.9,0.7,1.4
		c-1.9,2.4-3.8,4.8-6.1,7.7c3.3,2.6,6.3,5,9.4,7.5c0.8-0.9,1.6-2.3,2.8-2.9c1.1-0.6,3-1,4-0.5c0.9,0.5,1.6,2.2,1.6,3.5
		c0.1,2.6-0.3,5.2-0.4,7.1c-2.9,1.4-5.7,2.7-9.4,4.6c-0.4-0.1-2.2-0.6-5-1.4c3.5,3.3,6.2,6,9.3,9c-4.7,1.9-6.3-6.7-10.6-1.1
		c2.2,1.3,4.9,2.1,6.1,3.9c1.2,1.8,0.9,4.7,1.2,7c-6.7,2.3-8.2,8.6-4.9,14c-1,0.4-2,0.8-4.3,1.8c3.2,1.1,5.3,1.8,7.4,2.5
		c0,0.3,0,0.5-0.1,0.8h-5l-0.5,1c2.8,1.5,5.5,3.1,8.4,4.8c-2.1,3.6-4.6-0.9-7.7,0.5c1.8,1.3,3.7,2.5,5.4,3.9
		c1.7,1.4,3.3,2.9,5.8,5.2c-6,0.3-10.8,0.6-15.7,0.9c2.9,1.5,5.6,3,8.3,4.4c-0.2,0.5-0.4,0.9-0.5,1.3c1.7-0.7,3.4-1.3,5.1-2
		c0.2,0.3,0.4,0.7,0.5,1c-1.3,1.4-2.6,2.7-4,4.2c1.5,3.6,2.9,7.2,4.5,11c-0.7,0.7-1.8,1.7-3.3,3.1c1.2,0.7,2.1,1.2,3,1.8
		c0,0.4,0,0.8,0,1.1h-6.8c2.8,5.5,4.5,5.7,8.2,1.3c0.7-0.9,2.1-1.1,4.5-2.3c-1.9,2.8-3,4.4-4.5,6.6h4.6c-1.3,3.4-1,7-6.1,7.7
		c-2,0.3-3.4,4-5.7,6.8c3.1-1.3,5.8-2.5,8.4-3.6c0.7,2.9-2.4,7.3-6.9,9.7c-4.2,2.3-9,4.5-6.2,11.5c0.9-1.8,1.7-3.3,2.6-5.1
		c2.3,0.5,4.7,1.1,7.1,1.6c0.1,0.4,0.2,0.8,0.3,1.2c-3.8,0.7-7.3,0.9-4.4,6.4c1,1.9-2.5,6.2-3.8,8.9c0.4,3.3,0.8,6.5,1.1,9.7
		c-0.3,0-0.6,0-0.9,0c2,5.1,4,10.3,5.9,15.3c-1,1.3-1.9,2.5-2.8,3.8c12.1-4.7,22-12.3,30.8-21.2c3.2-3.2,5.8-7.8,11.7-6.6
		c1.7,0.3,2.6-6.4,4.8-0.8c1.5-1.5,3-3,4.5-4.5c1,1.1,2,2.1,3.2,3.4c1.3-3.2,3.3-5.6,7.2-1.2c1.9-12.7,11.9-8.6,20-10.2
		c0.3,3.8,0.5,7.4,0.9,12.3c-1.2-1.8-1.7-2.5-2.4-3.6c-0.2,2.1-0.3,3.8-0.5,5.9c-1.7-2.1-3.2-4-4.7-6c-0.2,0.8-0.4,2-0.8,3.8
		c-0.7-1.7-1.2-2.9-1.6-4c-0.2,0-0.3,0-0.5,0.1c0.3,2.4,0.6,4.8,1,8c-1-1.2-1.9-2.2-2.2-2.5c-0.9,2-2,4.7-3.6,8.3
		c-0.9-2.1-1.3-3-2.2-5.1v7.2c-0.2,0-0.5,0-0.8,0c-0.5-3.7-0.9-7.3-1.4-11c-0.1,0-0.3,0-0.4,0v13.8c-3.2,0.9-6,1.8-8.8,2.6
		c-0.2-0.5-0.4-1-0.7-1.5c-0.3,1.1-0.6,2.2-0.8,3.2c-1.3-0.8-2.8-1.7-3.7-2.3c-0.9,1.6-1.4,3.6-2.6,4.3c-2.5,1.3-5.3,1.8-8.9,3
		c2,1.2,3.6,2.2,6.5,4h-13.5c0.5,0.9,1,2,2.1,4.2c-1.9-1.4-3-2.2-4.2-3.1c-0.1,1.4-0.2,3-0.4,5.2c-1.7-0.4-3.3-0.8-5.2-1.2
		c-0.1,0.7-0.3,2-0.6,3.4c-0.3-0.3-0.5-0.6-0.8-0.9c-0.7,0.4-1.8,0.7-1.9,1.2c-0.2,1.6-0.1,3.2-0.1,4.3c-2.7,0.5-6,1.2-9.2,1.8
		c0.1,0.5,0.2,0.9,0.2,1.3c-1.1-0.6-2.2-1.2-3.3-1.8c-0.7,1.8-1.4,3.5-2.1,5.4c-0.7-0.2-2.2-0.5-4.6-1.1c2.3,0.8,3.6,1.2,4.8,1.6
		c-0.7,0.8-1.3,1.5-2,2.3c-1.1-0.3-2.3-0.6-3.8-1c-0.2,0.7-0.5,1.5-0.5,2.2c0.1,0.6,0.5,1.5,1,1.7c3.5,1.4,6.5,6.5,5.3,9.9
		c-0.2,0.7-1.8,1.1-2.8,1.6c0-0.7-0.1-2,0-2c4.8-1.1,1.3-2.7,0.1-3.7c-1.8-1.4-3.9-2.5-5.6-3.5c-2.5,0.8-5,1.5-6.6,2
		c0.5,2.4,1.1,5.1,1.7,7.9c-0.5,0.1-1,0.2-1.4,0.3c-0.3-1.7-0.5-3.3-1-6c-0.5,1.9-0.8,2.9-1.2,4.3c-0.4-2-0.7-3.5-1.1-5.7
		c-1.2,0.8-2,1.2-2.8,1.8c0.8,0.9,1.5,1.6,2.2,2.3c-7.6,4.4-8,5.2-4.1,8.3c0.3-1.3,0.6-2.4,0.9-3.5c6.2,3,1,9.7,4.1,13.8
		c-2.2-2.6-4.5-5.3-7.4-8.8c0,3.9-0.1,6.5,0,9c0,1-1.2,3.4,1.8,2c0.2,0.7,0.9,1.7,0.6,2.1c-3.7,4.7,0.5,4.3,3,5
		c-1.7,0.5-3.5,1.2-5.1,1.1c-0.6-0.1-1-2.6-1.4-4c-0.7-2.1-1.7-4.1-2-6.2c-0.3-2.8-0.1-5.7-0.1-8.6c0.4,0,0.8,0,1.2,0
		c-0.9-0.7-1.7-1.4-2.9-2.3V884c-2.6-1.7-4.8-3-6.8-4.2V891c-0.3,0-0.6,0-0.9,0.1c-0.4-4.6-0.8-9.1-1.2-13.9
		c-7.5,4.7-0.8,9,0.1,14.3c-2.1-1.7-3.4-2.8-5-4.1v7.8c-0.3,0-0.5,0.1-0.8,0.1c-0.3-1.4-0.6-2.8-0.9-4.6c-0.7,0.5-1.4,0.9-2.2,1.5
		c-0.2-1.8-0.4-3.4-0.6-5.4c-1.3,2.3,1.1,7-4.2,5.6c-0.1-1.9-0.3-3.7-0.5-6.5c-1.6,1-2.7,1.7-3.8,2.4c0.8,0.9,1.5,1.7,2.2,2.6
		c0.3,0.3,0.7,0.8,0.6,1.1c-0.6,2.6-1.2,5.1-1.9,7.8c-1.1-0.5-2.2-0.9-4-1.7c1.3,3,2.1,5,3,7.1c-0.2,0.1-0.4,0.2-0.7,0.4
		c-0.6-0.9-1.1-1.8-1.7-2.7c-0.5,5.1,1.4,8.3,5.8,9.7c0.1-1,0.2-2.1,0.3-3.1l0.8,0c0.4,2,0.8,3.9,1.5,6.9c0.7-1.7,1-2.5,1.8-4.8
		c-0.9,8.4,6.3,9.5,9.1,13.9c0.1,0.2,1.9-1,2.8-0.9c1,0.1,2.4,0.8,2.8,1.6c0.5,1.3,0.4,2.9,1.5,4.3c0-1.8-0.7-4.2,0.2-5.4
		c0.8-1.1,3.3-0.9,3.9-1c0.5,2.2,1.1,3.5,1.1,4.8c0,0.8-1,1.5-1.5,2.4c1.2,0.3,2,0.5,2.9,0.7c0.2-2.5,0.4-5,0.6-7.5
		c10.4-1.4,10.1-1.1,10.6,11.6c-1.6-0.8-3.1-1.6-4.7-2.3c-0.7-0.3-1.9-0.8-2-0.6c-2.2,3.5-3.4,1.5-4.6-0.8v10.5c0.5,0,0.9,0,1.4,0
		c0.2-0.7,0.4-1.3,0.6-2c0.2,0.1,0.5,0.2,0.5,0.2c-0.3,6,5.4,7.2,8.6,9.9c3.4,2.8,7.2,5,9.3,9.2c0.5,0.9,0.7,2,1.1,2.9
		c0.5,1.3,1.2,2.6,2.4,5.3v-5.9c0.3-0.3,0.6-0.6,0.9-0.8c0.9,1.1,2.5,2.2,2.6,3.3c0.2,4,1.8,6.7,5.2,8.9c0.9,0.6,0.8,3.3,0.4,4.9
		c-0.1,0.5-2.3,0.6-3.6,0.9c-1.1,0.3-2.2,0.7-3.2,1c-0.7-5.2-3-7-9.4-6.4c2.2,3,4.2,5.9,6.5,9c0.3-1.2,0.5-2,0.7-2.8
		c0.2,0.2,0.5,0.3,0.6,0.4c1.2,4,1.4,7.3-4.2,7.9c-1.1,0.1-2,2.1-2.7,2.8c-0.5-2.4-1.1-4.9-1.6-7.5c-0.3,0-0.6,0.1-0.9,0.2
		c-0.2,0.6-0.4,1.2-0.8,2.3c-0.7-2.1-1.2-3.8-1.8-5.6c-0.5,0.2-1,0.4-1.5,0.6c1.4,3.2,3,6.3,4.2,9.5c0.3,0.8-0.2,2.2-0.7,3.1
		c-0.8,1.4-1.9,2.7-2.9,4c-4.5-3.8-8.9-7.5-13.1-11c0.4,2.3,0.7,4.3,1.1,6.3c-0.5,0.1-1,0.2-1.5,0.4c1.9,1.9,3.8,3.8,5.9,5.9
		c0.2-1.3,0.3-2.4,0.4-3.5c0.1,0,0.2,0,0.3,0v9c-0.4,0.1-0.9,0.2-1.3,0.3c-4.4-5.5-8.9-11-13.3-16.5c-0.4,0.2-0.7,0.3-1.1,0.5
		c1,2.2,2,4.5,3.1,7.1c-1.2-0.3-2.4-0.5-3.5-0.8c-0.2,0.3-0.3,0.6-0.5,0.8c2.3,1.5,4.8,2.6,6.8,4.4c1.9,1.7,3.2,4.1,4.9,6.4
		c-5.5-1.9-10.2-3-14.4-5.1c-1.8-0.9-2.8-3.7-4-5.7c-0.9-1.5-1.5-3.2-2.6-4.5c-0.8-0.9-2.2-1.2-3.3-1.8c-0.4,0.5-0.9,1-1.3,1.5
		c3.9,5.2,7.7,10.4,11.7,15.5c0.9,1.1,2.4,1.7,3.3,2.8c3.8,4.1,3.7,4.7-1.5,8.8c-1.2-1.5-2.2-3-3.5-4.4c-1.4-1.5-1.8-4.8-5.3-3.2
		c-0.2,0.1-1.4-2.2-1.9-2.9c-2.1,4.7,0.2,8.9,2.9,13.2c0.8,1.2,0.6,2.9,1.1,5.6c-6.5-5-11.8-9-18-13.7c2.2,7.7,10.2,10.9,10.5,19.5
		c-5.1-4.2-9.4-7.8-13.7-11.3c-0.3,0.2-0.6,0.4-0.9,0.6c2.2,4.1,4.5,8.1,6.6,12.2c0.5,0.9,0.2,2.2,0.3,3.3c-1.1-0.4-2.8-0.5-3.2-1.2
		c-2.3-4.2-5.9-7.7-5.4-13.5c0.2-2.7-2.6-5.9-4.6-8.4c-2.1-2.6-4.9-4.7-7.2-7.2c-0.5-0.6-0.5-1.8-0.2-2.9c3.3,3.3,6.2,6.6,10.6,7.6
		c0.4-0.6,0.9-1.2,1.3-1.7c-2-1.5-4-3-5.8-4.3c0.9-7.3,4.6-14.3-3-20.4c-1.9-1.5-1.7-5.8-2.5-9.3c2.7,0.1,5.3,4.5,7-0.7
		c0.6,1,1.2,1.9,1.2,2c1.7-0.8,3.1-1.5,4.5-2.2c-2.8-6.4-5.9-13.4-9-20.5c0.4-0.2,0.8-0.3,1.2-0.5c0.8,1.8,1.7,3.6,2.5,5.4
		c0.3,0,0.6-0.1,1-0.2c0.1-0.8,0.2-1.6,0.5-3.6c1.4,1.9,2.3,3.1,3.2,4.4c1.1,1.6,1.4,1.5,2.5-0.4c-0.9-1.1-1.9-2.2-2.9-3.3
		c-1.2-1.8-2.9-3.6-3.5-5.6c-1.3-3.8-2-7.8-4-11.5c0.8,3.1,1.6,6.2,2.4,9.3c-0.5,0.1-0.9,0.2-1.4,0.4c-1.8-6.4-3.7-12.8-5.5-19.2
		c0.4-0.2,0.8-0.3,1.1-0.5l1.6,2.1c0.4-0.2,0.8-0.3,1.2-0.5c-1.1-2.5-2.3-4.9-3.3-7.4c-0.8-1.9-1.2-4-1.8-6c-0.4-2.5-0.8-5-1.2-7.5
		c-1-1.5-2.1-3-3.1-4.5c-0.8,0.6-1.5,1.2-2.7,2.1c-0.2-1.3-0.3-2.7-0.5-4.1c-0.3,0-0.6-0.1-0.9-0.2c-0.2,3.4-0.4,6.8-0.7,10.2
		c1.1,0,2.2,0,3.3,0v-2.7c0.3,0,0.5,0,0.8-0.1c0.6,2.5,1.1,4.9,1.7,7.4c-3.3-0.2-6-0.5-5.6-4.4c-2.2-0.1-4.4-4.9-6.6,0
		c-0.3,0.7-1.1,1.4-1,1.9c0.4,1.9,1.2,3.7,1.7,5.3c-3.1,0.6-6.1,1.1-9.2,1.7c-0.7,3.3-1.6,7.8-2.6,12.3c-0.5-0.1-0.9-0.1-1.4-0.2
		c-0.5-2.7-1-5.5-1.6-8.2c-1.5,0.4-3.1,0.8-4.3,1.1c-0.7,2.7-1.2,4.9-1.7,7.1c-3.4-1.1-7.8,4.6-7.2,9.4c-0.5-1-1-2.1-1.5-3.2
		c-0.4,0.3-0.9,0.5-0.9,0.6c0.8,5.2-0.8,7.4-7.6,9.8c-1.5,0.5-3.1,1-5.1,1.7c0.9,2,1.6,3.8,2.2,5.2c-1.5,1.2-3.3,2.6-6,4.7
		c-6.3-0.2-7.3,1.1-7.1,11.2c-2.7-1.2-5.1-2.8-5.4,2.5c-0.1,1.9-3.1,3.6-4.8,5.4c-0.7,0.8-2,1.7-1.9,2.6c0,3.1-0.9,4.3-4.2,3.9
		c-0.8-0.1-1.9,1.9-3.1,3.3c-0.1,0-1.3-0.6-2.1-1c-0.9,2.8-1.7,5.5-2.6,8.6c-1.6-1-3.2-1.9-3.7-2.2c-2.4,1.6-4.2,2.9-6.1,4.1
		c-3.3,2.1-3.4,5.7-0.7,8.5c5.3,5.5,12.2,7.8,19.2,10.2c2.7,0.9,5.2,2.4,8,3.4c2.8,1,5.6,1.6,8.6,1.6c4.4,5.2,9.6,1.7,14.9,0.9v2.9
		c2.6-0.3,5.2-0.6,7.9-1c2.6,5.8,3.8,6.5,6.6,5.8c4.7,3.8,8.5,6.8,12.3,9.8c0.6,0.5,1.7,0.5,2,1.1c3.1,6.1,6.1,12.2,9.1,18.3
		c0,0.1-0.1,0.3-0.6,1.1c-1.9-1.3-3.8-2.5-6.2-4.2c0.1,1.3,0.2,2.1,0.3,2.4c-1.6,1-4,1.8-4,2.7c0,2.2,1,4.4,1.6,6.3
		c-1.5-0.2-3.8-0.5-6.1-0.8c0.1,1,0.2,2,0.4,3.3c-0.9-0.2-1.9-0.4-3.3-0.6c0.6,1.4,1.1,2.4,1.5,3.4c1.4,3.3,3.2,3.5,5.6,1.1
		c1.8-1.8,3.9-3.3,6-4.7c7.7-5.1,15.7-9.8,23.2-15.3c5.5-4,10.4-8.8,15.6-13.2c0.8-0.7,1.8-1.3,3-2.1c0.7,1.3,1.2,2.2,1.8,3.4
		c2.4-3.6,4.5-6.8,6.8-9.9c1.5-2,2.9-3.1,6.2-3c3,0.1,6.1-3.9,9.1-6.2c1-0.8,1.8-1.8,2.8-2.7c1.1-0.9,2.5-1.5,3.5-2.6
		c7.2-7.3,14.1-14.9,21.5-22c7.6-7.3,15.4-14.5,23.8-20.9c6.7-5.1,14.9-8.1,21.4-13.3c10.2-8.1,19.5-17.3,29.3-26.1
		c0.1-0.1,0.2-0.3,0.3-0.4c10.5-2.2,9.4-14.2,16.4-19.4c0.5-0.3,0.6-1.5,1.1-1.6c8.4-2.3,11.1-11.1,17.6-15.5
		c7.5-5.1,15-10,22.8-14.7c3.8-2.3,7.9-4.2,12.1-5.8c1.7-0.6,3.9,0.3,5.7-0.1c1.7-0.4,3.1-1.7,4.6-2.6c-0.2-0.4-0.3-0.8-0.5-1.1
		c1.2,0.4,2.4,0.8,3,1c1.4-1.1,2.2-2.1,3.3-2.5c2.8-1.1,5.7-2,8.5-2.7c1.9-0.5,3.9-0.4,5.9-0.6c0,1.1,0.5,2.9,0.1,3.2
		c-3.5,2-7.2,3.7-10.8,5.5c0.3,0.2,0.7,0.4,1,0.7c-0.4,0.2-0.7,0.3-1.1,0.5c-2.6,4.2-7.6,4.3-11.5,6.2c-1,0.5-2.8,0.2-3.7-0.5
		c-2.9-2.1-5.5-0.3-7.4,1c-1.5,0.9-2,3.7-2.4,5.8c-0.2,1.1,0.6,2.4,0.9,3.6c-0.2,0.2-0.3,0.4-0.5,0.5c-0.1-0.2-0.2-0.5-0.2-0.7
		c-2.2,0.5-4.5,1-6.7,1.6c-0.2,0.4-0.3,0.8-0.5,1.3c1.3,1.3,2.6,2.5,3.9,3.8c2.3,0.5,4.7,1,7,1.4c0.1-0.4,0.2-0.7,0.3-1.1
		c0-0.3,0-0.6,0-1c0.7-0.7,1.3-1.3,2-2l-0.1,0.1c1-0.4,2-0.8,3-1.2c0.2,0.1,0.4,0.1,0.6,0.1c0.8,0,1.6,0,2.4,0l-0.1,0.1
		c0.7-0.7,1.4-1.4,2.1-2.1l-0.1,0.1l0-1l0.1,0.1c-0.4-0.4-0.7-0.8-1.1-1.2c0.4-0.6,0.8-1.2,1.2-1.8c1.2,0,2.5,0,3.7,0.1
		c0.7,0.7,1.3,1.3,2,2c1.4,0.2,2.7,0.5,4.1,0.8c0.2,0.1,0.4,0.1,0.7,0.1c1.1,0.5,2.2,1,3.4,1.5c0.5-0.7,1.1-1.4,1.6-2.1
		c3.4,4.2,6,0.1,8.9-0.9c2.9-1.1,5.5-2,7,2.1c0.3,0.8,2,1.1,3.2,1.6c0.3-0.2,0.4-0.4,0.6-0.7v0.1c1.1,0.5,2.1,1.1,3.2,1.6l0-0.2
		c0.3,0.9,0.6,1.9,0.8,2.8c0.4,0,0.9,0.1,1.3,0.1c0.2,2.7-1,3.5-3.5,2.8c-0.5,1.1-0.9,2.3-1.4,3.4c0,0.1,0,0.2,0.1,0.3
		c-0.1-0.1-0.1-0.2-0.2-0.3c-1,1.6-1.9,3.1-3,5c5.4,2.5,8.8,5.5,6.5,11.5c1.2,0.2,2.3,0.5,3.5,0.7c0.9,0,1.8,0,2.7,0
		c0.4-0.2,0.8-0.4,1.2-0.7c0.3-0.1,0.5-0.2,0.6-0.5c0.2-0.1,0.4-0.2,0.6-0.4c1.5-0.3,2.9-0.7,4.3-1l-0.1,0.1l2.1-1
		c0.4,0,0.8,0,1.2,0c2.4-7.6,10.2-8.1,15.7-12.3c-0.3-0.8-0.7-2-1.1-3.3c-3.3-0.2-2.1-2.6-2.1-4.4c1.3-0.5,2.7-1,4-1.5
		c0.4,0.2,0.7,0.3,1.1,0.5l-1.1,0.5c0,0.3,0.1,0.6,0.1,0.9c1.6-0.8,3.2-1.6,4.9-2.4c1.3-0.8,2.7-1.7,4-2.5c2.5,0.1,4.8,1.1,7.7,0.2
		c3.3-1,4.2-2.7,4.9-5.3c3.5-1,7.4-1.5,10.5-3.2c6.4-3.4,13-2.5,19.3-1.1c4.2,0.9,9.4,2.6,10.5,8.8c-0.6,0.2-1.5,0.4-2.5,0.6
		c0.5,2.3,0.9,4.7,1.3,6.9c3,0.5,5.8,0.9,9.3,1.4c-0.5,2-0.9,3.6-1.3,5.2c-0.9-0.3-1.8-0.6-3.6-1.1c1.8,4.3,3.4,8.1,5,11.9l-0.7,0.4
		c-0.8-0.7-1.6-1.5-2.6-2.4c-0.9,3.1-1.7,6-2.6,9.1c-1.9-0.1-4-0.3-6.5-0.5c0.3,1.8,0.6,3.1,0.9,4.5c-6.9,0.7-6,7.5-8.6,11.1
		c4.1,2.8,8.2,5.6,12.4,8.5c3.7-5.4,7.6,2.3,11.7,0.4c-1.5,1-3.1,2.1-4.6,3.1c0.1,0.3,0.3,0.6,0.4,0.9c3.8-0.9,7.7-1.7,12.3-2.8
		c-3.3,3.2-1.6,5.1,1.5,6.9c-2.4,3.2-4.6,6.3-6.6,9h5.5c-1,1.9-2.1,3.2-2.4,4.6c-0.3,1.7-0.1,3.6,0.5,5.2c0.7,2,2,3.8,3.1,5.8
		c-0.1,0.3-0.3,0.7-0.4,1.1c-1.5,1.7-2.9,3.4-3.8,4.4c4.2,0.2,8.8,0.5,13.3,0.8c-1.1,2.6-1.8,4.3-2.6,6c2.2,0.4,4.5,0.8,6.8,1.3
		c0.1-0.1,0.1-0.2,0.2-0.2c2.4,0.4,4.8,0.8,7.2,1.3c1,0.2,2.4,0.7,2.8,1.4c0.3,0.6-0.3,2.3-1,2.8c-2.8,1.8-5.7,3.3-9.4,5.3
		c-0.3-3.8-0.5-6.1-0.7-8.4c-0.6,0-1.2,0-1.8,0c-0.2,3-0.3,6.1-0.5,9.4c-3.2,0.3-7.3,0.8-11.8,1.3c1,1.8,1.6,2.9,2.5,4.3
		c-1.2,0.9-2.4,1.9-4.1,3.2c1.1,0.1,1.9,0.2,1.9,0.2c0.6,1.5,0.8,2.9,1.6,3.7c4.3,3.8,9.2,3.2,14.2,1.9c-1.1,2-2,4.1-3.2,6.1
		c-0.5,0.8-1.4,1.5-2.2,1.8c-2.9,0.9-5.8,1.6-8.8,2.8c2.3,0.9,6.1-2.5,6.7,2.7c-2.2,1-4.3,2.1-7.4,3.5c3.1,0.8,5.6,3.8,6.2-1.3
		c1.8,0.8,3.3,1.4,4.7,2c-6.4,3.7-10.3,4.2-11.9,1.4c-1.7,0.8-3.5,1.6-5.2,2.5c0,0.3,0,0.7-0.1,1c2,0.3,4,0.7,6.4,1.1
		c-0.5,1.6-1,3-1.7,4.9c1.6,0.3,3.7,1.4,4.5,0.8c3.4-2.6,5.4-0.6,7.5,1.6c1.9,2,3.8,4.1,5.1,5.5c-1.7,0.9-3.4,1.9-5.2,2.9
		c1,0.7,1.9,1.4,3.3,2.5c-3.7,1.4-7.3,2.8-11.2,4.4c0.3,1.3,0.6,2.8,1,4.5c-4.2,1.8-7.4,5.8-12.5,5.1c-5.4-0.7-5.4-0.7-8,3.2
		c-0.5-0.2-1-0.6-1.6-0.8c-0.5-0.2-1.1-0.3-2.3-0.7c0.2,1.6,0.4,2.8,0.6,4.2c2.1-0.6,3.8-1.1,5.4-1.7c3.5-1.2,6.7-3.8,10.8-0.8
		c1.4,1,4.2,0.2,5.4,0.2c3.5,3.2,6.4,5.9,8.5,7.8c6.8,0,12.8,0.1,18.7-0.1c2.6-0.1,6.3,0.8,5.6-4c2.7,0.6,5,1.1,7.3,1.5
		c0.1,0.8,0,2.5,0.7,3.2c0.7,0.6,2.4,0.3,3.6,0c2.7-0.6,4.2-4.4,7.7-3.2c0.4-1.1,0.8-2.2,1.2-3.6c-1.4,0.1-2.3,0.1-3,0.2
		c-0.2-2.1-0.4-4.1-0.6-6.4c1.2-0.6,2.7-1.3,4.2-2.1c-0.1-0.3-0.1-0.5-0.2-0.8h-4.2c0.2-1.5,0.4-3.1,0.6-4.4c1.7-0.5,3.1-1,4.5-1.3
		c2.1-0.4,3.5-2.6,6.6,0.1c2.3,1.9,6.1-1.1,6.6-5.3c0.9,0.5,1.9,1.1,3.3,1.9c3.5-0.2,7.9-0.4,12.3-0.6c0.2-0.4,0.3-0.9,0.5-1.3
		c-1.3-0.8-2.7-1.6-4.2-2.6c0.3-0.2,0.9-0.6,1.2-0.9c-0.9-1.8-3-4.5-2.5-5c2.2-2.5,5.1-4,8.5-1.6c-0.3,3.1-0.7,6.2-1,9.4
		c0.5,0.1,1,0.2,1.5,0.2c0.5-2.3,1-4.7,1.4-7.1c4-0.5,7.9-1,11.8-1.5c0-0.3-0.1-0.6-0.1-0.9c-1.2,0.1-2.4,0.2-3.5,0.2
		c-0.2-1.7-0.3-3.2-0.5-5.2h2.8v-3.9c-1,0.5-1.9,1-2.7,1.4c-0.5-1.2-1-2.4-1.5-3.7c0,0,0.3-0.2,0.5-0.2c4,0.6,7.8,3.3,11.8-1.1
		c1.5-1.6,5.7-0.7,8.6-1.1c3.5-0.5,7.1-1.2,11.1-1.9c0.2,0.6,0.5,2.1,1,3.7c3.3,0.3,6.6,0.6,9.7,0.8c-0.4,2.8-0.8,5.7-1.2,8.6
		c0.4,0.1,0.8,0.2,1.2,0.3c0.6-1.9,1.2-3.7,1.9-5.7c4.2-0.5,6-2.7,4.5-7.2c4.4,3.2,8.1,5.8,11.8,8.5c-0.1,0.4-0.2,0.8-0.3,1.2
		c-3.2-0.8-6.3-1.6-9.5-2.4c-0.2,0.4-0.5,0.9-0.8,1.3c9.2,6.2,18.4,12.4,27.6,18.6c-1.4,1.2-2.6,2.1-2.6,2.1
		c-4.4-0.9-8-1.6-11.7-2.4c-2,2.5,0.5,2.9,1.8,3.7c5.1,3.1,10.3,6.1,15.5,9.1c-0.3,0.6-0.7,1.2-1,1.7c-1.6-0.9-3.2-2-4.9-2.5
		c-1.5-0.4-3.2,0-4.8,0.1c0.3,1.5,0.4,3,1,4.4c0.3,0.8,1.4,1.4,2.3,1.7c9,2.6,14.2,10.5,21.7,15.2c1.2,0.7,2.6,3,2.2,3.8
		c-2.4,5.6,2.5,6.6,5.2,7.4c3.7,1.1,5.5,3.5,7.2,6.3c-0.2-1.8,0.1-3.8-0.8-5.2c-3.6-5.8-7.9-11.1-11.4-16.9
		c-4-6.8-7.4-13.9-10.7-20.2c0.2-0.8,0.6-1.8,0.8-2.7c-0.2-0.6-0.5-1.2-0.7-1.7c-0.9-1.9-2.5-3.1-4-4.5c-3.2-3-6.4-6.1-9.4-9.3
		c-0.2-0.2-0.4-0.5-0.6-0.7c-0.9-0.7-1.8-1.3-2.7-2.1c-1.2-0.9-1.7-2-1.7-3c-2-2.4-3.9-5.1-4.8-7.6c-2.7-6.8-9.2-12.1-14.1-17.9
		c-6.3-7.5-12.7-14.9-19.2-22.3c-5.8-6.6-11.4-13.4-17.8-19.4c-10.7-10.2-22.1-19.5-31.5-31c-9.8-12-19.8-23.9-29.4-36.1
		c-15-19.2-29.6-38.7-44.6-57.9c-9.3-12-18.1-24.6-28.8-35.2c-12-12-26.2-21.7-41-30.1c-2.3-1.3-4.4-3.5-5.8-5.7
		c-3.5-5.8-4-11.8-0.8-18.1c1.2-2.4,1.8-5.9,1.2-8.5c-1.8-6.9-4.2-13.7-6.8-20.4c-1.5-3.8-2.2-7.2-0.5-11.3c2.8-6.8,1-12.7-5.1-16.1
		c-3.4-1.9-4-4.3-3.9-7.6c0.2-6.4,0.3-12.8,0.2-19.1c-0.1-4.6-2.3-7.7-7.1-8.7c-1.2-0.2-2.4-0.7-3.4-1v-8.8c0-1.7,1.4-3.4,1.4-5.2
		c0-5-1-10.2,4.1-13.7c0.3-0.2,0.1-0.9,0.2-1.4c1.6-7.4,2.6-15,5-22.1c3.1-9.1,7.1-17.9,11-26.7c1.6-3.6,4.4-6.6,6.1-10.2
		c2.2-4.7,4.7-9.4,5.6-14.4c0.5-3-1.7-6.5-2.6-9.7c-0.3-1.1-0.6-2.6-0.1-3.3c1.5-2.2,3.5-4,5.1-6.2c2.7-3.4,5.6-6.6,7.6-10.3
		c3.2-6,5.8-12.2,8.4-18.5c4.4-10.6,8.7-21.3,13-32c4.1-10.2,8.5-20.3,12.3-30.6c4-10.6,9.1-20.7,11.9-31.8
		c1.9-7.7,4.9-15.1,7.6-22.6c4.5-12.4,6.7-25.4,8.9-38.3c2.3-13.4,3.7-27,4.7-40.6c0.9-12.8,1.4-25.8,0.7-38.6
		c-0.7-13.3-3.2-26.5-4.7-39.7c-0.8-7.5-1.4-15.5-5.2-21.7c-3.7-6-3.1-11.9-4-18.2c-0.9-0.6-2.6-1.1-3.2-2.3
		c-3.1-5.8-5.9-11.7-8.7-17.6c-1.2-2.4-2.7-4.7-3.4-7.3c-1.1-4.1-1.9-8.4-5.6-10.9c-4.4-3.1-5.7-7.6-6.9-12.4
		c-0.4-1.8-1.9-3.2-2.9-4.9c-0.2-0.4-0.2-0.9-0.4-1.6c0.9-0.1,1.8-0.2,2-0.3c-1.5-2.3-3.2-4.9-4.8-7.4c-0.3-0.5-0.3-1.3-0.7-1.8
		c-5.6-8.4-11.5-16.6-16.8-25.1c-2.8-4.6-4.8-9.8-7.3-15.2h-3.2c2.2-5.3,2-9.6-2.3-13.2c-0.8-0.7-1.9-2-1.7-2.8
		c1.2-6.1-8-6.4-6.7-12.4c-5.4,0-5.3-4.4-5.9-8c-3.6,1.5-3.7,1.4-4.2-3.1c-2-0.8-3.6-1.3-5.1-2.2c-6-3.3-11.8-7.2-19.2-6.7
		c-1.1,0.1-2.2-0.5-3.3-0.9c-6.5-2.3-13-4.8-19.5-7.1c-3-1.1-6.2-1.6-9-3c-3.2-1.5-5.9-4.1-9.2-5.6c-7.4-3.5-15.1-6.5-22.5-9.9
		c-2.5-1.2-4.6-4.7-6.9-4.7c-4.1,0-4.9-2.3-6.1-5c-2.1-4.6-10.7-0.6-9.3-5.3c-8.9-1.8-10.9-5.1-13.8,1c0,0,0,0,0,0
		c1.2-3.6,1.9-9.2-5.9-4.9c-2.8-2.9-11.8-0.1-10.2-7.8c-7,1.1-14.9,6-15,2.2c-38.6,0-16.9-6-37.9-7.8c-2.6,1.4-5,3.3-8.5,2.9
		c-2.4-0.3-5,2.4-7.7,2.9c-2.4,0.5-4.8,1-7.2,1.5l-1.5,1.4c0.3-0.4,0.5-0.8,0.8-1.3c-11.2,2.3-22.4,4.6-33.6,6.7
		c-8.6,1.6-17.3,2.6-25.9,4.2c-17.1,3-34.2,6.1-51.2,9.5c-7.1,1.4-14,3.7-21,5.7c-11,3.1-22,6.3-33,9.5c-2.6,0.8-5.1,1.7-8.1,2.7
		c-1.7,0.1-4,0.2-6.3,0.4c-0.1,0.4-0.1,0.8-0.2,1.2c0.9,0.5,1.9,1,3.9,2c-2.3,0-3.7,0.4-4.4-0.1c-3.2-2.3-5.5-0.3-7.8,1.3
		c-5.7,3.9-12.3,5.4-18.8,6.9c-6.5,1.4-8.2,2.9-9.6,11.4c-0.4-1.6-0.7-3.2-1.1-4.9c-3.6-0.1-4.9,1.4-6.4,7.4
		c-0.4-1.2-0.8-2.5-1.3-4.1c-6-1.6-8.6,3.6-11.7,8.3c-2.5-1.3-5.8-3.9-5.4,2.3c-2.1-0.2-4.2-0.3-6.6-0.6c-0.1,2.1-0.3,3.9-0.4,6.4
		c-2.9-1.8-5.4-2.3-5.7,1.7c-2.6-0.6-4.7-1-6.8-1.4c1.2,1.8,2.4,3.7,3.5,5.4c-3.1,0.2-5.3,0.3-7.5,0.5c0.6,2.2,1.2,4.5,1.9,7
		c-3-0.8-5.5-1.5-7.9-2.2c0.8-2.6,1.6-5.2,2.5-7.9c-1.1-1.4-2.2-2.8-3.3-4.2c-0.7-0.3-1.4-0.5-2.3-0.8c1.2,6.4-5.6,15.3-11.1,15
		c-0.5,5.2-8.7,8.1-4.4,14.8c0.7-0.2,1.5-0.4,2.5-0.6c0,0.8,0.1,1.3,0,1.7c-1,2.3-2,4.7-3.1,7c-0.3,0.7-1.1,1.2-1.7,1.7
		c-0.9,0.8-1.9,1.5-2.8,2.3c-1.3,1.2-2.6,2.4-3.9,3.7c-0.5,0.5-1.4,1.2-1.3,1.6c0.8,2.9-1.6,2.7-3,3.8c-2,1.7-3.3,4.3-4.5,6.8
		c-1.6,3.4-3.4,5.5-8.6,3.1c3.7,5.2,1.7,7.4-1.9,8.2c-1.2,3.2-2.2,5.9-3.4,9c-1.6-1.8-2.7-2.9-3.7-4c0.6,6.6-3.7,12-9.8,12.2
		c-1,2.5-1.1,6.5-5.5,3.4c-0.8-1.3-1.6-2.6-2.4-3.9c-3.5-2.3-4.7,2.1-5.2,3c-2.7,5-8.7,6.3-11.4,11c-0.3,0.5-0.6,1.1-0.9,1.7
		c6.4,0.5,6.4,0.5,10.6-6.3c0.7,3.3,6.1,4.4,2.9,8.4c-0.7,0.9-3.5,0.1-6.1,0.1c-1.3,2.9-2.8,6.4-4.7,10.8c-0.3-1.4-0.5-2.2-0.7-2.9
		c-2.4,4.6-5.7,8.4-9,12.4c-5.6,6.7-8,15.6-8,24.6c0,1.9,2.1,3.8,4,5.6c-0.3-4.5-0.6-8.9-1-13.4c0.4,0,0.7-0.1,1.1-0.1
		c0.4,0.7,0.7,1.5,1.8,3.8c1.3-4.6,1.9-8,3.3-11c1.6-3.5,4-6.6,6.1-9.8c0.6,0.3,1.1,0.5,1.7,0.8c-0.3,1.4-0.7,2.8-0.9,4.2
		c-0.3,2.4-0.4,4.8-0.8,7.2c-0.2,1.2-0.4,3-1.2,3.4c-3.9,2.2-3.9,6.2-3.2,9.2c1,4.1,1.2,6.9-2.6,8c0.5,2.9,1,5.4,1.5,8.3
		c0.8-0.6,1.5-1.1,2.2-1.6c0.4,3.1,0.7,6.1,1.1,9c0.2,0,0.4-0.1,0.6-0.1c2.2-8.9,4.4-17.8,6.6-26.5c4.6-2.1,4.7-7.4,7.2-11.1
		c2.1,2.9,1.9,2.8-0.5,7.1c-1.6,2.9-2.7,6.3-3.5,9.6c-0.2,1,1.3,2.5,2,3.7c0.4,0.8,0.8,1.7,1.2,2.5c0.2,0.4,0.5,0.7,0.8,1.1
		c3,0.8,6.2,1,7.8,4.5c0.2,0.5,1.9,0.4,3.6,0.7c-1.2,4-2.4,8-3.7,12.2c3.4-0.5,3.2-0.2,3.4,2.6c0.4,4.5,1.4,8.8,2,13.3
		c0.2,1.5,0,3.1,0,5.1c1.8-3.9,4,4.8,5.6-0.5c0.6-2.1,0.3-4.4,0.4-6.7c-0.5-0.3-1.1-0.6-1.6-0.9c2.3-1.3,4.6-2.6,6.9-3.9
		c-0.3,4.4-0.6,8.8-0.9,13.9c1.4-2.5,2.5-4.6,3.9-7c0.8,2.2,1.5,4.4,2.3,6.7c-1.4,0.1-2.5,0.2-3.4,0.2c1.8,4.8,3.4,9.4,5.1,14
		c1.6-0.5,3-0.9,4.7-1.5c-0.7-2.1-1.4-4.2-2.1-6.3c1.9-0.3,3.6-0.5,5.4-0.8c1.4,5.3,0.9,11.2,6,15.1c1,0.7-0.2,4,0.7,5.1
		c1.9,2.4,4.7,4.2,6.4,5.7c3.7-7.2,7.1-14,10.6-20.8c0.4,0.1,0.8,0.3,1.2,0.5c-0.9,3.5-1.8,7-2.8,11.2c-3.6,1.7-4.4,8-1.4,17.3
		c1.7-0.8,3.5-1.7,4.1-2c1.5,2.9,2.4,7.3,4.2,7.8c5.6,1.4,4.4-3.9,5.2-7.7c0.8,1.4,1.3,2.1,2,3.3c0.9-1.7,1.7-3.1,3.1-5.9v9.5
		c-0.5-0.1-0.9-0.2-1.4-0.2c-0.5,1.4-1.9,3.1-1.5,4.2c0.9,2.7,2.4,5.4,4.1,7.8c2.1,3,4.6,5.6,7.3,8.8c1.3-2.3,2.3-4.2,3-5.5
		c2,0.2,3.6,0.3,5.6,0.5c0,3.2-0.2,7.4,0.1,11.6c0.1,1.7,1.1,3.7,2.3,5c2.3,2.4,5,4.4,7.9,6.9c1.5-1.7,3.1-3.5,5.2-5.9h-3.1
		c1-5.2,4.2-1.4,6.4-2.2c1.8,6.7-4,13-0.1,20.2c0.7-2.4,1.2-4,1.7-5.6c0.5,0.1,1.1,0.1,1.6,0.2v9c5.8,5.7,10.6-4.5,16.6-1.4
		c-0.9,5.6-1.8,11.2-2.9,17.3c2.1,0.1,3.4,0.2,4.5,0.3c-1-2.5-2-4.9-2.9-7.2c0.4-0.2,0.7-0.4,1.1-0.6c1.8,2,3.7,3.9,5.4,5.8
		c-0.5,2.4-1.1,4.9-1.6,7.2c-7.4-2.6-14.4-6.4-13.4-17c-0.4,0.7-0.8,1.3-1.2,1.9c-1.8-0.9-3.7-1.9-5.8-3c-1.1,2.6-1.9,4.6-2.9,7.1
		c-1.3-2.3-2.3-4.1-3.3-6c-0.5,0.2-1,0.5-1.6,0.7c1.8,4.8,3.7,9.6,5.5,14.4c-0.3,0.2-0.6,0.4-0.9,0.5c-2.2-4-4.5-7.9-7.1-12.5
		c0.6,5.7,1.2,10.9,1.9,17c-2.6-1.8-4.4-3-6.3-4.4c-0.7,0.8-1.3,1.6-1.9,2.2c-1-3.5-1.9-6.8-2.8-10.1c-0.5,0.2-1.1,0.3-1.6,0.5
		c1.7,4.5,3.8,8.8,4.9,13.4c0.4,1.7-0.8,4.2-2.1,5.7c-0.7,0.8-3.1,0.1-5,0.1c0.4,3,1,6.7,1.5,10.4c-0.7,0.2-1.3,0.4-2,0.5
		c-1.4-2.4-2.8-4.9-4.3-7.6c-0.8,1.5-1.6,3-2.2,4.1c2.4,2.2,4.8,4.4,7.3,6.6c-1.4,0.9-2.6,1.7-4,2.7c-0.4-1.3-0.8-2.8-1.3-4.4
		c-2.3,3-4.4,5.7-7.2,9.3c3.9,1.3,7.8,2.4,11.5,4c1.4,0.6,2.6,2.2,3.3,3.6c0.9,1.6,1.2,3.6,1.7,5.3c-4.5,6.9,4.9,9.7,4.2,15.3
		c1.5-0.3,3-1,3.3-0.7c2.6,3,5.5,6,7.3,9.4c1.4,2.7,1.3,6.2,2,10c1.7-0.9,2.8-1.5,4.1-2.2c0.4,8.8,0.8,17.5,1.3,27.6
		c-2-4.4-3.6-7.8-5.1-11.1c-0.5,0.2-1.1,0.4-1.6,0.6c2.3,6.7-2.9,15,5.6,20.5c0.6-1.2,1.3-2.3,2.1-3.8c1.1,0.8,1.9,1.5,3.5,2.7
		c-0.5-4.8-1-8.8-1.4-12.8c0.5-0.2,1-0.4,1.5-0.6c1.6,1.9,3.3,3.9,5.4,6.3c-0.1-3-0.3-5.7-0.4-8.4c0.3,0,0.7-0.1,1-0.1
		c0.7,4.1,1.4,8.2,2.1,12.6c-0.9-0.1-1.8-0.2-3.1-0.4c2.6,5,3.9,9.9-0.3,15c-1.2-2.1-2.3-4.1-3.8-6.8c-0.6,1.9-1,3.2-1.6,5.1
		c-1.2-1.3-2.1-2.4-3.1-3.6c-3.7,7.8-7.4,15.6-11.1,23.3c-0.3-0.1-0.5-0.1-0.8-0.2v-2.6c-2.2,3.3-4.1,6.3-6.4,9.9
		c4.2-2.5,6.9-1.1,7.1,3.2c0.3,5.4,0.5,10.9,0.7,16.3c0.7,0,1.4,0,2.1-0.1c-0.2-2.2-0.6-4.4-0.7-6.6c-0.1-3.3,0-6.6-0.2-9.9
		c-0.4-6.3,3.7-10,7.9-13.6c0.5,2.7,1,5.3,1.5,8.2c-5.9,2-1.6,6.6-1.9,10.3c-1-0.5-1.7-0.8-3.3-1.5c1.5,3.1,2.7,5.5,3.9,7.8
		c0.3-0.1,0.5-0.1,0.8-0.2c-0.1-1.1-0.3-2.2-0.4-3.3c4,2,5.4,6.9,3.3,11c-0.3,0.5-0.3,1.2-0.3,1.8c0,7.9,0,15.8,0,22.9
		c-1.1-2.6-2.7-6.3-4.3-10c-0.5-0.1-1-0.2-1.6-0.3c-2-0.8-4.1-1.3-6-2.3c-2.2-1.2-4.2-2.7-6.3-4c0.1,0.5,0.3,1.7,0.6,2.8
		c0.2,0.6,0.9,1.4,0.9,1.5c-3.7,3.1-0.2,6.2,0,9.2c0.2,2.5,1.4,5.8-2.8,6.4c-0.1-1.4-0.1-2.9-0.2-4.4c-0.3,0-0.7-0.1-1-0.1
		c-0.2,1.7-0.5,3.5-0.9,6.4c-2.3-2.8-4-4.8-5.7-6.9c-0.3,0.1-0.5,0.3-0.8,0.4c0.2,1.2,0.4,2.5,0.7,3.7c-2.7-2.4-4.4-4.9,0-7.7
		c-4.2-4-7.5,0.7-11.1,0.8c5.9,0.5,6.2,6.1,9.5,9c-0.4,0.5-0.8,0.9-1.1,1.4c-2.5-1.7-4.9-3.4-7.4-5.1c-0.5,1.6-0.9,3.3-1.4,4.9
		c-0.3,0.1-0.6,0.2-0.8,0.3c-0.6-2.6-1.2-5.3-1.7-7.9c-0.2,0-0.5,0-0.7,0c0.4,6.3,0.8,12.6,1.2,19.4c-5.8-2.5-9.8-14.8-7.8-20.9
		c1.5,1,3,2,4.5,3c0.5-0.4,0.9-0.8,1.4-1.2c-1.9-3-3.8-6.1-5.8-9.4c-0.9,1.4-1.5,2.5-2.8,4.5c-0.7-2.4-1.2-3.8-1.6-5.3l-1.1,0.1
		c0.4,3.2,0.8,6.4,1.3,9.6c0.2,1.5,1.2,3.2,1,4.6c-0.8,4.3,0.6,7.4,3.4,10.8c1.8,2.1,1.3,6.2,0.9,9.8c-1.4-2.1-2.7-4.2-4.3-6.7
		c-1.2,0.9-2.2,1.6-3.7,2.8c0.3-2.7,0.6-4.8,0.8-7c-0.3-0.2-0.6-0.3-1-0.5c-1.6,2.3-3.2,4.7-4.9,7.2c-0.6-0.8-1.4-1.8-2.3-3
		c-0.4,3-0.9,5.8-1.2,8.5c-0.3,2.6-0.5,5.1-0.8,7.7c-0.5,0-1,0.1-1.5,0.1c-0.1-3.8,0.7-7.8-0.4-11.2c-2.5-7.7,0.5-17-6.9-23.3
		c-0.4,1.2-1.1,2.4-1.1,3.7c-0.2,2.9-0.1,5.8-0.1,8.7c-0.7,0-1.4-0.1-2.1-0.1c0.2-4.6,0.4-9.2,0.6-13.8c-0.8,5-1.8,10.1-2.3,15.2
		c-0.2,2.6,0.6,5.2,0.8,6.8c6.5,7.3,0.8,15.6,4.1,22.4c-0.5,0.1-0.9,0.2-1.4,0.4c-0.8-2.5-1.8-5-2.1-7.6c-0.3-2.6,0.1-5.2-0.7-7.9
		l-3.1,7.7c-0.3-0.1-0.6-0.2-0.9-0.2c0.5,2.9,1,5.7,1.4,8.6c-0.2,0.1-0.5,0.2-0.7,0.3c-0.7-1.3-1.4-2.5-2.2-4
		c-0.9,1.7-1.3,3.5-2.4,4.1c-0.8,0.4-2.5-0.7-4.2-1.4c0.4,3.2,0.9,6.5,1.3,9.8c0.4,0,0.8-0.1,1.2-0.1c-0.2-1.6-0.3-3.3-0.5-4.9
		c0.5,0,1.1,0,1.6,0v22.4c-0.3,0-0.6,0.1-0.9,0.1c-2.3-4.3-4.6-8.7-6.5-12.3c-1,2-2.3,4.6-3.6,7.2c-0.2-4.2-2.1-1.8-4-0.4
		c-1.1-6.3-2.2-12.2-3.3-18.2c-0.3,0-0.6,0.1-1,0.1c1,9,1.9,18,3.1,26.9c0.5,3.5-1.8,7.5-5,7.9c0.5,2.5,1.1,4.9,1.4,7.4
		c0.3,2.4,0.4,4.8,0.1,7.4c-0.3-0.7-0.6-1.5-1.2-2.7c-1.5,2.6-2.7,4.8-3.7,6.6c-1.5-1.8-2.8-3.5-4.2-5.1c-0.5,0.4-1.1,0.7-1.6,1.1
		c-0.4,2.9-0.7,5.8-1.2,10c-0.9-2-1.3-3-2.4-5.4c-1.2,4.8-2.1,8.2-2.9,11.8c-0.5,2.2-1.5,3.1-3.7,2.2c0.2,3.5-0.4,6.4-4.7,6.7
		c-2.5-5,0.3-8.3,3.5-11.5c-0.3-2.3-0.5-4.6-0.8-6.7c-4.4,3.2-9.3,6.7-14.9,10.7c-0.2-3.3-0.4-5.6-0.6-8.2c-1.8,1.7-3.5,3.3-5.2,4.8
		l0.1-0.1c-1.1,2.9-3.5,6-3.1,8.7c0.7,4.7-1.8,7.2-4.9,9.9c1.1-3.6,2.2-7.2,3.2-10.4c-2-0.2-3.4-0.3-4.7-0.4l0,0
		c-2,1.9-4.3,3.5-5.9,5.7c-1,1.4-0.8,3.7-0.5,5.9C166,727.2,167.5,724.2,169.1,721.2z M330.3,550.2c-0.3,0.1-0.5,0.1-0.8,0.2
		c-0.9-1.6-1.9-3.2-2.8-4.7c0,0,0,0,0,0c0.4-1.5,0.9-3,1.3-4.4c0.5,0.2,1.1,0.3,1.6,0.5C329.8,544.5,330,547.3,330.3,550.2z
		 M311.3,435.4c-0.5,1.5-1.3,2.8-2.6,5.2c-0.7-1.7-1.1-2.7-1.7-4.3c-1.4,2.6-2.1,4-3.2,6c-1.6-1.8-2.9-3.4-4-4.7
		c3.3-1.5,5.5-2.6,7.7-3.6c1-0.4,2.1-0.7,3.1-0.6C310.9,433.4,311.5,434.8,311.3,435.4z M327.5,463.8c-6.2-3.8-6.8-6.1-4-10.5
		C324.7,456.3,326.1,460.1,327.5,463.8z M337.1,496.6c-1.6-1.8-3.1-3.4-3.9-4.4c-1.2,3.3-2.3,6.3-3.4,9.3c-0.4-0.2-0.7-0.3-1.1-0.5
		c0.5-4.5,1.1-9,1.6-13.5c0.1,0,0.2,0.1,0.3,0.1v-12.4c1.6,3.8,2.8,6.4,3.9,9.1c-2.6,1.7-2.7,4.7,1.2,6.5
		C339.1,492.5,338.4,494.1,337.1,496.6z M268.6,151.6c3.5,4,2.9,6.2-2.9,12.7C263.6,159,267.8,156,268.6,151.6z M254.8,174.9
		c2.2-3.5,4.3-7,6.5-10.6c1.3,1.1,2.4,2.1,3.3,2.9c-2.9,3.2-5.6,6.1-8.3,9C255.8,175.8,255.3,175.4,254.8,174.9z M242.6,215.5
		c1.7-3.7,2.8-6.5,4.4-9c0.3-0.5,2.2,0,3.4,0c-0.1,0.9,0,2-0.5,2.5C248,210.9,245.9,212.6,242.6,215.5z M229.3,267.4
		c-0.1-0.6,0.6-1.8,1.1-1.8c0.8-0.1,2.4,0.3,2.5,0.7c0.4,2.2,1.2,4.9-2.5,5.1C229.9,270,229.4,268.7,229.3,267.4z M213.4,219.9
		c1.5-3.3,2.3-6.2,4-8.6c1.7-2.4,4.2-4.2,6.4-6.3l0.5,0.7c-1.4,2.7-2.9,5.4-4.4,8.1c-1.4,2.6-2.7,5.2-4.1,7.9
		C215.1,221.1,213.8,220.2,213.4,219.9z M213.5,183.2c-0.4,0.3-0.8,0.6-1.2,1c-1.4-0.8-3.5-1.4-4-2.6c-0.5-1.1,0.7-3,1.1-4.5
		c0.4,0,0.8,0,1.2,0C211.6,179.1,212.5,181.2,213.5,183.2z M217.8,189.5c-1.8,3.4-3.5,6.9-5.3,10.3c-6.7,1.9-8.2,8.3-10.9,13.5
		c-0.9-2.1-1.6-3.7-2.5-5.8c3-3,6.6-5.7,9.2-9.3C214.8,189.1,214.6,189,217.8,189.5z M220.8,192c0.3,0.4,0.6,0.8,0.9,1.2
		c-2.9,3.5-5.8,7-8.7,10.6c-0.4-0.3-0.8-0.6-1.2-0.9c0.3-1,0.5-2.1,0.8-3.1c0,0,0,0,0,0c1.7-1.8,3.4-3.7,5.2-5.4
		C218.7,193.5,219.8,192.8,220.8,192z M236.6,178.6c-6.7-3.2-2.8,5.9-7.5,5.3v-6.4c-1,2.8-1.7,4.9-2.5,6.9c-0.8,2.1-1.7,4.1-2.6,6.5
		c-1.9-1.1-3.3-1.9-4.9-2.8c2.6-3.7,4.8-7.2,7.3-10.5C230.6,172.2,232.3,172.3,236.6,178.6z M237.1,193.4c2.3,2.6,2,3.8-1.4,5.1
		c-2.7,1-5.2,2.6-8.7,4.3c-0.8-2.3,0.7-3.8,3.4-5.2C232.6,196.5,234.5,195,237.1,193.4z M258.9,143.9c0.6,1.8,1.3,3.7,1.4,4.1
		c-2.7,1.3-4.8,2.3-6.9,3.3c0.6,1.2,1.3,2.4,1.8,3.4c-3,3.9-6.2,8-9.5,12.2c-0.5-0.8-1-1.5-1-1.5c-2.2,0.6-4,1.1-5.8,1.5
		c-0.2-0.6-0.5-1.2-0.7-1.8c2-1.2,4.5-2,5.8-3.7c2-2.8,2.9-6.3,4.9-9.2c2.1-3.2,4.8-6.1,7.4-9C256.6,143,258,143.7,258.9,143.9z
		 M267.5,132c-0.6,2.1-1.2,4.3-1.8,6.4c-0.5-0.1-0.9-0.1-1.4-0.2c0.7,1.3,1.3,2.6,2,3.9l-0.5,0.4c-1-0.8-1.9-1.5-2.6-2.1
		c-1.6,1.2-2.9,2.2-4.1,3.2C259.9,138.4,263.5,135.1,267.5,132z M276.8,121.8c0.2-0.3,1.6,0.6,2.6,0.9c-3,3-6.2,5.3-8.2,8.5
		c-1.5,2.4-2.4,1-3.6,0.6C270.7,128.4,273.7,125,276.8,121.8z M274.7,101.2c2.5,3.1,4,4.8,5.4,6.6c0.4,0.5,0.6,1.5,0.3,2
		c-0.3,0.4-1.3,0.8-1.9,0.7c-1.8-0.6-4.4-0.9-4.9-2.2C272.9,106.7,274.1,104.4,274.7,101.2z M284.9,105c-1,0.2-1.9,0.5-2.9,0.4
		c-0.9-0.1-1.7-0.7-3.2-1.3c1.4-1.8,2.4-3.2,3.5-4.6c0.5,0.9,1.2,1.8,1.6,2.7C284.4,103.1,284.6,104.1,284.9,105z M295.1,131.5
		c-1.9,0.7-1.9,5.9-5.2,3c1.4-2.3,2.6-4.4,4.5-7.7C294.8,128.9,295.4,131.4,295.1,131.5z M321.9,109.7c-0.2,0.3-0.4,0.7-0.6,1
		c-1.3-0.2-2.7-0.4-4.7-0.7c1.7,2.7,2.9,4.6,4.3,7c-1.9-0.4-4.1-0.8-6.9-1.4c0.6-1.7,1.1-3.7,1.9-5.6c0.5-1.2,1.9-3.1,2.3-2.9
		C319.6,107.6,320.7,108.8,321.9,109.7z M915.8,1067.4c2.5-0.4,4.6-0.8,6.2-1c0.6,1.8,0.9,2.9,1.3,4
		C920.3,1071.5,917.9,1071.1,915.8,1067.4z M889.1,1074.8c2.8-0.7,5.6-1.3,8.8-2.1c-0.2,3-0.3,5.5-0.7,7.9c-0.1,0.6-1,1-1.5,1.5
		c-0.5-0.5-1.4-1-1.4-1.5C894.4,1077,892.4,1075.6,889.1,1074.8z M878.3,982.5c2.3-2.1,4.2-3.8,6.1-5.6c0.5,0.5,1,1,1.5,1.6
		c-1.3,0.8-2.7,1.6-4.4,2.7c1.7,1.2,2.7,1.9,3.8,2.6c-0.1,0.3-0.2,0.6-0.4,0.8C882.8,983.9,880.7,983.3,878.3,982.5z M871.5,1022.1
		c0.7,1.1,1.9,2.3,1.9,3.4c0.1,2.7-1.7,3.8-4.3,3.6c-0.1-0.6-0.2-1.5-0.3-1.6c-2.1-0.3-4.2-0.4-7-0.6c1.4-1.9,2-2.8,2.6-3.7
		c-1.4-2-2.7-4-4.4-6.5c2.6-0.2,4.2-0.8,5.4-0.3C868.1,1017.3,872.2,1017.2,871.5,1022.1z M883.6,1066.2c-1.4,1.4-2.7,2.6-4.5,4.3
		c-1.4-1.2-3.2-2.8-5-4.3H883.6z M859.9,982.6c2.6,1.7,4.2,2.7,7.2,4.6c-2.7,1-4.2,1.5-5.7,2.1C860.9,987.4,860.5,985.4,859.9,982.6
		z M858,975.2c3.6,0,6.8,1,8.5-0.2c4-2.6,7.5-2.1,11.5,0.3c-5.3,1.3-10.7,2.5-16.4,3.9C861.1,978.5,860,977.3,858,975.2z
		 M855.7,965.2c2.7-0.5,5.4-1,8.1-1.5c0.2,0.8,0.3,1.5,0.5,2.3c-2.7,0.5-5.3,1-8,1.5L855.7,965.2z M399.2,1009
		c-0.2,0.7-0.3,1.4-0.5,2.1c-4.1-1.2-8.2-2.4-12.3-3.7c0.1-0.4,0.3-0.8,0.4-1.2C390.9,1007.1,395,1008.1,399.2,1009z M414.3,1004.3
		c-0.2,0.5-0.4,1-0.7,1.6c-2-0.6-3.9-1.1-5.9-1.7c0.5-1.6,1-3.2,1.5-4.7C410.8,1001,412.5,1002.7,414.3,1004.3z M421.9,1019.6
		c-7.6-2.4-14-4.5-20.5-6.6c0-0.4,0-0.8,0-1.2c5,0,10.1-0.6,14.9,0.3C418.3,1012.5,419.6,1016.3,421.9,1019.6z M471.9,935.6
		c-1.8-2.7-3.5-5.5-5.3-8.2c0.6-0.5,1.2-1,1.8-1.5c4.5,1.2,3.1,6,4.7,9C472.7,935.1,472.3,935.4,471.9,935.6z M474.1,1052.4
		c-1,0.3-2.1,0.7-2.9,0.9c-2.7-4.3-6.6-6.3-11.5-6.6c-6.8-0.3-11.8-3.3-15.1-9.2c-3.1-5.6-0.5-13.3,5.4-15.7
		c5.5-2.2,13.6,0.8,18.1,6.7c3.4,4.4,3.1,9.3-0.9,14.8c-0.7,1-1.2,2.1-2,3.3C470,1046.4,474.8,1049.5,474.1,1052.4z M485.1,1045.4
		c-6.5-2.5-7.9-5.3-5.7-11.6C481.5,1038,483.1,1041.4,485.1,1045.4z M528,920.6c-2,1-4,2-6.8,3.3C521.2,915.9,525.3,920.3,528,920.6
		z M640.6,789.8c-0.7,1.7-1.4,3.5-2.1,5.2c-1-0.8-2.1-1.6-3-2.4c-0.1,0.6-0.3,1.9-0.6,3.2c-0.3,0-0.6,0-0.8-0.1v-7.1h3.7
		c0.3,1.5,0.5,2.7,0.9,5.2c0.4-2.3,0.6-3.4,0.8-4.4C639.9,789.6,640.3,789.7,640.6,789.8z M650.2,791.4c-0.6,0.7-1.2,1.8-2.2,2.4
		c-0.8,0.5-2,0.5-3,0.7c-0.2-3.1-6.4-4.8-2-9.1c0.4-0.4-0.3-1.9-0.5-2.8c0.6-0.1,1.2-0.3,1.8-0.4L646,793c0.4-0.1,0.8-0.2,1.2-0.3
		c-0.2-2.8-0.4-5.6-0.6-8.2C647.9,787,649.1,789.4,650.2,791.4z M650.9,852.9c-0.2-0.1-0.8-0.4-2.3-1.1c3.2,5.1,3.2,5.1-1,8.5
		c-0.3-6.3-1.7-12.2,1.2-18.1c0.2,1.8,0.4,3.4,0.6,5.4c0.8-0.8,1.2-1.3,1.5-1.6L650.9,852.9L650.9,852.9z M671.5,865.9
		c-1.8-5.2-3.5-10.4-5.4-15.8c5.9-4.5,4,5,8,3.8c-0.6,4-1.2,8.1-1.8,12.1C672,865.9,671.8,865.9,671.5,865.9z M665.8,859.8
		c-2.8-3.7-5.6-7.5-8.7-11.6c0.2-1.2,0.6-3,0.8-4c2.9,4.8,6,9.8,9,14.9C666.5,859.3,666.2,859.5,665.8,859.8z M656.5,867.7
		c-1.5-2.3-2.9-4.6-4.3-6.8c0.3-0.2,0.7-0.5,1-0.7c1.8,0.7,3.6,1.5,5,2C657.5,864.3,657,866,656.5,867.7z M641.9,868.1
		c4.6,1.6,7.5,2.7,10.5,3.7c-1.4,4.4,7,7.9,1,13.3C649.6,879.4,646.1,874.3,641.9,868.1z M643,876.6c-1.9-0.5-3.9-1.1-5.8-1.7
		l0.1-1.7c2.5,0.2,5,0.4,7.6,0.6v5.2c-0.6-1.7-1-2.6-1.3-3.5C643.3,875.8,643.1,876.2,643,876.6z M551.6,951.2
		c0.9-1.8,1.5-3.7,2.2-5.6c2.9,1.1-1.7,6.9,2.8,7.5v-11.3c6,6.2,11.9,11.6,14.6,19.5c0.4-0.3,0.8-0.5,1.3-0.8v-5.3
		c0.4-0.1,0.7-0.2,1.1-0.4c0.9,2.2,1.9,4.4,2.8,6.5c-4,1.2-3.3,8.8-9.4,6.7c0.2,1,1,2.8,0.7,3c-1,0.7-2.4,0.8-2.6,0.8
		c-1.6-2.4-2.3-4.7-3.7-5.3c-4.4-1.7-6-5.3-7.6-9.2c-0.3-0.7-0.1-1.8-0.6-2.3C550.8,952.7,550.8,952.8,551.6,951.2z M551.9,910
		c1.2,0.3,2.3,0.6,3.5,0.9c-0.2,0.5-0.5,1-0.7,1.5c-2.7-1.5-5.5-3-8.2-4.6c0.7-0.7,1.2-1.5,2-1.9c0.6-0.3,1.8-0.3,2.2,0
		c0.9,0.9,1.5,2.2,2.2,3.3C552.5,909.6,552.2,909.8,551.9,910z M536.2,912.5c-0.5-2.2-0.9-3.7-1.2-5c5.1,3.1,6.8,5.9,5.8,10.8
		c0.2-0.1,0.3-0.2,0.5-0.3c0.4,0.5,0.8,1.1,1.2,1.7c0.4,0,0.7,0,1.1,0v-7.3c2.3,0.3,4.7,0.7,7.8,1.2c-0.1,0.5-0.1,1.9-0.3,1.9
		c-6,1.3-3.8,5.5-3.4,9.1c0.1,1.4,0,2.8,0,3.2c-2.1-2.7-4.5-6-6.9-9.2c-0.2,1-0.5,2.1-1,3.3c-0.2,0.7-1.7,0.9-3.1,1.6
		c0.6-2.7,1.2-4.3,1.3-6c0.1-0.7-0.4-1.7-1-2.2c-0.4-0.4-1.3-0.3-1.9-0.4c-0.1,1-0.4,2-0.4,3c0,1.3,0.3,2.5,0.5,3.8
		c-0.6,0.2-1.2,0.5-1.8,0.7c-0.3-1.3-0.4-2.7-1-3.9c-0.8-1.6-1.9-3-3-4.6c0.6-1.5,1.4-3.4,2.3-5.6
		C533,909.3,534.3,910.6,536.2,912.5z M541.8,907.2c-0.8-0.7-1.3-1.1-1.7-1.4c0.2-0.3,0.4-0.7,0.5-1c1.9,1,3.8,2,5.7,3.1
		c-0.2,1-0.3,2-0.4,2.7c-2.9-1.1-5.5-2.1-8.1-3.1c0.1-0.4,0.2-0.7,0.3-1.1C539.2,906.6,540.3,906.9,541.8,907.2z M559.2,894.4
		c-1.2,0.1-2.2,0.2-3.4,0.3c0.5,0.8,0.9,1.4,1.4,2.1c-1.7,0.2-3,0.3-4.6,0.4c0.1,1.4,0.2,2.7,0.3,4.7c0.6-1.6,0.9-2.4,1.4-3.8
		c1,2.3,1.8,4.1,2.9,6.6c-2.4-0.8-4.5-1.4-6.1-1.9c-2.1,0.9-4.1,1.8-5.8,2.5c-1.6-1.9-3.4-3.4-4.3-5.3c-1.6-3.3-1.4-3.5-5.5-4
		c1.2,2.6,2.2,4.9,3.2,7.2c-0.6,0.2-1.2,0.5-1.7,0.7c-0.7-1.7-1.5-3.4-2.1-5.2c-0.5-1.8-0.7-3.7-1.1-5.5c0,0,0,0,0,0
		c1.1-0.1,2.3-0.5,3.3-0.2c2.3,0.7,4.5,1.8,6.8,2.8c0.1-0.3,0.2-0.5,0.4-0.8c-1.6-0.5-3.3-1-4.6-1.3c1.8-2.8,3.5-5.4,5.3-8.2
		c2.3,0.2,5.5,0.4,8.7,0.7c-0.3,2.9-0.3,2.9-4.8,1.3c-0.3,2.9-0.6,6-1.1,10.2c2.5-1.9,4-3.1,5.5-4.3c-0.8-0.2-1.6-0.3-2.6-0.5
		c0.2-0.6,0.5-1.2,0.7-1.8C554,892.2,556.5,893.3,559.2,894.4z M563.5,936.3c1.5,2.3,2.8,4.7,4.2,7c-0.5,0.4-1,0.8-1.5,1.2
		c-2.8-2.4-5.8-4.6-8.2-7.3c-1.2-1.4-1.2-3.8-1.8-5.7c1.1-0.3,2.8-1.2,3.2-0.8c1.2,1.2,1.8,3,2.8,4.5
		C562.5,935.6,563.2,935.8,563.5,936.3z M580.1,886.1c-3.2,2.8-6.1,4.8-8.2-0.5c-0.5-1.3-1.1-2.6-1.5-3.9c-0.3-0.8-0.5-1.8-0.5-2.6
		c0-0.2,1.2-0.8,1.5-0.6c0.7,0.4,1.8,1.2,1.8,1.9C573.1,885,576.6,885.5,580.1,886.1z M581.2,901.7c0.9,0.9,2.4,1.7,2.7,2.8
		c0.6,2.6,1.2,3.1,4.5,2.3c0.4,1.4,0.8,2.8,0.8,3c2.3,0.6,4.1,1,5.8,1.4c-1-2.3-1.9-4.7-3-7.2c1-0.5,3-1.3,5.1-2.3
		c-0.4-1.1-0.8-2.5-1.4-4.1c2.2,0,4.3,0,6.5,0c0,0,0,0-0.1,0c2.2,0.3,4.5,0.7,6.8,1c0,0.2,0,0.3,0,0.5c-1.3,0.3-2.6,0.5-3.9,0.8
		c0.4,0.3,0.8,0.6,1.3,0.9c-0.4,1.3-0.7,2.5-1.2,4.3c2.2,1,5.1,1.5,6.7,3.3c1.3,1.5,1.9,3.5,3.5,5.4c5,5.7,4.3,7.1-2.9,11.2
		c-3.7,2.1-4.5,1.7-4.8-2.5c-0.1-1.7-0.4-3.4-0.6-5c-1.7,1.4-3.5,3.2-3.8,3c-2.3-1.6-4.7-3.3-6.2-5.5c-0.5-0.8-1-1.7-1.4-2.6
		c-1.4,0.2-2.9,0.3-5.7,0.7c2.2,2.2,3.6,3.6,4.9,5c1.3,1.5,3.7,3.1,3.7,4.6c-0.2,4.7,3.4,7,5.8,10.7c-2.2,1.7-4.4,3.5-5.4,4.4
		c-2.1-2.6-3.8-4.6-5.5-6.6c-0.4,0.2-0.7,0.3-1.1,0.5c0.8,2.2,1.6,4.3,2.5,6.5c0.4-0.2,0.8-0.3,1.3-0.5c-0.4,5-6.4,12.6-10.3,13.1
		c1.3-2.5,1.3-2.5-5.2-6.5c-0.2-1-0.5-2.2-0.7-3.3c-0.2,0-0.4,0.1-0.6,0.1v3.4c-1.5,0.6-2.4,1-4.6,1.9c3.8,0.4,6.4,0.6,8.8,0.8
		c2.7,4.5,1,7.8-2.9,11c-0.1-1.7-0.2-3-0.3-4.8c-5.2-1.6-10.4-3.2-15.7-4.8c0-0.2,0.1-0.5,0.2-0.7c1.7-0.3,3.3-0.6,5.1-0.9
		c-0.6-1.6-1-2.7-1.6-4.3c1.9,0.4,3.4,0.7,5.1,1.1c-0.4-2.8-0.7-5.1-1.1-8c-0.7,1.5-1,2.3-1.8,4c-1.4-5.1-2.5-9.2-3.7-13.3
		c0.5-0.2,1-0.3,1.4-0.5c0.6,1.7,1.2,3.5,1.7,5c0.2-0.9,0.4-2,0.6-3.3c2.3,2.7,5.4,4.8,4,9.1c-0.2,0.7,1.7,2.1,2.5,3.2
		c0.3-0.2,0.6-0.5,0.8-0.7c-0.6-1-1.3-2-2-3.2c1.4-0.8,2.8-1.7,3.3-2c-1.6-4.1-3-7.6-4.4-11.2c-0.1-0.1-0.2-0.2-0.3-0.4
		c-0.5-0.8-0.9-1.6-1.4-2.4c1-0.1,2-0.1,3.3-0.2v-10.6c0.7,0.9,0.6,1.9,1,2.6c0.7,1,1.6,2.1,2.7,2.7c0.6,0.3,2.5-0.3,2.5-0.5
		c0-1.2-0.4-2.3-0.7-3.5c-0.7-2.7-1.3-5.4-2-8.1C580.2,902.2,580.7,902,581.2,901.7z M599.8,888.6c0.8,3,1.5,6,2.3,9
		C596,894.9,595.5,893,599.8,888.6z M588.8,898.8c-0.7,0.8-2.5,0.6-3.9,0.8c-0.1-0.6-0.2-1.1-0.3-1.7c1.3-0.2,2.7-0.4,5-0.8
		C589.5,897.8,589.2,898.3,588.8,898.8z M582.6,895.5c0.5-1.2,0.7-2.6,1.5-3.6c0.9-1.1,2.2-1.7,2.8-2.1c1.2,1.8,2.6,3.1,3,4.7
		c0.2,0.7,0.1,1.7-0.1,2.5c-1.8-0.7-2.8-1.1-3.9-1.3C584.8,895.5,583.7,895.5,582.6,895.5z M616.6,870.4c0.6,1.5,1.6,3,1.7,4.6
		c0.2,5.2,0.3,10.5,0.2,15.7c-0.1,2.8,0.6,4,3.6,3.1c-0.2-1.5-0.5-2.9-0.7-4.2c1.8,0.3,3.7,0.5,5.7,0.8c-0.4-1.5-0.8-3-1.2-4.4
		c1.7-0.5,3.1-0.9,4.4-1.3c1.1,4.8,2.3,9.6,3.4,14.4c0.5-0.1,0.9-0.2,1.4-0.2c0.3-0.8,0.5-1.6,0.9-2.6c1.6,4.1,1.6,4.1-4.4,5.2
		c-1.5-2-2.8-3.6-4.8-6.2c-0.4,2.8-0.6,4.2-0.8,6.1c-0.5-1.6-0.8-2.5-1.4-4.7c-0.6,2.4-0.9,3.6-1.4,5.4c-0.5-1.5-0.8-2.2-1-2.9
		c-0.2,0-0.4,0.1-0.7,0.1c0.2,1.8,0.3,3.6,0.5,5.4c0.4-0.3,0.8-0.7,1.2-1c1,0.9,2.5,1.6,2.8,2.7c0.5,1.5,0.1,3.2,0.1,5.1
		c-0.6-0.1-1.9-0.3-1.9-0.3c-0.5,1.6-0.9,2.8-1.1,3.4c-4.2-5.4-8-10.8-12.3-15.9c-3.1-3.6-6.4-6.8-3.5-12c0.3-0.6,0.2-2.2,0-2.2
		c-3-0.7-1.8-1.7-0.5-3.1c0.7-0.8,0.9-2.2,1-2.5c-3-1.3-5.4-2.7-8-3.4c-2.8-0.7-5.8-0.6-8.1-0.8c0.9-1.2,2.8-2.6,2.9-4.1
		c0.1-1-2.3-2.2-3.7-3.3c-0.9-0.7-2-1.3-3-1.9c0.1-0.2,0.2-0.3,0.4-0.5c1.5,0.4,3,0.9,4.5,1.3c0.1-0.2,0.1-0.5,0.2-0.7
		c-0.6-0.3-1.1-0.7-1.8-1.1c1.1-0.3,1.9-0.5,2.8-0.8c-0.4-0.2-0.8-0.4-1.3-0.6c0.4-1.5,1.2-3.1,1.2-4.7c0-1.1-1.1-3-1.9-3.1
		c-2.8-0.4-5.8-0.2-8.2-0.2c1.3-0.8,2.8-1.8,4.4-2.6c0.7-0.3,2-0.4,2.5,0c2.4,2.1,2.4,2.2,5.1-0.7c0.8,4.2,1.6,7.9,2.7,13.4
		c0.7-3.5,1.2-5.8,1.7-8.3c0.9,0.1,1.8,0.3,2.5,0.4c-0.6,0.9-1.1,1.7-1.2,1.8c1.4,0.5,3.7,1.2,3.7,1.5c-0.8,5.3,4.2,6.1,6.4,9.2
		c0.6-0.9,0.9-1.4,1.8-2.8c-0.2,3.1-0.3,5.3-0.5,7.7c0.4-0.3,1-0.5,1.4-0.9C615.2,872.8,615.9,871.5,616.6,870.4z M621.5,863.2
		c5.6-0.1,2.3,5.6,4.1,7.6c0.9-1.6,1.7-3,2.7-4.7c-0.3,4.1-0.6,7.4-0.9,10.8c2.2-1.1,4-2.9,5-2.5c2.6,1.1,4.8,3.1,7.6,5.1
		c2.2,15.9,2.2,15.9-0.8,17.2c0.9-2.7-3.8-11.4-5.2-10.4c-3.4,2.5-1.8-2.8-3.6-1.8c-0.7-1.4-1.3-2.8-2-4.2c-2.3,0.9-4.5,1.8-7.2,3
		c1.3-3.3,2.4-6.2,3.5-9.2c-0.7-0.2-2-0.5-3.3-0.7c0.1-1.8,0.2-3.3,0.2-4.7c0.2,0,0.3,0,0.5,0c0.3,1.1,0.5,2.2,0.9,3.7
		c2-4.8-1.3-5.4-5.1-6.3C619.5,864.7,620.5,863.3,621.5,863.2z M624.8,853c0.5-0.5,1.4-1.7,2.3-2.8c1,0.5,2,1,3.8,2
		c-3.8,1-7,1.8-10.4,2.7c0.5-2.3,0.8-3.6,1.2-5.7C622.8,850.5,623.6,851.5,624.8,853z M633,842c1.3-3.2,2.2-6.5,3.2-9.7
		c1,1.4,1.1,2.5,1.1,3.7c0,1.1,0,2.2,0,3.3c3.8-1.2,4.7-7.4,2.1-10.6c1,0.3,2.1,0.9,2.5,1.7c0.5,1,0.3,2.4,0.5,4.2
		c0.6-1.2,0.9-1.7,1.3-2.6c-0.1,7.9-1.8,9.6-9,9.5v8.5c-0.2,0-0.4,0.1-0.7,0.2c-0.4-1.1-0.8-2.2-0.8-2.4c-3.4-0.8-6.1-1.5-8.9-2.2
		c2.1-1.1,3.9-0.8,5.6-1.2C631.1,844,632.5,843,633,842z M548.1,654.3c0.5-1.2,1-2.5,1.5-3.7c1.7,1,3.3,1.9,5,2.8
		c-0.4,0.9-0.7,1.8-1.1,2.7C551.8,655.5,550,654.9,548.1,654.3z M419.2,732c1.2-0.7,2.7-1.6,3.5-2.1c1.5,2.5,2.9,4.9,4.2,7.3
		c-2.6,1.5-5.1,3.1-7.7,4.7V732z M415.5,758.5c-1.5-1.5-2.9-2.9-4.4-4.3c0.3-0.3,0.6-0.6,0.9-0.9c1.5,0.2,3,0.5,5.4,0.9
		C416.7,755.7,416.1,757.1,415.5,758.5z M403.6,763.1c1.4,0.3,2.7,0.5,4,1c1.3,0.5,2.5,1.2,5,2.5c-1.5,0.7-2.6,1.6-3.3,1.4
		c-1.3-0.4-2.5-1.5-3.8-2.1c-0.5-0.2-1.8,0.1-1.8,0C403.6,765,403.7,764,403.6,763.1z M379.8,422c0.5,0.2,0.9,0.3,1.4,0.5
		c-1.8,4.9-3.5,9.8-5.5,15.3C373.1,430.6,377.6,426.7,379.8,422z M353.5,427.3c3-4,5.7-7.6,8.3-11.2c0.5,0.1,1.1,0.3,1.6,0.4v8.3
		C360.1,425.6,357.2,426.3,353.5,427.3z M351.9,405.9c1.2,0.3,2.3,0.5,3.6,0.8c0.4-0.9,0.8-2,1.2-3c0.6,0.1,1.3,0.3,1.9,0.4
		c-0.9,5.2-1.7,10.5-2.6,15.7c-0.3-0.1-0.5-0.1-0.8-0.2c-1-3.5-2-6.9-3-10.4C352,408.2,352.1,407,351.9,405.9z M342.1,560.2
		c-0.6,0.1-1.2,0.2-1.8,0.3c-0.7-5-1.4-10-2.1-15c0.4-0.1,0.8-0.1,1.2-0.2C340.4,550.2,341.2,555.2,342.1,560.2z M334.4,577
		c1.2-1.8,2.1-4.3,3.8-5.3c2.3-1.3,4,0,3.7,3c-0.1,0.7,1,1.5,1.5,2.3c1.6,3,3.2,6.1,4.8,9.2c-0.4,0.2-0.8,0.5-1.2,0.7
		c-1.7-2.8-3.5-5.6-5.4-8.6c-0.5,0.2-1.1,0.7-1.6,0.6C338.1,578.4,336.3,577.7,334.4,577z M278.1,624.4c2.6,6.8,0.9,13.8,0,20.8
		V624.4z M245.6,655.8c5.4,1.8,5.7,2.8,3,8.9C247.6,661.4,246.7,658.9,245.6,655.8z M229,670.1c1.1-1.5,2.2-2.9,3.2-4.3
		c0,0.7,0,1.3,0,1.6c2-0.5,3.9-0.9,5.8-1.3c0.5,2.3,0.9,4.6,1.4,6.8C235.8,671.9,233.1,671.2,229,670.1z"/>
	<path d="M574.4,0.9c0.7-1.2,6.8,2.5,7.7-0.9c-0.4,1.8-0.5,3.4-0.9,3.4c-1.2,0.2-2.3,0.6-3.3,1.2c-2-0.2-4.3-0.3-7-0.4
		C572.1,3.8,573.3,2.8,574.4,0.9z"/>
	<path d="M553.8,12.1c1.6-2.6,3-5.3,4.3-7.4c-2.5,4.2,3.1-0.7,4.7-0.6l-8.3,7.8C554.3,12,554,12.1,553.8,12.1z"/>
	<path d="M562.8,4.2c3,0,5.6,0,8,0.1C568.4,5.2,565.6,4.4,562.8,4.2z"/>
	<path d="M1105.9,1438c0,0.3,0,0.7,0,1c0,22.6,0,45.2,0,67.8c-2.7-3.3-5.4-6.7-8.2-9.9c-3.6-4-7.3-7.9-11.1-11.8
		c-0.8-0.8-2.1-1.1-2.7-2c-7-10.3-15.4-19.4-24.1-28.3c-3.9-4-8.1-7.7-11.8-12c-1.9-2.2-2.8-5.2-4.5-8.4c1.7-0.1,2.8,0.1,3.4-0.3
		c1.1-0.7,1.8-1.8,2.8-2.7c-1-0.6-2.2-1.9-3-1.7c-4,0.9-5.9-2.3-8.8-3.5c-6.2-2.6-13-4-19.5-5.8c-1.8-0.5-3.7-0.7-5.6-1
		c-2.2-0.3-4.6-1.3-6.5-0.7c-3.4,0.9-6.3,1.1-9.8-0.3c-3.1-1.2-7-0.3-10.6-0.3l0.1,0.1c-2.9-0.7-5.7-1.3-8.6-2.2
		c-2.5-0.7-5-1.7-8.8-3c-2.9,2-7,0.2-11.7-0.7c-6.6-1.3-13.8,0.3-20.7,0.7c-5.8,0.3-11.6,1-17.3,1c-5.3,0-12.4,3.7-14.3,8.4
		c-0.2,0.6,1.7,3,2.2,2.9c3.1-0.7,7-1.1,9.1-3.1c3.8-3.6,7.4-1.2,11.1-1.2c6.6,0,13.2-0.2,19.8-0.2c1.3,0,2.6,0.7,3.8,1.2
		c1.6,0.7,3.2,1.5,4.5,2.1c-0.2,1.7-0.2,3.8-0.8,5.9c-0.5,1.9,0.2,5.1-3.6,4.1c-0.3-0.1-0.7,0-0.9,0.2c-3,2.9-6,5.9-9.6,9.5
		c4.7,2.5,9.3,5,13.9,7.5c-1.5,3.1-2.7,3.8-9.1,3.9c1,3.8,1.8,7.4,2.7,10.7c-1.1,1.1-2.5,2.4-3.9,3.8c0.3,0.4,0.6,0.8,0.8,1.1
		c1-0.2,1.9-0.4,3.1-0.7c-0.1,1.1-0.2,2.2-0.4,3.8c3.3-0.4,6.2-0.8,9.8-1.3c2.7,5.5-3.6,5.7-6.1,8.2c0.2-1.3,0.5-2.5,0.7-3.6
		c-3.6-0.7-4.4,5.9-8.5,2.5c-1.7,2.7-3.4,5.3-5.3,8.4c2,1,3.9,2,5.8,2.9l-0.1-0.1c-1,0.8-2.1,1.7-3.7,3c0,1.5,0,4.3,0,8.3
		c1.3-2.3,2-3.4,3.1-5.2c1.4,4.6,9.7,4.2,6.2,11.6c3.5-1.1,7-5.4,10.1-0.3c0.3,0.5-1.4,2.1-2.2,3.4c3.2,0.5,7.5-1.9,10.2,2.4
		c0.1,0.2,2.3-0.9,4.6-1.9c-0.1,2.2-0.2,3.9-0.4,5.6c4.7-0.3,7.9,1.8,9.5,6.4c-24.9,0-49.8,0-74.7,0c1.3-2.5,2.6-5.1,3.3-6.4
		c-2.6-3.8-5.7-6.8-6.9-10.4c-1.7-5.1-5.1-5.8-9.3-6c-0.4,0-0.9-0.3-2.2-0.9c2.1-0.3,3.4-0.5,4.8-0.7c0.4-0.5,0.7-1,1.1-1.4
		c-1.6-1.2-3.2-2.4-4.5-3.4c1.9-2.7,4-5.5,6.1-8.5c-3-6.6-4.9-7.2-11.8-3.9c-0.3-1.8-0.7-3.7-1.1-6.2c1.6-0.8,3.4-1.6,6.3-3
		c-2.8-2.3-5.2-4.5-7.8-6.4c-6.1-4.5-6.9-7.9-3.3-15.2c-1.2-1-2.4-2-3.2-2.6c0.5-2.9,0.9-5.4,1.4-8.4c0.9-0.7,2.7-1.7,3.7-3.2
		c1.2-1.8,2.9-5,2.3-5.9c-1.7-2.1-4.6-4.3-7-4.3c-3.8,0-7.7,2.2-11.6,2.7c-6.3,0.8-6.3,5.8-5.4,9.3c0.8,3.4-0.8,6.4,0.2,9.7
		c1.1,3.8,2.3,7.7-0.3,11.7c-0.7,1.1,0.7,3.4,1.1,5.3c1.7,1.3,3.7,2.9,5.8,4.6c0.2,3.1-4.5,5.7-1.2,9.2c-1.8,1-3.6,2-5.8,3.2
		c1.6,4.8,12.8,8,3.7,15.8c1.9,2.4,3.1,5.2,6.8,3.3c0.6-0.3,2.3,1.3,3.6,2.2c-4.2,1.1-7.8,2-11.4,2.9c0,0.4,0,0.8,0,1.1
		c1.2,0,2.4,0.1,3.6,0c3.4-0.4,4.3,0.9,2.9,4c-0.8,1.7-1.5,3.5-2.2,5.5c2.1-0.2,3.8-0.4,5.5-0.5c-0.2-0.9-0.3-1.8-0.6-3.3
		c1.3,0.4,2.3,0.5,2.9,1.1c2.7,2.4,5.1,5,3.2,9.1c-23.9,0-47.8,0-71.7,0c0.9-5-4.3-5-6.3-7.7c-0.7-1-1.9-1.7-2.3-3.3
		c2.6,0.8,5.3,1.5,7.9,2.3c0.3-0.4,0.7-0.8,1-1.3c-1-1.7-2-3.5-3.2-5.4c3.8-5.5-4.8-13.6,3.5-18.3c-2.2-0.6-3.8-0.9-5.3-1.3
		c0.9-2.3,1.7-4.6,2.6-6.9c0.5,0,1.1-0.1,1.7-0.1c-1.4-1.5-2.8-2.9-4.5-4.8c0.6-1.3,1.4-3,2.3-4.9c1.4,0.5,2.5,0.9,3.7,1.3
		c0.2-0.3,0.5-0.6,0.7-0.9c-1.4-1.3-2.8-2.7-4.2-3.9c-0.9-0.8-2-1.6-3-2.4c1.1-0.8,2.2-1.6,3.8-2.8c-3.2-3.4-6.5-7-10.1-10.8
		c2.7-2.3,2.5-8.2,8.7-7c0.2,0.1,0.6-1.5,1.2-1.9c1.6-1.3,3.4-3.7,4.9-3.6c6.6,0.5,8.3-4,10.5-8.6c0.7-1.4,2.7-2.4,4.3-3.1
		c3.2-1.4,6.5-2.3,9.7-3.7c1-0.5,1.7-1.8,2.2-2.4c-7.5,0-14.8-0.2-22.1,0.1c-3.4,0.2-6.7,1.6-10,2.4c-5.8,1.3-11.8,2.1-17.4,3.8
		c-5.6,1.8-10.8,4.7-16.3,6.7c-2.1,0.8-4.7,0.3-7,0.6c-1.4,0.2-3.1,0.6-4,1.5c-3.2,3.3-6,6.8-9,10.3c-6.1,7-10,14.8-9.4,24.4
		c0.2,3.1-0.8,6.6-2.2,9.4c-3,5.9-0.6,11.7-0.6,17.5c0,1.1,0.2,2.2,0.3,3.3c0.3,4.3-3.2,8.4,0.5,13c1.3,1.7-0.1,5.7-0.3,8.6
		c-16.4,0-32.8,0-49.1,0c4.8-9.5,9.1-19.1,10.5-29.9c0.5-3.5,2-7.3,4.3-10c3.7-4.3,7.4-8.1,6.3-14.5c-6.1-0.8-11.4,0.9-16.6,4.5
		c-8.8,6.1-18.1,11.6-27.2,17.4c15.1-16,35-25.6,51.1-39.3c-1.4-2.4-2.8-4.9-4.2-7.3c3.3-2.2,3.7,1.2,5.2,1.9c6,2.6,11.8,3,17.6,0.9
		c4.2-1.5,8.1-4.1,12-6.5c3.6-2.1,7-4.5,10.5-6.8c4.2-2.7,8.2-5.8,12.7-7.9c6.6-3.2,13.4-6,15.4-13.1c3,0.2,5.5,0.4,7.9,0.6
		c2.2-6,2.6-6.2,7.8-3.3c1-1.8,1.9-3.6,2.8-5.2c5.4,0.5,10.8,0.9,16.1,1.6c5.9,0.7,8.8-1.8,9.5-7.7c0.4-2.9,1.5-6.6,3.6-8.2
		c2.8-2.2,7-2.7,10.5-4c0.8-0.3,1.9-1.7,1.8-1.8c-1.8-2.6-1.3-5.1,0-7.6c0.4-0.8,1-2.2,1.3-2.2c1.2,0.2,2.4,0.8,3.3,1.2
		c0.3,1.8,0.5,3.4,0.9,4.9c0.8,2.8,2.7,5.5,2.7,8.2c-0.1,4.5,1.1,8.9,2.7,12.6c1.5,3.5,5,7.9,10.4,5.9c4.7-1.7,10.6-1.3,13.1-7.2
		c0.3-0.8,1.9-1.1,2.9-1.7c0.7,0.8,1.2,1.4,1.7,2c2.3,2.9,3.9,5.1,8.6,2.2c6.2-3.9,13.6-2.7,19.9,0.1c5.1,2.3,8.9,2.5,13.7-0.4
		c2.9-1.7,7.1-1.2,10.5-2.3c4.4-1.5,6.8,3.1,11.3,2.8c5.2-0.3,10.7,0.1,16.4,1.8c6.4,2,14.7,4.1,21.7-1.1c0.8-0.6,2.4-0.1,3.7-0.1
		c-0.6,2.5-1,4.4-1.1,5c6,1.4,11.8,4.4,16.5,3.3c6-1.4,11.2,4,16.2,0.6c1.8,1.5,3.1,2.6,4.7,3.9c1-2.1,1.6-3.4,1.9-3.9
		c2.8,0.7,5,1.3,7.3,1.9c-0.2,0.5-0.7,1.5-1.1,2.5c0.9,0.3,1.7,0.3,2.1,0.7c3.6,3.5,7.1,3,11.7,1.5c2.9-0.9,6.9,1.3,10.8,2.2
		c-1.5,2-2.4,3.1-3.5,4.5c3.6,2.3,7.8,3.8,9.9,6.7c2.7,3.8,6.2,2.7,9.1,2.8c4.6,0.1,9.2-1.3,13.9-2.1c-0.2,0.8-0.4,1.5-0.6,2.3
		c2,1.7,3.9,3.8,6.2,4.8c1,0.4,3-1.3,4.6-2.2c1.6-0.8,3.1-1.7,4.6-2.6C1105.9,1437.3,1105.9,1437.7,1105.9,1438z M907.9,1490.5
		c-0.5-2.1,4.2-4.9-0.3-5.9c-1.8-0.4-4.6,3-6.9,4.7c0.3,0.4,0.6,0.9,0.8,1.3C903.6,1490.5,905.6,1490.5,907.9,1490.5z"/>
	<path d="M964.9,1142c0.1,0.3,0.2,0.6,0.4,0.9c4.4-1.8,8.8-3.7,13.2-5.6c0.4-0.2,0.4-1.3,0.5-1.9c1.3,1,2.7,1.9,5,3.5
		c-0.1,0,1.1-0.2,2.1-0.4c0.5,2.1,0.9,3.8,1.3,5.4c3.4-2.8,6.7-5.3,9.9-7.9c0.1,0.1,0.2,0.1,0.2,0.1c1.3-0.2,2.6-0.4,4-0.6
		c0.1,0.3,0.2,0.6,0.3,0.9c-2.5,1.2-4.9,2.4-7.4,3.6c0.1,0.1,0.2,0.3,0.3,0.4c3.5-0.5,7.1-0.9,11.5-1.5c0-1.9,0-5,0-6.7
		c2.4-0.3,3.9-0.3,5.3-0.7c0.7-0.2,1.1-1.2,2.5-2.8c1.5-1.5,4-3.9,6.4-6.3c-0.2-0.2-0.4-0.5-0.7-0.7c-2.8,0.7-5.5,1.4-8.3,2.1
		c3.5-2.1,7.2-3.9,11-4c2.6-0.1,5.5,1.9,7.8,3.7c0.7,0.5-0.6,3.5-1,5.1c0.4,0.2,1.8,0.7,3.1,1.1c-0.1,0.2-0.2,0.3-0.3,0.5
		c1.9,0,3.9,0,5.8,0c-0.2,1.6-0.5,3.1-0.7,4.6c0.5,0.1,1.2,0.2,2.9,0.4c-3.3,1.8-5.7,3-8.1,4.3c0,0.5,0,1,0,1.4
		c1.7,0.3,3.4,1.1,5,0.8c2.4-0.4,4.6-1.6,6.9-2.5c-3.7,2.1-7.4,4.3-11.2,6.4c0.1,0.2,0.1,0.5,0.2,0.7c3.8-1.3,7.6-2.6,11.4-3.9
		c-0.2,1.4-0.4,2.8-0.6,4.2c-4.1-1.3-7.4-0.3-9.9,3.2c-0.6,0.8-1.3,1.5-2.1,2c-3.2,1.9-8.8,1-7.1,7.6c0.3,0,1.4-0.1,3-0.2
		c-1.3,0.9-2.2,1.6-3,2.2c0.1,0.3,0.2,0.5,0.4,0.8c2-0.6,3.9-1.1,6.5-1.9c-1.2,1.3-2,2.2-2.9,3.1c4.2,0,8.3,0,12.6,0
		c-0.6,0.6-1.1,1.3-1.9,2.2c1,0.1,1.7,0.1,4.3,0.3c-4.4,4.1-7.9,7.4-11.8,11.1c1.9-0.8,3.6-1.4,5.3-2.1c0.2,0.3,0.3,0.7,0.5,1
		c-1.9,1.1-3.9,2.2-5.9,3.3c0.1,0.3,0.3,0.6,0.4,0.8c3.4-1.3,6.7-2.7,10.7-4.2c-0.4,1.3-0.6,2.1-0.9,3c1.1,0,2.2,0,3.6,0
		c-0.8,1-1.3,1.7-2.8,3.4c4.4-1.7,7.7-2.9,11.7-4.5c-1.3,1.5-2.2,2.4-3,3.4c0.1,0.2,0.3,0.5,0.4,0.7c3.6-1.4,7.3-2.9,10.9-4.3
		c-2.7-1.2-5-2.3-7.4-3.4c0.1-0.6,0.2-1.2,0.4-1.8c4.3,0.2,8.6,0.5,12.9,0.7c0.2-1.9,0.3-3.3,0.4-4.4c-2.4-0.8-4.8-1.6-7.4-2.5
		c1-1.3,1.5-2,2.5-3.4c-6.8,3.1-10.5-1.8-15-4c-2.4-1.1-4.8-2.3-7.1-3.5c0.7-0.4,2.1-1.3,4.2-2.5c-5.2,0.7-9.5,1.3-14.8,2.1
		c3.7-3.5,6.8-3.8,11.1-4c6.3-0.4,14-1.7,17.6-8.9c-0.2-0.5-0.4-1-0.6-1.5c-2.4,0.9-4.9,1.8-7.3,2.8c-0.1-1.8-0.2-3.5-0.3-5.6
		c-2.8,0.6-5.4,1.1-8.1,1.7c1-0.8,1.9-1.6,2.9-2.3c-0.2-0.2-0.4-0.5-0.6-0.7c-1.8,0.4-3.7,0.8-5.5,1.1c-0.1-0.2-0.1-0.3-0.2-0.5
		c2.1-1,4.2-2,6.6-3.1c-1.3-0.4-2.1-0.7-3.2-1c1.4-0.8,2.5-1.4,3.7-2.1c-0.9-0.5-1.5-0.8-3.3-1.8c7.6-0.4,12,3.6,16.8,6.4
		c0.3-0.6,0.7-1.1,1-1.7c-6.5-4.3-13-8.7-20-13.3c1.5-0.7,3.1-2.1,4-1.7c4.8,1.8,9.5,4.1,14.3,6.3c0,0,0.4-0.7,0.8-1.4l-0.1,0
		c3.1,3.4,6.2,6.8,9.4,10.2c-0.3,0.3-0.7,0.6-1,0.9c-0.8-0.1-1.6-0.3-2.4-0.4c-0.2,0.3-0.5,0.7-0.7,1c1.5,1.1,3.4,2,4.5,3.4
		c1.9,2.3,4.1,4.8,4.8,7.5c2.2,8.4,7.4,15.3,10.9,23c0.9,2.2,1.1,4.7,2.2,6.5c1.3,1.6,2.9,3.1,3.8,4.9c3,5.9,5.5,12.1,8.8,17.8
		c1.3,2.3,0.1,7,5.1,6.6c0,21.3,0,42.6,0,63.9c-3.3-4-7.3-7.4-8.3-13.1c-0.4-2.1-2.7-3.8-4.1-5.8c-2-2.8-6.2-3.5-6.8-8
		c-0.7-5.7-2.5-11.3-3.8-17c-0.4-1.8-0.2-3.9-1.1-5.4c-3.1-5.1-9.7-7.5-11-14.3c-0.2-1.1-4-1.4-6.1-2.1c-0.9-0.3-2-0.2-2.9-0.5
		c-5.7-2-10.9-4.7-12.9-10c-3.8,0-6.7,0-9.6,0c-0.1-0.4-0.2-0.8-0.3-1.1c3.2-1.8,6.4-3.6,9.7-5.3c-0.2-0.3-0.3-0.6-0.5-0.9
		c-2.9,1.2-5.8,2.5-8.8,3.8c-0.2-2.4-0.4-4.4-0.6-6.6c-3.1,1.4-6.4,2.8-9.8,4.3c-0.1-0.3-0.2-0.6-0.3-0.8c0.8-0.6,1.6-1.2,2.9-2.3
		c-9.9,2.3-15.3,6.3-13.7,10.1c1,0,2.2,0,3.5,0c-0.9,1.2-1.6,2-2.3,2.8c0.2,0.2,0.3,0.3,0.5,0.5c2.8-1.3,5.5-2.6,8.2-3.9
		c0.3,0.5,0.7,0.9,1,1.4c-1.3,0.7-2.6,1.3-3.9,2c0.3,0.3,0.5,0.7,0.8,1c1.8-0.6,3.7-1.2,6-2c-0.6,1.2-1,1.9-1.3,2.6
		c0.9,0.2,1.8,0.4,3.1,0.8c-3,1.9-5.2,3.5-7.7,4.8c-2.4,1.3-5,2.3-7.5,3.5c-6-5.4-6.1-5.3-11.1,1.4c-1.2,1.6-3.7,2.1-5.5,3.2
		c-0.1-0.2-0.2-0.5-0.4-0.7c0.7-0.9,1.4-1.9,2.3-3.1c-1.5,0-2.5,0-4.4,0c4.6-2.7,8.3-4.8,12-6.9c-0.1-0.3-0.2-0.5-0.4-0.8
		c-5.3,2.3-10.5,4.6-15.7,6.9c-2.2-4.3-4.4-7.8-9.6-6c-0.6,0.2-1.8,0.1-2.2-0.3c-2.3-2.8-5-3.7-8.5-2.7c-0.4,0.1-1.2-0.9-1.8-1.4
		c5.6-2.4,11.2-4.7,16.9-7.1c-0.2-0.4-0.4-0.8-0.6-1.2c-6.3,0.9-11.1,5-16.2,8.4c-4.8-4.9-9,1-14.2,1.1c3.4-2.6,8.5-3.2,7.2-7.4
		c-5.1,0-9.5,0-14.1,0c0.6-1.2,1-1.9,1.3-2.6c2.4-0.8,5-1.4,7.3-2.4c6.3-3,12.5-6.2,18.8-9.4c-1.7,1.7-3.5,3.5-5.2,5.2
		c-5.2,2.4-10.5,4.7-15.7,7.1c0.2,0.4,0.3,0.8,0.5,1.1c3.1-1.4,6.2-2.7,9.6-4.2c0.2,1.2,0.4,2.1,0.6,3.1c1.7-0.6,3.2-1.1,4.6-1.6
		c-0.2,0.4-0.4,0.7-0.7,1.1c1,0.7,1.9,1.4,2.9,2.2c0.8,0.6,2,1.8,2.4,1.6c5.5-2.9,11-6.1,16.1-9.9c-6.2,2.8-12.4,5.6-18.5,8.3
		c5.9-3.4,11.8-6.9,17.7-10.3c1.9-1.1,3.9-2.1,5.6-3.7c-1.7,0.2-3.3,0.4-5,0.6c-0.1-0.2-0.2-0.5-0.3-0.8c2-1.2,4-2.4,6-3.5
		c-0.1-0.3-0.2-0.6-0.2-0.8c-1.9,0.5-3.8,1-5.7,1.5c0.9-0.9,1.8-1.7,3.2-3c-1.5-0.3-2.4-0.4-4.2-0.8c2.5-1.6,4.3-2.7,6.1-3.9
		c0-0.2-0.1-0.3-0.2-0.5c-1.5,0.5-3,0.9-3.2,1c-1.4-1.6-2.2-2.5-3.1-3.4c4.9-2.3,9.8-4.6,14.7-6.8c-0.1-0.3-0.3-0.7-0.4-1
		c-5.7,2.3-11.5,4.6-17.2,6.8c0.1,0.4,0.2,0.8,0.4,1.1c0.9-0.1,1.8-0.1,2.7-0.2c-1.9,1.1-4.2,3.4-5.7,3c-4.2-1.3-7.1,0.6-10.5,2.2
		c-3,1.5-6.3,2.5-9.5,3.7c5.4-3.1,10.8-6.1,16.2-9.2c-0.1-0.2-0.1-0.3-0.2-0.5c-5.7,2.4-11.4,4.8-17.1,7.2c-0.2-0.3-0.4-0.6-0.5-1
		c1.6-1.1,3.1-2.1,5.8-4c-3.2,0.5-5,0.7-6.9,1c1.9-1.2,3.8-2.3,5.7-3.5c-0.2-0.4-0.5-0.9-0.7-1.3c-6.5,3.2-13,6.5-19.6,9.7
		c0.2,0.5,0.5,1,0.7,1.5c4.3-2.1,8.5-4.2,12.8-6.2c-2.3,1.9-4.5,3.9-6.4,5.5c3.4,0.2,6.9,0.4,10.3,0.7c-2.5,1.9-5,3.8-7.7,5.9
		c1.2,0.2,2,0.3,3.6,0.5c-1.8,1.4-3.1,2.5-4.9,3.9c1.4,0.2,2.2,0.3,3,0.5l-0.1-0.1c-2.6,2-5.2,4-7.8,5.9c-7.9-0.9-14.7,2.5-21.4,6.4
		c-0.2-0.5-0.3-0.9-0.5-1.4c3.6-2,7.2-3.9,10.7-5.9c-0.1-0.2-0.2-0.4-0.3-0.7c-2.3,0.7-4.7,1.3-7,1.9c-0.1-0.2-0.2-0.5-0.3-0.8
		c0.8-0.7,1.5-1.4,2.3-2c-4,1.1-7.4,3.2-11,4.8c-3.3,1.5-7.9,1.4-6.5,6.1c-3.1,0-6.1,0-9.4,0c4-2.1,7.7-4.2,11.5-6.2
		c-0.2-0.4-0.4-0.7-0.6-1.1c-2.2,1-4.3,2.1-6.5,3c-2.4,1-5.5,3.2-7.2,2.5c-4.1-1.9-6.5,0.7-9.5,2c-2,0.9-3.8,2-5.7,3.1
		c-0.2-0.4-0.4-0.8-0.6-1.1c1-0.6,2-1.2,3-1.8c0.9-0.6,1.8-1.3,2.7-2c-0.2-0.3-0.4-0.7-0.6-1c-9.9,3.6-19.8,7.3-29.7,10.9
		c0-0.4,0-1.2,0-2.6c-5.1,2.7-10,5.2-14.9,7.7c-0.2-0.3-0.4-0.7-0.6-1c0.7-0.8,1.4-1.5,2.5-2.7c-1.7-0.1-2.8-0.2-3.8-0.2
		c4.7-3.3,9.4-6.6,14-9.9c1.3-0.1,2.6-0.3,3.9-0.4c0.1,0.3,0.2,0.6,0.3,0.9c-3.6,2.4-7.2,4.7-10.8,7.1c0.2,0.2,0.3,0.5,0.4,0.8
		c8.7-4.7,17.4-9.3,26.1-14c0.2,0.4,0.5,0.7,0.7,1.1c-1.9,1.4-3.8,2.8-5.6,4.1c0.2,0.3,0.4,0.5,0.5,0.8c6.9-3.5,13.8-6.9,20.6-10.4
		c0.2,0.2,0.4,0.4,0.6,0.6c-0.7,1-1.5,2.1-2,2.8c1,0.9,2.1,1.8,3.5,3c4.7-2.3,9.9-4.9,15.5-7.6c-0.1,1.6-0.2,2.3-0.3,3.5
		c3.1-1.6,5.8-2.9,8.3-4.2c-1.1-1.3-2-2.4-3-3.6c-2-0.4-4.3,3.1-6.9-0.4c-0.5-0.7-4.8,1.6-8.8,3c2.1-1.7,3-2.4,4-3.2
		c-0.2-0.4-0.4-0.8-0.6-1.2c-2.7,1.3-5.3,2.7-8,4c-2.7,1.4-5.4,2.8-8.1,4.2c-0.2-0.4-0.5-0.8-0.7-1.1c4.8-2.8,9.6-5.6,14.4-8.3
		c-0.2-0.3-0.4-0.7-0.5-1c-4.1,1.9-8.2,3.9-12.3,5.8c-0.2-0.3-0.4-0.7-0.6-1.1c2.1-1.4,4.2-2.8,7.7-5.1c-4.2-0.3-7.1-0.5-10-0.7
		c0,0.6-0.1,1.2-0.1,1.8c0.6,0,1.2-0.1,1.8-0.1c0.6,0,1.2,0,2.9,0.1c-7.3,4.8-13.8,8.4-22.2,6.7c-1.4-1-3.4-2.5-5.6-4.2
		c-1.2,2.7-2.1,4.9-3,6.9c2.4,0.3,5.4,0.7,9.1,1.2c-4.1,2.9-7.7,5.5-11.3,8.1c-4,2-8,4-12.1,5.8c-2.5,1.1-5,3.9-7.8,0.3
		c-0.1-0.1-1.3,0.6-2,0.9c0,0.6-0.1,1.1-0.1,1.7c2.7,0.3,5.3,0.7,8,1c-3,1.8-6.1,3.6-9.1,5.4c-0.1-0.2-0.3-0.5-0.4-0.7
		c0.7-0.8,1.3-1.6,1.5-1.8c-1.3-1.7-2.3-3.1-3.3-4.4c1-1.2,2-2.2,2.7-3.1c-1.5-1.9-2.7-3.6-4.1-5.6c1.2-0.7,2.2-1.4,3.3-2
		c-0.2-0.3-0.5-0.7-0.7-1c-1.9,0.4-3.7,0.8-5.6,1.2l0.1,0.1c0.3-0.7,0.6-1.4,0.9-2.1c-1.2,0-2.4-0.1-3.5,0c-1.9,0.2-5,1.3-5.3,0.8
		c-1.4-2.4-2.6-5.4-2.7-8.1c-0.1-1.7,2-3.4,3.2-5.1c0.5,0.4,1,0.8,1.5,1.2c0.2,0.8,0.5,1.6,0.5,1.7c2.7,0,5,0.3,7.2-0.1
		c5.1-0.8,10.7,2.2,15.4-2.2c1.5-1.4,4.1-1.9,6.2-2.7c5.7-1.9,8.7-6.5,7.2-11.8c2.9-1.5,5.8-3.6,8.9-4.4c3.1-0.8,6.5-0.2,10-0.2
		c-1.5,1.2-3,2.5-4.5,3.8c2.6-0.3,4.6-1.6,6.8-2.5c4.4-1.9,8.8-3.7,13.2-5.6l-0.1-0.1c-0.6,0.8-1.3,1.6-2.2,2.7c1.8,0,3.2,0,4.6,0
		c-0.4,1-0.7,1.6-1.1,2.8c1.2-0.5,2.5-0.8,2.5-1.2c0-5.4,8.6-4.5,7.7-10.5c4.2-2,8.5-4,12.7-6c0.2,0.3,0.3,0.7,0.5,1
		c-1.2,0.9-2.4,1.9-3.6,2.8c0.1,0.2,0.2,0.4,0.3,0.6c12.2-5.4,24.4-10.8,36.9-16.3c0,1.6,0,2.3,0,3.1c1.4-0.2,2.7-0.3,4-0.4
		c0.1,0.3,0.1,0.5,0.2,0.8c-2.7,1.2-5.4,2.4-8.1,3.7c0.1,0.3,0.2,0.6,0.2,0.9c4.5-0.3,8.9-0.5,13.3-0.8c0.1-3.9-0.4-7.2,4.2-4
		c1.1,0.8,3.1,0.5,4.7,0.7C972.4,1138.4,968.7,1140.2,964.9,1142z M949.8,1179.8c0.2,1.2,0.3,2,0.4,3.2c2.1-0.9,4.1-1.9,7-3.2
		c-1.7-0.4-2.5-0.6-3.5-0.8c0.5-0.9,1-1.8,1.6-2.6c-0.2-0.3-0.5-0.6-0.7-0.9c-3.3,1.9-6.7,3.9-10,5.9c0.2,0.4,0.5,0.8,0.7,1.1
		C946.6,1181.5,948,1180.8,949.8,1179.8z M991,1154.8c0.1,0.2,0.2,0.4,0.3,0.7c1.1-0.4,2.5-0.6,3.4-1.4c0.9-0.7,1.4-2,2.1-3
		c-1.2-0.3-2.4-0.9-3.6-0.9c-2.8,0.1-5.6,0.5-8.5,0.8c2.8,5.2,6.6,0.7,11,0.6C993.5,1153.1,992.3,1154,991,1154.8z M883.8,1177.2
		c-1.7,1-3.9,2.3-6,3.6c0.2,0.3,0.3,0.6,0.5,0.9c3.2,0,6.5,0,11,0C886.7,1179.6,885.5,1178.6,883.8,1177.2z M964.3,1161.2
		c-0.3-0.5-0.5-1.1-0.8-1.6c-5.3,2.8-10.6,5.5-15.9,8.2c0.2,0.4,0.3,0.8,0.5,1.2C953.5,1166.4,958.9,1163.8,964.3,1161.2z
		 M1022.6,1153.9c-0.3-0.4-0.6-0.8-1-1.2c-4.2,1.7-8.4,3.4-12.6,5c0.1,0.3,0.2,0.6,0.3,0.9c2.8-1,5.6-2,9.3-3.2
		c-0.7,1.7-1,2.4-1.3,3.1c0.3,0.3,0.7,0.5,1,0.8C1019.8,1157.5,1021.2,1155.7,1022.6,1153.9z M1067.6,1184.7c0,2.7,0,4,0,5.4
		c2.7-0.8,2.4,6.5,6.8,1.9C1072.5,1189.9,1070.5,1187.8,1067.6,1184.7z M993.7,1147.1c0.1,0.3,0.2,0.6,0.4,0.9
		c4.3-1.6,8.7-3.2,13-4.8c-0.2-0.5-0.5-1-0.7-1.4C1002.1,1143.6,997.9,1145.3,993.7,1147.1z M1012.6,1178.7c-2.2-0.6-3.8-1.1-6-1.7
		c-0.6,1-1.5,2.8-3.2,5.8C1007,1181.2,1009.6,1180,1012.6,1178.7z M1021,1147.3c-0.1-0.4-0.3-0.7-0.4-1.1c-4.2,1.6-8.4,3.1-12.6,4.7
		c0.2,0.6,0.4,1.1,0.7,1.7C1012.8,1150.8,1016.9,1149.1,1021,1147.3z M935.1,1155.4c0.2,0.4,0.4,0.8,0.6,1.3
		c3.9-1.8,7.8-3.6,11.7-5.4c-0.2-0.4-0.4-0.8-0.6-1.2C942.9,1151.8,939,1153.6,935.1,1155.4z"/>
	<path d="M593,1524.5c0.6-2.2,1.2-4.4,1.8-6.6c0.3,0.1,1.3,0.4,2.2,0.7c0.2-1.6,0.3-3.3,0.5-5.1c1.3,0.3,2.8,0.6,4.3,0.9
		c0.3,1.6,0.7,3.2,1.1,5c0.8-0.8,1.3-1.2,2-1.8c0.5,1.2,0.8,2.2,1.2,3.2c0.3-0.1,0.7-0.2,1-0.3c-0.2-1.2,0-2.5-0.6-3.4
		c-3.7-5.5-5.3-11.2-3.4-17.8c0.7-2.4,0.2-5.2,0.3-7.8c0.4-5.3-0.8-10.4,2.1-15.9c3.1-6.1,2.4-13.2-1.5-19.5c-0.5-0.7-0.1-2-0.1-2.6
		c-1.6-1-3.4-2.1-5.8-3.6c2.2-1.6,3.4-2.4,5.2-3.7c-2.7-3.9-5.4-7.6-8.1-11.5c5.2-0.7,5.1,4.5,7.5,7c1.6-0.7,3.2-1.3,5.1-2.1
		c-2.8-7.3-5.1-14.8-8.5-21.7c-1.5-3.1-5-5.2-7.7-7.6c-0.2-0.2-1.6,0.2-1.7,0.5c-1.5,3.8-4.8,3.6-7.9,3.9c-4.3,0.4-4.5,4.5-6.6,7
		c-3.8,4.4-2.4,11.2-8,15c-2.6,1.8-3.7,6-5.1,9.3c-0.4,1,0.4,2.5,0.6,3.7c0.3,2.1,0.5,4.1,0.1,6.4c-2.7-3.2-0.6-9.9-8.3-9.5
		c1.1,1.9,1.9,3.4,2.9,5.2c-6.1,2.8-1.7,8.1-2.6,12.2c-0.4,1.6-0.4,3.3-1.2,4.6c-2.5,4.3-5.3,8.5-8.2,13.1c-1.5-0.4-3.4-0.8-4.4-1.1
		c-1.4,7.4-2.8,14.6-4.2,21.8c-0.8-0.1-1.5-0.1-2.3-0.2c-0.1-1.9-0.2-3.8-0.3-5.5c-3.1,1.7-4.2,11.3-0.8,17.1
		c-0.3-2.1-0.5-3-0.8-5.2c1.4,1.2,2.6,1.8,2.6,2.5c0.1,3.4-0.7,6.4-4.5,7.6c-1.9,0.6-3.9,1-5.5,2.1c-1.1,0.8-1.5,2.5-2.2,3.8
		C546.5,1524.5,569.7,1524.5,593,1524.5z"/>
	<path d="M243.1,1524.5c0.9-5.6,2.2-11.1,2.7-16.7c0.4-4.2,0.7-8.7-0.6-12.6c-2-6.1-7.6-9.3-13.5-10c-9.5-1.1-19.2-1.9-28.8-1.4
		c-15.8,0.9-31.6,2.2-47.2,4.8c-12.3,2.1-24.4,6-36.4,9.8c-10.3,3.2-20.2,7.7-30.4,11.1c-7.7,2.6-12.5,7.4-14.8,15
		C130.4,1524.5,186.8,1524.5,243.1,1524.5z"/>
	<path d="M343.4,1524.5c-0.4-1.7-0.6-3.5-1.3-5c-0.5-1.1-1.9-1.8-2.9-2.8c0.8-0.4,2-0.9,2-0.9c-1.7-2.5-5.3-5.4-5-7.9
		c0.7-5.6-2.6-8.9-4.3-13.3c-2.8-7.3-5-15.1-6.3-22.9c-1.2-7.8-1.3-15.8-1.3-23.8c0-6.5,1-13,1.4-19.5c0.1-2.3-0.4-4.6-0.7-8.2
		c-5.9,16.9-5.3,32.9-5.4,48.9c0,2.6,0.6,5.2,1.3,7.7c2.9,9.5,6.1,18.9,8.9,28.4c1.9,6.4,3.2,12.9,4.8,19.3
		C337.5,1524.5,340.4,1524.5,343.4,1524.5z"/>
	<path d="M1105.9,1343.6c-2.6,0.2-5.7,1.6-5.8-3.2c-1.4,1-2.5,1.9-4.3,3.2c0.4-1.8,0.6-2.7,1-4.6c-2.1,1.4-3.4,2.2-4.7,3.2
		c-2.3,1.7-4.4,3.3-7.8,1.6c-2.7-1.3-6.4,3-6.1,6.3c-1.7,0.1-3.4,0.2-5.1,0.3c0,0.5,0,1-0.1,1.5c2.6,0.4,5.2,0.9,8,1.4
		c-0.4,0.9-0.9,1.8-1.7,3.6c3-1.6,5.2-2.7,7.3-3.8c0,4.7,8.4,12.9,14.4,13.9c-0.4,0.7-0.7,1.4-1,1.9c1.9,0.4,3.8,0.8,5.7,1.1
		C1105.9,1361.3,1105.9,1352.5,1105.9,1343.6z"/>
	<path d="M1042.1,1524.5c-0.7-1.3-1.2-3.6-2-3.6c-4-0.3-9.3-3.8-10.8,3.6C1033.5,1524.5,1037.8,1524.5,1042.1,1524.5z"/>
	<path d="M1105.9,1428.2c-1.1-0.8-2.1-1.7-4-3.2c-0.4,3.2-0.7,5.5-1,8c2-0.8,3.5-1.3,5-1.9
		C1105.9,1430.1,1105.9,1429.1,1105.9,1428.2z"/>
	<path d="M1105.9,1438c0,0.3,0,0.7,0,1C1105.9,1438.6,1105.9,1438.3,1105.9,1438z"/>
	<path d="M248.6,1264.3c0.5,14.4,11.5,25.1,25.8,24.5c13.8-0.6,26.8-12.8,25.7-31.9c-0.8-13.4-10.5-23.1-23.3-22.7
		C260,1234.7,248.1,1247.4,248.6,1264.3z M326.7,1148.7c0-1.4-0.7-3.7-1.8-4.3c-4.3-2.4-5-4.3-2.3-8.3c0.4-0.7,1-1.2,1.6-1.9
		c-5.6,0-10.5,4.9-12,11.7c-1.9,8.2,3.4,16.1,13.2,20.6C325.9,1160.5,326.5,1154.6,326.7,1148.7z M20.5,1503.3c3.8,2.7,8,5.6,12.8,9
		c0.5-4.6,0-7.4-4-8.4c-2.4-0.7-4.7-1.5-7.7-2.5C21.7,1501.3,21,1502.5,20.5,1503.3z M35.8,1508.8c-0.4,2.4-1.5,4.8-1,6.8
		c0.3,1,3.5,1.2,5.5,1.6c1.6,0.3,3.3,0.3,6,0.6C42.6,1514.7,39.6,1512.1,35.8,1508.8z M1.9,1484.3c-2.9,4.4-2.9,4.4,4.1,6.4
		C4.7,1488.6,3.3,1486.6,1.9,1484.3z"/>
	<path d="M361.2,923.2c0.7-0.6,1.4-1.2,2.5-2.1c-1.3-0.5-2.2-0.8-3.2-1.1c2.9-7.6,11.3-12.2,10.9-21.7c-2.8,2.7-5.6,3.4-8.6-0.1
		c1.7-1.2,3.2-2.3,4.7-3.4c1.7,3.4,5-1.4,6.8,1.4c3.8-3.8,10.3-4.7,11.2-11.3l-0.1,0.1c0.3,1.2,1.3,2.8,0.9,3.7
		c-1.3,2.7-3.2,5.2-4.8,7.6c-1.5-0.3-2.8-0.7-4.2-1c-0.1,0.4-0.2,0.8-0.4,1.3c1.7,0.7,3.4,1.5,5.2,1.9c1.3,0.3,2.7,0.3,4,0.4
		c-0.1,0.3-0.3,0.6-0.4,0.9c-3.7,1.1-7.3,2.1-10.9,3.2c0.5,2.2,0.8,3.7,1.4,6.3c1.2-1.7,2.2-3,3.7-5.2c3.4,0.3,7.9,0.8,11.1,1
		c0-1.8-0.1-4.2,0.1-6.6c0-0.3,1.9-0.8,1.9-0.7c0.7,1.4,1.3,2.9,1.8,4.3c0.3-0.3,0.8-0.9,1.6-1.8c0,5.7-0.4,11.2,7.1,13.6
		c-2.8,1.4-4.6,2.3-7.4,3.7c2.8,1.3,4.4,2,5.4,2.5c0.6-1.6,1-2.9,1.9-5.3c3.7,9,6.9,16.7,10.1,24.5c-10.9,11.5-23.4,21-37.9,27.3
		c-1.5-2.5-2.7-4.5-4.2-7c10.5,2.2,22.9-6.4,20.8-13.7c1.3-0.3,2.5-0.6,4.2-0.9c-1.2-1.5-2.1-2.6-2.6-3.3c1.1-1.5,2.9-2.7,2.9-3.9
		c-0.2-5.6-3.7-8.6-9.3-9.4c-1.1,1.4-2.5,3.3-3.9,5.2c1.1,1.3,2,2.4,3.9,4.8c-7.5,1.2-14,2.4-20.5,3.1c-2.2,0.2-3.1-2.6-1.8-4.7
		c1.6-2.6,3.2-5.3,5.2-7.5c4.1-4.6,3.8-6-1.2-7.7c-1.9,2-3.6,3.8-5.5,5.8c-1.4-2.1-2.1-3.2-2.8-4.2L361.2,923.2z M390,911.2
		c-2.5-0.1-5-1.3-7.6-2.1c-1.2,2.2-1,2,1.9,4.4c1.4,1.1,1.9,3.3,3,5.5c3.1-1.9,6-3.6,9.3-5.6C395.6,909.6,392.6,911.3,390,911.2z
		 M374.5,936.7c3.2,0.5,5.2,0.8,7.2,1.1c0.3-2.4,0.5-4.9,0.8-7.3c-0.7-0.2-1.3-0.3-2-0.4C378.8,931.9,377.2,933.7,374.5,936.7z"/>
	<path d="M169.6,447.5c-2.6,1.7-5.4,2.8-7,4.8c-1.4,1.9-2.2,4.9-2.1,7.4c0.2,5.3-4.5,8-5.9,12.3c-1.3,4-2.4,8-4,11.8
		c-2.1,4.9,0.8,8.1,3.5,11.4c2.3,2.8,5.1,5.4,6.8,8.5c2,3.8,2.9,8,4.5,12.8c3.2,1.1,9.9-2,13.2-6.8c5-7.3,5.8-15.5,5-24
		c-0.3-3.1-1.2-6.1-1.3-9.2c-0.2-5.3-2.9-9.5-5.6-13.7c-1.1-1.7-1.6-3.7-2.3-5.5c-0.2-0.6-0.2-1.8-0.3-1.8c-5.2-0.1-3.1-4.2-3.8-6.7
		C170.3,448.3,169.9,448,169.6,447.5z"/>
	<path d="M196.8,610.4c-0.8,3.9-1.6,7.8,2.4,11.6c0.3-2.8,0.6-5.1,0.9-8.4c1.7,2.3,2.7,3.7,3.7,5c0.2-0.1,0.5-0.2,0.7-0.3
		c-0.1-0.5-0.2-1.1-0.5-1.6c-3.6-6.6-3.5-9,1.9-14.2c2.6-2.5,3.1-4.2,0.8-6.9c-0.8-1-1.6-2.3-1.6-3.5c-0.1-4.2-2-4.3-5.6-1.8
		c-0.1-2.7-0.3-4.8-0.4-8.2c-2.3,1.8-4.2,3.3-7.4,5.8c0.9-3,1.4-5,2-7c-0.9-0.2-2.3-0.5-3.6-0.8c0.6-1.8,1.3-3.7,1.9-5.4
		c-1.4,0.4-3.1,0.9-5.3,1.5c-0.1,0.5-0.2,1.6-0.3,2.8c-0.3,0-0.6,0-0.9,0c0-2.3,0-4.7,0-6.8c-2.3,0-4.1,0-6.9,0
		c-0.1,2-0.2,4.8-0.4,7.5c-0.3,0-0.6,0-0.9,0c0-3.8,0.2-7.6-0.1-11.4c-0.1-1.1-1.4-2.1-2.2-3.2c0,1,0.1,2-0.1,3
		c-0.2,0.9-0.7,1.8-1,2.7c-1,2.8-2,5.6-3.5,8.5c0.4-6,0.8-12,1.2-18.1c-0.5-0.1-1.1-0.3-1.6-0.4c-3.9,5.6-8.4,10.8-9.6,17.9
		c-0.5,3-0.6,4.4-2.4,6.4c3.3,1.2,6.6,2.4,10.3,3.8c1.1-1.8,2.4-3.9,4.2-6.9c-0.5,2.6-1.3,4.2-0.9,5.4c0.5,1.6-1.3,5.5,3.3,4.2
		c0.4-0.1,1.6,2.4,3,4.4c-3,0.2-5,0.4-7.6,0.5c2.5,2.1,4.5,3.8,6.8,5.8c-0.1,0.1,0.5-0.4,1-0.9c1.7,2.2,3.3,4.3,5.9,7.6
		c-2.5-9.8,6.7-0.3,6.3-4.6C192.2,606.3,194.5,608.4,196.8,610.4c0.5-3.5,0.9-7.1,1.2-10.7c0.4,0,0.7,0,1.1,0c0,3.6,0,7.2,0,10.7
		C198.3,610.4,197.6,610.4,196.8,610.4z"/>
	<path d="M1056.7,1343.5c0.9-2.2,1.8-4.4,2.9-7.2c-2.3,0.3-3.6,0.4-5.6,0.7c-0.1-1.6-0.2-2.9-0.2-4.2c1.2,0.2,2.3,0.5,3.5,0.5
		c1.2,0,2.4-0.2,4.2-0.3c0.3,2.5,0.6,4.9,1.1,8.1c2.8-0.5,6-1.1,9.5-1.8c-5.7-11.2-5.6-11.8-11.4-10.1c-0.8-3.3-0.8-3.3-10.7-10.7
		c-0.7,0.5-1.5,1.3-2.3,1.5c-1.4,0.4-3,0.5-4.5,0.7c0.3-1.9-0.2-4.7,0.9-5.5c2-1.5,4.8-1.8,7.3-2.6c0.9-0.3,1.8-0.5,3.3-0.9
		c-1.5-1.4-2.6-2.4-4.3-4c-4.1,3.4-8.2,6.7-12.2,10.2c-3.1,2.7-4.6,2.5-5.4-0.6c-3.3-0.5-6.4-0.9-9.5-1.4c-0.9-0.1-1.9-0.4-2.8-0.3
		c-5.1,0.5-6.2-0.8-4.3-6.5c-2.4,1.6-4.1,2.8-7,4.7c3.2,2.2,5.6,4.8,8.6,5.9c3.8,1.3,6.8,6.4,12,3.1c0.5-0.3,2.4,1.3,4.8,2.8
		c-3.4,1.4-6.4,2.6-9.3,3.8c0-0.1-0.1-0.1-0.1-0.2c-2.7,1.2-5.3,2.5-8.8,4.1c1.9,1.3,3.1,2.2,4.5,3c2.9,1.7,5.8,3.3,8.8,4.8
		c1.7,0.9,3.6,1.4,5.4,2.1c0.2-0.4,0.4-0.9,0.7-1.3c2.6,2.5,5.3,5,8,7.6c3.1-2,5.9-4,8.9-5.6
		C1053.8,1343.2,1055.4,1343.6,1056.7,1343.5L1056.7,1343.5z"/>
	<path d="M145,523.4c1.8,0.1,3.7,0,5.5,0.4c2,0.3,4.7,0.4,5.7,1.7c2.2,2.7,3.5,6.1,5.1,9.3c0.2,0.5-0.1,1.2-0.2,1.8
		c-0.2-0.4-0.4-0.8-0.7-1.2c-1.6,0.6-3.5,0.9-4.7,2c-1.1,1-2.4,3.4-1.9,4.1c1.1,1.8,3.1,3.8,5.2,0.4c0.3-0.4,1.4-0.8,1.9-0.6
		c0.5,0.2,1.1,1.2,1,1.8c-0.8,5.7-1.6,11.3-2.5,17c0.4,0.3,0.9,0.6,1.3,0.9c0.6-1.2,1.2-2.5,2.4-4.8c0.7,3.6,2,6.2,1.3,7.9
		c-2.6,6.4-6,12.5-8.9,18.4c-2.6-0.4-4.4-0.7-6.3-1c1.1-2.5,2.2-5.1,3.3-7.6c-0.8-0.9-1.8-1.9-2.7-2.9c-1.1,0.6-2.2,1.2-3.3,1.7
		c-3.3-6-7.4-6.6-12.9-2.1c-0.4-0.2-0.8-0.5-1.2-0.7c1.9-3.3,3.9-6.6,6-10.1c-1.4,0.8-2.6,1.4-4.1,2.2c-1.7-7.5,7.3-6.7,8.4-12.3
		c-4,1.2-2.8-1.9-2.9-3.8c-1.3-0.1-2.4-0.2-4.4-0.3c3.6-1.8,6.4-3.1,9.1-4.5c-0.2-0.4-0.4-0.8-0.6-1.1c-1.9,0.6-3.8,1.2-6.5,2
		c1.7-1.7,2.8-2.7,3.9-3.7c-0.1-0.2-0.3-0.3-0.4-0.5c-1.5,0.5-3,1.1-4.5,1.7c-0.1-0.3-0.3-0.7-0.4-1c2.7-1.2,5.4-2.5,8.3-3.7
		c-3.4-0.5-6.6-1-10-1.4c5.2-2.2,10.1-4.2,15-6.3c-1.6-0.9-2.9-0.8-4.1-0.7c-1.2,0-2.3,0-3.4,0c1-1.6,1.8-3,2.6-4.4
		C144.5,522.3,144.8,522.8,145,523.4z M147.9,569.2c1.4-2.6,2.5-5.3,4.1-7.8c1.8-2.7,4.1-5.1,6.2-7.7
		C152.6,555.6,151,557.7,147.9,569.2z"/>
	<path d="M689,908.4c-2.3-0.5-4.7-1-7-1.4c-3.7,1.5-6.9,2.5-6,8.5c0.8,5-4.1,8.4-8.8,10.3c0,2.3,2,5.6-3.2,4.6
		c-1.4-0.3-3.4,1.9-4.4,2.6c-0.6,6.3-4.9,10.1-7.8,14.5l-0.1-0.1c2.2,0.5,4.5,0.6,6.4,1.6c1.3,0.7,1.8,2.7,3,4.5
		c2.3-4.2,3.8-8.9,9.5-10c1.8-0.3,3.1-3,4.7-4.6c4.5-4.4,9.8-5.3,16.2-5.7c5.9-0.4,11.7-5.3,17.2-8.8c1.1-0.7,0.5-4.1,0.7-7.2
		c-1.5,1-2.7,1.8-4,2.6c-1.1-0.6-2.3-1.2-3.8-1.9c0.1,1,0.1,1.6,0.2,2.1c-2.3,0.5-6.3-5.9-6.2-9.8c-0.1-0.3-0.2-0.7-0.3-1
		c-0.7-0.7-1.4-1.3-2-2C691.8,907.6,690.4,908,689,908.4z"/>
	<path d="M147.6,428.7c-2.7,1.3-5.5,2.5-8.2,3.9c-5.1,2.7-10.8,4.9-15.1,8.6c-2.7,2.2-3.4,6.8-5.2,10.2c-0.7,1.4-1.7,2.8-3,3.5
		c-5.5,3.3-7.2,6.9-6.5,13.3c0.2,1.6-0.6,3.4-1.1,5.5c3.6-0.3,6.6-2.5,9.8-3.6c4.4-1.6,8-6.2,13.7-4.9c3.4,0.8,18.7-11.5,17.4-14
		c-2.4-4.6,3.6-10.7-2.9-14c-0.3-0.2,0.1-2.1,0.4-3.1c0.6-1.7,1.4-3.4,2-5C148.6,428.9,148.1,428.8,147.6,428.7z"/>
	<path d="M334.5,1264.5c4.1-10.3,8.2-20.7,12.4-31c3-7.4,5.9-14.8,8.9-22.1c4.4-10.7,8.9-21.5,13.5-32.1c3.2-7.3,7.3-14.2,10.3-21.6
		c3.8-9.6,6.6-19.5,10.3-29.1c1.8-4.6,4.6-8.9,7.3-13.1c5-7.7,10.4-15.2,15.6-22.9c1.2-1.7,2.6-3.4,3.6-5.2
		c4.7-8.1,9.8-16,13.7-24.5c2.8-6.1,4-13,5.5-19.7c0.3-1.3-1.1-3-1.7-4.6c-0.9,1.2-1.9,2.4-2.7,3.7c-1,1.5-2,3.1-3.3,5.2
		c0.2,1,0.6,2.9,1.1,5.6c-2.1-0.4-3.9-0.7-6.5-1.2c0.2,2.2,0.3,4.2,0.5,6.1c0.3,3.2,0.9,6.4-2.6,8.6c-0.7,0.4-0.6,1.9-1,2.9
		c-5.6,11.9-11.1,23.8-17,35.5c-1.3,2.5-3.8,4.4-5.8,6.5c-5.4,5.5-8.5,11.9-9.3,19.8c-0.4,3.8-2.9,7.5-4.5,11.1
		c-5.1,11.2-10.4,22.4-15.5,33.7c-1.7,3.7-2.6,7.7-4.3,11.4c-3.8,8.3-8.1,16.3-11.5,24.8c-4.2,10.6-7.8,21.4-11.6,32.1
		c-2.3,6.5-4.6,13-6.9,19.5C333.6,1264.2,334.1,1264.4,334.5,1264.5z"/>
	<path d="M192.4,367.7c-1.1-2.4-1.8-3.8-3-6.5c-1.2,2.7-1.9,4.2-2.6,5.6c-0.5,0.9-1.3,1.8-2.2,2.3c-6.3,4.9-5.4,11.9-5.6,18.8
		c-0.6,0.1-1.4,0.3-1.8,0.4c0.6,2.1,1.3,4.2,2,6.6c4.4-1.1,10.1-0.6,12.3-7c0.4-1.1,2.2-1.7,2.3-1.7c0.2-3.6-0.5-7,0.7-9.1
		c2.7-4.8,3.7-9.6,3.5-14.9c0-1.2,0.4-2.4,1.5-3.5c0,3.3,0,6.5,0,9.7c3.2,1.8,4.1,0.4,6.1-2.1c4.5-5.6,1.7-10.1-0.4-15.1
		c-1.6-3.8-4.7-4.3-6.5-0.5c-1.8,3.8-2.2,8.3-3.5,12.5C194.8,364.6,193.5,365.9,192.4,367.7z"/>
	<path d="M236.4,317.7c-1.4,0.3-2.8,0.6-4.5,1c1.1,1.6,2.4,3.6,3.7,5.5c-0.2,0.2-0.5,0.4-0.7,0.6c-1.9-1.5-3.9-3-6.5-4.9
		c2.4,16.5,13.8,23.8,27.6,30.1c-1.3-4-2.4-7.3-3.5-10.7c0.9-0.5,2.8-1.4,2.7-1.7c-0.6-2.3-1.6-4.6-2.8-8c-2,3.5-3.2,5.6-4.4,7.6
		c-0.2-0.1-0.5-0.2-0.7-0.3c0-0.6-0.1-1.2,0.1-1.8c0.8-2.4,3.2-5.7,2.4-6.8c-2.1-3-5.6-5.1-8.6-7.6
		C239.6,319.6,238,318.6,236.4,317.7z"/>
	<path d="M359.8,1031.8c0.7-1.1,1.6-2,2.1-3.2c1.5-3.3,2.8-6.6,4.1-9.8c3.3,1.4,5.6,2.4,7.9,3.4c0.2-0.4,0.5-0.7,0.7-1.1
		c-4.9-4.3-9.9-8.7-14.8-13.1c-3.5,5-6.7,9.5-10.2,14.5c-1.4-0.1-6.5,5.1-7.1,8.3c-1.5,7.8-1.1,9.4,1.6,10.2
		c0.9-3.6,1.6-7.2,2.6-10.7c0.2-0.7,1.5-1.5,2.2-1.4c1,0.1,2,0.8,2.8,1.6c1.1,1.1,1.9,2.4,2.8,3.6
		C356.3,1033.2,358,1032.5,359.8,1031.8z"/>
	<path d="M230.4,139.7c-0.5,1.3-1.5,2.6-1.4,3.9c0.2,2.4,1.1,4.8,1.7,7.2l0.3,0.2c4-1.7,7.4-6.1,9.2-12.8c0.2,2.1,0.2,3,0.4,4.8
		c1.2-1.1,2.5-1.7,2.8-2.6c2-6.4,8.3-9.2,11.6-14.3c1.7-2.7,4.5-3.4,5.9-5.4c1.3-1.8,1.6-5.6,0.5-7.6c-1.9-3.4-5.2-6-8.6-9.7
		c-0.4,3.3-0.6,5.1-0.8,7l-0.1-0.1c1.9,0.7,3.8,1.4,5.6,2.1c-0.5,1.1-0.9,2.3-1.6,3.3c-1.2,2-2.6,3.8-4.2,4.6
		c-2.6,0.9-5.1,1.7-8.5,2.9c2.5,1.5,3.8,2.2,5,2.9c-0.2,0.4-0.4,0.9-0.6,1.3c-1.6,0-3.3,0-5.1,0c0.8,1.7,1.5,3,2.4,4.9
		c-4.9,0-8.3,1.5-8.4,6.3c-2.3,0.4-4.3,0.8-6.3,1.2L230.4,139.7z"/>
	<path d="M231.8,364c4.5,1.8-0.3,4.9-0.2,8.1c4.2-2.1,8-5.9,12.6-1.9c3.3-2.7,1-9.1,7.7-9.4c-1.1-2.9-1.8-5.7-3.2-8.1
		c-1.6-2.9-4.6-5-7.7-3c-3,2-5.4,5-7.6,8C232.3,359.3,232.4,361.6,231.8,364z"/>
	<path d="M427.9,818c1.4,3.1,2.8,6.2,4.4,9.4c0.2-0.6,0.8-1.4,0.7-2.1c-1.4-7.4,2.3-15.9,8.6-19.6c0.5-0.3,1.5,0.1,2.3,0.2l-0.1,0.1
		c1.8,2.7,3.5,5.3,6,9c0.3-1.9,1-3.4,0.6-4.5c-1.4-3.6-3-6.7,1-10c1.3-1.1,0.8-4.5,1.2-7.5c-4.9-4.1-8.2,3.4-11.6,2.5
		c-2.5,3.4-4.5,6.2-6.7,9.2c-0.2-1.2-0.4-2.2-0.8-4c-2,6.3-3.8,11.9-5.5,17.4C427.9,818.1,427.9,818,427.9,818z"/>
	<path d="M651.8,947.5c-1.4,1.3-2.8,2.6-4.7,4.4c-2.1-4.5-4.2-8.8-6.7-14.1c-0.5,4.3-0.9,7.5-1.3,10.7c0.2,0,0.4,0.1,0.6,0.2
		c0.4-1.5,0.8-3,1.3-4.6c0.2,0,0.4,0,0.7,0.1c0,5.3,1.4,11.1-0.4,15.7c-2.1,5.5,4.5,9.2,1.5,14.4c-0.8-0.9-1.3-1.5-2-2.2
		c-3.6,6.1,3.7,7.1,4.9,11.5c1-2.7,2.3-5,2.6-7.5c0.3-3.3-0.3-6.8-0.3-10.1c0.1-2.7,0.6-5.4,0.9-7.9c1.8,0.3,3.7,0.6,6.5,1
		C654,954.4,652.8,950.9,651.8,947.5C651.7,947.4,651.8,947.5,651.8,947.5z"/>
	<path d="M470.3,911.1c0.4,2.5,0.8,5,1.2,7.5c0.9,0.2,1.7,0.3,2.6,0.5c4.6,2.2,5.2,6.5,6,10.8c-0.1,1-0.2,1.9-0.3,3.2
		c-0.8-0.3-1.6-0.5-3.2-1.1c1.2,2.8,2.2,5,3.4,7.8c6.4-8.6,2.6-16.1,1.1-23.3c3.5,0.5,7,1,10.5,1.5c0.3-0.2,0.7-0.4,1-0.6
		c-2-2.5-3.9-5.1-6.6-8.5c0.2,2.3,0.2,3.3,0.3,4.4c-0.3,0.3-0.7,0.5-1,0.8c-3.2-3.8-6.4-7.5-9.5-11c-0.1,1.8-0.4,4.4-0.7,8.2
		c-0.9-2.3-1.3-3.5-1.8-4.8C472.5,907.8,471.4,909.5,470.3,911.1z"/>
	<path d="M149.4,501.6c-6.2-3.6-12.1-7.8-18.6-10.7c-3.9-1.8-6.7,2.3-8.2,5.4c-0.7,1.3,0.8,4.7,2.3,5.8c2.8,2,6.2,3.3,9.6,4.4
		c3.9,1.3,5.9-1.6,8.5-3.9c1-0.9,3.8,0.1,5.8,0.2C148.9,502.4,149.2,502,149.4,501.6z"/>
	<path d="M359.8,1031.8c-1.7,0.7-3.4,1.5-5.2,2.2c0.7,1.7,1.3,3.4,2.3,5.8c0.1-0.1-0.5,0.7-1.5,2c3,0,6,0.9,7.8-0.2
		c7.7-4.6,15-9.8,22.5-14.7c1.1-0.7,2.7-0.8,4.2-1.2c-7.6-3.8-11.8-5.3-20.5,3.7C367.6,1031.3,363.8,1034.4,359.8,1031.8z"/>
	<path d="M522.3,697.8c-2.4-2.1-4.2-3.7-6-5.3c-0.3,0.3-0.6,0.6-0.9,0.8c1.9,2.2,3.7,4.4,6.2,7.2c-2,0.2-3,0.4-4,0.5
		c-0.2,5.3,0.4,5.8,12.1,8.6c2.2-2.7,4.3-5.1,6.6-7.8C532.2,700.4,530.8,689.2,522.3,697.8z"/>
	<path d="M191.6,327.3c1.3,0.1,2.6,0.3,4.3,0.5c-0.3,1.1-0.5,2-0.8,3.2c3.2,0.9,5.8,2,9.9,0.9c2.9-0.7,4.9-1.5,6.6-3.5
		c0.5-0.6,0.3-3-0.2-3.2c-4-1.7-7.2-5.5-12.4-3.9c-3.3,1-6.9,1.1-10.7,1.7c1.5,1.2,2.7,2.1,3.9,3C192,326.4,191.9,326.9,191.6,327.3
		z"/>
	<path d="M205.8,245c-0.2-0.4-0.5-0.7-0.8-1.1c-3.5,2-3.7,2.7-3.1,9.5c0.1,0.8,0.7,1.9,0.4,2.3c-2.9,3.6-3.5,6.6,1.5,9
		c0.6,0.3,0.4,2.3,0.6,3.5c0.2,1.2,0.5,2.4,0.7,3.7c0.8,0,1.5,0,2.3-0.1c0.8-6.9,1.9-13.8,2.2-20.8C209.7,249,207.1,247,205.8,245z"
		/>
	<path d="M231,151l-0.3-0.2c-3-0.5-5.3-0.1-6.9,3.2c-1.7,3.5-3.7,8.2-6.7,9.4c-4.8,1.8-4.2,6-6.4,8.8c0.8,1.3,1.6,2.6,2.4,3.9
		c3.8-6.6,7.6-13.1,15.3-15.8l-0.1,0.1c0.3-1.2,0.3-3.2,1.1-3.6C232.1,155.4,231.6,153.3,231,151z"/>
	<path d="M827.1,1345.6c5.6,2.6,9,5.7,14.5,6.2c6.8,0.6,8.5-3.2,10.6-7.2c-1.3-1.2-2.4-2.5-3.7-3.4c-0.6-0.4-2.2-0.4-2.6,0.1
		c-4,5-9.6,3.2-14.7,3.5C830.2,1344.8,829.3,1345.1,827.1,1345.6z"/>
	<path d="M967.7,1048.4c-1.1,0.8-2.5,1.9-5.1,3.8c4.1,1.2,7.1,2.2,10.2,3.1c0.6,0.2,1.3,0.5,1.6,1c1.7,3.3,5.1,3.2,8.1,4.1
		c4.7,1.5,9.6,2.8,9.8,9.6c0.4,0,0.8,0,1.3,0c0.7-1.2,1.4-2.5,1.8-3.4c2.9,0.7,5.1,1.2,7.4,1.8c0.1-0.5,0.2-0.9,0.3-1.4
		c-4.3-3.9-12.6-2.3-14-10.3C979.9,1059.6,973.8,1054.6,967.7,1048.4z"/>
	<path d="M706.5,1392c3,3.3,5.5,6.1,7.8,8.6c0.5-1.3,0.8-3.5,2-5c0.5-0.6,2.8,0.3,3.1,0.3c3.3-3,6.4-5.8,9.5-8.6
		c-2.6-0.9-5.7-3.7-8.3,0.8c-2-0.6-3.7-1.2-5.5-1.7c-0.2,0.3-0.3,0.7-0.5,1c0.6,0.7,1.3,1.4,1.7,1.8
		C713.2,1390.2,709.8,1391.1,706.5,1392z"/>
	<path d="M1063.8,1215.1c0.6-0.9,1.1-1.7,1.6-2.4c-0.1-0.3-0.3-0.7-0.4-1c-2.8,1.1-5.5,2.2-7.4,2.9c1.5,2.3,2.3,4.4,3.8,5.5
		c4.2,3.1,8.8,5.2,14.2,4.8C1075.9,1217.8,1070.8,1213.6,1063.8,1215.1z"/>
	<path d="M540.9,975.1c-6.2-7.8-12.5-15.7-18.7-23.4c-2.5,2.4-2.5,5,1.2,7.5c0.2,0.2,0.4,0.6,0.4,0.9c0.5,10.3,11.3,10.2,15.6,16.6
		C539.9,976.1,540.4,975.6,540.9,975.1z"/>
	<path d="M170.8,718.6L170.8,718.6c1.7-2.5,4.6-4.8,4.9-7.5c0.5-4.3,2.5-6.9,5.6-9.2l-0.1,0.1c0.5-1.5,0.9-3,1.4-4.6
		c-0.2-0.2-0.5-0.5-0.7-0.7c-2.1,1.6-4.1,3.2-6.2,4.8c-0.3-0.2-0.5-0.4-0.8-0.7c0.7-1.2,1.4-2.5,2-3.8c-0.4-0.4-0.7-0.8-1.1-1.2
		c-3.1,2.5-6.2,5-9.2,7.6c0.1,0.4,0.1,0.8,0.2,1.2c2.5-0.4,5.1-0.8,7.6-1.3c0.3,0.3,0.6,0.5,0.8,0.8c-2,0.9-3.9,1.9-5.9,2.8
		c0.5,0.6,1,1.2,1.5,1.7c1-0.3,1.9-0.5,2-0.5C172.1,711.4,171.4,715,170.8,718.6z"/>
	<path d="M163.7,647.1c0.4,0.5,1.2,1,1.2,1.5c-0.4,4.7,1.4,9.5-2.6,13.8c-2.8,3.1-4.1,7.6-5.7,11.8c5.3-6.3,10.6-12.5,16.3-19.2
		c-0.4-1.5-1.1-4.2-1.9-7c-0.9,0.7-2.3,1.7-3.7,2.7c-0.2-0.2-0.5-0.4-0.7-0.7c0.9-1.5,1.8-3.1,3.2-5.5c-2.6,1.2-4.4,2-6.2,2.7
		C163.6,647.3,163.7,647.1,163.7,647.1z"/>
	<path d="M1097.3,1379.7c-4.8-1.1-9-2.2-13.1-3.1c-0.5,1.4-1.1,3.1-1.8,4.9c-2-0.4-3.6-0.7-6.1-1.2
		C1088.3,1390.7,1087.9,1388.7,1097.3,1379.7z"/>
	<path d="M820.9,1287.7c-1.6-0.5-3.2-1-5.1-1.6c0.2-0.8,0.5-1.8,1-3.2c-1.9,1.1-3.6,2-5.2,2.9c-0.2-0.3-0.4-0.6-0.7-0.9
		c1.1-1.3,2.1-2.5,3.2-3.8c-0.2-0.2-0.3-0.5-0.5-0.7c-2.7,1.6-5.3,3.2-8,4.9c-0.2-0.3-0.5-0.6-0.7-1c0.8-1,1.6-2.1,2.4-3.1
		c-0.3-0.3-0.6-0.7-0.9-1c-2.9,2.5-5.8,5-8.7,7.5c2.6,0.2,5.4-1.5,5.2,3c1.7-0.7,3.1-1.2,4.4-1.7c0.2,0.3,0.5,0.6,0.7,0.9
		c-0.8,1-1.6,1.9-2.5,3.1c0.5,0,1,0.2,1.3,0c1.2-0.8,2.2-1.9,3.4-2.7c1.8-1,3.1-4.2,6-1.3c0.5,0.5,3.1-0.9,4.7-1.5L820.9,1287.7z"/>
	<path d="M997.8,1326.5c0-0.1-0.2,0.9-0.7,2.7c2.1-0.7,3.6-1.2,5.4-1.9c-1.6-5.4-11.6-3.4-9.4-12c-3,2.3-6.1,4.7-9,6.8
		c1.6,1.6,2.7,2.7,3.8,3.8c-0.2,0.5-0.4,1-0.5,1.5C990.7,1327,994.1,1326.8,997.8,1326.5z"/>
	<path d="M1049.8,1372.7c0.6-0.8,0.9-1.8,1.7-2.4c2.1-1.6,4.7-3,1.6-6c-2.7-2.6-7.3-2.7-9.3,0.1c-1.2,1.8-1.9,4-2.9,6
		c3,0.7,6.1,1.4,9.1,2.1C1050,1372.6,1049.8,1372.7,1049.8,1372.7z"/>
	<path d="M997.2,1135.9c0.1,0.1,0.2,0.1,0.2,0.1c2.1-1.2,4.1-2.4,6.4-3.7c-1.5-0.6-2.5-0.9-3.6-1.4c0-0.5,0-0.9,0.1-1.4
		c-2,0.5-3.9,0.9-5.8,1.4c-0.1-0.2-0.1-0.3-0.2-0.5c1.8-1,3.6-1.9,6.1-3.3c-4.6-0.9-8,4.3-12,1c-1.2,1.3-2.5,2.9-3.9,4.4
		c0.7,1,1.3,2,2,3c3.2-1.1,6.4-2.2,9.6-3.3c0.1,0.3,0.2,0.6,0.3,0.9c-1.4,0.8-2.8,1.7-4.1,2.6c0.1,0.3,0.2,0.6,0.3,0.9
		C994.2,1136.3,995.7,1136.1,997.2,1135.9z"/>
	<path d="M419.7,816.6c1.3-0.8,2.6-1.6,4.4-2.6c0.8,2.6,1.4,4.7,2.4,7.8c0.7-2,1-2.9,1.4-3.8l0.1,0.1c-2.5-4.7-1.6-12.7,2.2-17
		c-0.8-0.9-1.5-1.8-2.3-2.7c-0.5,0.2-1.1,0.4-1.6,0.6c-0.2,3.4-0.5,6.9-0.7,10.3c-0.2,0.1-0.5,0.2-0.7,0.3
		c-1.4-4.4-2.8-8.8-4.1-12.9C420.5,803.5,420.1,810.1,419.7,816.6L419.7,816.6z"/>
	<path d="M369.3,1079.3c8.8-15.7,10-16.4,22.8-13.4c-2.2-2.9-8.1-6.2-10.9-5.2c-2.3,0.8-4.3,2.6-6.1,4.3c-1.8,1.8-3.8,3.7-4.7,6
		C369.5,1073.2,369.7,1075.9,369.3,1079.3z"/>
	<path d="M252,110.5c-1.6-0.3-3.1-0.5-4.7-0.8c0.3,0.4,0.7,0.7,1,1.1c-1.2,1.3-2.3,2.7-3.5,4c-0.5,0.6-1.2,1-1.7,1.6
		c-2.1,2.7-3.5,6.6-6.3,8c-4.5,2.4-2.6,3.8-0.3,5.6c4.4-4.9,8.9-9.7,13.2-14.8C250.9,114,251.2,112,252,110.5
		C251.9,110.4,252,110.5,252,110.5z"/>
	<path d="M206.1,166.9c3.5-4.2,5.9-8.7,9.6-11c4.7-2.9,2.9-8.4,6.7-11.1C218.4,145.4,205.6,162.4,206.1,166.9z"/>
	<path d="M484.6,957.4c1,1.1,1.9,2.2,2.9,3.3c1.6-0.6,3.2-1.2,4.3-1.7c-1.5-4.9-2.9-9.4-4.1-13.3c0.2-0.3-0.1,0.2-0.7,1.1
		c-0.6-1-1.2-1.7-2.4-3.6C484.6,948.7,484.6,953,484.6,957.4z"/>
	<path d="M845.6,1288.5c-1.3,2-2.5,4-4.2,6.7c2-1.1,3.3-1.8,5-2.7c0,1.2,0,2.2,0,4.8c3.9-3.1,7-5.4,10-7.8c-0.2-0.4-0.5-0.8-0.7-1.2
		c-1.1,0.2-2.3,0.4-3.9,0.7c0.5-1.3,0.9-2.2,1.3-3.5c-2.2,0-4,0-5.7,0c-0.7,1.1-1.3,2.1-2,3.1L845.6,1288.5z"/>
	<path d="M968.5,1339.6c2.8,3.7,12.5,6.9,15.9,5.3c0.7-0.3,1.6-1.7,1.4-2.1c-0.7-1.2-1.8-2.2-2.8-3.2c-0.1-0.1-0.3,0-0.5,0
		C978,1339.6,973.5,1339.6,968.5,1339.6z"/>
	<path d="M864.2,1068.5c-0.3-1.3-0.5-2.6-0.8-4.2c-5.3,1.5-12.5,0.3-14.6,8.6c1.7,0.4,3.5,0.8,5.2,1.2c0-0.4-0.1-0.8-0.1-1.2
		c2.1-0.3,4.2-0.5,5.3-0.7c-0.3-1.8-0.6-3.4-0.9-4.9C860.7,1067.7,862.5,1068.1,864.2,1068.5
		C864.3,1068.4,864.2,1068.5,864.2,1068.5z"/>
	<path d="M774.3,1292.1c1.9,0,3.8,0.1,5.7,0c1.5-0.1,3.2,0,4.6-0.6c1.3-0.5,2.5-1.7,3.7-2.6c-1.2-1.2-2.3-3.3-3.5-3.3
		C780.5,1285.6,775.6,1285.2,774.3,1292.1z"/>
	<path d="M178,201.3c-3.1,7.7-5.7,14.5-8.4,21.2c0.2,0.1,0.5,0.1,0.7,0.1c2.9-3.7,6.3-7.1,8.5-11.1c1.4-2.5,1.2-6,1.4-9.1
		C180.3,202,178.2,201.4,178,201.3z"/>
	<path d="M484.6,988.4c3.3,4.2,5.5,7.3,8,10c0.8,0.9,2.5,1.1,3.8,1.6c0.2-1.6,1.2-4,0.5-4.8c-2.1-2.2-4.8-3.8-7.4-5.5
		C488.5,989.2,487.2,989.1,484.6,988.4z"/>
	<path d="M845.5,1288.6c-1.8-3.2-4.2-4.8-7.8-2.9l0.1-0.1c-2.4,2.3-4.9,4.5-7.4,6.9c6.5,2.9,10.7-1.4,15.2-3.9
		C845.6,1288.5,845.5,1288.6,845.5,1288.6z"/>
	<path d="M319.1,529.3c5.1-3,0.5-4.7-0.7-8.3c-1.2,8.2-2.2,15-3.4,23.2c1.7-1.7,3.3-2.7,3.9-4c1.1-2.5,1.9-5.3,2.4-8.1
		C321.4,531.4,320,530.4,319.1,529.3z"/>
	<path d="M1053.9,1300.6c1,0.3,1.9,0.6,3.1,1c-0.4,1.2-0.8,2.1-1.2,3.1c5,2.6,8-0.3,11.2-3.7c-0.6-1.1-1.2-2.2-1.7-3.1
		c-4,0.7-7.7,1.2-11.4,1.8C1053.8,1300,1053.9,1300.3,1053.9,1300.6z"/>
	<path d="M419.8,816.7c-1.4,5.6-4,0.8-6.1,0.3c-1.5,5.9,3.3,8,5.8,11.6c3.7-1.8-1.9-8.5,6.1-7.5c-0.3-0.5-0.7-1-1-1.5
		C422.9,818.6,421.3,817.6,419.8,816.7C419.7,816.6,419.8,816.7,419.8,816.7z"/>
	<path d="M153.3,658.1c1.2-3.1,2.2-5.8,3.6-9.8c-4.7,2.9-8.4,11.4-7.2,14.8c0.4,1.2,1.8,2.1,2.8,3.1c0.1-1.1,0.2-2.2,0.4-3.4
		C153,661.3,153.1,659.7,153.3,658.1z"/>
	<path d="M282,449.2c1.9,1.6,3.7,3.1,5.2,4.4c0.7-3.2,1.6-6.7,2-10.3c0-0.4-2.9-1.9-3.2-1.5c-2.2,2.2-4.1,4.7-6.2,7.1
		C280.6,449,281.3,449.1,282,449.2z"/>
	<path d="M361.2,923.2c-3.6,0.4-5.2,4.2-4.1,5.9c-1.1,4.2-1.9,7-3,11c3.1-1.6,5.1-2.7,6.1-3.2c0.4-5.2,0.7-9.5,1-13.9
		C361.1,923.1,361.2,923.2,361.2,923.2z"/>
	<path d="M195.2,197.9c4-3.9-2-4.7-2.3-7.2c-1.4,1-2.9,1.8-4,3c-1.6,1.7-3.1,3.7-4.4,5.7c-0.7,1.1-1,2.4-1.5,3.6
		c0.4,0.2,0.8,0.3,1.3,0.5c1.1-2,2.3-4,3.6-6.2c0.6,0.7,1.3,1.6,2.4,2.9c0.8-2,1.5-3.7,2.5-5.9C193.7,195.5,194.5,196.8,195.2,197.9
		C195.3,198,195.2,197.9,195.2,197.9z"/>
	<path d="M779.8,901.4c-1.3,0.8-2.7,1.7-4,2.5c0.4,0.6,0.8,1.2,1.2,1.8l0-0.1c-0.1,0.9-0.1,1.8-0.2,2.8c-0.3,0.3-0.5,0.5-0.8,0.8
		c3.5,0,6.9,0,10.3,0c0.2-0.4,0.3-0.7,0.5-1.1C784.5,905.8,782.1,903.6,779.8,901.4z"/>
	<path d="M519.4,669.4c-0.8,1.2-1.5,2.4-2.5,3.9c2.3,2,4.8,4.1,7.2,6.2c0.7-0.5,1.5-1,2.2-1.5c-1.2-3.4-2.5-6.9-3.7-10.3
		C521.4,668.3,520.3,668.9,519.4,669.4C519.3,669.4,519.4,669.4,519.4,669.4z"/>
	<path d="M1056.8,1343.6c-2,1.3-4.1,2.5-6,4.1c-0.4,0.4,0.1,1.8,0.2,2.8l-0.1,0.1c2.6-0.2,5.2-0.5,7.8-0.7c-0.3,1.3-0.6,2.5-0.9,3.7
		l-0.1-0.1c3.9-0.9,4.8-3.3,4-5.5C1059.4,1345.9,1058,1344.7,1056.8,1343.6C1056.7,1343.5,1056.8,1343.6,1056.8,1343.6z"/>
	<path d="M173.8,251.5c-3.7,1.3-6.1,2.1-8.9,3.1c1.6,3.1,3,5.7,4.4,8.3c0.6-0.1,1.2-0.2,1.8-0.4
		C171.9,259.2,172.7,255.9,173.8,251.5z"/>
	<path d="M311.9,577.9c0.1-1.4,0.2-2.8,0.3-4.2c0.4-0.1,0.8-0.1,1.1-0.2c0.8,3.9,1.6,7.8,2.5,12.2c2.8-6.9-1-13.4-1.1-19.9
		c-0.5-0.1-1-0.2-1.5-0.2c-1,4.1-1.9,8.1-2.9,12.2C310.8,577.8,311.3,577.8,311.9,577.9z"/>
	<path d="M374,971.1c7.4,1.2,14-2,16.6-7.5C384.8,966.2,379.4,968.6,374,971.1z"/>
	<path d="M741.8,929.6c-1.2-0.2-2.3-0.5-3.5-0.7c-1.4,0.7-3.1,1.2-4.2,2.3c-0.9,0.9-1.1,2.4-1.3,3.8c0,0.2,1.5,0.7,2.3,1.1
		c0,0,0.4-0.1,0.4-0.1C739.3,935.5,741.2,933.2,741.8,929.6z"/>
	<path d="M834.6,1194.2c-2.3,1.1-4.6,2.2-6.8,3.4c0.5,0.1,1.1,0.1,1.7,0.2c0.4,2.6,0.7,5.2,1.2,8.2c1.3-0.6,2.8-1.2,5-2.2
		c-1.4-1.1-2.2-1.7-3-2.3c0.5,0,0.9,0,1.3,0C834.1,1199.1,834.3,1196.6,834.6,1194.2C834.5,1194.1,834.6,1194.2,834.6,1194.2z"/>
	<path d="M281.6,87.4c1.1,1.4,2.2,2.8,3.3,4.2c0.3,1.5,0.5,2.9,0.9,4.8c1-0.6,1.8-1.2,2.7-1.8l-0.1,0.1c1.3-2,2.7-4,4-6l0,0.1
		C288.9,86.6,285.4,85.5,281.6,87.4z"/>
	<path d="M1050.9,1350.4c-0.7,1.4-1.3,2.9-2.2,4.7c2.5,1.8,4.9,3.7,8.1,6c0.4-3.3,0.7-5.5,0.9-7.8l0.1,0.1c-3.5,1.7-4.7-1.9-7-3
		L1050.9,1350.4z"/>
	<path d="M489.4,896.6c-7.6-0.7-7.8-0.2-5,7.8c0.4-1,0.6-1.9,1.3-3.9c0.6,2.2,1,3.8,1.5,5.3c0.7-0.6,1.4-1.1,2.1-1.7
		C489.4,901.8,489.4,899.3,489.4,896.6z"/>
	<path d="M160.8,439.1c-5.1,1.7-1.4,5.2-2,7.8c2.2,0.3,4.2,0.5,6.2,0.8c0.4-2.2,0.7-4.5,1.1-7.1c-2.2,0.9-3.6,1.5-5.1,2.1
		C161,441.6,160.9,440.5,160.8,439.1z"/>
	<path d="M547.8,969.3c-1.8-4.9-5.6-8-10-10.7c-1.7,2.9-1.6,2.7,3.3,6c2.2,1.4,3.8,3.6,5.7,5.5C547.2,969.9,547.5,969.6,547.8,969.3
		z"/>
	<path d="M385.4,885c0.1-2.2,0.3-4.5,0.4-6.7c-2.5,0.9-5,1.8-8.1,3c0,1.2,0,3.2,0,6.2c2.5-1.8,4-3,5.7-3.9
		C383.8,883.4,384.8,884.4,385.4,885C385.5,884.9,385.4,885,385.4,885z"/>
	<path d="M230.3,139.9c0.9-2.6,1.7-5.1,2.6-7.7c-0.6-0.3-1.2-0.7-1.9-1c-2.1,2.5-4.3,5-6.8,7.9c0.8,0.9,1.7,2.1,2.6,3.2
		c1.4-1.1,2.5-1.8,3.5-2.6L230.3,139.9z"/>
	<path d="M267.8,96.4c2-2.1,4-4.3,6.2-6.6c0.8,0.9,1.4,1.7,3,3.5c-0.4-2.9-0.6-4.6-0.8-6.1C269.3,86.1,268,90.5,267.8,96.4z"/>
	<path d="M856.3,1172.7c2.6-4.8-5.5-0.6-4-4.8c-1.2,0.8-2.4,1.6-3.5,2.4c0.5,1,1,1.8,1.4,2.5c-2,1.1-3.7,2.1-5.5,3.1
		c0.2,0.4,0.3,0.7,0.5,1.1c3.8-1.5,7.5-2.9,11.3-4.4L856.3,1172.7z"/>
	<path d="M163.7,647.1l-0.1,0.2c3.4-5.3,6.8-10.7,10.2-16c-0.4-0.3-0.9-0.6-1.3-0.9c-4.3,6.2-8.5,12.5-12.8,18.7
		c0.3,0.2,0.6,0.5,0.9,0.7C161.7,648.9,162.7,648,163.7,647.1z"/>
	<path d="M1068.4,1237.4c4.3,1.4,8.1,2.7,11.9,3.9C1076.1,1234.7,1072.7,1233.6,1068.4,1237.4z"/>
	<path d="M503.6,979.5c0.6,1.9,0.7,4.3,1.6,4.7c2.7,1.2,5.7,1.5,9.1,2.3C511.5,981.8,506.2,978.4,503.6,979.5z"/>
	<path d="M607.3,1412.3c-1.5,0.1-3,0.2-3.7,0.3c1.7,3,4.4,5.9,4.6,8.8c0.2,5.4,3,5.2,8.1,4.6c-2.5-0.6-3.8-0.9-5.1-1.2
		C610,1420.9,608.8,1417,607.3,1412.3z"/>
	<path d="M840.1,1324.8c1.3,2.1,2.1,3.5,3.4,5.5c1.5-1.6,3.2-3.2,4.6-5.1c0.2-0.2-1.6-2.7-2.1-2.6
		C843.9,1322.9,842.1,1324,840.1,1324.8z"/>
	<path d="M968.9,1302.5c2.1,2.8,3.1,7.4,8.3,4.8C975.3,1301.4,973.6,1300.4,968.9,1302.5z"/>
	<path d="M381,776.9c0.4,2.6,0.8,5.2,1.4,8.9c-2.5-0.4-4.5-0.8-7-1.2c0.4,1.5,0.8,3,1.3,4.9c2.5-1.6,6-2.5,7-4.7
		c1-2.1-0.4-5.4-0.7-8.1C382.3,776.8,381.6,776.8,381,776.9z"/>
	<path d="M323.5,568.3c-1.8,6.4-0.4,11.9,4.1,16.5c0.4-2.6,2.2-5.5-2.1-6.9c-1-0.3-1.2-3.4-1.6-5.3
		C323.5,571.2,323.6,569.8,323.5,568.3z"/>
	<path d="M436.7,787.3c-3.7,3-6.5,2.3-8.5-2.2c-0.7,3.6-1.3,6.8-2.2,11.4c4.2-3.7,7.5-6.6,10.7-9.4L436.7,787.3z"/>
	<path d="M429.7,775.5c1.2,2.5,2.4,5,3.7,7.6c0.2-0.4,0.6-1.1,1.3-2.5c0.8,2.6,1.4,4.7,2,6.8l-0.1-0.1c0.5,0.6,1,1.2,1.5,1.8
		c0.4-0.2,0.9-0.4,1.3-0.6c-2.5-5.1-5-10.2-7.7-15.9c-0.8,1.3-1.4,2.2-2,3.1C429.8,775.5,429.7,775.5,429.7,775.5z"/>
	<path d="M945.3,1190c-6.2,3.3-12.4,6.6-18.6,9.8c0.2,0.4,0.5,0.9,0.7,1.3c6.3-3.3,12.5-6.5,18.8-9.8
		C945.9,1190.9,945.6,1190.4,945.3,1190z"/>
	<path d="M406.4,1054c2.2,2.8,4.4,5.5,6.6,8.3c0.5-0.2,1.1-0.5,1.6-0.7c-0.1-1.6-0.3-3.2-0.5-6c-1.4,1.6-2,2.3-2.4,2.8
		c-1.3-1.9-2.6-3.7-3.9-5.6C407.4,1053.2,406.9,1053.6,406.4,1054z"/>
	<path d="M400.1,791.5c-0.5,4.1-2.4,5.6-6.4,3.9c0.9,3.6,1.6,6.4,2.3,9.1c0.3,0,0.6,0,1-0.1c-0.1-1.7-0.7-3.6-0.1-4.9
		c0.8-1.7,3-2.6,3.9-4.2C401.3,794.5,400.4,792.8,400.1,791.5z"/>
	<path d="M366.7,1062.2c-2.8-0.8-5-1.4-7.2-2c-0.4,0.4-0.7,0.8-1,1.3c1.7,1.9,3.4,3.9,5.6,6.3C365,1065.7,365.6,1064.4,366.7,1062.2
		z"/>
	<path d="M866.7,1210.1c3.8-1.3,7.6-2.6,11.4-3.9c-0.3-0.8-0.6-1.7-0.9-2.5c-3.7,1.5-7.4,3-11.2,4.5
		C866.2,1208.8,866.5,1209.4,866.7,1210.1z"/>
	<path d="M917.4,1141.9c3.2-1.3,6.4-2.7,9.6-4c-1.2-0.9-2.1-1.6-3.7-2.8c-1,0.4-3.2,1.3-6.5,2.5c2,0.2,3,0.3,4.2,0.4
		c-1.4,1-2.7,1.9-3.9,2.8C917.2,1141.3,917.3,1141.6,917.4,1141.9z"/>
	<path d="M190.6,615.1c-4-1.1-5.3-0.1-7.1,5.1c1.9,0.2,3.7,0.4,6.2,0.7c-0.9-1.3-1.4-2.1-2.1-3C188.6,617,189.5,616.2,190.6,615.1z"
		/>
	<path d="M966.8,1226.7c3.5-1.8,6.7-3.4,9.9-5.1c-0.2-0.3-0.4-0.7-0.5-1c-3.6,0.8-7.2,1.7-10.8,2.6
		C965.7,1224,966.2,1225.2,966.8,1226.7z"/>
	<path d="M443.8,805.8c-0.6,1.8-1.2,3.6-1.3,4c0.8,3.1,1.3,5.1,1.7,7c0.2,1,0.1,2,0.1,3c0.7-0.1,2,0.1,2.1-0.2
		c0.4-0.9,0.7-2.2,0.5-3.1C446,813,444.8,809.5,443.8,805.8C443.7,805.9,443.8,805.8,443.8,805.8z"/>
	<path d="M480.1,929.9c-0.8-4.3-1.5-8.6-6-10.8c-0.2,4.7,1.8,8.4,5.4,11.2c0.1,0.1,0.3,0,0.4,0C480,930.2,480,930,480.1,929.9z"/>
	<path d="M492.6,917.2c-0.3,0.2-0.7,0.4-1,0.6c-0.5,3.7,2.4,7.4,5.6,6.7c-0.6-1.1-1.2-2.1-2.1-3.8c1.5,0.6,2.6,1,4.7,1.8
		C496.9,920.4,494.8,918.8,492.6,917.2z"/>
	<path d="M314.1,1328.2c-1.2,6.1-2.4,12.2-3.6,18.3c0.4,0.1,0.8,0.2,1.2,0.3c1.2-6.1,2.4-12.1,3.6-18.1
		C314.9,1328.5,314.5,1328.4,314.1,1328.2z"/>
	<path d="M991.6,1290.9c-3.9-5.2-7.5,3.4-11.9,0.5c1.6,4,3.4,4,6.1,2C987.3,1292.2,989.4,1291.8,991.6,1290.9z"/>
	<path d="M717,1442.7c0.5-2.1,0.9-3.7,1.3-5.2c-3.7-2.3-5.5-1.2-5.9,3.2C713.7,1441.2,715,1441.8,717,1442.7z"/>
	<path d="M1018.2,1358c0.4,2.8,0.2,5.7,0.9,5.9c1.8,0.5,4,0,6-0.1c0.1-0.5,0.1-0.9,0.2-1.4C1023.4,1361.2,1021.5,1360,1018.2,1358z"
		/>
	<path d="M746.2,1334.7c2.4-3.4,2.4-6.2,0.8-9C745.8,1328.5,742.2,1331.1,746.2,1334.7z"/>
	<path d="M324.3,592.5c0.5,0.1,1,0.2,1.6,0.3c-1.2-4.3-2.4-8.6-3.6-12.9C320.8,584.5,321.5,588.7,324.3,592.5z"/>
	<path d="M895.4,1214c4.4-2.4,8.8-4.8,13.2-7.1c-0.2-0.5-0.5-0.9-0.7-1.4c-4.4,2.4-8.8,4.8-13.2,7.2
		C894.9,1213.1,895.2,1213.6,895.4,1214z"/>
	<path d="M236.4,317.7c1.6,1,3.2,2,4.8,3c-2.5-3-5-6-7.4-9c-0.4,0.3-0.8,0.6-1.2,0.9C233.9,314.2,235.1,315.9,236.4,317.7z"/>
	<path d="M706.3,1025.1c-1,1.5-2.1,3-3.9,5.7c3.8-1.6,6.4-2.6,9-3.7c-0.2-0.4-0.3-0.8-0.5-1.1
		C709.4,1025.7,707.9,1025.4,706.3,1025.1z"/>
	<path d="M856.4,1172.6c-3.2,2.3-6.4,4.5-9.6,6.8c0.1,0.3,0.2,0.5,0.4,0.8c4.3-2.2,8.6-4.4,12.9-6.6c-0.1-0.4-0.3-0.9-0.4-1.3
		c-1.1,0.2-2.2,0.3-3.3,0.5C856.3,1172.7,856.4,1172.6,856.4,1172.6z"/>
	<path d="M821,1287.6c0.2,2.5,0.3,4.7,3.4,1.6c1.3-1.3,3.6-1.7,5.5-2.5l-0.1,0.1c0.1-0.9,0.2-1.9,0.4-3.7c-3.5,1.8-6.4,3.2-9.3,4.6
		C820.9,1287.7,821,1287.6,821,1287.6z"/>
	<path d="M259.2,92.9c-0.2,3.6-0.4,7.1-0.4,10.7c0,0.3,1.5,0.7,2.3,1c0.4-1.2,1.3-3.3,1.2-3.3c-4.3-1.9-1.3-5.5-1.6-8.3
		C260.2,93,259.7,93,259.2,92.9z"/>
	<path d="M1016.1,1068.3c-1.9-1.7-3.7-3.3-6-5.4c-0.5,1.2-1.5,2.4-1.3,3.2c0.2,0.7,1.7,1.4,2.7,1.6c1.6,0.3,3.2,0.3,4.8,0.3
		L1016.1,1068.3z"/>
	<path d="M837.7,1285.7c-1.1-0.5-2.4-1.7-3.4-1.5c-1.6,0.4-3,1.7-4.5,2.6l0.1-0.1c-0.8,1-1.5,2-2.3,3.1c0.2,0.2,0.3,0.4,0.5,0.6
		C831.3,1288.7,834.5,1287.1,837.7,1285.7C837.8,1285.6,837.7,1285.7,837.7,1285.7z"/>
	<path d="M1054.7,1209c1.3,1.3,2.2,2.2,3.7,3.7c0.5-0.2,1.8-0.8,3.6-1.6C1059.6,1208.2,1057.7,1205.6,1054.7,1209z"/>
	<path d="M1049.8,1372.7l0.3-0.1c-1.4,1.9-0.9,3.6,1.4,2.7c2.6-1,4.7-3.3,6.4-5.7C1055.2,1370.6,1052.5,1371.6,1049.8,1372.7z"/>
	<path d="M308.4,542.6c1.4-3.1,5.4-5.3,3.5-9.3C310.2,536.2,306.9,538.6,308.4,542.6z"/>
	<path d="M887.8,1206.1c1.4-0.7,2.9-1.2,4.2-2c3.2-1.8,6.3-3.7,8.9-6.5c-4.6,2.5-9.2,4.9-13.8,7.4
		C887.3,1205.4,887.5,1205.8,887.8,1206.1z"/>
	<path d="M180.2,710.8c1.8-2.7,3.6-5.4,5.8-8.9c-2.3,0-3.6,0-4.9,0l0.1-0.1c-0.5,1.7-1.2,3.4-1.4,5.2c-0.2,1.2,0.3,2.5,0.5,3.7
		L180.2,710.8z"/>
	<path d="M484,715.5c0.1,1.2,0.2,2.4,0.3,3.6c0.4,0.2,0.8,0.4,1.2,0.6c1.2-1.6,2.7-3,3.5-4.8c0.3-0.6-1.3-2-1.8-2.8
		C485.9,713.6,484.9,714.6,484,715.5C483.9,715.6,484,715.5,484,715.5z"/>
	<path d="M169.4,739.3c-0.5,3.4-1,6.8-1.5,10.2c5.7-3.3,1.8-6.8,1.4-10.3L169.4,739.3z"/>
	<path d="M369.1,790.6c-2,0.4-3.7,0.8-5.2,1.1c1.7,1.3,3.6,2.7,5.6,4.2C371.7,793.9,371.7,793.9,369.1,790.6z"/>
	<path d="M1062.2,1355.6c5.7-3.1,5.8-3.3,1.8-7.8C1063.4,1350.6,1062.8,1353,1062.2,1355.6z"/>
	<path d="M528.3,688.2c3.9,1.2,7.8,2.3,11.7,3.5c0.2-0.5,0.3-0.9,0.4-1.4c-2-0.6-4-1.2-6-1.8c-1.9-0.6-3.8-1.2-5.8-1.8
		C528.6,687.2,528.4,687.7,528.3,688.2z"/>
	<path d="M1015.4,1330c-1.9-0.2-3.9-0.4-6.9-0.8c2.7,2.8,4.3,4.6,6.2,6.5C1014.9,1333.8,1015.1,1332.2,1015.4,1330z"/>
	<path d="M979.9,1322.2c2.1-1.8,4.3-3.6,7-5.8C981.3,1315,980.4,1318.5,979.9,1322.2z"/>
	<path d="M172.3,240.7c-0.6-4.3-1.2-8.5-1.8-12.8c-0.3,0.1-0.6,0.1-0.9,0.2c0.2,4.3,0.4,8.6,0.6,12.9
		C170.9,240.8,171.6,240.7,172.3,240.7z"/>
	<path d="M854.2,990.5c0.1-0.4,0.3-0.7,0.4-1.1c-2.4-0.5-4.8-1.1-7.2-1.7c-0.1,0.5-0.2,1.1-0.3,1.6
		C849,991.8,851.3,992.5,854.2,990.5z"/>
	<path d="M899.4,1156.8c2.3-0.1,5.1,0.8,4.8-3.5c-0.1-1.1,1.8-2.4,2.8-3.7C901.3,1148.8,901.8,1154.3,899.4,1156.8
		C899.5,1156.9,899.4,1156.8,899.4,1156.8z"/>
	<path d="M523.6,982.9c2.8-3.5,2-5.2-4.2-8.1C521.1,978,522.3,980.4,523.6,982.9z"/>
	<path d="M276,425.5c-0.7,3.4-1.4,6.8-2.1,10.2c0.4,0.1,0.8,0.2,1.2,0.3c1-3.3,1.9-6.5,2.9-9.8C277.3,426,276.7,425.7,276,425.5z"/>
	<path d="M1016.1,1068.3l0.2-0.2c-2.1,1.6-4.2,3.3-6.1,4.8c1.3-0.2,2.8-0.4,4.3-0.6l-0.1,0.1c2-0.5,4-1,7.3-1.8
		C1019.2,1069.7,1017.7,1069,1016.1,1068.3z"/>
	<path d="M1085.4,1336.2c1,2.7,1.5,4.2,2.2,6c1.2-0.8,2.5-1.7,4.4-3C1089.6,1338.2,1087.7,1337.3,1085.4,1336.2z"/>
	<path d="M745.7,928.9c-0.4,0.2-0.8,0.5-1.2,0.7c0.6,1,1.3,1.9,2.1,3.1c1.8-1.9,3.2-3.4,4.5-4.9l0.1,0.1
		C749.4,928.3,747.5,928.6,745.7,928.9z"/>
	<path d="M768.8,910.2c1.3-0.7,2.6-1.3,3.9-1.9l0.1,0.1c-0.7-0.7-1.4-1.4-2-2.1l0.1,0.1c-0.7,1.3-1.3,2.6-2,4L768.8,910.2z"/>
	<path d="M736.4,908.6c1.1-0.8,2.3-1.5,3.4-2.3c-0.5,0-0.9-0.1-1.4-0.1c-1.3-0.1-2.7-0.2-4-0.3c0,0.6,0.1,1.2,0.1,1.8
		c0.6,0.2,1.2,0.5,1.8,0.7L736.4,908.6z"/>
	<path d="M754.3,926c-0.4,0-0.8,0-1.2,0c-0.7,0.3-1.4,0.7-2.1,1l0.1-0.1c0,0.4,0,0.7,0,1.1l-0.1-0.1
		C752.2,927.2,753.3,926.6,754.3,926z"/>
	<path d="M710,905.4c0-0.7,0-1.4-0.1-2c-0.7,0-1.4,0-2.1,0c0,0.7-0.1,1.4-0.2,2.1C708.5,905.4,709.3,905.4,710,905.4z"/>
	<path d="M678,903.1c0.2-0.4,0.3-0.8,0.5-1.3c-0.4,0-0.8,0-1.2,0.1C677.5,902.3,677.8,902.7,678,903.1z"/>
	<path d="M706.5,905.4c0.2-0.7,0.3-1.4,0.5-2.1c-0.7,0-1.4,0.1-2.1,0.1l0.1-0.1C705.5,904,706,904.7,706.5,905.4z"/>
	<path d="M701.3,903.4c-0.7-0.7-1.5-1.3-2.2-2l0.1-0.1c0,0.7,0,1.4,0,2.1l-0.1-0.1C699.8,903.4,700.5,903.4,701.3,903.4z"/>
	<path d="M697.1,903.3c0.7,0.5,1.4,0.9,2,1.4c0-0.5-0.1-0.9-0.1-1.4l0.1,0.1C698.4,903.4,697.8,903.4,697.1,903.3L697.1,903.3z"/>
	<path d="M735.5,935.9c0,0-0.4,0.1-0.4,0.1s0.2,0.2,0.2,0.2L735.5,935.9z"/>
	<path d="M697.1,906.3c0.7,0.5,1.4,1,2.1,1.6c0-0.5,0-1,0-1.5C698.4,906.3,697.7,906.3,697.1,906.3z"/>
	<path d="M705,902.4c-0.9,0.3-1.7,0.7-2.6,1c0.9,0,1.7,0,2.6-0.1l-0.1,0.1C705,903.1,705,902.7,705,902.4z"/>
	<path d="M713.9,903c0,1,0,1.9,0,2.8C713.9,905,713.9,904,713.9,903z"/>
	<path d="M772.7,908.3c0.7,0,1.3,0,2,0l0,0.1c0-0.4,0.1-0.7,0.1-1.1C774.1,907.6,773.5,908,772.7,908.3L772.7,908.3z"/>
	<path d="M776,909.2c0.3-0.3,0.5-0.5,0.8-0.8c-0.7,0-1.4,0-2,0l0-0.1C775.2,908.6,775.6,908.9,776,909.2z"/>
	<path d="M734.5,903.4c-0.3-0.3-0.5-0.6-0.8-0.9l0.1,0C734.1,902.8,734.3,903.1,734.5,903.4z"/>
	<path d="M734.5,904.9c0-0.5,0-1.1,0-1.6C734.5,903.8,734.5,904.4,734.5,904.9z"/>
	<path d="M701.1,900.5c-0.6-1-1.3-2-1.9-3.1c-0.4,0.6-0.8,1.2-1.2,1.8c0.4,0.4,0.7,0.8,1.1,1.2l-0.1-0.1
		C699.7,900.4,700.4,900.5,701.1,900.5z"/>
	<path d="M709,900.3c0.3,1,0.5,2.1,0.8,3.2c0-1-0.1-2-0.2-3C709.5,900.4,709.3,900.3,709,900.3z"/>
	<path d="M694.2,903.2c0.3,1.1,0.6,2.1,0.9,3.2c0.7,0,1.4,0,2.1,0c-0.8-1-1.6-2-2.4-3.1C694.6,903.3,694.4,903.3,694.2,903.2z"/>
	<path d="M766.7,905.8c0.2,0,0.5,0.1,0.7,0.2c-0.2,0-0.5,0-0.7,0V905.8z"/>
	<polygon points="737.5,903.6 737.2,903.4 737.5,903.4 	"/>
	<path d="M689.2,907.2c0.4-0.1,0.8-0.2,1.7-0.5c-0.8-0.2-1.2-0.4-1.6-0.5C689.3,906.6,689.3,906.9,689.2,907.2z"/>
	<path d="M746.3,928.4c0.2-0.2,0.4-0.3,0.6-0.4C746.7,928.1,746.5,928.3,746.3,928.4z"/>
	<polygon points="734.3,901.8 734.6,901.9 734.3,902 	"/>
	<path d="M986,1418.3c-0.8,1-1.7,2-2.7,3.2c-0.9-0.6-2.5-1.7-4.3-2.9c-2.2,5.5-9.9,8.4-5,16.1c-2.3,0.2-3.6,0.3-5.2,0.4
		c0.1-0.1-0.2,0.2-0.2,0.4c1,4.3,4.5,6.4,8.9,4.9c3.7-1.3,6.8-0.7,10.1,1c0.9,0.5,2.6,0,3.8-0.5c2.7-1.2,4.9-2.9,7.7,0.3
		c2.2,2.6,5.7,1.9,8.8-0.8c0.2,0.4,0.3,0.9,0.4,1.3c1.7-0.5,3.5-0.7,4.9-1.6c1.5-0.9,3.5-3.6,4-3.3c2.4,1.4,5,3.2,6.4,5.6
		c2.1,3.4,3.1,4.7,6.9,4.7c-0.2,2.7-0.5,5.5-0.8,9.2c4.5-1.3,8.2-2.3,12-3.4c-7.1-9.3-13-19-23.2-24.2c-0.4,0.4-0.8,0.7-1.2,1.1
		c0-1.3,0-2.7,0-4.7c-3.3,2.3-9.1-1.1-9.2,7.4c-2.4-2.4-4.2-3.8-5.6-5.5c-2.6-3.3-10.2-4.6-13.8-2.2c-0.6,0.4-1.4,0.5-0.9,0.4
		c-0.7-2.5-1.2-4.7-1.8-6.8C985.9,1418.2,986,1418.3,986,1418.3z"/>
	<path d="M993.5,1475.2c-3.8,0.4-6,0.6-8,0.8c-0.3,1.9-0.6,4.2-1,6.6c0.3,0.3,0.5,0.6,0.8,0.9
		C987.8,1480.9,990.3,1478.4,993.5,1475.2z"/>
	<path d="M1074.1,1474.9c-1.8,2.7-7.9-3.5-7.9,4.5c2.6,0.3,5.2,0.5,7.7,0.8C1073.9,1478.4,1074,1477,1074.1,1474.9z"/>
	<path d="M1040.2,1515.6c1.4,1.5,2.7,2.9,4.7,5.1c0.8-2.1,1.5-3.8,2.1-5.6c-2.1-0.3-4.3-0.7-6.4-1
		C1040.5,1514.6,1040.3,1515.1,1040.2,1515.6z"/>
	<path d="M943.8,1491.1c1.4,0,2.8,0,5,0c-0.2-1.2-0.5-2.9-0.8-4.7c-2.2,0-3.8,0-5.4,0C943.1,1488.1,943.5,1489.7,943.8,1491.1
		C943.9,1491.2,943.8,1491.1,943.8,1491.1z"/>
	<path d="M1025.1,1500.5c-2.5-1.8-4.3-3.2-5.6-4.1c0.7,2.6,1.4,5.4,2.2,8.7C1022.6,1503.9,1023.7,1502.4,1025.1,1500.5z"/>
	<path d="M893.8,1519.6c1.9-2.4,3.8-4.8,6.6-8.4c-3.5,0.9-5.4,1.4-7.1,1.9c-0.5,2.2-0.8,4-1.2,5.9
		C892.6,1519.2,893.2,1519.4,893.8,1519.6z"/>
	<path d="M775.7,906.4c0.4-0.2,0.8-0.5,1.3-0.8l0,0.1C776.5,905.9,776.1,906.1,775.7,906.4z"/>
	<path d="M705,899.4c-0.7-0.7-1.3-1.3-2-2c0,1,0,2,0,3.1c0.7,0,1.4,0,2,0C705,900.1,705,899.8,705,899.4z"/>
	<path d="M703.1,900.4c-0.7,0-1.4,0-2.1,0C701.7,900.4,702.4,900.4,703.1,900.4z"/>
	<path d="M705,902.5c0-0.7,0-1.4,0-2.1C705,901.1,705,901.8,705,902.5z"/>
	<path d="M693.1,907.3c0.7,0.7,1.3,1.3,2,2c0.7,0,1.4,0,2,0c-0.7-1-1.3-2-2-3C694.5,906.6,693.8,907,693.1,907.3z"/>
	<path d="M708,903.4c-0.4,0-0.7,0-1.1,0C707.3,903.4,707.6,903.4,708,903.4z"/>
	<path d="M614.7,887.2c-2-0.8-3.3-1.4-4.2-1.8c0.4,2.8,0.2,6,1.5,8.5c1.2,2.3,4,3.9,6.7,5.2c-3.5-2.1,1.2-9.7-6.4-8.8
		C613.3,889,613.9,888.3,614.7,887.2z"/>
	<path d="M452.9,1027.8c3.1,3.8,5.9,7.3,8.8,11c3.4-3.6,4.3-7,1.5-10.1C460.7,1025.8,457.4,1024.8,452.9,1027.8z"/>
	<path d="M631.6,876.5c-2.1,5.7,1.9,5,3.9,6.5c0.4-0.3,0.7-0.7,1.1-1C635,880.2,633.3,878.4,631.6,876.5z"/>
	<polygon points="691.3,904.3 691.3,904.5 691.2,904.4 	"/>
	<path d="M770.9,905.4c0-0.4,0-0.8,0-1.1C770.9,904.7,770.9,905,770.9,905.4z"/>
	<path d="M774.7,907.4c0.4-0.4,0.7-0.7,1.1-1.1C775.4,906.6,775.1,907,774.7,907.4z"/>
	<path d="M961.3,1182.3c3.8-1.4,7.6-2.8,11.3-4.3c-0.1-0.3-0.2-0.7-0.2-1c-1,0-1.9,0-2.9,0c-0.2-0.3-0.3-0.6-0.5-0.9
		c2.8-1.8,5.7-3.6,9.3-6C969.8,1171.5,965.5,1176.9,961.3,1182.3C961.4,1182.4,961.3,1182.3,961.3,1182.3z"/>
	<path d="M985.6,1177.5c-3.8,1.3-7.6,2.6-11.4,3.9c-1,0.8-2,1.6-3,2.4c0.4,0.5,0.7,1.1,1.1,1.6
		C976.8,1182.8,981.2,1180.2,985.6,1177.5z"/>
	<path d="M276.2,1241.2c-11.9-0.2-20.7,8.4-20.9,20.4c-0.1,11.8,7.9,20.2,19.6,20.6c11.3,0.3,19.4-8.9,19.7-22.1
		C294.9,1248.4,287.5,1239.8,276.2,1241.2z"/>
</g>
</svg>
