<?xml version="1.0" encoding="utf-8"?>
<!-- Generator: Adobe Illustrator 23.0.2, SVG Export Plug-In . SVG Version: 6.00 Build 0)  -->
<svg version="1.1" id="Calque_1" xmlns="http://www.w3.org/2000/svg" xmlns:xlink="http://www.w3.org/1999/xlink" x="0px" y="0px"
	 viewBox="0 0 1021.7 965.8" style="enable-background:new 0 0 1021.7 965.8;" xml:space="preserve">
<g id="_x35_pwkN4.tif">
	<g>
		<g>
			<path d="M174.6,529c-6.2,1.8-7.7,7.8-10.6,12.4c-6.9,10.8-12.7,22.3-19.9,33c-2.1,3.2-2,5.6-1.3,8.4c1.1,5.1,2.3,10.2,4,15.1
				c0.9,2.5,2.9,4.6,4.3,6.9c0.1,0-0.8,0.2-2.7,0.7c6,0.8,9.3,8,15.9,3.9c-1.1,0.9-2.2,1.9-4.3,3.7c3.5,0.7,6.1,1.2,8.6,1.9
				c1.1,0.3,2,1,4,2c2.4-2.6,4.5,1.2,7.1,2.6c1.6,0.8,3.1,1.8,4.7,2.7c-0.7,0.4-2.5,1.2-4.4,2.1c0.9,0.6,1.5,1.1,2.2,1.4
				c2.1,0.9,4.2,1.6,6.2,2.6c6.3,3.1,12.6,6.5,18.9,9.6c3.5,1.7,4.2,4.4,1.7,7.9c3.6,1.4,7.3,2.4,10.6,4.2c2.1,1.1,3.6,3.4,5.3,5.2
				c0.5,0.5,0.9,1.6,1.4,1.6c6.2,0.6,9.8,5.6,14.7,8.3c7.2,3.8,14.2,7.9,21,11.7c0.2-0.1-0.4,0.3-1.5,1c4.7,2.2,9.3,4,13.6,6.3
				c2.3,1.2,4.2,3.3,6.5,4.6c4.6,2.5,9.3,4.6,14,7c4.8,2.4,9.5,5.3,14.5,7.4c6.4,2.6,13,4.5,19.4,7c5.9,2.3,11.6,5.1,17.4,7.7
				c0.8,0.4,1.6,0.9,2.5,1.2c2.6,1,6.3-0.5,7.5,3.7c0.1,0.5,1.7,0.5,2.6,0.8c1.2,0.3,2.8,0.2,3.6,1c7,6.1,16,5.7,24.3,7.5
				c7.1,1.5,14.2,2.9,21.3,4.2c1.6,0.3,3.4-0.3,5.1,0c1,0.1,1.8,1.1,3.9,2.5c3-1.6,7.1-5.7,12.9-3.2c-1.4,0.6-2.6,1.3-4,1.9
				c-1.1,0.4-2.3,0.5-3.3,1.1c-2,1.2-1.4,1.2-1.3,4.4c0.1,2.1-1.6,4.4-2.8,6.3c-0.9,1.3-2.4,2.2-3.1,4.1c0.9-0.6,1.7-1.3,2.7-1.9
				c1-0.7,2.1-1.2,4.1-2.5c-1.8,3-3,5-4.3,7c0.3,0.1,0.7,0.3,1,0.4c1.1-0.6,2.2-1.2,3.4-1.7c0,0,0.8,1.4,0.8,1.4
				c-1.8,1.4-3.7,2.7-5.8,4.2c1,1.9,4.9,3.8,2.5,7.8c-0.4,0.6,1.2,2.4,1.8,3.3c0.5-0.3-0.2,0.1-1,0.5c0.1,0.6,0.2,1.1,0.4,1.7
				c14.7-2.8,29.5-5.5,44.4-8.3c-0.1,4.6-5.7,7.1-9.4,5.8c-2.3,1.1-3.9,1.6-5.1,2.6c-1.3,1.1-2.8,2.6-3.1,4.2
				c-0.3,2.3,1.8,4.9-1.2,6.7c2.1,1.7,0.7,3.4,0.2,5.3c-0.1,0.5,2,1.6,3.1,2.5c-2.3,3-1.8,5.7,0.9,8.6c4.2,4.5,8.1,9.4,12.1,14.2
				c-0.4,0.4-0.7,0.7-1.1,1.1c-1.5-1.6-2.8-3.4-4.5-4.7c-1.3-0.9-3.1-1.1-4.7-1.6c-0.1,0.4-0.2,0.9-0.2,1.3
				c-1.7-1.4-3.4-2.9-5.2-4.4c-0.5,0.6-1.1,1.5-2,2.6c-1.2-2.1-2.1-3.9-3.1-5.6c-0.5,0.2-1,0.4-1.6,0.6c0.4,1.6,0.8,3.2,1.1,4.8
				c0.2,1,0.5,2.1,0.2,3c-1.3,3.5,0.8,6.9,4.5,6.7c4.1-0.2,7.1,1.5,10.5,3.5c5.3,3.1,11.3,5,16.9,7.6c2.8,1.3,5.4,2.8,8,4.5
				c4.5,2.8,8.7-0.1,13-0.5c2.2-0.2,4.4-0.7,6.7-1.2c-0.2,0.6-0.4,1.6-1,3.9c1.7-1.9,2.5-2.9,3.3-3.8c0.3,0.1,0.6,0.2,0.8,0.4
				c-0.3,1.6-0.5,3.2-0.8,5c2.3,0.8,4.7,1.6,6.7,2.2c1.5-3.4,3-7.1,4.6-10.7c0.5,0.2,1.1,0.4,1.6,0.6c-0.7,2.8-1.5,5.6-1.9,8.4
				c-0.2,1,0.2,2.7,0.8,3c0.8,0.5,2.2,0,3.8-0.2c1.3,2.5,3,5.5,4.8,8.9c1.4-0.4,3-0.9,4.8-1.4c-1.5,3.5-1.4,5.6,3.3,4.2
				c1-0.3,2.3,0.6,3.4,0.7c2,0.1,4,0,7.1,0c1.1,1.5,2.3,5.2,7,3.1c0.6-0.3,5.3,3.3,3.8,7.5c0.5-1.3,1.1-2.6,1.6-3.9
				c0.4,0.2,0.7,0.3,1.1,0.5c-0.9,2.2-1.9,4.4-2.9,6.9c0.3,0.1,1.1,0.4,1.9,0.7c1.8-7,7.4-8.2,12.8-8.2c4,5.2,7.7,10.3,11.8,15.1
				c1.2,1.3,3.5,1.9,5.4,2.4c5,1.3,10.5,1.8,11.7,8.5c0.1,0.8,2.4,1.6,3.8,1.8c4.2,0.5,8.5,0.8,12.7,1.1c-6.2,4.1-6.3,4.2-0.8,10.1
				c1.2,1.2,3.2,1.8,4.9,2.4c1.9,0.7,4,1.3,5.9,1.9c1.4-9-0.3-17.7-6.8-25.1c8.7,6,14.1,16.2,9.7,25.3c-0.4,0.7-0.2,2.3,0.4,2.8
				c7.8,7.8,11.9,17.8,16,27.7c4.3,10.4,8.1,20.9,12.1,31.4c-83,0-166,0-249,0c13.2-4.3,26.6-8.1,39.6-13.1
				c10.1-3.8,19.9-8.7,29.5-13.6c8.1-4.1,15.9-8.7,23.7-13.4c3.2-1.9,5.9-4.6,8.8-7c0.2,0.4,0.4,0.9,0.5,1.3
				c1.9-0.4,4.3-0.3,5.8-1.4c11.3-8,22.4-16.3,33.5-24.4c-0.4-0.8-0.7-1.5-1.1-2.3c-1.4,0.3-3,0.3-4.2,1.1
				c-7.9,5.4-15.8,11.1-23.7,16.5c-1.8,1.3-3.9,2.2-6.2,2.6c9.2-6.7,18.5-13.3,27.7-20c0.1-0.6,0.1-1.2,0.2-1.7
				c-5.4-1.6-10.9-3-16.3-4.8c-5.8-1.9-9.8-0.6-13.7,4.6c-2.8,3.7-7.5,6.1-11.8,8.3c-7.4,3.9-15,7.5-22.8,10.7
				c-5.5,2.3-11.4,3.7-17.1,5.4c-0.6,0.2-1.4,0.2-1.8,0.6c-5.3,5.8-12.9,6.3-19.7,8.6c-7.1,2.3-14.2,4.8-21.4,6.2
				c-9.1,1.8-18.4,2.7-27.7,3.4c8.7-2.2,17.3-5,26.1-6.4c9.6-1.5,18-5.9,26.9-9.1c16.9-6.2,31.3-17,47.2-25.3
				c5.5-2.9,10.5-6.6,15.6-10.1c1.3-0.9,2.3-2.1,3.5-3.1c0-0.6,0-1.2-0.1-1.8c-3.2-0.7-6.4-1.4-9.6-2.1c-0.3-0.1-0.9,0.1-1-0.1
				c-2.6-5.2-6.1-1.5-9.1-0.8c-2.8,0.6-5.5,3.6-8.4-0.6c-0.5-0.7-4.5,1-6.9,1.5c-4.8,1-9.6,2.9-14.3,2.6c-1.8-0.1-3.3,0.1-5,0.4
				c-3.2,0.7-6.3,1-8-1.6c-4.5,1.3-8.9,2.6-13.2,3.9c-0.2-0.4-0.4-0.8-0.6-1.1c2.7-1.6,5.2-4,8.1-4.6c3.7-0.9,7.8-0.3,11.7-0.4
				c0.3,0,0.7-0.1,0.9-0.3c3.6-1.9,7.1-4.1,11.4-1.9c0.6,0.3,2.1-0.3,2.6-1c4.5-5.6,10.5-5.9,16.9-5c1.2,0.2,2.4-0.3,3.6-0.5
				c0.1-0.5,0.2-1,0.3-1.5c-4.3-1.8-8.8-3.4-13-5.5c-4.2-2.1-8-5-12.2-7c-12.8-5.9-25.7-11.5-39.3-15.5c-5.7-1.7-10.9-4.8-16.3-7.2
				c-6.1-2.8-12.2-5.7-18.5-8.2c-1.7-0.7-4,0.2-6-0.2c-2-0.4-4-1.4-6-2c-2.2-0.6-4.8-2-6.7-1.5c-3,0.9-4.5-1.2-6.6-2
				c0.4-0.5,0.7-1,1-1.3c-3.8-0.8-7.7-1.5-11.6-2.3c0-0.1,0-0.2,0-0.3c-5.6-1.8-11.2-3.7-16.8-5.3c-3.7-1.1-7.5-1.9-11.4-2.5
				c-4-0.6-8-0.6-12-1.1c-1-0.1-1.9-1.1-2.8-1.6c0.2-0.3,0.5-0.7,0.7-1c1.5,0.5,3.1,1,4.6,1.5c0.2-0.6,0.3-1.2,0.5-1.9
				c-2.6-0.4-5.1-0.9-7.7-1.3c0.1,1.1,0.1,2.1,0.2,3.2c-0.3,0.3-0.6,0.5-0.9,0.8c-2-2.7-4-5.4-6.1-8.3c0.2,1.5,0.4,2.9,0.5,4.4
				c-0.3,0.2-0.7,0.5-1,0.7c-1.6-2.1-3.2-4.2-4.7-6.2c-5.3,3.9-16.6,3.8-22-0.2c-1-0.7-2.2-1.3-3.4-1.7
				c-15.2-5.6-31.1-8.1-46.8-11.4c-7.6-1.6-14.9-4.6-22.4-6.7c-4.4-1.2-9-1.7-13.4-2.7c-2.6-0.6-5.3-1.1-7.8-2.1
				c-0.6-0.2-0.5-2.1-0.8-3.5c-5.2,0.1-11.7,3.4-14.5-4.9c-0.1,0.9-0.1,1.7-0.1,2.1c-3.2-1.4-6.2-3.3-9.5-3.9
				c-3.3-0.7-6.8-0.1-10.3-0.1c0.2-0.9,0.3-1.5,0.4-2.2c-1-0.1-2.1-0.2-3.1-0.4c-0.8-0.2-1.7-0.5-2.5-0.8c-2.4-0.9-4.7-1.9-7.6-3.1
				c1.4-0.4,2.2-0.6,3.1-0.8c0-0.3,0-0.6,0-0.9c-3.8,0-7.6,0-11.6,0c0.7-0.8,1.3-1.4,2.7-2.9c-4.7,0-8.6,0.4-12.5-0.1
				c-3.5-0.5-8.3-0.8-9.9-3.1c-2.9-4-7.1-1.6-10.1-3.7c-1.2-0.8-3.4-0.8-3.8-1.8c-1.4-2.9-3.6-3.3-6.4-3.4c-1.1-0.1-2.2-1.5-3.2-2.5
				c-1.7-1.7-3.2-3.7-5.1-5.2c-0.5-0.4-2,0.4-2.9,1.6c0.9,0.2,1.8,0.4,2.7,0.6c0,0.3-0.1,0.6-0.1,0.9c-1.8-0.4-3.7-0.7-5.4-1.3
				c-0.1,0,0.1-1.5,0.3-2.3c0.1-0.4,0.5-0.8,0.7-1.3c-1.2-0.2-2.3-0.4-3.5-0.6c0.6-1.5,1.1-2.8,1.6-4c-7.8-3.4-15.8-6.8-23.8-10.3
				c-0.2,0.5-0.5,1-0.7,1.5c1.6,1,3.3,1.9,4.9,2.9c-0.1,0.4-0.2,0.8-0.3,1.2c-5.8-1.8-11.6-3.7-17.4-5.5c0.1-0.4,0.3-0.8,0.4-1.2
				c1.4-0.2,2.8-0.5,4.2-0.7c0.1-0.5,0.2-1,0.3-1.5c-4.2-1-8.5-1.9-12.6-3.1c-2-0.6-6.3,1-4.8-4.1c0.1-0.5-1.7-1.9-2.8-2.3
				c-4.5-1.7-9.1-3.1-14.6-4.9c1-2,1.8-3.5,2.6-5.1c0.4,0.2,0.7,0.4,1.1,0.6c-0.1,1.1-0.1,2.2-0.2,2.8c8.1-1,4.9-8.4,7.8-13
				c1.7,1.6,3.4,4.3,5.7,0.7c0.3-0.5,3.5,0.8,5.9,0.8c-4.1-2.8,6.6-6.3-2-8.5c2-0.6,2.9-0.9,2.7-0.9c3.7,2.7,6.8,5,10.2,7.6
				c1.2-2.1,2.2-3.8,4-6.8c0,2.1,0,2.8,0,3.2c4.5,0.4,9,0.8,13.9,1.3c0.3,0.8,1,2.3,1.7,4.1c1.8-0.7,3.6-1.4,5.7-2.2
				c0.3,1.9,0.5,3.6,0.9,6c4-0.9,8.1-1.8,12.3-2.7c0.2,0.4,0.3,0.8,0.5,1.1c-1.3,0.7-2.6,1.5-3.9,2.2c1.1,5.7,1.1,5.7,9.5,4.8
				c-0.9-3.4-1.9-6.8-2.8-10.2c-0.2-0.6-0.1-1.4-0.5-1.7c-3.9-2.9-3.9-3.2,0.3-5.3c-5.3-6.3-10.6-12.6-15.8-18.9
				c4.2-3.2,2.7-7.5,0.7-12.5c1.7,0.6,3.5,0.8,3.5,1.3c0.7,6.7,7.2,8.6,10.4,13.2c0.2,0.3,0.1,0.9,0.2,2.1c-3-2-5.6-3.8-8.1-5.5
				c1.4,3.9-0.6,9.5,6.7,10.1c-1.7,0.7-2.4,1-3.5,1.6c1.5,0.9,3.4,2.4,3.8,2.1c2.2-1.7,4-3.9,5.8-5.8c0.5,1.9,1.2,4.7,1.9,7.9
				c1.6,0.1,3.2,0.2,5,0.3c0,1.9,0,3.8,0,6.5c2-1.6,3.5-2.9,5.5-4.5c0.6,1.2,1.4,2.5,2,3.8c0.3,0.6,0.4,1.7,0.6,1.7
				c6.3-0.5,2.2,3.8,3.1,6.1c0.4-0.2,1.1-0.5,1.8-0.8c0.7-0.3,1.3-0.7,2.2-1.3c-1.1,4-0.4,4.3,12.1,6.5c-2.6-2.5-5.1-5.1-7.7-7.6
				c0.3-0.3,0.6-0.7,0.9-1c2.4,1.7,4.7,3.5,7.1,5.2c0.3-0.1,0.6-0.3,0.9-0.4c-1.1-2.4-2.3-4.7-3.4-7.1c-0.4,0.1-0.9,0.2-1.3,0.3
				c0.6-1.5,1.2-3,2.2-5.5c0.4,2.3,0.6,3.4,0.8,4.6c6.6-2.7,8.6-15.6,3.2-21.5c-0.8,1.7-1.5,3.3-2.2,4.9c-0.4-0.1-0.8-0.3-1.2-0.4
				c0.4-1.6,0.7-3.3,1.2-5.3c-2.9-4.7-6.3-10-9.7-15.4c0.7-0.5,1.3-1.1,2-1.6c1.3,1.9,2.5,3.8,4,5.5c2.7,3.1,5.6,6,8.4,9
				c1.2,1.3,2.1,2.9,3.5,4.8c0.4-0.2,1.4-0.7,2.6-1.3c-0.4,2.6-0.7,4.8-1.1,7.4c2.8-1,5.4-1.4,3.6-5.2c-0.4-0.8,1.3-2.6,1.8-3.6
				c0.9,3.1,1.8,6.2,2.7,9.3c0.6-0.1,1.2-0.2,1.8-0.4c0.4-7,0.9-14,1.3-21.3c-1.8-2.6-4-5.9-6.3-9.1c-0.5,0.1-1,0.1-1.5,0.2
				c0.5,3,1,6.1,1.5,9.1c-0.5,0.2-1,0.4-1.5,0.6c-1.5-3.6-2.9-7.2-4.5-11c-0.6,0.8-1.5,1.9-2.5,3.2c-1-2.2-1.9-4.2-2.8-6.3
				c-3.9,2.4-2.9-2.2-4.4-3.2c-0.5-0.4-1.1-1.3-1.1-1.9c0.1-1.9,1.1-3.8,0.7-5.6c-0.3-1.7-1.7-3.3-2.9-4.7c-1.2-1.4-2.7-2.5-4.6-4.1
				c0.3,2.9,0.5,5.3,0.7,8.5c-1.3-1.4-2.1-2.3-3.1-3.3c-0.5,0.8-1,1.5-1.2,1.8c-1.2-3.2-2.5-6.5-4.3-11.1c-1.1,3.5-1.7,5.6-2.4,7.7
				c-0.4-0.2-0.8-0.3-1.2-0.5c2.2-5.1-2.2-10.8-11.4-14.8c-0.4,1.3-0.8,2.6-1.5,4.9c-3.9-5.7-8.1-10.8-15.4-6.8
				c-2.9-4.6-5.6-8.8-8.2-13c-0.3,0.1-0.6,0.3-0.9,0.4c0,1.1,0,2.2,0,4.9c-2.9-3-5.1-5.3-7.5-7.8c-0.3,1.8-0.5,3-0.8,4.2
				c-0.7-0.2-1.3-0.3-2-0.5c0.7-2.3,1.3-4.5,2-7c-0.5,0.1-1.5,0.3-2.6,0.5c0.2-1.6,0.5-3.1,0.7-4.6c0.2,0,0.5-0.1,0.7-0.1
				c0.3,0.8,0.5,1.6,0.8,2.4c3.3-3.7,2.7-7.1-1-9.3c-1.8-1-3-3.1-4.9-5.1c1.6-0.2,2.8-0.7,3.8-0.4c1,0.3,1.9,1.3,2.8,2.1
				c0.5-1.3,1-2.6,1.4-4c0.2-0.5,0.2-1,0.4-1.8c1.7,0.6,3.3,1.1,4.8,1.7c0.2-0.3,0.4-0.7,0.7-1c-1.9-2.3-3.7-4.5-6-7.2
				c2.1-1.1,4.3-2.2,6.5-3.3c-0.1-0.1-0.2-1.4-0.6-1.6c-4.4-1.5-1.5-2.8-0.1-4.4c1.2-1.4,2.5-2.9,2.9-4.6c0.1-0.5-2.4-1.7-3.6-2.6
				c1.9-3,2.2-5.4-3.1-4.9c8.1-6.4,15.9-12.5,23.6-18.6c-2.1-1.6-3.6-2.8-5.4-4.1c9.4-2.7,15.4-11.6,12.5-17.6
				c2.5-1.9,5-3.7,7.8-5.7c1.8,2.9,3.5,5.9,5.2,8.6c2.6-0.5,5.3-1,7.9-1.5c-0.5,1.9-1,3.8-1.6,5.9c2.4-0.2,5.5-2.3,7.4,2.3
				c0.6,1.5,5.5,3.1,6.9-0.6c1.6,0.5,3.2,0.9,5.4,1.6c-0.7,0.7-1.7,1.8-2.2,2.3c2,3,4.3,6.5,6.3,9.4c-1.4,0.8-3.5,1.9-3.4,2.1
				c1,2.5,2.2,4.8,3.4,7.1c-1.2,0.1-2.5,5-6.8,1.7c0.7,1.5,1.4,3,2.5,5.3c-1.8-1.1-3.5-1.8-4.6-3c-0.4-0.5,0.5-2.2,0.1-4
				c-0.9,1.6-2.2,3.1-2.5,4.8c-0.1,0.7,1.6,1.8,2.7,2.7c1,0.8,2.1,1.5,3.2,2.3c0.9-0.7,1.9-1.6,3.5-2.8c0.1,1.8,0.1,3,0.2,4.2
				c0.2,1.3,0.5,2.5,0.8,3.8c1.2-0.6,2.4-1.3,3.7-1.7c2.1-0.7,4.3-1.1,6.7-1.7c0.2-3-0.4-7.7,1.2-11.6c1.2-3.1,5-5.3,7.8-7.7
				c0.3-0.3,2,1,3,1.6c1.5-5.2,5-9.1,8.6-8.1c-1.2-1.7-2-2.8-2.8-4c0.8-0.4,1.5-0.8,2.3-1.2c-0.8-0.4-1.6-0.8-3-1.5
				c9.7-4.5,7.2-10.5,3-16.4c-2.2-0.2-4.5-0.5-6.8-0.7c-0.2-1.9-0.5-3.7-0.7-5.4c-0.3,0.4-0.6,0.8-0.9,1.2c-2.3-1-4.8-1.8-6.8-3.2
				c-4-2.7-7.9-5.5-11.6-8.6c-3.3-2.8-5.9-6.4-9.5-8.7c-6.7-4.3-13.8-7.9-20.6-12.6c4.7,1.5,9.5,2.5,13.9,4.6
				c11.7,5.6,23.5,11.3,34.8,17.7c3.4,1.9,5.4,6.2,7.8,9.6c6,8.5,12.2,17,17.6,25.9c3.3,5.4,6.1,11.3,4.2,18.1c0,0,0.1-0.2,0.1-0.2
				c-1.8,2.9-3.5,5.8-5.5,9.1c1.9-0.7,2.9-1.1,3.9-1.5c-0.4,0.9-0.9,1.8-1,2.8c-0.1,0.9,0.3,1.8,0.5,2.7L174.6,529z M136.7,619.7
				c-1-2.5-1.8-5.1-3.2-7.3c-0.3-0.5-2.7,0.4-4.2,0.6c-0.1,0-0.1,0.4-0.3,1.2c1.3,0.1,2.3,0.2,3.4,0.3c0.5,0.5,1.1,1,1.6,1.6
				c-1.5,0.8-3,1.6-4.6,2.1c-0.3,0.1-1-1.5-1.6-2.3c-1.2,1-2.6,1.8-3.6,3c-1,1.1-1.6,2.5-2.4,3.9c2.1,0.4,4.4,0.7,6.5,1.1
				c-0.1,0.9-0.3,1.9-0.3,2.2c1.9-0.8,3.7-1.5,5.5-2.2c-1,1.3-1.9,2.6-2.6,3.5c1.6,2.2,3.2,4.3,4.3,5.8c0.9-3.5,2.1-8,2.9-11.5
				c6.7,0-0.7,7.8,6.1,8.1c-0.9-6-1.7-11.5-2.6-17.6C139.5,615.4,138.1,617.6,136.7,619.7z M127,695.8c-4.4-3.5-8.2-6.5-12.1-9.6
				c-1.3,1.4-2.8,3-3.5,3.7c4.7,4.8,9.6,9.8,15.2,15.4c0.5-3.9,0.9-7,1.3-10.6c2.1,4.4,3.9,8.2,5.7,12c0.7-0.4,1.5-0.8,2.2-1.2
				c-1-1.6-1.9-3.3-2.9-4.9c-0.6-0.8-2-1.5-2-2.2c0.1-4.8-0.8-6-6-7.1C125.5,692.5,126.1,693.8,127,695.8z M492.3,846.7
				c-3.3-1.7-6.4-3.2-9.2-4.6c-2,6.3-7.9,0.3-11.9,2.4c4.1,4.5,8.9,6.5,14.2,7.3C490.2,852.5,492.1,850.9,492.3,846.7z M127.5,686.4
				c0.4-5.6,0.8-11,1.3-17.6c-1.9,2-3.1,3.6-4.7,4.8c-1.8,1.3-3.8,2.2-6,3.5c-0.3-2.1-0.5-3.7-0.8-5.2c-0.5-0.1-0.9-0.1-1.4-0.2
				c-0.3,1.7-1.3,3.8-0.6,4.9c0.8,1.2,3.1,1.5,4.8,2.2c-0.2,1.2-0.5,2.9-0.7,4.2C122,684.1,124.6,685.2,127.5,686.4z M145.1,649
				c-2.5-0.7-4.2-0.5-5,2.6c-0.6,2.3-2.8,4.2-3.3,6.5c-0.4,1.9,0.5,4.1,1.1,6.2c0.1,0.2,2,0.4,2.6-0.1
				C145.2,660.6,146.9,655,145.1,649z M140.2,637.5c1.1,2.2,1.9,3.9,2.3,4.8c-2.3,1.2-4.3,1.6-4.7,2.6c-0.9,2.4-1,5.1-1.4,7.4
				c4.8-3.2,12.1-16.4,9.7-17.8c-0.6,0.7-1.2,1.4-2,2.2c-0.5-1.1-1-2-1.9-3.9C141.2,635.2,140.6,636.7,140.2,637.5z M438.3,813.9
				c0.6-0.3,1.3-0.6,1.9-0.9c-1.1-2.7-2.1-5.3-3.2-8c-0.5,0.2-0.9,0.4-1.4,0.6C436.6,808.3,433.5,812.5,438.3,813.9z M176.7,679.8
				c6.1-2,6.9-3.9,4.6-9.5C179.8,673.4,178.6,676,176.7,679.8z M154.5,637.5c-1.9,2.2-3.1,3.7-4.5,5.3c1.5,1,3,2,4.5,2.9
				C154.5,643.2,154.5,640.6,154.5,637.5z"/>
			<path d="M216.7,965.8c-1.9-6-1.8-11.1,4.8-14.5c1.9-1,2.8-3.7,4.5-5c1.2-1,1.3-4.7,4.3-2.2c2.2,1.8,3.6,3.8,3.4,7.1
				c-0.2,4.9,0.6,9.8,0.9,14.7C228.7,965.8,222.7,965.8,216.7,965.8z"/>
			<path d="M1021.7,452.8c-3.4,4.3-6,4.3-11.2,2.6c-4.6-1.5-9.8-1.6-15.3-2.3c4.7-0.8,8.9-1.8,13.1-2.1c2.1-0.2,4.2-2.1,6.6-0.4
				c0.3,0.2,2.8-2.8,4.4-4.4c0.7,0.8,1.5,1.7,2.3,2.7C1021.7,450.1,1021.7,451.4,1021.7,452.8z"/>
			<path d="M394.5,304.9c-0.1-4.7,1.2-9.3-1-14c-1.1-2.2-2.8-5.2,1.1-7.4c1.2-0.7,1-3.8,1.2-5.1c1.6-0.5,3-1,3.8-1.3
				c-0.1-1.7-0.2-3.3-0.3-4.9c-0.1-3.5,1.2-7.6-4.2-8.5c0,0,0.2-1,0.1-1.5c-0.3-0.8-1-2.1-1.1-2.1c-4.6,2-2.8-2.1-3.8-3.7
				c-2.3-3.7-4.8-7.3-7.4-10.8c-2.5-3.4-5.2-6.8-7.8-10.1c-0.1-0.1-0.1-0.4-0.1-0.3c-6.4,1.6-6.8-5.1-10-7.7
				c-9.1-7.3-15.7-16.8-16.6-29.1c-0.2-2.3,0.8-4.7,0.6-7c-0.2-1.9-1.1-4.9-2.4-5.3c-3-0.9-1.7-2.2-1.5-4c0.4-4.8-1.6-10.1,3.5-13.7
				c0.4-0.3,0.6-0.8,0.8-1.2c0.9-3,1.5-6.1,2.5-9.1c1.8-5.3,4-10.4,5.6-15.8c3-9.9,6-19.8,8.6-29.8c1.2-4.6,1.9-9.5,1.9-14.3
				c0.1-4.5-6.1-8.4-11.9-8.2c-0.3-1.3-0.7-2.7-1.2-5c-1.2,1.7-2,2.9-3.2,4.7c-1.9-1.7-3.9-3.4-5.7-5.4c-0.3-0.4,0.2-2,0.8-2.6
				c7.5-7.8,14.1-17.1,23-22.9c7.5-4.9,16-9.8,26-10.3c6.9-0.4,13.6-3.2,20.5-4.6c21.4-4.5,40.7-14.6,60.6-23.1
				c11.4-4.9,23.4-8.7,35-13.2c15.7-6.1,31.1-5.3,46,2.3c10.3,5.3,18.1,13.4,24,23.4c6.1,10.3,10.9,21.3,12.5,33.1
				c3.7,27.4-2.3,49.6-34.8,63.2c-5.1,2.1-10.5,3.5-15.6,5.5c-2.8,1.1-5.2,2.2-5.6,6.4c-0.4,4.1-2.9,8.2-5.1,12
				c-3.2,5.5-7.3,10.4-10.5,15.9c-1.3,2.2-1.9,5.2-2,7.9c-0.2,14.3-4.2,27.4-12.1,39.3c-2.1,3.1-4.3,6.1-6.5,9.2
				c-0.5,0.7-1.2,1.3-1.4,2c-2.4,7.5-4,15.4-7.3,22.5c-2.8,6-5.2,12.5-11.3,16.8c-3.1,2.2-4.6,6.6-7.1,9.9c-1.9,2.5-4,4.8-6.4,6.9
				c-10.1,9-21.7,6.7-34.1,4.3c-3.1,4.6-5.9,10.3-10.1,14.7c-6.3,6.8-5.8,15.5-7.7,23.5c-0.3,1.3,0.6,3.1,1.3,4.5
				c2.6,5,5.9,9.8,7.9,15.1c1.2,3.3,0.6,7.2,0.8,10.9c0.1,1.5,0.5,2.9,0.5,4.3c0.1,1.5-0.1,3-0.2,4.4c-0.4,0-0.9,0.1-1.3,0.1
				c-2.9-10.9-5.7-21.8-8.6-32.7c-0.5-0.1-1-0.2-1.5-0.3c-1.3,4.8-3,9.6-3.9,14.5c-1.4,7.4-3.9,9.9-11.5,9.7
				c-14.6-0.3-29-2.3-42.4-8.9c1.8,0.2,3.6,0.4,6.1,0.7c-0.6-3.3-1.2-6.5-1.9-10.1c5.2-2.2,1.2-6.8,1.2-10.8c0-3.9,0.4-7.8,1.1-11.6
				c0.2-1,2.3-1.6,3.9-2.6c1.6,3.9,3,7.4,4.5,11c5.8-0.7,7.1-5.2,7.2-9.8c3.5-0.3,6.6-0.6,9.7-1c0.1,0,0-1.6,0-2.7
				c1-0.6,2.5-1.5,4.3-2.6c-1.4-1.1-2.6-1.9-4.5-3.3c2.3-0.1,3.8-0.2,5.3-0.3c0.5,2,0.9,4.1,1.4,6.4c1.9,0.4,5,2.1,6.8,1.3
				c4.7-2.2,8.9-5.5,9.2-11.6c0.1-1.2,0.9-2.3,1-2.8c-1.7-2-3.1-3.8-4.5-5.6c-1.3-1.6-2.6-3.3-3.6-4.6c-5.7,3.6-8.6,7.8-7.3,14.2
				C398,302.7,395.7,303.9,394.5,304.9z M375.3,180.3c-1.7,1.1-3.2,2.8-5,3.3c-2.6,0.8-5.5,0.7-8.3,1.1c0.5,1.5,0.9,2.6,1.7,4.6
				c-3.4-1-6-1.8-7.5-2.2c-2.3,0.5-3.7,0.8-5.5,1.3c1.4,0.8,2.5,1.4,3.9,2.2c-1.4,0.9-2.6,1.7-4,2.7c4,1.2,7.8,3.2,9.7-2.3
				c2,0.5,3.8,0.9,5.6,1.2c-2.2,1.1-4.2,2.2-6.3,3.3c8.3-0.3,8.9-0.6,10.5-5.5c-0.8-0.2-1.6-0.4-2.4-0.6c0-0.2,0.1-0.4,0.1-0.6
				c1.8,0,3.6,0,6.4,0C371.6,185.2,377.9,184,375.3,180.3c1-1.5,2.1-3.1,3.2-4.6c0.4,0.3,0.8,0.5,1.2,0.8c-1.1,1.3-2.2,2.6-3.2,3.9
				c0.5,0.5,1.1,1,1.6,1.5c2.6-2.7,5.3-5.3,7.4-7.4c0-0.1,0.2,1.2,0.5,3c-0.6,0.9-1.8,2.6-2.9,4.3c0.3,0.2,0.5,0.4,0.8,0.6
				c1.2-0.5,2.3-1,4.6-2.1c-1.4,2.1-2,3-3.4,5.3c2.4-1.3,3.4-1.8,4.4-2.4c0.2,0.2,0.4,0.4,0.6,0.6c-2.3,2.5-4.6,5-6.5,7.1
				c2.5,0.4,5.2,0.9,6.6,1.1c1.9-1.5,3.2-2.5,4.5-3.6c0.2,0.3,0.4,0.5,0.5,0.8c-1.5,4-2.9,7.9-4.5,12.2c5.2-3.5,10.1-6.8,15-10.1
				c0.2,0.2,0.3,0.4,0.5,0.7c-1.1,2.1-2.1,4.2-3.1,6.1c2.8-0.4,5.1-0.7,7.8-1c-0.3,1.8-0.6,3-0.8,4.2c0.2,0,0.4,0.1,0.6,0.1
				c0.9-1.5,1.8-2.9,2.6-4.3c1,0.4,1.9,0.8,2.6,1.1c-1.5,1.4-2.8,2.6-4.6,4.2c1.8,0.3,2.9,0.5,4.2,0.7c-0.9,1.2-1.7,2.2-2.5,3.3
				c0.4,0.3,0.7,0.6,1.1,0.9c8.5-12.3,16.7-24.9,30.9-31.5c0.4,1.3,0.4,3.6,1.5,5.2c3.8,5.3,13.5,6.6,19.5,3.2
				c3.2-1.8,6.7-3.7,10.3-4c3.4-0.2,6.8,1.7,10.3,2.5c4.8,1.1,14-2.9,15.7-7.3c3.4-8.5,5-17.3,2-26.3c-2.1-6.3-4.6-12.1-2-19.2
				c1.5-4.3,0.1-9.6,0.5-14.4c0.3-3.4,1.7-6.7,2.4-10.1c0.2-0.7-0.1-1.7-0.6-2.4c-1.8-2.5-3.6-5-5.6-7.4c-3.1-3.6-6.3-7.1-9.6-10.9
				c-0.3,0.3-1.5,1.2-3,2.5c-6.5-5.4-13-10.7-19.4-16c-0.2,0.8-0.5,1.5-0.5,1.7c-7.2-0.6-14.1-1.2-21-1.8c0-0.3,0.1-0.5,0.1-0.8
				c2.1-0.6,4.1-1.3,6.2-1.9c-0.1-0.3-0.3-0.7-0.4-1c-1.6,0.5-3.3,1.1-5.1,1.6c0-1.4-0.1-3,0-3c7.6-1,15.3-1.9,23.1-2.8
				c-1.5-0.5-3.1-1.4-4.8-1.5c-6.6-0.5-13.3-2.5-17-7.6c-3.4-4.6-6.4-4.6-10.7-3.6c-8.5,2-17,4-25.2,5.9c-0.3,0.8-0.6,1.9-1.2,2.9
				c-1.5,2.4-3.1,4.7-4.7,7c-1.1,1.5-2,3.6-3.5,4.3c-1.4,0.7-3.5,0.2-5.9,0.2c-2.7,10.1-5.5,20.7-8.3,31.3c-0.3,0-0.6-0.1-0.9-0.1
				c-0.2-0.9-0.5-1.9-0.8-3c-3.8,5.7-3.3,13.6-9.8,17.5c-0.5,0.3-0.5,1.7-0.5,2.7c0,2.2,0.4,4.4,0.1,6.6c-0.6,3.6-1.7,7.2-2.3,10.8
				c-0.3,1.9,0.2,3.9,0.3,5.9c0.4-0.1,1.2-0.4,1.7-0.6c-0.6,2.3-1.7,4.6-1.6,6.9c0,0.7,3,1.4,3.4,1.6c-1.4,2.5-2.5,4.6-3.6,6.6
				c1.6,0.6,2.7,1,3.3,1.2c-3.6,3.1-4.2,6.8-5.3,10.9c3.6-2.5,6.6-4.7,10.1-7.2c0.7,9.9-7.1,12.3-11.4,17.4c1,0.3,1.8-0.2,2.4,0
				C373.8,179.3,374.5,179.9,375.3,180.3z M435.3,238.7c5,0.3,9.9,0.5,15,0.8c-0.6-1.1-1.1-2.1-1.7-3.2c1.6-0.3,2.7-0.5,3.9-0.6
				c0.2,1,0.4,2,0.7,3.2c1.6-0.6,2.9-1,4.4-1.6c-1.4-4.4-2.7-8.5-4.1-12.8c-1.7,0.9-2.5,1.4-4,2.2c0.6-2,1.3-3.3,1.2-4.5
				c-0.2-5.5,3.4-5.8,7.3-5.4c3.8,0.4,7.6,1,10.6,1.5c-1-2.1-2.1-4.4-3.3-6.7c-0.7-1.3-2.1-3.7-2.5-3.6c-3.9,1.1-5-6.3-9.9-2.9
				c-1,0.7-4.5-2.8-7.1-3.7c-1.9-0.7-4.5-1.1-6.2-0.3c-2.5,1.3-4.5,3.8-6.8,5.6c-2.2,1.7-4.3,3.2-1.6,6.3c0.4,0.4-1,2.1-1,3.1
				c0.1,1.7,0.8,3.4,1.3,5.5c-1.3,0.5-3.7,1.5-7.5,2.9c3.2,0,4.9,0,6.2,0c0,2,0,4,0,6.1c1.2,0.1,2.5,0.2,3,0.3
				c-1.6,2-3.5,4.2-6.2,7.4c3.5-1.5,5.7-2.5,8.6-3.8C435.5,236.1,435.4,237.1,435.3,238.7z M590.1,76.3c-0.6,3.7-1.1,6.8-1.6,9.9
				c0.3,0.1,1.1,0.4,2.7,0.8c2.1-19.9-3.2-37.7-13.8-54.4c-1.3,2.4-2.4,4.3-3.5,6.4c-2.1-0.9-3.9-1.6-4.9-2
				c-1.2,1.9-2.2,3.4-3.2,4.8c0.1,0.5,0.3,0.9,0.4,1.4c1.8-0.4,3.5-0.8,5.5-1.2c1.8,3.2,4,7.1,6.1,11c0.7,1.6,1.4,3.1,2.3,4.6
				c0.9,1.5,1.7,3.2,3,4.4c3.6,3.5,2.7,8.1,3.3,12.4C586.7,76.6,586.3,78.7,590.1,76.3z M472.4,202.9c-0.8-0.3-1.5-0.7-2.3-1
				c-3.7-1.8-7.8-3.1-11.1-5.5c-5.4-3.9-10.7-5.4-16.9-2.3C444.8,200.1,460.9,205.6,472.4,202.9z M408.7,220.8
				c0.2,0.2,0.3,0.5,0.5,0.7c2.3-1.1,4.6-2.2,7-3.4c-1.8-2-4.3-1.9-9.1,0.3c1.1,0.3,2.1,0.5,3,0.7
				C409.6,219.7,409.2,220.2,408.7,220.8z M473.7,64.5c-0.4,0.4-0.8,0.8-1.2,1.3c3.4,2.5,6.7,4.9,10.1,7.4c0.4-0.5,0.8-1.1,1.2-1.6
				C480.4,69.2,477.1,66.9,473.7,64.5z"/>
			<path d="M510.4,581.4c0.3-15.7-4.7-29.4-14.2-41.8c-3.7-4.8-7.1-9.8-10.4-14.8c-2.8-4.4-5.3-9-7.8-13.6c-0.7-1.2-0.9-2.7-0.7-4.6
				c5.1,10.2,14,12.6,25,13c-1.6-5.4-3-10.1-4.5-15.2c-0.5-0.1-1.8-0.5-1.9-0.6c0.4-3.2,0.6-5.5,1-7.8c0.9-5.7,2-11.4,3.8-16.9
				c1.1,5.2,2.2,10.5,3.3,15.7c0.2,0,0.4,0,0.6,0c1.2-7.1,2.4-14.1,3.6-21.2c0.3,0,0.5,0.1,0.8,0.1c-0.7,9.6-1.4,19.1-2,28
				c6.4-2.8,12.7-5.6,18.9-8.4c0.1,0.3,0.3,0.6,0.4,0.8c-2.5,1.5-4.9,3.1-7.5,4.4c-4,2.1-3.7,4.4-1,8.3c1.7,2.5,1.6,6.4,2,9.8
				c0.5,5.2,0.4,10.5,1.2,15.6c0.7,4.3,3.3,8.6,3.3,12.8c0,5.4,1.6,9.9,3,14.8c0.4,1.3-0.3,2.3,1.2,4.2c2.2,2.8,2.7,7.1,3.2,10.9
				c0.4,3.5,0,6.9,2.6,10c1.3,1.5,1.6,4.4,1.3,6.5c-0.8,6.3,2.5,11.5,6.1,15c4.2,4,4.3,10.8,11,13.2c2.8,1,4,6.3,6,9.8
				c1.1,0.1,2.6,0.3,4.1,0.5c0,0.4-0.1,0.9-0.1,1.3c-0.9,0.1-1.8,0.1-3.4,0.2c1.7,1.8,1.7,4.7,5.3,3.8c0.5-0.1,1.6,1.5,2.2,2.5
				c2.3,3.3,4.3,6.8,6.7,10.1c2.3,3.1,13.5,2.7,15.1-1c2.6-6.1,7.8-6.3,13-7.3c0-1.5,0-2.9,0-4.4c2.4,0.4,4.8,0.7,6.2,0.9
				c4.3-5.4,8.1-10.3,12-15.2c0.2-0.3,0.7-0.6,1-0.6c8,2.5,4.8-3.6,5.3-7.5c1,0.9,1.8,1.5,2.5,2.2c0.8,0.8,1.4,1.8,2.5,3.2
				c0.3-6.5,6.2-4.2,9.1-6.7c1.2-1.1,2.7-1.9,4.2-2.6c1.3-0.6,2.7-0.9,4.8-1.5c7.9-6.1,18.3-10.7,25.5-19.2
				c-1.8-1.4-3.2-2.5-4.6-3.5c0.2-0.3,0.5-0.6,0.7-1c1,0.7,2.1,1.3,3.3,2.1c0.7-1.4,1.3-2.6,2.1-4.3c1.1,0.8,2,1.4,3.2,2.3
				c1.4-1.7,2.9-3.4,4.3-5.1c0.5,0.2,1.4,0.6,1.8,0.8c1-2,1.3-4.1,2.6-5.3c2.5-2.2,5.7-3.7,6.1-7.7c0-0.3,1.8-0.8,2.3-0.5
				c0.8,0.5,1.2,1.6,1.7,2.5c0.8-1.3,1.6-2.6,2.7-4.3c0.9,0.2,2.4,0.6,5.2,1.3c0.6-2.5,1.5-6.3,2.1-8.9c3.8-1.2,7.2-2.3,10.6-3.3
				c-1.3-5.1,2.7-6.8,5.8-8.5c2.5-1.4,5.7-1.6,8.7-2.4c0.3,0.3,0.7,0.7,1,1c1.6-3.1,2.4-7.3,4.9-9c4-2.7,5.8-8.1,11.3-9.1
				c1.8-0.3,3.3-2.6,5.2-4.1c-1.8-2.6-0.1-3.6,3.1-3.7c-2.4-7.3,5.9-4.7,7.5-8.8c-1.2,0.1-2.2,0.3-3.2,0.4c-0.1-0.3-0.3-0.5-0.4-0.8
				c2.5-1.6,5.1-3.2,8-5c-1-0.5-1.7-0.8-2.8-1.3c1.3-0.7,2.3-1.3,3.1-1.7c-2-7.6,5.3-5.4,8.6-7.6c-0.6-1.4-1.2-2.8-1.3-2.9
				c2.8-2.1,5.1-3.7,7.2-5.5c2.7-2.3,5.3-4.7,7.3-7.9c-1.5,0.3-3,0.6-4.5,0.8c-0.3-0.4-0.6-0.8-0.9-1.1c4.6-3.7,8.9-7.9,13.9-11
				c5.1-3.2,10.9-5.5,15.7-7.9c0,0-0.5,1.3-1.1,2.8c3.2-1,6.1-1.9,9-2.8c0.1,0.2,0.2,0.5,0.2,0.7c-1,0.7-2,1.3-3.5,2.3
				c1,0.1,1.6,0.3,1.9,0.1c3.5-2.3,6.8-4.9,10.5-7c2.5-1.4,5.5-2.1,8.4-3.1c0.6,2.4,0.7,4.3,1.5,5.8c1,1.9,1.8,4.4,5.3,2.9
				c1.9-0.8,4.5-0.1,7.3-0.1c3.6-4.3,5.3-4,15.9-0.1c3.5,1.3,7.5,1,11.3,1.4c5.9,0.6,11.8,0.9,17.5,1.8c1.7,0.3,3,2.5,4.2,3.5
				c7.7-0.9,15.5-1.8,23.9-2.7c2.1,4.8,6.4,8.3,13.2,7.9c0.5,0,1.2-0.1,1.5,0.2c5.6,5.7,12.1,2.5,18.4,2c7.3-0.6,14.9-1.8,21.9-0.5
				c5.4,1,9.6-1.2,14.4-1.7c1.5-0.2,2.9-1.6,5.2-3c-3.4-2-5.8-3.4-8.3-4.8c0.1-0.3,0.2-0.5,0.3-0.8c6.5,0.6,13,1.2,20,1.8
				c-1-2.1-1.7-3.4-2.3-4.7c4,1.1,5.4,3.6,4.2,6.9c-1.7,4.7-5.6,5.8-12.5,3.8c-1.8,7.8-1.9,7.5-10.2,7.9
				c-12.8,0.7-25.6,2.8-38.4,2.6c-9.7-0.1-19.3-2.8-29-4.1c-2.9-0.4-6.3-1.3-8.9-0.4c-14.4,5.3-28.5,2.5-42.8-0.3
				c-9.3-1.9-18.8-3.7-28.2-3.6c-15.6,0.1-28.5,6.9-38.4,19.3c-2.6,3.3-6.6,5.4-9.3,8.6c-4.7,5.5-8.8,11.5-13.4,17.1
				c-1.7,2.1-4.4,3.3-6.6,5c0.9,3.3,1.2,6-3.7,5.7c-1.2-0.1-2.8,1.6-3.7,2.9c-2.5,3.6-4.6,7.6-7.1,11.2c-1.4,1.9-4.7,2.4-4.5,5.8
				c0,0.1-2.3,0-2.9,0.6c-1.3,1.3-3.2,3.3-2.9,4.6c0.7,3.3-0.1,5-3.1,6.2c-1.2,0.5-2,1.6-3.3,2.7c0-1.1,0.1-1.9,0.1-2.6
				c-0.3,0-0.5-0.1-0.8-0.1c-0.2,0.7-0.8,1.6-0.5,2c1.5,2.8-0.2,4.3-1.7,6.3c-4.9,6.3-9.6,12.8-14.2,19.2c-1.7,2.4-2.7,5.1-6.5,5.9
				c-1.8,0.4-2.9,4.4-4.3,6.7c-2.6,4.1-5.8,7.5-10.3,10c-3.2,1.8-5.3,5.7-8.3,9.1c-1.2,0.1-3.3,0.2-5.6,0.3c0.8,5-4.1,5.4-6.9,7.6
				c-8.8,7.2-17.7,14.3-26.5,21.5c-4.9,4-9.2,8.7-14.4,12.3c-2.8,2-6.8,2.3-10.5,3.4c2.1,4-2.5,2.2-4,3.1c-5.9,3.3-11.6,7.2-18,9.2
				c-4.1,1.2-9.5,0.4-13.5-1.3c-7.5-3.2-14-9.2-21.6-11.1c-7.7-2-11.5-7.6-16.9-11.9c-4.2-3.3-9-5.8-13.4-8.7
				c-2.6-1.8-5.1-3.8-7.6-5.7c-0.5-1.2-0.8-3-1.8-4c-5.3-5.1-11.4-9.5-16-15.1c-2-2.4-7.3-3.4-5.5-8.6c0.3-0.8-1.5-2.2-2.8-4
				c-1.9,8.2-0.3,15.5,0.9,22.7c1,6.1,2.4,12.1,3.5,18.3c1.3,7.9-2.8,13.9-7.3,19.6c-2.7,3.4-5.6,6.5-8.4,9.7
				c1.3,6.7,6.3,13.2,0.8,20.5c-0.8-1-1.7-2-2.9-3.3c-5.5,5.9-14.5,6.9-18.2,15c-0.3,0.7-5.2-0.7-8.5-1.2c-9.3,4-19.5,8.8-30.2,12.6
				c-4,1.4-9.1,0.6-13.5-0.1c-10.9-1.7-22-3.2-32.7-6.1c-16.4-4.5-31.2-12.2-43.9-23.9c-9.8-9.1-20.1-17.7-27.1-29.3
				c-5.7-9.5-10.9-19.3-16.2-29c-0.8-1.4-1.1-3.1-1.6-4.7c0.5-0.2,0.9-0.4,1.4-0.6c1.4,3,2.8,6,4.3,8.9c9.2,17.7,19.8,34.3,34.6,48
				c17.9,16.6,38.5,27.1,62.7,30.9c7.9,1.2,15.6,4.4,23.5,4.4c6.5,0.1,13.2-2.7,19.7-4.8c4.1-1.3,7.8-4,11.9-5.6
				c6.8-2.7,8.1-6.2,4.1-12.5c-0.3-0.5-0.2-1.2-0.4-2.2c1.1,0,2.1,0,4,0c-2.7-3.4-4.8-6-6.9-8.7c-0.3,0.2-0.6,0.3-0.9,0.5
				c0.2,1.1,0.4,2.2,0.6,3.4c-0.5,0.1-1.1,0.3-1.1,0.2c-0.5-1.8-1-3.6-1.4-5.4c1-0.2,2.6-0.9,2.9-0.5c3,3.7,8.7,5.6,7.8,13.1
				c3.2-1.4,6-1.9,7.8-3.5c4.8-4.3,8.9-8.9,10.5-15.7c1.6-6.5,4.5-12.8,6.8-19.1c-0.6,0.2-1.2,0.4-1.8,0.6c-1.7-2.2-4.1-4.3-4.9-6.8
				c-0.9-2.8-0.2-6-0.2-10.1c2,2.5,3.6,4.4,5.7,7.1c0-3.1,0-4.9,0-7.6c-0.7,1.4-0.9,2-1.4,3.1c-1.8-3.9-7.2-6.4-2.8-11.6
				c-3.3-4.7,0.1-9,0.9-13.4c0.1-0.4,1-0.7,1.5-1.1c-1.6,5.4,4.2,6.5,5.9,9.8c-0.7,1.7-1.3,3.3-1.9,4.8c0.5,0.2,1,0.4,1.6,0.6
				c2.1-4.5,4.3-9.1,6.4-13.6c-3,1.8-5.4,5-8.2-0.1c-0.5-0.9-2.5-0.9-3.9-1.4c0.7-3.7,1.9-5.4,5.8-2.4c1.3,1,4.1,0.2,6.4-1
				c-1.1-0.5-2.9-0.6-3.3-1.4c-3.1-7.6-3.1-7.6-1.3-11c1.5,0.3,3.1,0.6,4.8,0.9c-0.2-2.3,2.4-5.1-2-5.5c0.2-1.7,0.6-3.5,0.5-5.2
				c-0.3-3.3-0.8-6.6-1.2-10L510.4,581.4z M505.5,545c-0.6-4.9-1-10.8-2.2-16.5c-0.3-1.5-2.7-3.1-4.5-3.6c-3.5-1-7.2-1.2-11.2-1.7
				C493.8,530.7,499.7,538,505.5,545z M503.9,662.4c-2.8,7.4-5.2,13.9-7.6,20.4c4.6-5,8.2-10.4,11.7-15.9c0.4-0.7-0.2-2-0.4-3
				c0-0.2-0.4-0.3-0.5-0.3c-0.7,0.7-1.3,1.4-2,2.2C504.8,664.8,504.6,664.2,503.9,662.4z"/>
			<path d="M174.4,529.1c1.4-2.3,3.1-4.4,4.2-6.9c2.3-5.1,4.4-10.3,6.5-15.6c0.1-0.3-1-1.1-1.5-1.7c-0.7-0.8-1.8-1.6-1.8-2.4
				c0-8.5,0.5-17-3.9-24.8c-0.2-0.3,0.8-1.2,1.5-2.2c1.1,2.1,2.2,3.7,3,5.5c1.3,3,2.8,5.8,4.5,8.5c3.5,5.6,4.2,13.1,2.3,20.2
				c-0.5,1.9-0.5,3.9-0.9,6.8c4.3-5.5,5.2-38.5,3.8-46.8c-2.7-15.3-6.2-30.4-8.7-45.9c2.9,10,5.8,20,8.7,30.1
				c0.1,0.1,0.3,0.2,0.4,0.2c-0.3-4.4-0.2-8.9-1-13.3c-0.9-4.6-2.6-8.9-4-13.4c0.4-0.2,0.9-0.4,1.3-0.6c2.3,4.9,5,9.6,6.6,14.6
				c1.7,5.1,2.5,10.5,3.5,15.8c1.3,6.7,2.4,13.4,3.7,20.1c0.5,2.4-0.8,5.9,3.4,6.3c0.2,0,0.5,1.1,0.5,1.8c0.1,4.9-1.8,10.1,1.7,14.6
				c-3.4,6,1.3,11.9,0.4,17.9c-0.1,1,1,2.1,1.7,3.6c-3.5,5.4-4.2,11.4,2.2,18c-3.1-0.5-5-1.2-6.8-1c-1.2,0.1-2.8,1.4-3.2,2.5
				c-1.7,5.1-2.6,10.4-4.7,15.3c-0.9,2.2-4.8,3-2.6,7.2c-3.6-2.6-3.6-2.6-3.7-14.5c-1.1,1.5-2.3,2.9-3.2,4.6
				c-3.2,6.2-6.1,12.6-9.5,18.7c-1.1,1.9-3.5,3.1-5.8,5c-0.4-3.3-0.9-7-1.4-10.8c1.4-1,3.1-2,4.5-3.2c2.4-2.1,1.3-4.1-0.2-6.2
				c-0.3-0.4,0.1-1.9,0.7-2.3c1.2-1,2.7-1.6,4.9-2.8c-2.1-1-3.1-1.4-4.3-2c5.3-4.1,0.1-5.5-2.1-6.3c-2.7-0.9-6-0.2-10.2-0.2
				c3.3-5.2,6.3-9.9,9.3-14.6C174.6,529,174.4,529.1,174.4,529.1z"/>
			<path d="M466.8,768c9.8-2.5,18.9-5.6,28.2-6.9c7.3-1.1,15-0.3,22.4,0.5c2.3,0.2,4.1,3.5,6.5,4.8c2.5,1.4,5.2,2.5,7.9,3.4
				c1.8,0.6,3.9,0.5,5.8,1.1c9,2.8,16.8-0.8,24.9-4.8c0.3-3.2,0.2-6.8,4.8-9.2c2.2-1.1,2.2-6.4,3.2-9.5c5.6,4.6,1.8,15.4-5.3,20.1
				c-6.2,4.1-13.3,7.1-21.2,6.4c-1.8-0.2-3.7,0-4.2,0c-2.4,4-4.4,7.3-6.4,10.6c-2.9,5-6.3,9.9-4.5,17.5c1.6-2.8,2.8-4.8,4.4-7.6
				c0.3,2.3,0.5,3.6,0.8,5.9c3.8-3.2,7.1-5.9,10.4-8.7c0.4,0.2,0.8,0.4,1.2,0.6c-2.2,4.7-4.3,9.4-6.5,14c6,3.2-1.2,6.9,0.4,10.2
				c-6.4,2.2-7.2-4.2-10.6-6.3c-2.5-1.6-3.6-5.3-5.3-7.9c-2.3,1.5-4.7,3.1-7,4.6c-1-1.6-1.6-3-2.5-4c-0.7-0.8-1.9-1.2-2.8-1.7
				c-0.2,1.1-0.3,2.2-0.5,3.3c-0.2,0.6-0.4,1.5-0.9,1.8c-3.9,2.2-7.9,1.2-11.9,0.5c-0.5-0.1-0.8-1.2-1.1-1.8
				c-1.4-3.6-4.6-7.5-4-10.7c2.1-10.3-7.6-12.7-11.7-18.5C478.5,771.8,472.1,770.6,466.8,768z M518.7,780.3c2.4-6.8,2.3-6.6,9.1-5.2
				c1.7,0.4,3.7-0.8,5.6-1.2c0-0.4,0-0.9,0-1.3c-7.6-1.6-15.1-3.6-22.8-4.7c-4.1-0.6-5.5,1.8-4.4,5.9c1,3.7,3,7.4,3.2,11.1
				c0.2,5.4,1.8,9.2,6.8,11c1.5-3.4,2.3-7.4,4.6-10.2C524,782,523.1,781,518.7,780.3z"/>
			<path d="M446.1,531.7c7.1,8.7,14.3,17.5,21.5,26.3c0.4-0.3,0.8-0.5,1.1-0.8c-0.6-1.4-1.8-2.9-1.8-4.3c0-1.9,0.9-3.9,1.4-5.8
				c1.9,0.6,4.3,0.6,5.7,1.8c5.7,5,11,10.3,17.1,15.2c-2-3.8-4.2-7.5-6.1-11.4c-0.7-1.3-0.7-3-1-4.5c1.3-0.2,2.6-0.4,3.9-0.6
				c0.1,0,0.4,0.2,0.4,0.2c6.4-5.6,8.3,1.9,10.8,4.5c3.3,3.4,5.4,8.1,7.2,12.5c0.7,1.8-0.8,4.6-1.3,6.9c-1.9-0.5-3.9-1.1-5.8-1.6
				c-0.7-0.2-1.5-0.5-2.2-0.7c-2.2,6.5-2.5,6.4-11.6-0.7c-1.7,2.4-3.1,6.4-5.3,6.9c-2.3,0.5-5.3-2.3-7.4-3.3c-0.4,1.8-1,4.2-1.6,6.6
				c-2.7-1.2-5.4-2.4-8.2-3.7c0.2-0.3,0-0.1-0.1,0.2c-0.7,2.4-1.4,4.8-2.1,7.2c-2.3-0.8-4.8-1.4-6.9-2.6c-2-1.1-3.6-2.9-5.2-4.6
				c-2.1-2.3-2.6-4.6,1.3-6.3c2.5,2.3,5.3,4.8,8.8,8c-0.9-6.9-4.2-11-8.1-14.8c-1.3-1.3-1.7-3.7-2.4-5.6c0.6-0.4,1.2-0.8,1.8-1.2
				c4.5,3.7,8.9,7.4,13.4,11.2c0.2-0.1,0.4-0.2,0.5-0.3c-2.9-4.7-5.5-9.6-8.7-14.2c-3.2-4.7-6.9-9.2-10.5-13.6
				C442.5,535.6,442,533.5,446.1,531.7z M471.3,562c2.4,2.2,5,4.6,7.5,7c0.5-0.4,1-0.7,1.5-1.1c-2.1-4.3-4.3-8.7-6.8-13.8
				C472.5,557.5,472,559.4,471.3,562z M500.9,563.6c0.4-0.3,0.8-0.7,1.2-1c-3-4.1-6-8.1-9.1-12.2c-0.5,0.4-1,0.8-1.6,1.2
				C494.6,555.6,497.8,559.6,500.9,563.6z"/>
			<path d="M424,603c-4.3-12.6-10.6-22.8-19.8-31.1c-2.6-2.4-3.9-4.9-0.3-8.9c3.2,3.4,6.5,6.5,9.3,9.9c8,9.7,13.5,20.4,13.5,33.3
				c0,4.9-1.8,6.2-5.5,3.1c-7-5.7-14.3-11.4-19.5-18.6c-8.9-12-17.4-24.6-24-38c-5.8-11.9-11.8-23.5-19.5-34.2
				c-0.7-1-0.4-2.8-0.5-4.2c1.3,0.2,2.9,0,3.8,0.7c7.4,5.9,14.6,12.2,22.2,17.9c5.2,3.9,10.8,7.2,16.3,10.8c1.7,1.1,3.4,2.3,5.1,3.5
				c-0.1,0.6-0.2,1.1-0.3,1.7c-1.4,0-3,0.3-4.3,0c-8.8-1.9-15.6-7.3-22-13.2c-1.3-1.2-2.4-2.8-3.6-4.2c-0.5,0.4-1.1,0.7-1.6,1.1
				c5.2,9.7,10.2,19.6,15.7,29.2c4.6,7.9,9.4,15.7,15,22.8c4.9,6.3,11.1,11.7,16.7,17.3C421.1,602.6,422.3,602.5,424,603z"/>
			<path d="M324.6,585.1c-2.5,5.2-8.1,3.3-13.4,3.8c1.1,0.8,1.9,1.8,2.4,1.7c7.5-2.3,12.1,3.4,17.6,6.4c1.1,0.6,1,3.2,1.5,4.9
				c-1.7,0.5-3.7,1.8-4.9,1.2c-8.1-3.7-16.1-7.6-23.8-12c-1.7-1-3.2-4.4-2.8-6.2c0.3-1.4,3.7-2.8,5.8-3c3.1-0.4,6.3,0.3,10.1-0.5
				c-3.1-2.3-6.1-4.6-9.8-7.4c0.2,2.2,0.6,3.3,0.3,4.3c-0.3,0.9-1.2,1.8-2.1,2.3c-0.3,0.2-1.5-0.8-2-1.4c-1.7-2.2-3.2-4.5-4.7-6.9
				c-1.9-3.1-0.8-5.5,2.8-5.5c7.4,0,12.9,4.2,18,8.8c2.5,2.3,3.5,5.9,8.5,4.6c2.2-0.6,5.3,2.3,9,4c-3.8-4-7.1-6.8-9.5-10.3
				c-1.1-1.6-0.4-4.5-0.6-6.9c2.3,0.2,5.5-0.5,6.9,0.7c5.8,5.1,11.4,10.7,16.5,16.5c1.3,1.5,2,5,1.2,6.8c-1.5,3.3-4.8,3.5-8.1,2.1
				C337.2,590.5,331,587.8,324.6,585.1z"/>
			<path d="M426.6,589.1c-0.7-2.7-1.8-7.1-2.9-11.4c0.4-0.2,0.7-0.4,1.1-0.6c1.1,0.7,2.2,1.5,3.3,2.2c0.5-0.1,1-0.3,1.4-0.4
				c-0.7-2.2-0.8-4.9-2.1-6.6c-6.4-8.8-9-18.5-8.9-29.3c9.8,2,18.1,13.6,17.8,22.9c-0.2,5.9,3.3,8.6,6.8,11.8
				c2.3,2.1,5.1,3.9,6.8,6.3c1.2,1.6,1.7,4.6,1,6.3c-0.5,1.3-3.4,2.3-5.3,2.3c-2.9,0.1-5.8-0.6-8.7-1.1
				C434,590.9,430.8,590.1,426.6,589.1z M420,551c3.1,4.9,6.2,9.9,9.2,14.8c0.4-0.3,0.8-0.5,1.3-0.8
				C429.1,557.5,425.9,552.6,420,551z M433.2,583.4c3.8,1.2,6.9,2.3,10.1,3.3c0.1-0.3,0.3-0.6,0.4-0.9c-2.7-2.4-5.3-4.8-8.3-7.5
				C434.6,580.1,434,581.4,433.2,583.4z"/>
			<path d="M399.6,605.2c-12.3,1.2-24.4,1.9-36.3,3.7c-15.8,2.3-31.5,5.4-47.2,8.2c-4,0.7-7.9,2-11.9,2.6c-2.1,0.3-4.4-0.5-6.5-1.4
				c5.1-5.3,11.8-6.2,18-7.3c14.6-2.7,29.3-4.8,43.9-7.1c11.1-1.7,22.3-3.3,33.4-5C396.9,598.2,399.5,600.2,399.6,605.2z"/>
			<path d="M510.3,581.3c-1.6,6.7-2.8,13.6-5.1,20.1c-1.8,5.2-5.6,9.8-7.2,15c-1.9,6.2-3.4,12.8-3.1,19.2
				c0.4,10.1-4.3,17.5-10.7,23.9c-7.8,7.8-16.1,15.2-24.9,21.8c-6.1,4.5-13.3,7.5-20.3,10.5c-1.9,0.8-4.9-1.7-7.5-1.9
				c-11.3-1.1-22.1-3.9-32.2-9.2c-19-10-35.6-23.1-47.9-40.9c-5-7.3-8.7-15.5-12.9-23.3c0.4-0.3,0.8-0.6,1.2-1
				c0.9,0.8,2.1,1.5,2.5,2.5c8.1,19.4,20.8,35,37.6,47.6c11.1,8.3,22.7,15.3,36.1,19.2c6.7,1.9,13.5,3.4,20.3,4.9
				c0.8,0.2,1.9-0.4,2.8-0.7c11.3-3.4,21.2-9.3,29.6-17.7c5.6-5.6,11-11.4,16.8-16.7c7.1-6.4,8.7-14.7,8.1-23.5
				c-0.5-7.9,1.7-14.6,5.5-21.5c4.4-8.1,9-16.3,9.7-25.8c0.1-0.8,1.1-1.6,1.6-2.4C510.4,581.4,510.3,581.3,510.3,581.3z"/>
			<path d="M875,423.7c-2.5-7.3-11.8-9.9-11.2-20c2.3,3.1,3.8,5.2,5.3,7.2c5.1-2.4,6.2-6,4.2-10.9c0.4-0.1,0.9-0.1,1.3-0.2
				c2.6,4.7,5.1,9.3,8.2,15c0.9-7,4.9-8.8,10.3-9.1c1.3-0.1,2.4-1.8,3.6-2.6c1.7-1.1,3.5-2.1,5.3-3.1c1.2,2.1,3,4,3.3,6.3
				c1.2,6.8-4.6,10.9-12.1,13.4C887.5,421.6,881.2,422.4,875,423.7z"/>
			<path d="M586.2,526.2c-0.4,0.9-0.8,1.7-1.3,3c-0.6-0.7-1.1-1.2-1-1.4c3-6.3-1.7-11.7-2.4-17.5c-0.5-4.1-3.4-7.9-5.5-11.6
				c-1.1-1.9-2.7-3.6-3.5-5.8c10.3,9.4,15.8,21.7,21.4,34.1c2.1,4.7,5.1,9.1,7.9,13.4c3.9,5.9,8,11.6,12.1,17.4
				c0.5,0.8,1.6,1.1,3.8,2.5c-6.2,1.4-11.3,2.5-16.8,3.8c0.1-2.2,0.3-4.7,0.3-7.2c0-2,0.5-4.3-0.4-5.8c-0.5-0.8-3.4-0.2-5.2-0.1
				c-0.7,0-1.4,0.5-2.1,0.7c0.8-2,1.5-3.8,2.3-5.7c-2.8-0.2-1.8-2.6-2.4-4.1c-1.5-3.5-3.1-7-4.7-10.8c-0.1,0-0.8,0.4-1.8,0.9
				c0.2-2,0.3-3.8,0.5-5.7C586.9,526.3,586.5,526.2,586.2,526.2z"/>
			<path d="M355.3,575.8c2.7,3.7,5.5,7.4,8.1,11.3c1.3,1.9,4.1,4.2,1,6.1c-1.1,0.7-4.9-0.9-6-2.4c-4.2-6-8-12.3-11.5-18.7
				c-0.8-1.5-0.3-4.2,0.5-6c0.2-0.6,3.5-0.3,5,0.3c3,1.2,5.7,2.9,7.9,4.1c-0.2-2.2-1.5-5.9-0.5-6.7c3.3-2.8,5.8,0.8,7,3.1
				c4.3,7.6,8,15.5,11.7,23.4c0.3,0.5-0.6,1.6-1,2.5c-7.3-6-14.3-11.8-21.3-17.6C355.9,575.2,355.6,575.5,355.3,575.8z"/>
			<path d="M387.8,0.9c-6.9,5.2-13.7,10.5-20.6,15.6c-13.4,9.9-24.3,22-31.6,37.1c-3.2,6.6-6.7,13.1-10.1,19.6
				c-0.7,1.4-2,3.1-1.8,4.4c0.8,5.9-2.3,10.1-4.9,15c-4.9,9.3-6.7,19.4-4.4,30c1.3,5.7,2,11.5,3.1,17.2c0.6,3,1.8,5,4.9,7.1
				c2.7,1.8,3.2,7.4,4,11.4c0.6,3,0.1,6.3-0.3,9.5c-1.2-10-6.3-18.2-10.5-27c-2.9-5.9-2.6-13.3-4.1-19.9
				c-2.5-11.4,2.8-21.4,5.4-31.8c0.3-1.2,1.3-2.2,2.1-3.3c2.6-3.5,4.9-6.9,2.6-11.7c-0.6-1.3,0.5-4.6,1.7-5.2
				c3.4-1.8,4.1-4.8,5.7-7.8c4.8-9,9.7-18.3,16.1-26.1c7.2-8.7,15.9-16.2,24.4-23.6C374.9,7,381.2,3.8,386.9,0
				C387.2,0.3,387.5,0.6,387.8,0.9z"/>
			<path d="M497.3,584.8c0.8,0,1.7-0.2,2.5,0c1.6,0.4,3.2,0.9,4.8,1.4c-1.4,1.2-2.6,3.1-4.2,3.4c-16.3,3.5-32.7,6.9-49.1,10.1
				c-4.5,0.9-9.2,0.9-13.8,1c-0.9,0-1.9-1.7-2.8-2.6c1.1-0.8,2.1-2,3.2-2.2c13.2-2.9,26.3-5.8,39.5-8.4c6.5-1.3,13.2-2.1,19.8-3.2
				C497.3,584.4,497.3,584.6,497.3,584.8z"/>
			<path d="M448.7,664.7c-1.2,0.3-2.4,0.6-3.7,1c-1.9-3,9.1-7.5-1.5-8.8c1.5-1.6,2.5-2.7,4-4.3c-2.1-0.5-3.4-0.9-6.3-1.6
				c3-1.2,4.7-1.8,7.2-2.8c1,6,1.9,11.3,2.8,16.5c3.3-0.8,4-3.3,3.5-6.6c-0.2-1.3,0.1-2.7-0.1-4c-0.9-5.3,1-8.2,6.9-7.8
				c0,4.1,0,8.2,0,12.8c6.7-1.2,13.1-2.3,20-3.4c-0.2,0.6-0.3,2.2-1,2.6c-4.6,2.5-8.1,7-14.6,6.1c-3.1-0.4-6.7,2.1-9.8,3.8
				c-2.7,1.5-4.9,3.8-6.9,5.3c-2.4-1.6-4.3-2.8-6.3-4.1c2.1-1.2,4.3-2.5,6.6-3.8C449.3,665.3,449,665,448.7,664.7z"/>
			<path d="M374.5,559.1c5.9,7.3,12.2,14.4,17.7,22c2.4,3.4,2.3,7.9-0.2,12.1c-2.2,3.6-4.7,3.4-7.1,1.1c-2.2-2.1-4.3-4.7-5.5-7.4
				c-2.8-6.5-5.4-13.2-7.5-20c-0.7-2.1,0.3-4.7,0.5-7.1C373.1,559.5,373.8,559.3,374.5,559.1z M386.6,588.8c0.8-6.4-2.7-10-7.1-13
				c-0.4,0.3-0.8,0.6-1.3,0.9C381,580.7,383.8,584.8,386.6,588.8z"/>
			<path d="M465.2,474.5c-6.7-6.7-15.7-8-24.1-10.8c-9.1-3-18.5-4.9-28.1-4c-5.7,0.6-11.3,2.2-16.8,4.1c-17.4,6-32.1,16.1-41.8,31.9
				c-8.9,14.5-14.1,30.7-17.8,47.4c-0.9,3.9-1.7,7.7-2.6,11.6c-0.5-0.1-1-0.2-1.4-0.2c0.7-3.8,1.1-7.6,2-11.3
				c4.1-17.4,9.5-34.4,18.9-49.6c9.9-16,25.1-25.5,42.5-31.8c4.4-1.6,8.8-3.7,13.4-4.2c5.4-0.6,11.3-0.6,16.6,0.6
				c11,2.7,21.9,6.2,32.6,9.8c2.7,0.9,4.9,3.6,7.3,5.5C465.8,473.8,465.5,474.2,465.2,474.5z"/>
			<path d="M300.3,551.1c1.2-6.2,1.9-12.6,3.6-18.6c4.4-15.7,9.1-31.2,16.6-45.8c11.2-21.8,27.1-38.5,49.5-48.5
				c3-1.4,6.6-1.7,9.9-2.3c5.2-0.9,10.5-1.7,16-1.8c-5,1.2-10,3.6-14.9,3.5c-6.8-0.1-12.3,2.7-17.4,6c-8,5.2-16.2,10.5-23,17.2
				c-5.7,5.6-9.8,13-14.3,19.8c-12.9,19.6-18,42.1-23.7,64.4c-0.5,2.1-0.4,4.3-0.6,6.5C301.5,551.2,300.9,551.1,300.3,551.1z"/>
			<path d="M169.8,298.7c8.6-4.3,16.6-7.1,25.3-5.9c12.4,1.7,22.3-5.1,33.1-9c2.9-1,5.7-2.2,9.1-2.4c-1.1,0.8-2.1,2-3.4,2.5
				c-9.6,4-19.1,8.3-28.9,11.6c-4.4,1.5-9.5,0.8-14.2,1.2C184.1,297.4,177.5,298,169.8,298.7z"/>
			<path d="M366,665.6c5,2,3.8,4.7,2.2,7.8c1.4-1.2,2.8-2.4,4.5-3.8c1,0.9,2.1,1.8,3.2,2.8c-3.3,5.1-6.5,10-9.8,15
				c-1.8-2-3.7-4-5.8-6.4c0.3,0-0.6,0.1-1.5,0.2c-0.1-1-0.6-2.2-0.2-2.9C360.9,674.1,363.4,670,366,665.6z"/>
			<path d="M344.2,110.4c-0.4,1.8-0.9,3.8-1.7,7c-0.6-2.1-0.9-3.2-1-3.4c-3.6,2.5-6.1,4.3-8.7,6.2c-3.2,2.3-2.8,7.6,0.7,9.6
				c-5,1.7-8.9-6-6.4-12.8c0.8-2.1,2-4.1,3.2-6.6C334.5,110.4,339.1,110.4,344.2,110.4z"/>
			<path d="M376.9,695.8c-1.5-2.6-3.9-5-3.5-6.8c0.9-3.6,2.9-7.2,5.2-10.2c0.8-1.1,4.2-1.2,5.7-0.4c1.1,0.5,1.8,3.6,1.3,5
				c-1,3-2.9,5.8-4.6,8.5C380.2,693.1,378.9,693.9,376.9,695.8z"/>
			<path d="M338.7,639.7c2.9,0,4.9,0,6.8,0c0.1,0.4,0.2,0.9,0.4,1.3c-3.9,3.2-7.7,6.4-11.6,9.4c-0.4,0.3-1.9-0.8-3.4-1.4
				c2.1-1.6,3.3-2.5,4.6-3.5c-0.1-0.2-0.2-0.4-0.3-0.6c-1.5,0.6-3.1,1.2-4.6,1.9c-2.6-2.2-1.9-4,0.6-5.7c2.4-1.7,4.6-3.6,7.1-5.1
				c1.1-0.7,2.5-0.8,3.7-1.2c-0.5,1.3-0.9,2.6-1.5,3.9C340.2,638.8,339.6,639,338.7,639.7z"/>
			<path d="M724.5,486.7c3.4-3.1,6.7-6.3,10.1-9.4c3-2.7,6-5.2,9.1-7.8c5.7-4.8,11.4-9.6,17-14.4c1.1-1,1.9-2.3,3.9-2.9
				c-0.4,1.1-0.6,2.6-1.4,3.3c-10.8,9.3-21.8,18.5-32.6,27.9c-1.7,1.4-2.7,3.7-4,5.6C726,488.2,725.3,487.5,724.5,486.7z"/>
			<path d="M447.2,697.5c-0.2-3.5,1.7-4.5,4.6-4.8c2.8-0.2,3.7,1,3.9,3.7c0.2,2.4,1.9,4.7,1.7,7c-0.1,2.1-1.8,4.1-2.9,6.2
				c-1.5-1.3-3.5-2.4-4.4-4C448.9,703.2,448.2,700.3,447.2,697.5z"/>
			<path d="M205.2,470.3c-1.2-5.4-2.3-10.9-3.5-16.3c-1.3-6.2-2.7-12.3-3.9-18.5c-0.2-1.1-0.3-2.4,0-3.5c0.3-1.1,1.1-2.1,1.7-3.1
				c0.7,1.1,1.9,2.1,2.1,3.3c1.2,7.7,2.1,15.5,3.1,23.2c0.7,4.9,1.5,9.8,2.3,14.8C206.4,470.2,205.8,470.3,205.2,470.3z"/>
			<path d="M426.6,695.5c-0.3,1.8-0.7,3.6-1.1,5.9c0.7-0.6,0.9-0.6,1-0.8c1.4-2,0.8-6,4.6-5.3c0.5,0.1,0.3,4.8,0.1,7.4
				c-0.2,1.9-0.8,3.9-1.6,5.6c-0.5,1.1-1.9,1.9-2.8,2.8c-0.3-0.3-0.7-0.5-1-0.8c0.7-1.8,1.3-3.7,2.1-5.8c-0.7,0.2-1,0.2-1.1,0.3
				c-1.8,1.6-3.6,3.2-5.4,4.8c0.1-2.1,0-4.3,0.3-6.4c0.4-2.4,1.2-4.7,2-7c0.3-0.7,1.3-1.1,2-1.7C426,694.9,426.3,695.2,426.6,695.5z
				"/>
			<path d="M403.8,705.3c1.4-2.9,2.7-5.7,4.3-8.4c0.2-0.3,2.6,0.9,4.3,1.5c0.2-0.6,0.7-1.8,1.2-3c-0.5-0.2-0.7-0.5-1-0.5
				c-1.3-0.4-2.6-0.7-3.9-1c1.1-0.7,2.2-1.9,3.3-2c4.7-0.5,6.5,2,4.5,6.2c-0.3,0.6-0.7,1.1-0.9,1.7
				C412.3,707.1,412.3,707.1,403.8,705.3z"/>
			<path d="M324.9,529.4c1.7,0.5,2.9,0.9,4.6,1.5c-0.3-1.7-0.5-3.2-0.8-4.6c0.5-0.2,1-0.4,1.5-0.6c0.7,1.7,2.1,3.5,1.9,5
				c-0.5,2.8-2.4,4-5.5,2.7c-2.7-1.1-5.6-1.6-8.3-2.7c-2.6-1-4.1-2.5-2.8-5.9c1.3-3.7,3.5-2.6,5.7-1.8
				C324.2,523.9,328,524.7,324.9,529.4z"/>
			<path d="M334.1,518.2c-0.2-3.2-0.3-4.6-0.4-6c0.6,0,1.2-0.1,1.9-0.1c0.1,2.1,0.9,4.4,0.1,6.1c-0.5,1-3.5,1.3-5.2,0.9
				c-2.8-0.7-5.7-1.7-7.9-3.4c-1.4-1.1-1.7-3.7-2.5-5.6c2-0.5,4.2-1.8,5.9-1.3c2.4,0.7,6.5,1.2,4.1,5.9
				C329.8,514.9,332.1,516.4,334.1,518.2z"/>
			<path d="M315.9,537.2c4.4,1.1,7.7,1.5,10.6,2.8c1.2,0.5,2.4,3,2.1,4.4c-0.3,1.3-2.3,3.2-3.6,3.2c-3,0.1-6.1-0.8-9.2-1.2
				c-3.6-0.5-5.1-2.7-4-5.8C312.4,539,314.8,538,315.9,537.2z M314.1,540.4c-0.1,0.7-0.2,1.5-0.4,2.2c4.2,0.8,8.4,1.6,12.5,2.3
				c0.1-0.6,0.2-1.3,0.3-1.9C322.5,542.1,318.3,541.3,314.1,540.4z"/>
			<path d="M348.1,463c1.8,2.1,3.3,3.9,4.8,5.7c0.3-0.2,0.6-0.4,0.8-0.6c-1.1-1.9-2.2-3.7-3.2-5.7c-0.3-0.5-0.2-1.5,0.1-2
				c0.2-0.3,1.4-0.5,1.6-0.2c3.8,3.9,7.5,7.8,11.2,11.8c0.2,0.2-0.2,1.1-0.5,2.5c-2.5-2.8-4.6-5.2-6.9-7.7
				c-0.9,4.1,6.3,6.2,2.4,10.7C351.1,471.3,346.9,465.5,348.1,463z"/>
			<path d="M341.7,664.2c0.3-2.1,0.5-4.1,0.8-6.1c-1.1-0.1-2.9-0.2-4.8-0.3c0-0.5,0-0.9,0-1.4c4-3,8-5.9,11.8-8.8
				c3.6,1.7,3.3,3.8,1.4,6.3c-2.6,3.3-5,6.8-7.5,10.2C342.9,664.2,342.3,664.2,341.7,664.2z"/>
			<path d="M425,623.8c-0.9,6.5-1.6,11.8-2.3,17c-0.6-0.1-1.2-0.1-1.7-0.2c-0.2-1.6-0.4-3.1-0.6-4.8c-1.1,2.1-2.1,4.1-3.2,6.1
				c-0.5-0.1-1.1-0.3-1.6-0.4c0.7-4.8,0.9-9.7,2.2-14.3C418.3,625.8,421.8,625.3,425,623.8z"/>
			<path d="M425.5,506.4c-1.2,3.3-2,5.5-2.8,7.7c-0.6-0.1-1.2-0.3-1.8-0.4c-0.9-5.4-1.7-10.8-2.6-16.2c0.5-0.1,0.9-0.3,1.4-0.4
				c0.9,2.2,1.8,4.5,2.8,7c0.1-2.5,0.3-4.7,0.4-7.3c1.1,0.4,2.5,0.5,2.6,1c1.1,4.6,2.1,9.1,3,13.8c0.1,0.3-0.6,1.1-1.1,1.2
				c-0.5,0.1-1.5-0.3-1.6-0.7C425.6,510.5,425.6,509.1,425.5,506.4z"/>
			<path d="M352.1,674.6c-0.7-0.8-1.5-1.6-2.2-2.5c4.3-2.8,1.4-6.8,2-10.2c0.3-1.6,2.5-3.9,3.8-3.9c2.4,0,4.8,1.5,7.7,2.5
				C359.2,665.9,355.7,670.1,352.1,674.6z"/>
			<path d="M442.8,637c-0.6-2-1.2-4-2-6.9c-0.9,3.2-1.5,5.6-2.2,8c-0.6-0.1-1.2-0.3-1.8-0.4c-0.5-5.2-0.9-10.3-1.4-15.5
				c0.7-0.2,1.4-0.4,2.1-0.6c0.6,2,1.2,4,2.2,7.2c0.7-3.3,1.2-5.5,1.7-7.8c0.5,0,1.1,0,1.6,0c0.6,5.1,1.2,10.3,1.9,15.4
				C444.2,636.6,443.5,636.8,442.8,637z"/>
			<path d="M434.7,657.2c0-2.6-0.2-4,0.1-5.2c0.1-0.4,1.6-0.5,2.5-0.7c1,4.7,2,9.4,2.9,14.1c0.1,0.4-1.1,0.9-2.2,1.9
				c-0.2-2.6-0.4-4.4-0.6-6.5c-0.8,2.4-1.6,4.7-2.3,6.9c-0.6-0.1-1.1-0.2-1.7-0.3c-0.9-5.1-1.8-10.3-2.7-15.4
				c0.4-0.1,0.8-0.2,1.1-0.3C432.6,653.2,433.4,654.7,434.7,657.2z"/>
			<path d="M414.2,497.5c0.9,6.1,1.7,11.5,2.5,17c-0.5,0.1-1,0.2-1.5,0.3c-0.3-1.6-0.6-3.2-1.1-6.1c-0.3,2.6-0.5,4.1-0.7,5.7
				c-1,0.3-2,0.6-3.2,0.9c-3.9-4.5-0.8-8.5,2.3-13c-2.1,0.8-3.2,1.1-4.4,1.6C406,497,412.4,500.2,414.2,497.5z"/>
			<path d="M397.4,509.1c0.5-7.6,0.5-7.6,3.6-8.9c0.9,4.6,1.8,9.2,2.6,13.8c0.1,0.5-0.7,1.2-1.1,1.8c-0.6-0.6-1.6-1.1-1.6-1.7
				c-0.2-2-0.1-4-1-6.1c-0.6,2.9-1.1,5.8-1.9,9.8c-4.4-5.4-3-11.5-4.8-16.6c0.5-0.2,1-0.4,1.6-0.6
				C395.5,503.2,396.4,505.9,397.4,509.1z"/>
			<path d="M395.7,687.7c-2.2,0.1-4,0.2-6.3,0.3c2.4-3.7,4.7-5.4,8-2.8c0.8,0.7,2,2.2,1.7,2.8c-2,4.2-4.2,8.3-6.7,12.1
				c-0.4,0.5-3.8,0.1-4.5-0.9c-0.9-1.3-0.6-3.5-0.8-5.3c0-0.1,1.1-0.6,1.5-0.4c0.5,0.2,1.1,0.8,1.2,1.4c0.2,0.8,0,1.7,0.6,2.8
				C392.3,694.4,394,691.1,395.7,687.7z"/>
			<path d="M456.2,439.4c-12.5-2.6-25.3-4.2-37.4-8.1c-5.8-1.9-10.6-2.8-16.2-0.9c5-1.8,9.2-4.5,15.4-2c8.8,3.5,18.4,5,27.7,7.3
				c3.6,0.9,7.2,1.7,10.8,2.5C456.4,438.6,456.3,439,456.2,439.4z"/>
			<path d="M460.8,632.6c-0.4-4.4-1-8.4-1.1-12.5c0-1.1,1.3-2.2,2.1-3.3c0.9,0.9,2.3,1.6,2.7,2.7c0.9,2.4,1.5,4.9,2,7.5
				C467.5,631.6,466.4,632.7,460.8,632.6z"/>
			<path d="M376,461.7c0.2-0.4,0.5-0.8,0.6-1.2c0.3-1,0.6-2,0.8-3c0.6,0.5,1.7,1,1.7,1.5c0,1.3-0.1,3.4-0.7,3.7
				c-1.7,0.7-4.9,1.3-5.3,0.6c-1.3-2.2-1.9-5-2.3-7.6c-0.2-1.6,0.4-3.4-0.3-5.3c-0.8,1.3-1.6,2.5-2.5,3.8c-0.5-0.2-1.1-0.4-1.6-0.6
				c0.4-1.7,0.5-3.8,1.5-5.1c0.6-0.8,3.4-0.9,4-0.2c1.3,1.4,2.3,3.5,2.6,5.4c0.4,2.6,0.1,5.4,0.1,8.1
				C375.1,461.7,375.6,461.7,376,461.7z"/>
			<path d="M337.2,87.1c-9.4,5.1-12.7,14.3-16.6,23c-0.4-0.2-0.9-0.4-1.3-0.6c1.8-4.7,3.4-9.5,5.4-14.2c1-2.4,2.2-4.8,3.9-6.7
				C330.7,85.9,333.7,84.6,337.2,87.1z"/>
			<path d="M322.6,633.2c2.2-5.6,9.6-6.7,12.1-12.8c1,1.5,1.5,2.4,2.1,3.3c-1.3,1.2-2.6,2.4-4.2,3.8c2.3-0.3,4.1-0.5,5.9-0.7
				c0.2,0.7,0.4,1.4,0.6,2.1c-2.4,0.8-4.8,1.5-7.2,2.3c-2.7,1-5.3,2.1-7.9,3.2C323.5,634,323,633.6,322.6,633.2z"/>
			<path d="M472.9,483.3c-0.3-1.4-1.1-3-0.7-3.4c2.1-2.1,0.6-3.5-0.1-5.5c-0.6-2,1-4.7,1.6-7.1c1.8,0.5,3.6,0.9,5.2,1.6
				c0.5,0.2,1,1.7,0.8,2.2c-1.5,3.7-3.3,7.3-5,10.9C474.7,482.4,474.1,482.5,472.9,483.3z"/>
			<path d="M495.6,669.5c-2.2-4.2-4.2-7.5-5.6-11.2c-0.4-1.1,1.3-3,2.1-4.5C499.4,658,499.8,659.4,495.6,669.5z"/>
			<path d="M407.5,452c-1.3-1.1-2.6-2.2-4.6-3.8c0,2.2,0,3.7,0,6.6c-3.2-5.7-5.6-10-8-14.4C398.7,438.5,404.6,443.4,407.5,452z"/>
			<path d="M472.9,613.9c-1.9,5.6,5.1,11.9-2.3,17C467,617.1,466.5,615.1,472.9,613.9z"/>
			<path d="M586.4,839.4c2.2,5.5,4.4,11.1,6.7,16.6c-0.3,0.3-0.7,0.5-1,0.8c-3.1-1.9-6.2-3.8-8.6-5.3
				C584.5,847.2,585.5,843.1,586.4,839.4z"/>
			<path d="M412.2,636.3c-0.6,2.9-1,4.7-1.5,6.7c-5.4-3.2-5.5-4.1-2-13.5c-0.9,0.5-1.6,0.9-3.3,2c0.7-2.4,0.7-4,1.6-5.1
				c0.5-0.6,2.7-0.8,3.1-0.3c0.9,1.2,1.8,2.9,1.6,4.2c-0.5,2.4-1.7,4.7-2.9,7.6C409.5,637.5,410.1,637.2,412.2,636.3z"/>
			<path d="M425.2,623c2.6,0,4.4,0,6.5,0c0,4.5,0.3,9-0.2,13.4c-0.2,1.7-2.3,3.1-3.6,4.6c-0.5-0.3-1-0.6-1.5-0.9
				c0.5-1.2,1.1-2.3,1.4-3.5c0.3-1.2,0.4-2.4,0.3-3.6c-0.1-1.5-0.5-3-0.8-4.5c0.4-0.1,0.8-0.1,1.2-0.2
				C427.5,626.6,426.3,624.8,425.2,623z"/>
			<path d="M406.9,435.8c1.6-0.5,3.3-0.9,5.2-1.5c0.7,2.8,1.4,5.1,2.2,8.1c0.3-2.2,0.5-3.9,0.6-5.5c0.1,0,0.3,0,0.4,0
				c0.5,5.4,1,10.8,1.4,16.1c-0.4,0.1-0.7,0.2-1.1,0.3c-0.5-1.3-1.1-2.6-1.6-3.8c-0.6,0.4-1.1,0.9-1.6,1.2c-0.5-3-0.9-5.7-1.4-8.5
				C412.6,438.1,412.3,437.5,406.9,435.8z"/>
			<path d="M352.3,487c-3-1.9-4.4-2.8-5.9-3.7c0.1-0.3,0.2-0.7,0.3-1c1.2,0.1,2.3,0.1,5.2,0.3c-4.1-3.6-7.1-6.2-11-9.6
				c0.5,2,0.8,3,1.1,4.1c-0.6,0.2-1.1,0.4-1.7,0.6c-0.5-1.8-1-3.6-1.5-5.4c1.9,0,4.3-0.8,5.5,0.1c3,2.3,5.8,5,8.1,8
				C353.3,481.5,352.5,483.9,352.3,487z"/>
			<path d="M424.7,947.2c14-4.4,28-8.9,41.9-13.3c0.2,0.5,0.3,1,0.5,1.5c-14,4.4-28.1,8.8-42.1,13.2
				C424.9,948.1,424.8,947.7,424.7,947.2z"/>
			<path d="M453.7,450.9c0.1,2.3,0.3,4.5,0.4,6.8c0.3,0,0.7,0.1,1,0.1c0.5-2.8,1.2-5.6,1.4-8.4c0-0.5-1.5-1.2-2.4-1.7
				c-0.5,0.3-1,0.6-1.5,0.9c0.3-1.2,0.6-2.4,0.8-3.6c1.3,0.4,3.7,0.9,3.7,1.3c0.2,4.5-0.1,9.1-0.4,13.6c0,0.2-2.6,0.7-3.3,0.2
				c-1.2-0.9-2.5-2.5-2.7-3.9c-0.2-1.6,0.8-3.4,1.2-5.1C452.6,451,453.2,450.9,453.7,450.9z"/>
			<path d="M480.3,610.6c0.5,5.8,0.9,10.8,1.4,15.8c-3.5,0.9-5.1,0-5-3.4c0-1.8-0.1-3.6-0.6-5.3C474.9,613.8,476.8,612,480.3,610.6z
				"/>
			<path d="M438.6,510.7c-2.6-3.3-5.8-6.2-7.6-9.9c-1.7-3.4,0.2-5,5.3-4.8c1,4.8,2,9.6,3,14.4C439,510.5,438.8,510.6,438.6,510.7z"
				/>
			<path d="M475.3,5.3c-2.4,0.2-4.8,0.5-7.8,0.8c1.1,1.6,1.9,2.9,2.7,4.2c-0.2,0.4-0.5,0.8-0.7,1.3c-3.4-1.9-6.8-3.7-10.4-5.7
				C462.5,1.8,469.2,1.9,475.3,5.3C475.2,5.3,475.3,5.3,475.3,5.3z"/>
			<path d="M470.2,484.1c8.5,11.2,21,19.1,27.5,32c-9.5-10.3-19-20.7-28.6-31C469.5,484.7,469.9,484.4,470.2,484.1z"/>
			<path d="M483.4,487.1c0-2.7,0-4.8,0-6.6c1.1-0.3,2.6-0.8,4.1-1.2c-0.4-1.2-0.8-2.4-1.4-4.1c1.9,0.8,3.7,1.6,5.7,2.4
				c-3.1,4.6-5.7,8.6-8.6,12.9c-1.8-1.3-3.6-2.7-5.4-4c0.2-0.4,0.4-0.8,0.6-1.2C479.6,485.7,480.8,486.1,483.4,487.1z"/>
			<path d="M480.3,930.4c-0.5,0.8-0.7,1.9-1.4,2.2c-9.9,4.5-19.9,9-29.8,13.3c-1.4,0.6-3,0.6-4.6,0.4c12-5.3,24-10.5,36-15.8
				C480.4,930.6,480.3,930.4,480.3,930.4z"/>
			<path d="M334.4,478.5c4.2,3.6,7.4,6.6,10.9,9.4c2.6,2.2,3.2,4.3,0.3,7.1c-0.5-0.8-1.4-1.5-1.3-2.1c0.5-3.4-0.1-5.5-4.3-4.3
				c-0.2,0.1-1-1.5-1.5-2.3c-0.7-1.4-0.5-4.2-3.3-1.8c-0.3,0.2-1.9-0.5-1.9-0.6C333.5,482.2,333.9,480.6,334.4,478.5z"/>
			<path d="M506.4,474.6c-1.2-13.2-2.4-26.4-3.7-39.5c0.7,0,1.4-0.1,2.1-0.1c0.8,13.2,1.6,26.4,2.4,39.6
				C507,474.6,506.7,474.6,506.4,474.6z"/>
			<path d="M462.6,686.8c0.4,0.2,1,0.3,1.2,0.7c2.4,4.4,4.7,8.9,7.1,13.6c-2.4,1.2-4.5,2.3-6.6,3.4c-0.4-0.3-0.7-0.6-1.1-0.9
				c1-1.3,1.9-2.6,3.1-4.2c-1.4-3.5-3.2-7.8-4.9-12C461.8,687.2,462.2,687,462.6,686.8z"/>
			<path d="M478.3,675.7c0,0.1,0.1,0.9,0.2,1.8c-4-2-4-2.4,1.2-6.5c1.4,3.4,2.8,6.5,3.5,8.2c2.3,1.7,3.8,2.5,4.9,3.7
				c0.3,0.3-0.3,2-0.8,2.4c-0.5,0.3-2,0.1-2.4-0.4C482.5,681.9,480.4,678.7,478.3,675.7z"/>
			<path d="M417.3,348.3c2.6,14.5,1,19.4-5.6,20c3.4-2.9,4.7-5.9,3.3-10.4C414.3,355.1,416.4,351.5,417.3,348.3z"/>
			<path d="M412.8,654.9c2.3-0.4,3.7-0.7,5.3-1c1.2,5.2,2.4,10.4,3.6,15.6c-0.5,0.2-1,0.4-1.6,0.6
				C417.7,665.1,415.3,660.1,412.8,654.9z"/>
			<path d="M491.2,470.5c-9.7-8.2-22.5-11.6-31.2-21.2c10.7,6.6,21.4,13.2,32.1,19.8C491.8,469.6,491.5,470,491.2,470.5z"/>
			<path d="M446.9,508c-1-4.3-1.8-7.7-2.5-11.1c-0.3,0-0.6,0-0.9,0c-0.1,0.8-0.1,1.6-0.2,2.5c-3.8-1.9-3.8-2.3,1.5-6.4
				c1.6,5.6,3.1,10.7,4.7,16.2c-4.5,0.8-7.4,1-6.7-4.7C444.2,505.7,445.1,506.5,446.9,508z"/>
			<path d="M449.5,620.1c0.7-0.2,2.1-1,3.4-0.9c0.9,0.1,2.3,1.4,2.3,2.2c0.1,2.3-0.5,4.6-0.7,6.9c-0.1,1.1,0.3,2.3,0.1,3.4
				c-0.2,1.1-1,2-1.5,3c-0.5-1-1.2-2-1.4-3.1C450.9,628.1,450.3,624.4,449.5,620.1z"/>
			<path d="M564.9,477.7c0.8,2.8,1.2,4.2,1.9,6.5c-5.9-5.5-10.6-0.7-15.5,0.4c-2.6,0.6-5.1,1.7-7.7,2.6c-0.2-0.5-0.4-1.1-0.5-1.6
				C550.2,483,557.4,480.4,564.9,477.7z"/>
			<path d="M395.9,644.9c-0.4-1.5-0.7-3.1-1.3-4.5c-0.5-1.1-1.4-1.9-2.7-3.6c0.4-0.7,1.1-2.3,2-4c-1.6-0.9-3-1.7-5.2-3
				c2.2-0.8,3.4-1.2,5.4-1.9c1.4,5.6,2.7,11,4,16.3C397.4,644.4,396.7,644.7,395.9,644.9z"/>
			<path d="M339.7,507.9c-5-2.8-10.1-5.6-16.1-8.9c2.1-0.9,3.8-2.3,4.4-1.9c4.5,2.9,8.8,6.2,13.1,9.3
				C340.6,506.9,340.2,507.4,339.7,507.9z"/>
			<path d="M440.5,696.6c1.6,0.3,2.8,0.5,4,0.7c-1.2,4.8,2.8,7.1,5.1,10.2c0.4,0.5,0.5,1.2,0.7,1.8c-1.1,0.8-2.3,1.6-3.6,2.5
				C444.7,707,442.8,702.3,440.5,696.6z"/>
			<path d="M491.7,678.2c-2.7-4.7-4.9-8.2-6.8-11.8c-0.4-0.8-0.1-2.1-0.1-3.2c0.9,0.4,2.2,0.5,2.7,1.2c1.6,2.5,3.2,5,4.1,7.7
				C492.2,673.8,491.7,675.9,491.7,678.2z"/>
			<path d="M436.6,695.3c4.1,5.1,3.1,11.2,2.9,17.1c-0.5,0.2-0.9,0.5-1.4,0.7c-0.5-1-1.4-2.1-1.5-3.1
				C436.5,705.1,436.6,700.2,436.6,695.3z"/>
			<path d="M424.6,652.7c1.2,5.2,2.3,10.4,3.6,16.3c-3.5-1.2-5.9-10.3-5.2-15.8C423.6,653,424.1,652.9,424.6,652.7z"/>
			<path d="M430.4,439.1c0,5.6,0,10,0,14.5c-0.4,0.1-0.8,0.1-1.2,0.2c-1.1-5.2-2.2-10.5-3.4-16.1
				C427.3,438.1,429.2,438.7,430.4,439.1z"/>
			<path d="M290.5,267.7c6-7.8,12-15.6,17.9-23.5C304.5,253.6,298.5,261.4,290.5,267.7z"/>
			<path d="M703.5,504.8c3.1-3.6,6.2-7.3,9.5-10.7c0.7-0.7,2.2-0.5,3.3-0.8c-0.5,1-0.8,2.1-1.6,2.9c-3.4,3.3-6.8,6.5-10.3,9.7
				C704.2,505.5,703.9,505.1,703.5,504.8z"/>
			<path d="M371.1,468.4c-4.4-0.5-5.7-3.5-7.4-5.5c-2-2.4-3.7-5-5.5-7.6c1.9-1.5,1.8-1.5,5.7,4.1
				C365.9,462.1,368.1,464.6,371.1,468.4z"/>
			<path d="M492.2,499.5c-2.6-2.4-4.1-3.7-5.5-5c0.2-0.4,0.3-0.7,0.5-1.1c1.5,0.3,3,0.5,4.5,0.8c0.3-1.9,0.5-3.8,0.9-6.4
				c0.9,0.6,3,1.7,2.9,2.2C494.7,493,493.5,495.8,492.2,499.5z"/>
			<path d="M398.3,627.7c1.7,5.1,3.5,10.2,5.2,15.3c-0.8,0.2-1.5,0.5-2.3,0.7c-1.6-5.1-3.3-10.3-4.9-15.4
				C397,628.1,397.7,627.9,398.3,627.7z"/>
			<path d="M262.1,282.3c2.4-1.5,4.8-3.3,7.4-4.5c4.8-2.2,9.7-4.2,14.5-6.2c0.2,0.5,0.4,1,0.6,1.6
				C277.1,276.2,269.6,279.3,262.1,282.3L262.1,282.3z"/>
			<path d="M262.1,282.3c-2.3-0.4-4.5-0.9-6.8-1.2c-3.7-0.5-7.4-1-11.1-1.5c-1.2-0.1-2.5,0-4.1,0C248.7,273.6,255.1,280,262.1,282.3
				C262.1,282.3,262.1,282.3,262.1,282.3z"/>
			<path d="M480.4,930.6c6.8-4.1,13.5-8.3,20.3-12.4c0.3,0.6,0.7,1.2,1,1.8c-7.1,3.5-14.3,7-21.4,10.5
				C480.3,930.4,480.4,930.6,480.4,930.6z"/>
			<path d="M39.4,434.1c-4.6,5.6-9.1,11.1-13.3,16.3C27,444.6,35.9,434,39.4,434.1z"/>
			<path d="M398.3,455.1c-3.1,0.6-5.1,1-6.2,1.2c0.1-2.6,0.7-4.6,0.1-6.2c-0.7-2-2.5-3.6-3.7-5.4c0.3-0.2,0.7-0.5,1-0.7
				C392.2,447.4,395,450.8,398.3,455.1z"/>
			<path d="M437.1,456.2c-0.3-4.9-0.6-9.8-0.9-14.7c2.9-0.1,3.4,3,2.2,14.8C437.9,456.2,437.5,456.2,437.1,456.2z"/>
			<path d="M475.2,5.3c1.2,1.9,2.4,3.8,3.6,5.7c-0.5,0.5-1,1-1.5,1.5c-2.5-1.5-5.1-3-8-4.7C472,6.8,473.6,6,475.2,5.3
				C475.3,5.3,475.2,5.3,475.2,5.3z"/>
			<path d="M481.3,723.5c2.1,1,4.2,2.1,6.3,3.2c-0.1,0.6,0.1-0.2,0.2-1c1.3,0.6,2.6,1.3,4.2,2.1C486.7,730,486.7,730,481.3,723.5z"
				/>
			<path d="M176.4,516.2c1.2-2.5,2.5-5,3.8-7.6c1,6.1-0.7,11-4.6,13.1c0.3-1.9,0.6-3.8,0.9-5.7C176.5,516,176.4,516.2,176.4,516.2z"
				/>
			<path d="M23.6,468.2c-1.3,5.5-2.7,11-4,16.6c-0.5-0.1-1-0.2-1.5-0.4c1.4-5.5,2.7-11,4.1-16.5C22.7,468,23.2,468.1,23.6,468.2z"/>
			<path d="M82.6,436.7c-5.3,0-10.6,0-15.9,0c0-0.3,0-0.6,0-1c5.3-0.3,10.6-0.6,15.8-0.8C82.6,435.5,82.6,436.1,82.6,436.7z"/>
			<path d="M465.8,460.1c2.6,2.6,2.6,2.6,0.3,11.2c-0.4,0-0.8-0.1-1.2-0.1C465.1,467.9,465.4,464.4,465.8,460.1z"/>
			<path d="M640.2,546.3c-2.5,2.3-5,4.5-7.9,7.1c-1.1-6.5,4.7-5.7,6.6-8.5C639.4,545.4,639.8,545.9,640.2,546.3z"/>
			<path d="M185.4,478.7c-1.1-3.6-2.1-7.1-3.2-10.7C184.6,471.2,189,473.7,185.4,478.7z"/>
			<path d="M336.3,132.3c2.9,3.6,5.4,6.7,8.3,10.1C339.7,140.9,336.2,138.6,336.3,132.3z"/>
			<path d="M652.3,541.6c-3.6,2.3-7.2,4.6-10.8,6.8c-0.4-0.6-0.7-1.2-1.1-1.8c3.7-2.1,7.4-4.1,11.2-6.2
				C651.9,540.9,652.1,541.2,652.3,541.6z"/>
			<path d="M44.8,426c3.2-2.8,6.4-5.5,9.7-8.4C54.6,421.8,54.6,421.8,44.8,426z"/>
			<path d="M473.9,134.7c-4.4,0.4-9,0.6-13.5,1.3c-1.1,0.2-1.8,2.3-3,4c-1.7-0.2-4.4-0.4-7.8-0.8c-0.1-0.1-0.8-1.4-1.5-2.6
				c-0.3,0.1-0.7,0.2-1,0.2c-0.2,1.7-0.4,3.4-0.7,5.6c-3.4-9.4-5.6-19.1-14-25.7c1.6,0.7,3.2,1.3,4.8,2c3.5,1.6,6.9,4.9,10.9,0.2
				c-3.2-4.2-5.7-9.9-13.4-11.6c1,2.7,1.7,4.4,2.4,6.3c-1.5,0.7-3.1,1.5-4.2,2.1c-1-1.4-1.8-2.7-2.7-3.8c-3.5-4.2-3.7-8.3,0.5-13.3
				c3.8-4.5,8-9,14.5-9.8c1.2-0.1,2.2-1.3,3.4-1.8c6.6-2.8,13.7-1.2,19,4.2c1.3,1.4,3.1,2.3,5.1,3.8c0.5-1.8,1-3.3,1.4-4.7
				c0.4-0.1,0.8-0.3,1.2-0.4c0.6,1.6,1,3.2,1.8,4.7c1.7,3.4,2.9,7.2,5.3,10c3,3.5,4.3,6.6,2.4,11.1c-1.7,4.1-2.5,8.5-3.6,12.4
				c-2.3-3.3-3.7-3-4.5,1.5C476.3,131.3,474.9,132.9,473.9,134.7z M458.7,93.1c-18.3,0.7-21.2,2.2-23.7,12
				c6.7-1.2,13.4-2.4,19.8-3.6c-1.1-1-2.3-2.1-4.6-4.2C455.5,98.7,458.1,97.8,458.7,93.1z"/>
			<path d="M456.8,159c0.8-1.7,1.4-2.8,1.9-3.9c1.3,1,2.6,1.6,3.3,2.7c0.4,0.7,0.4,2.5-0.2,2.8c-4.7,3.3-9.5,6.4-14.3,9.6
				c-0.6-0.4-1.2-0.8-1.8-1.1c0.4-1.7,0.8-3.5,1.3-5.2c1-3.1,4.9-4.4,4.8-8.2c0-0.6,2-1.2,3.1-1.7c0.3,0.9,0.5,1.8,0.8,2.6
				C456,157.1,456.2,157.7,456.8,159z"/>
			<path d="M486.6,174.9c-3.8-0.4-8.7,3-13.2-0.9c7.6-6.8,15.9-3.8,17.8,2.1c0.3,0.9-0.4,2.5-1.1,3.3c-0.4,0.4-2.3-0.1-2.9-0.7
				C486.7,178.1,486.9,176.7,486.6,174.9z"/>
		</g>
	</g>
</g>
</svg>
